/* XPM */
static char *result[] = {
/* columns rows colors chars-per-pixel */
"72 72 66 1 ",
"  c #202020",
". c #222121",
"X c #232323",
"o c #262525",
"O c gray15",
"+ c #292828",
"@ c #2C2B2B",
"# c #302E2E",
"$ c #333131",
"% c #343333",
"& c #393737",
"* c #3A3A3A",
"= c #403E3E",
"- c #72681A",
"; c #434343",
": c #474545",
"> c #494747",
", c #504E4E",
"< c gray33",
"1 c #626262",
"2 c gray40",
"3 c #676666",
"4 c #6F6F6F",
"5 c #717070",
"6 c #7A7979",
"7 c #7E7D7D",
"8 c #FDDF12",
"9 c #FBE12E",
"0 c #FCE22E",
"q c #FBE33C",
"w c #A79C4F",
"e c #FAE44A",
"r c #F9E558",
"t c #F8E666",
"y c #F9E666",
"u c #F9E766",
"i c #F8E774",
"p c #808080",
"a c #898989",
"s c #8A8989",
"d c #8F8E8E",
"f c #959494",
"g c gray59",
"h c gray62",
"j c #B6B398",
"k c #ACACAC",
"l c #B1B0A2",
"z c gray74",
"x c #C0B985",
"c c #F7E882",
"v c #F6E990",
"b c #F7EA90",
"n c #F6EA9E",
"m c #F6EB9E",
"M c #F6ECAC",
"N c #F4EDBA",
"B c #F5EDBA",
"V c #F5EEBA",
"C c #D8D8D8",
"Z c gray85",
"A c gray86",
"S c #F4EEC8",
"D c #F4EFC8",
"F c #F4F0D6",
"G c #F3F1E4",
"H c gray95",
/* pixels */
"HHHHHHHHHHHHHHHHHHHHHHHHHHHHHHHHHHkkHHHHHHHHHHHHHHHHHHHHHHHHHHHHHHHHHHkk",
"HHHHHHHHHHHHHHHHHHHHHHHHHHHHHHHHHHkkHHHHHHHHHHHHHHHHHHHHHHHHHHHHHHHHHHkk",
"HHHHHHHHHHHHHHHHHHHHHHHHHHHHHHHHHHkkHHHHHHHHHHHHHHHHHHHHHHHHHHHHHHHHHHkk",
"HHHHHHHHHHHHHHHHHHHHHHHHHHHHHHHHHHkkHHHHHHHHHHHHHHHHHHHHHHHHHHHHHHHHHHkk",
"HHHHHHHHHHHHHHHHHHHHHHHHHHHHHHHHHHkkHHHHHHHHHHHHHHHHHHHHHHHHHHHHHHHHHHkk",
"HHHHHHHHHHHHHHHHHHHHHHHHHHHHHHHHHHkkHHHHHHHHHHHHHHHHHHHHHHHHHHHHHHHHHHkk",
"HHHHHHHHHHHHHHHHHHHHHHHHHHHHHHHHHHkkHHHHHHHHHHHHHHHHHHHHHHHHHHHHHHHHHHkk",
"HHHHHHHHHHHHHHHHHHHHHHHHHHHHHHHHHHkkHHHHHHHHHHHHHHHHHHHHHHHHHHHHHHHHHHkk",
"HHHHHHHHHHHHHHHHHHHHHHHHHHHHHHHHHHkkHHHHHHHHHHHHHHHHHHHHHHHHHHHHHHHHHHkk",
"HHHHHHHHHHHHHHHHHHHHHHHHHHHHHHHHHHkkHHHHHHHHHHHHHHHHHHHHHHHHHHHHHHHHHHkk",
"HHHHHHHHHHHHHHHHHHHHHHHHHHHHHHHHHHkkHHHHHHHHHHHHHHHHHHHHHHHHHHHHHHHHHHkk",
"HHHHHHHHHHHHHHHHHHHHHHHHHHHHHHHHHHkkHHHHHHHHHHHHHHHHHHHHHHHHHHHHHHHHHHkk",
"HHHHHHHHHHHHHHHHHHHHHHHHHHHHHHHHHHkkHHHiuuVHHHHHHHHHHHHHHHHHHHHHHHHHHHkk",
"HHHHHHHHHHHHHHHHHHHHHHHHHHHHHHHHHHkkHHH988mHHHHHHHHHHHHHHHHHHHHHHHHHHHkk",
"HHHHHHHHHHHHHHHHHHHHHHHHHHHHHHHHHHkkHHH988mHHHHHHHHHHHHHHHHHHHHHHHHHHHkk",
"HHHHHHHHHHHHHHHHHHHHHHHHHHHHHHHHHHklNNNeeeVHHGNNNHHHHHHHHHHHHHHHHHHHHHkk",
"kkkkkkkkkkkkkkkkkkkkkkkkkkkkkkkkkkkx888jkkkkkx888kkkkkkkkkkkkkkkkkkkkkkk",
"kkkkkkkkkkkkkkkkkkkkkkkkkkkkkkkkkkkx888jkkkkkx888kkkkkkkkkkkkkkkkkkkkkkk",
"HHHHHHHHHHHHHHHHkkHHHHHHHHHHHHHHHHHN888FHHHHHN888HHHHHkkHHHHHHHHHHHHHHHH",
"HHHHHHHHHHHHHHHHkkHHHHHHHHHHHe99MHHN888FHHHHHHFFFHHHHHkkHHHHHHHHHHHHHHHH",
"HHHHHHHHHHHHHHHHkkHHHHHHHHHHH988mHHN888FHHHHHHHHHHHHHHkkHHHHHHHHHHHHHHHH",
"HHHHHHHHHHHHHHHHkkHHHHHHHHHHH988mHHN888FHHHHHHHHHHHHHHkkHHHHHHHHHHHHHHHH",
"HHHHHHHHHHHHHHHHkkHHHHHHHHHHHMnncuur888ruuuuuvHHHHHHHHkkHHHHHHHHHHHHHHHH",
"HHHHHHHHHHHHHHHHkkHHHHHHHHHHHHHHt888888888888eHHHHHHHHkkHHHHHHHHHHHHHHHH",
"HHHHHHHHHHHHHHHHkkHHHHHHHHHHHHHHt888888888888eHHHHHHHHkkHHHHHHHHHHHHHHHH",
"HHHHHHHHHHHHHHHHkkHHHHHHHHHHHSNNteeq888888888eHHHHHHHHkkHHHHHHHHHHHHHHHH",
"HHHHHHHHHHHHHHHHkkHHHHHHHHHHH988mHHN888888888eHHHHHHHHkkHHHHHHHHHHHHHHHH",
"HHHHHHHHHHHHHHHHkkHHHHHHHHHHH988mHHN8888888880nNHHHHHHkkHHHHHHHHHHHHHHHH",
"HHHHHHHHHHHHHHHHkkHHHHHHHHHHH988mHHN88888888888yHHHHHHkkHHHHHHHHHHHHHHHH",
"HHHHHHHHHHHHHHHHkkHHHHHHHHHHHHHHHHHz   CHHt880ymHHHHHHkkHHHHHHHHHHHHHHHH",
"HHHHHHHHHHHHHHHHkkHHHHHHHHHHHHHHHHHz   CHHt88eHHHHHHHHkkHHHHHHHHHHHHHHHH",
"HHHHHHHHHHHHHHHHkkHHHHHHHHHHHHHHHHHz   CHHt88eHHHHHHHHkkHHHHHHHHHHHHHHHH",
"HHHHHHHHHHHHHHHHkkHHHHHHHHHHHs777775###ZHHBnnMHHHHHHHHkkHHHHHHHHHHHHHHHH",
"HHHHHHHHHHHHHHHHkkHHHHHHHHHHH,&&&&&&&&&AHHHHHHHHHHHHHHkkHHHHHHHHHHHHHHHH",
"kkkkkkkkkkkkkkk88kkkkkkkkkkkk:&&&&&&&&&hkkkkkkkkkkkkkkkkkkkkkkkkkkkkkkkk",
"kkkkkkkkkkkkkkk88kkkkkgpppppp=&&&&&&&&&6pppppdkkkkkkkkkkkkkkkkkkkkkkkkkk",
"kkHHHHHHHHHHHHHHHHHHHHf&&&&&&&&&&&&&&&&&&&&&&3HHHHHHHHHHHHHHHHHHHHHHHHHH",
"kkHHHHHHHHHHHHHHHHHHHHf&&&&&&&&&&&&&&&&&&&&&&3HHHHHHHHHHHHHHHHHHHHHHHHHH",
"kkHHHHHHHHHHHHHHHHHHHHf&&&&&&&&&&&&&&&&&&&&&&3HHHHHHHHHHHHHHHHHHHHHHHHHH",
"kkHHHHHHHHHHHHHHHHH,&&&&&&&&&&&&&&&&&&&&&&&&&3HHHHHHHHHHHHHHHHHHHHHHHHHH",
"kkHHHHHHHHHHHHHHHHH,&&&&&&&&&&&&&&&&&&&&&&&&&3HHHHHHHHHHHHHHHHHHHHHHHHHH",
"kkHHHHHHHHHHHHHHHHH,&&&&&&&&&&&&&&&&&&&&&&&&&3HHHHHHHHHHHHHHHHHHHHHHHHHH",
"kkHHHHHHHHHHHHHHHHH,&&&&&&&&&&&&&&&&&&&&&&&&&=4w8yHHHHHHHHHHHHHHHHHHHHHH",
"kkHHHHHHHHHHHHHHHHH,&&&&&&&&&&&&&&&&&&&&&&&&&$ -8yHHHHHHHHHHHHHHHHHHHHHH",
"kkHHHHHHHHHHH88HHHH,&&&&&&&&&&&&&&&&&&&&&&&&&$   HHHHHHHHHHHHHHHHHHHHHHH",
"kkHHHHHHHHHHH88HHHH>##%&&&&&&&&&&&&&&&&&&&$##@   HHHHHHHHHHHHHHHHHHHHHHH",
"kkHHHHHHHHHHHHHHHHH*  @&&&&&&&&&&&&&&&&&&&+      HHHHHHHHHHHHHHHHHHHHHHH",
"kkHHHHHHHHHHHHHHHHH*  @&&&&&&&&&&&&&&&&&&&+      HHHHHHHHHHHHHHHHHHHHHHH",
"kkHHHHHHHHHHHHHHHHH*  @&&&&&&&&&&&&&&&&&&&+      HHHHHHHHHHHHHHHHHHHHHHH",
"kkHHHHHHHHHHHHHHHHH*     o&&&&&&&&&&&&&X         HHHHHHHHbeMHHHHHHHHHHHH",
"kkHHHHHHHHHHHHHHHHH*     o&&&&&&&&&&&&&X         HHHHHHHHt8mHHHHHHHHHHHH",
"kkHHHHHHHHHHHHHHHHH*     o&&&&&&&&&&&&&X         HHHHHHHHDBGHHHHHHHHHHHH",
"kkkkkkkkkkkkkkkkkkkaaa<  .OOOOOOOOOOOOO      *aaakkkkkkkkkkkkkkkkkkkkkkk",
"kkkkkkkkkkkkkkkkkkkkkk2                      ;kkkkkkkkkkkkkkkkkkkkkkkkkk",
"HHHHHHHHHHHHHHHHHHkkHHa                      <HHHHHHkkHHHHHHHHHHHHHHHHHH",
"HHHHHHHHHHHHHHHHHHkkHHa                      <HHHHHHkkHHHHHHHHHHHHHHHHHH",
"HHHHHHHHHHHHHHHHHHkkHHa                      <HHHHHHkkHHHHHHHHHHHHHHHHHH",
"HHHHHHHHHHHHHHHHHHkkHHa                      <HHHHHHkkHHHHHHHHHHHHHHHHHH",
"HHHHHHHHHHHHHHHHHHkkHHg******          ******1HHHHHHkkHHHHHHHHHHHHHHHHHH",
"HHHHHHHHHHHHHHHHHHkkHHHHHHHHH*         CHHHHHHHHHHHHkkHHHHHHHHHHHHHHHHHH",
"HHHHHHHHHHHHHHHHHHkk88HHHHHHH*         CHHHHHHHHHHHHkkHHHHHHHHHHHHHHHHHH",
"HHHHHHHHHHHHHHHHHHkk88HHHHHHH*         CHHHHHHHHHHHHkkHHHHHHHHHHHHHHHHHH",
"HHHHHHHHHHHHHHHHHHkkHHHHHHHHHzzzzzzzzzzHHHHn8yHHHHHHkkHHHHHHHHHHHHHHHHHH",
"HHHHHHHHHHHHHHHHHHkkHHHHHHHHHHHHHHHHHHHHHHHn8yHHHHHHkkHHHHHHHHHHHHHHHHHH",
"HHHHHHHHHHHHHHHHHHkkHHHHHHHHHHHHHHHHHHHHHHHHHHHHHHHHkkHHHHHHHHHHHHHHHHHH",
"HHHHHHHHHHHHHHHHHHkkHHHHHHHHHHHHHHHHHHHHHHHHHHHHHHHHkkHHHHHHHHHHHHHHHHHH",
"HHHHHHHHHHHHHHHHHHkkHHHHHHHHHHHHHHHHHHHHHHHHHHHHHHHHkkHHHHHHHHHHHHHHHHHH",
"HHHHHHHHHHHHHHHHHHkkHHHHHHHHHHHHHHHHHHHHHHHHHHHHHHHHkkHHHHHHHHHHHHHHHHHH",
"HHHHHHHHHHHHHHHHHHkkHHHHHHHHHHHHHHHHHHHHHHHHHHHHHHHHkkHHHHHHHHHHHHHHHHHH",
"HHHHHHHHHHHHHHHHHHkkHHHHHHHHHHHHHHHHHHHHHHHHHHHHHHHHkkHHHHHHHHHHHHHHHHHH",
"kkkkkkkkkkkkkkkkkkkkkkkkkkkkkkkkkkkkkkkkkkkkkkkkkkkkkkkkkkkkkkkkkkkkkkkk",
"kkkkkkkkkkkkkkkkkkkkkkkkkkkkkkkkkkkkkkkkkkkkkkkkkkkkkkkkkkkkkkkkkkkkkkkk"
};
