/* XPM */
static char *bomb[] = {
/* columns rows colors chars-per-pixel */
"36 36 57 1 ",
"  c #3C381E",
". c #202020",
"X c #222121",
"o c #232323",
"O c gray15",
"+ c #282727",
"@ c #292828",
"# c gray16",
"$ c #2C2B2B",
"% c #2D2D2D",
"& c #302E2E",
"* c #323232",
"= c #363434",
"- c #393737",
"; c #3A3A3A",
": c #434141",
"> c #434343",
", c #474646",
"< c #504E4E",
"1 c gray33",
"2 c #555454",
"3 c #5C5A5A",
"4 c #6F6F6F",
"5 c #7E7D7D",
"6 c #FDDF12",
"7 c #FCE12E",
"8 c #D4C55F",
"9 c #FAE44A",
"0 c #F9E558",
"q c #F9E766",
"w c #898989",
"e c #8E8D8D",
"r c #959494",
"t c #9F9E9E",
"y c #B6B299",
"u c gray64",
"i c gray65",
"p c #ACABAB",
"a c #ACACAC",
"s c #B1AFA2",
"d c gray69",
"f c gray74",
"g c #C0B985",
"h c #F7E882",
"j c #F6EA90",
"k c #F6EB9E",
"l c #F6ECAC",
"z c #F4EDBA",
"x c #F5EDBA",
"c c #CACACA",
"v c gray81",
"b c #D8D8D8",
"n c #F4EFD6",
"m c #F3F0D6",
"M c #F4F0D6",
"N c #F3F1E4",
"B c gray95",
/* pixels */
"BBBBBBBBBBBBBBBBBaBBBBBBBBBBBBBBBBBa",
"BBBBBBBBBBBBBBBBBaBBBBBBBBBBBBBBBBBa",
"BBBBBBBBBBBBBBBBBaBBBBBBBBBBBBBBBBBa",
"BBBBBBBBBBBBBBBBBaBBBBBBBBBBBBBBBBBa",
"BBBBBBBBBBBBBBBBBaBnzNBBBBBBBBBBBBBa",
"BBBBBBBBBBBBBBBBBaBh6zBBBBBBBBBBBBBa",
"BBBBBBBBBBBBBBBBBsqhknNqlBBBBBBBBBBa",
"BBBBBBBBBBBBBBBBBy6hBBM6hBBBBBBBBBBa",
"aaaaaaaaaaaaaa86gy68aaaaaaaaaaaaaaaa",
"BBBBBBBBaBBBBBk9kk6qzzzBBBBaBBBBBBBB",
"BBBBBBBBaBBBBBBB9666667BBBBaBBBBBBBB",
"BBBBBBBBaBBBBBlqkj66667BBBBaBBBBBBBB",
"BBBBBBBBaBBBBBh6zn66667BBBBaBBBBBBBB",
"BBBBBBBBaBBBBBBBBb.wB97mBBBaBBBBBBBB",
"BBBBBBBBaBBBBBvppt+eBj09BBBaBBBBBBBB",
"BBBBBBBBaBBBBBr----rBBBBBBBaBBBBBBBB",
"BBBBBBBBaBBr553----355wBBBBaBBBBBBBB",
"aaaaaaa88pp2----------,paaaaaaaaaaaa",
"aBBBBBBBBp------------<BBBBBBBBBBBBB",
"aBBBBBBBBp------------:ucBBBBBBBBBBB",
"aBBBBBBBBp------------=.wBBBBBBBBBBB",
"aBBBBBBBBi@=---------$+ 7BBBBBBBBBBB",
"aBBBBBjqBu.*---------O..wBBBBBBBBBBB",
"aBBBBBBBBuo.o--;---$....wBBBBBBBBBBB",
"aBBBBBBBBf4%.%&&&&&@..%4dBBBnzBBBBBB",
"aBBBBBBBBBB2..........;BBBBBzlBBBBBB",
"aaaaaaaaaaa>..........*aaaaappppaaaa",
"BBBBBBBBBaB2..........;BBBaBBBBBBBBB",
"BBBBBBBBBaBBBBw....wBBBBBBpBBBBBBBBB",
"BBBBBBBBBaBBBBd4444dBBBBBBpBBBBBBBBB",
"BBBBBBBBBa6BBBBBBBBBBBBBBBpBBBBBBBBB",
"BBBBBBBBBaBBBBBBBBBBBM7BBBpBBBBBBBBB",
"BBBBBBBBBaBBBBBBBBBBBBBBBBaBBBBBBBBB",
"BBBBBBBBBaBBBBBBBBBBBBBBBBaBBBBBBBBB",
"BBBBBBBBBaBBBBBBBBBBBBBBBBaBBBBBBBBB",
"aaaaaaaaaaaaaaaaaaaaaaaaaaaaaaaaaaaa"
};
