/* XPM */
static char *bomb1706048921[] = {
/* columns rows colors chars-per-pixel */
"73 72 86 1 ",
"  c None",
". c #202020",
"X c gray13",
"o c gray15",
"O c #292828",
"+ c #2C2B2B",
"@ c #2D2D2D",
"# c #2E2D2D",
"$ c #2F2E2E",
"% c #302E2E",
"& c #333131",
"* c #323232",
"= c #343232",
"- c #363434",
"; c #393737",
": c #3A3A3A",
"> c #57501D",
", c #434141",
"< c #474646",
"1 c #504E4E",
"2 c gray33",
"3 c #555555",
"4 c #5B5A5A",
"5 c #5F5F5F",
"6 c #676565",
"7 c #6F6F6F",
"8 c #717070",
"9 c #777777",
"0 c #7E7D7D",
"q c #FDDF12",
"w c #F3D825",
"e c #E8D239",
"r c #FCE020",
"t c #FBE12E",
"y c #FCE12E",
"u c #DECC4C",
"i c #D9C955",
"p c #E4CF42",
"a c #FAE34A",
"s c #FAE44A",
"d c #F9E558",
"f c #F8E666",
"g c #F9E666",
"h c #F8E774",
"j c #808080",
"k c #888888",
"l c #8A8989",
"z c #969494",
"x c #B6B299",
"c c #B6B399",
"v c gray64",
"b c gray67",
"n c #ACABAB",
"m c #ACACAC",
"M c gray69",
"N c gray71",
"B c #B8B7B7",
"V c gray74",
"C c gray",
"Z c #C0B985",
"A c #F7E882",
"S c #F7E982",
"D c #F8E882",
"F c #F6E990",
"G c #F6EA9E",
"H c #F6EB9E",
"J c #F6ECAC",
"K c #F0E9B5",
"L c #F5ECBA",
"P c #F4EDBA",
"I c #F5EDBA",
"U c #C1C1C1",
"Y c #C4C3C3",
"T c #CACACA",
"R c #D8D8D8",
"E c gray86",
"W c #F3EEC8",
"Q c #F4EEC8",
"! c #F3EFD6",
"~ c #F4EFD6",
"^ c #F3F0D6",
"/ c gray90",
"( c #E9E9E9",
") c #F3F1E4",
"_ c #F1F1F1",
"` c gray95",
/* pixels */
"___```````````````````````````````Nm(`````````````````````````````````Nm ",
"__````````````````````````````````Nm(`````````````````````````````````Nm ",
"_`````````````````````````````````Nm(`````````````````````````````````Nm ",
"_`````````````````````````````````Nm(`````````````````````````````````Nm ",
"_`````````````````````````````````Nm(`````````````````````````````````Nm ",
"_`````````````````````````````````Nm(`````````````````````````````````Nm ",
"_`````````````````````````````````Nm(`````````````````````````````````Nm ",
"_`````````````````````````````````Nm(`````````````````````````````````Nm ",
"_`````````````````````````````````Nm(_````````````````````````````````Nm ",
"_`````````````````````````````````Nm(_`DggJ```````````````````````````Nm ",
"_`````````````````````````````````Nm(__aqqS````_``````````````````````Nm ",
"_`````````````````````````````````Nm(__aqqS````_``````````````````````Nm ",
"_`````````````````````````````````NmKWLfsaJ___III)````````````````````Nm ",
"_`````````````````````````````````NxqqqL````_^qqq^````````````````````Nm ",
"_`````````````````````````````__``NxqqqL````_^qqq^````````````````````Nm ",
"_``````````````````````````````_``NxqqqL````_^qqq^````````````````````Nm ",
"mmmmmmmmmmmmmmmmmmmmmmmmmmmmmpqwimmcqqqZmmmmmmcccmmmmmmmmmmmmmmmmmmmmmmm ",
"mmmmmmmmmmmmmmmmmmmmmmmmmmmmmeqqummcqqqcmmmmmmmmmmmmmmmmmmmmmmmmmmmmmmmm ",
"__``````````````Nm(``````````aqqg``^qqqI``````````````Nm(``````````````` ",
"__``````````````Nm(``````````IJGSggsqqqsfffggh````````Nm(``````````````` ",
"_```````````````Nm(````````````_Hqqqqqqqqqqqqt````````Nm(``````````````` ",
"_```````````````Nm(````````````_Hqqqqqqqqqqqqt````````Nm(``````````````` ",
"_```````````````Nm(``````````QIIDsssqqqqqqqqqt````````Nm(``````````````` ",
"_```````````````Nm(``````````sqqf__^qqqqqqqqqy````````Nm(``````````````` ",
"_```````````````Nm(``````````aqqf_`^qqqqqqqqqy````````Nm(``````````````` ",
"_```````````````Nm(``````````sqqg`_^qqqqqqqqqy````````Nm(``````````````` ",
"_```````````````Nm(````````````````R..XC_`Sqqy__``````Nm(``````````````` ",
"_```````````````Nm(````````````````R...C__SqqrHI``````Nm(``````````````` ",
"_```````````````Nm(```````````_``__R...C``Sqqqqs``````Nm(``````````````` ",
"_```````````````Nm(``````````z000008$$$U``QHHFgD``````Nm(``````````````` ",
"_```````````````Nm(``````````6:;:;;;;;;Y``````````````Nm(``````````````` ",
"_```````````````Nm(``````````6;;;;;;;;;Y``````````````Nm(``````````````` ",
"_```````````````Nm(```Rnnnnnb4;;;;;;;;;lnnnnnB````````Nm(``````````````` ",
"_```````````````Nm(``_m;;;;;;;;;;;;;;;;;;;;;;1`_``````Nm(``````````````` ",
"mmmmmmmmmmmmmmmwqcmmmmj;;;;;;;;;;;;;;;;;;;;;;<mmmmmmmmmmmmmmmmmmmmmmmmmm ",
"mmmmmmmmmmmmmmmwqcmmmmj;;;;;;;;;;;;;;;;;;;;;;<mmmmmmmmmmmmmmmmmmmmmmmmmm ",
"nm(_```````````````6;;;;;;;;;;;;;;;;;;;;;;;;:1`````````````````````````` ",
"bm(_```````````````6;;;;;;;;;;;;;;;;;;;;;;;;;1`_```````````````````````` ",
"mm(_```````````````6;;;;;;;;;;;;;;;;;;;;;;;;;1__`__````````````````````` ",
"mm(````````````````6;;;;;;;;;;;;;;;;;;;;;;;;;,788/`````````````````````` ",
"mm(````````````````6;;;;;;;;;;;;;;;;;;;;;;;;;-..XR`````````````````````` ",
"bm(_``````````````_6;;;;;;;;;;;;;;;;;;;;;;;;;=...R`````````````````````` ",
"bm(_```````````````5%%=;;;;;;;;;;;;;;;;;;;=%%$.>qs`````````````````````` ",
"bm(_```````````````3..O;;;;;;;;;;;;;;;;;;;+....>qs`````````````````````` ",
"mm(``````````yq^``_2..O;;;;;;;;;;;;;;;;;;;+......R_````````````````````` ",
"mm(``````````yq^```2..O;;;;;;;;;;;;;;;;;;;+......R`````````````````````` ",
"mm(````````````````3......;;;;;;;;;;;;;o........XR`````````````````````` ",
"bm(```````````````_2......;;;;;;;;;;;;;o.........R`````````````````````` ",
"bm(_```````````````3XX....;;;;;;;;;;;;;o......XX.R_````````````````````` ",
"bm(_```````````````TCCkX..oooooooooooooX.....$CCC_```````HsH```````````` ",
"mm(_````````````````__vX.....................:_``````````DqD```````````` ",
"mm(`````````````````__vX.....................:__`````````^I^```````````` ",
"mmmmmmmmmmmmmmmmmmmmmm9X....................X*nmmmmmmmmmmmmmmmmmmmmmmmmm ",
"bmmmmmmmmmmmmmmmmmmmmm9X....................X*mmmmmmmmmmmmmmmmmmmmmmmmmm ",
"___```````````````Nm(_vX....................X:``````Nm(````````````````` ",
"__```````````````_Nm(_M::::::..........::::::3``````Nm(````````````````` ",
"_`````````````````Nm(```````_2.........C````````````Nm(````````````````` ",
"_`````````````````Nm(```````_2.........C````````````Nm(````````````````` ",
"_`````````````````Nm(```````_3XX.......C````````````Nm(````````````````` ",
"_`````````````````Nm(``````__TCCCVVVVVV/````````````Nm(````````````````` ",
"_`````````````````Nmwq^`````````````____````````````Nm(````````````````` ",
"_`````````````````Nmwq^`````````````__``````````````Nm(````````````````` ",
"_`````````````````Nm(`````````````````````_Iqs``````Nm(````````````````` ",
"_`````````````````Nm(`````````````````````_Iqs``````Nm(````````````````` ",
"_`````````````````Nm(```````````````````````````````Nm(````````````````` ",
"_`````````````````Nm(```````````````````````````````Nm(````````````````` ",
"_`````````````````Nm(```````````````````````````````Nm(````````````````` ",
"_`````````````````Nm(```````````````````````````````Nm(````````````````` ",
"_``````````````_``Nm(```````````````````````````````Nm(````````````````` ",
"_``````````````_``Nm(```````````````````````````````Nm(````````````````` ",
"mmmmmmmmmmmmmmmmmmmmmmmmmmmmmmmmmmmmmmmmmmmmmmmmmmmmmmmmmmmmmmmmmmmmmmmm ",
"mmmmmmmmmmmmmmmmmmmmmmmmmmmmmmmmmmmmmmmmmmmmmmmmmmmmmmmmmmmmmmmmmmmmmmmm "
};
