/* XPM */
static char *result[] = {
/* columns rows colors chars-per-pixel */
"72 72 71 1 ",
"  c #202020",
". c #222121",
"X c #232323",
"o c #262525",
"O c gray15",
"+ c #292828",
"@ c #2C2B2B",
"# c #302E2E",
"$ c #313131",
"% c #333131",
"& c #343333",
"* c #393737",
"= c #3A3A3A",
"- c #403E3E",
"; c #72681A",
": c #444343",
"> c #474545",
", c gray28",
"< c #494747",
"1 c #4C4C4C",
"2 c #504E4E",
"3 c gray33",
"4 c #565454",
"5 c #676666",
"6 c #6F6F6F",
"7 c #717070",
"8 c #7E7D7D",
"9 c #FDDF12",
"0 c #E9D238",
"q c #FBE12E",
"w c #FBE33C",
"e c #CABF72",
"r c #C5BC7C",
"t c #DECC4C",
"y c #DFCC4C",
"u c #D4C55F",
"i c #E4CF42",
"p c #FAE44A",
"a c #CFC269",
"s c #F8E666",
"d c #F9E666",
"f c #F9E766",
"g c #F8E774",
"h c #898989",
"j c #8A8989",
"k c #959494",
"l c #9B9B9B",
"z c #A0A0A0",
"x c #ACABAB",
"c c #ACACAC",
"v c #B1B0A2",
"b c gray74",
"n c #C0B985",
"m c #C6BE8B",
"M c #F7EA90",
"N c #F6EA9E",
"B c #F6EB9E",
"V c #F6ECAC",
"C c #F4EDBA",
"Z c #F5EDBA",
"A c #F5EEBA",
"S c gray81",
"D c #D8D8D8",
"F c gray85",
"G c gray86",
"H c #F4EEC8",
"J c #F4EFC8",
"K c #F3EFD6",
"L c #F4F0D6",
"P c #F3F1E4",
"I c gray95",
/* pixels */
"IIIIIIIIIIIIIIIIIIIIIIIIIIIIIIIIIIccIIIIIIIIIIIIIIIIIIIIIIIIIIIIIIIIIIcc",
"IIIIIIIIIIIIIIIIIIIIIIIIIIIIIIIIIIccIIIIIIIIIIIIIIIIIIIIIIIIIIIIIIIIIIcc",
"IIIIIIIIIIIIIIIIIIIIIIIIIIIIIIIIIIccIIIIIIIIIIIIIIIIIIIIIIIIIIIIIIIIIIcc",
"IIIIIIIIIIIIIIIIIIIIIIIIIIIIIIIIIIccIIIIIIIIIIIIIIIIIIIIIIIIIIIIIIIIIIcc",
"IIIIIIIIIIIIIIIIIIIIIIIIIIIIIIIIIIccIIIIIIIIIIIIIIIIIIIIIIIIIIIIIIIIIIcc",
"IIIIIIIIIIIIIIIIIIIIIIIIIIIIIIIIIIccIIIIIIIIIIIIIIIIIIIIIIIIIIIIIIIIIIcc",
"IIIIIIIIIIIIIIIIIIIIIIIIIIIIIIIIIIccIIIgffAIIIIIIIIIIIIIIIIIIIIIIIIIIIcc",
"IIIIIIIIIIIIIIIIIIIIIIIIIIIIIIIIIIccIIIq99BIIIIIIIIIIIIIIIIIIIIIIIIIIIcc",
"IIIIIIIIIIIIIIIIIIIIIIIIIIIIIIIIIIccIIIq99BIIIIIIIIIIIIIIIIIIIIIIIIIIIcc",
"IIIIIIIIIIIIIIIIIIIIIIIIIIIIIIIIIIcvCCCpppAIIPCCCIIIIIIIIIIIIIIIIIIIIIcc",
"IIIIIIIIIIIIIIIIIIIIIIIIIIIIIIIIIIcn999LIIIIIC999IIIIIIIIIIIIIIIIIIIIIcc",
"IIIIIIIIIIIIIIIIIIIIIIIIIIIIIIIIIIcn999LIIIIIC999IIIIIIIIIIIIIIIIIIIIIcc",
"IIIIIIIIIIIIIIIIIIIIIIIIIIIIIIIIIIcn999LIIIIIC999IIIIIIIIIIIIIIIIIIIIIcc",
"IIIIIIIIIIIIIIIIIIIIIIIIIIIIIpqqVIcn999LIIIIIILLLIIIIIIIIIIIIIIIIIIIIIcc",
"IIIIIIIIIIIIIIIIIIIIIIIIIIIIIq99BIcn999LIIIIIIIIIIIIIIIIIIIIIIIIIIIIIIcc",
"IIIIIIIIIIIIIIIIIIIIIIIIIIIIIq99BIcn999LIIIIIIIIIIIIIIIIIIIIIIIIIIIIIIcc",
"cccccccccccccccccccccccccccccreeuyyi999iyyyyyacccccccccccccccccccccccccc",
"cccccccccccccccccccccccccccccccct9999999999990cccccccccccccccccccccccccc",
"IIIIIIIIIIIIIIIIccIIIIIIIIIIIIIIs999999999999pIIIIIIIIccIIIIIIIIIIIIIIII",
"IIIIIIIIIIIIIIIIccIIIIIIIIIIIHCCsppw999999999pIIIIIIIIccIIIIIIIIIIIIIIII",
"IIIIIIIIIIIIIIIIccIIIIIIIIIIIq99BIIC999999999pIIIIIIIIccIIIIIIIIIIIIIIII",
"IIIIIIIIIIIIIIIIccIIIIIIIIIIIq99BIIC999999999pIIIIIIIIccIIIIIIIIIIIIIIII",
"IIIIIIIIIIIIIIIIccIIIIIIIIIIIq99BIIC999999999pIIIIIIIIccIIIIIIIIIIIIIIII",
"IIIIIIIIIIIIIIIIccIIIIIIIIIIIIIIIIIb   DIIs99pIIIIIIIIccIIIIIIIIIIIIIIII",
"IIIIIIIIIIIIIIIIccIIIIIIIIIIIIIIIIIb   DIIs99pIIIIIIIIccIIIIIIIIIIIIIIII",
"IIIIIIIIIIIIIIIIccIIIIIIIIIIIIIIIIIb   DIIs99pIIIIIIIIccIIIIIIIIIIIIIIII",
"IIIIIIIIIIIIIIIIccIIIIIIIIIIIj888887###FIIZNNVIIIIIIIIccIIIIIIIIIIIIIIII",
"IIIIIIIIIIIIIIIIccIIIIIIIIIII2*********GIIIIIKNCIIIIIIccIIIIIIIIIIIIIIII",
"IIIIIIIIIIIIIIIIccIIIIIIIIIII2*********GIIIIIN9dIIIIIIccIIIIIIIIIIIIIIII",
"IIIIIIIIIIIIIIIIccIIIISxxxxxx:*********zxxxxxmdBIIIIIIccIIIIIIIIIIIIIIII",
"IIIIIIIIIIIIIIIIccIIIIk**********************5IIIIIIIIccIIIIIIIIIIIIIIII",
"IIIIIIIIIIIIIIIIccIIIIk**********************5IIIIIIIIccIIIIIIIIIIIIIIII",
"IIIIIIIIIIIIIIIIccIIIIk**********************5IIIIIIIIccIIIIIIIIIIIIIIII",
"IIIIIIIIIIIIIIIIccI2*************************5IIIIIIIIccIIIIIIIIIIIIIIII",
"ccccccccccccccc99cc>*************************4cccccccccccccccccccccccccc",
"ccccccccccccccc99cc>*************************4cccccccccccccccccccccccccc",
"ccIIIIIIIIIIIIIIIII2*************************-666IIIIIIIIIIIIIIIIIIIIIII",
"ccIIIIIIIIIIIIIIIII2*************************%   IIIIIIIIIIIIIIIIIIIIIII",
"ccIIIIIIIIIIIIIIIII2*************************%   IIIIIIIIIIIIIIIIIIIIIII",
"ccIIIIIIIIIIIIIIIII<##&*******************%##@   IIIIIIIIIIIIIIIIIIIIIII",
"ccIIIIIIIIIIIIIIIII=  @*******************+      IIIIIIIIIIIIIIIIIIIIIII",
"ccIIIIIIIIIIIIIIIII=  @*******************+      IIIIIIIIIIIIIIIIIIIIIII",
"ccIIIIIIIIIIIIIIIII=  @*******************+    ;9dIIIIIIIIIIIIIIIIIIIIII",
"ccIIIIIIIIIIIIIIIII=     o*************X       ;9dIIIIIIIIIIIIIIIIIIIIII",
"ccIIIIIIIIIII99IIII=     o*************X         IIIIIIIIIIIIIIIIIIIIIII",
"ccIIIIIIIIIII99IIII=     o*************X         IIIIIIIIIIIIIIIIIIIIIII",
"ccIIIIIIIIIIIIIIIIIbbb6  .OOOOOOOOOOOOO      ,bbbIIIIIIIIIIIIIIIIIIIIIII",
"ccIIIIIIIIIIIIIIIIIIIIh                      3IIIIIIIIIIIIIIIIIIIIIIIIII",
"ccIIIIIIIIIIIIIIIIIIIIh                      3IIIIIIIIIIIIIIIIIIIIIIIIII",
"ccIIIIIIIIIIIIIIIIIIIIh                      3IIIIIIIIIIIMpVIIIIIIIIIIII",
"ccIIIIIIIIIIIIIIIIIIIIh                      3IIIIIIIIIIIs9BIIIIIIIIIIII",
"ccIIIIIIIIIIIIIIIIIIIIh                      3IIIIIIIIIIIJZPIIIIIIIIIIII",
"cccccccccccccccccccccc6$$$$$$          $$$$$$1cccccccccccccccccccccccccc",
"ccccccccccccccccccccccccccccc$         lcccccccccccccccccccccccccccccccc",
"IIIIIIIIIIIIIIIIIIccIIIIIIIII=         DIIIIIIIIIIIIccIIIIIIIIIIIIIIIIII",
"IIIIIIIIIIIIIIIIIIccIIIIIIIII=         DIIIIIIIIIIIIccIIIIIIIIIIIIIIIIII",
"IIIIIIIIIIIIIIIIIIccIIIIIIIIIbbbbbbbbbbIIIIIIIIIIIIIccIIIIIIIIIIIIIIIIII",
"IIIIIIIIIIIIIIIIIIccIIIIIIIIIIIIIIIIIIIIIIIIIIIIIIIIccIIIIIIIIIIIIIIIIII",
"IIIIIIIIIIIIIIIIIIccIIIIIIIIIIIIIIIIIIIIIIIIIIIIIIIIccIIIIIIIIIIIIIIIIII",
"IIIIIIIIIIIIIIIIIIccIIIIIIIIIIIIIIIIIIIIIIIIIIIIIIIIccIIIIIIIIIIIIIIIIII",
"IIIIIIIIIIIIIIIIIIcc99IIIIIIIIIIIIIIIIIIIIIIIIIIIIIIccIIIIIIIIIIIIIIIIII",
"IIIIIIIIIIIIIIIIIIcc99IIIIIIIIIIIIIIIIIIIIIIIIIIIIIIccIIIIIIIIIIIIIIIIII",
"IIIIIIIIIIIIIIIIIIccIIIIIIIIIIIIIIIIIIIIIIIN9dIIIIIIccIIIIIIIIIIIIIIIIII",
"IIIIIIIIIIIIIIIIIIccIIIIIIIIIIIIIIIIIIIIIIIN9dIIIIIIccIIIIIIIIIIIIIIIIII",
"IIIIIIIIIIIIIIIIIIccIIIIIIIIIIIIIIIIIIIIIIIIIIIIIIIIccIIIIIIIIIIIIIIIIII",
"IIIIIIIIIIIIIIIIIIccIIIIIIIIIIIIIIIIIIIIIIIIIIIIIIIIccIIIIIIIIIIIIIIIIII",
"IIIIIIIIIIIIIIIIIIccIIIIIIIIIIIIIIIIIIIIIIIIIIIIIIIIccIIIIIIIIIIIIIIIIII",
"IIIIIIIIIIIIIIIIIIccIIIIIIIIIIIIIIIIIIIIIIIIIIIIIIIIccIIIIIIIIIIIIIIIIII",
"IIIIIIIIIIIIIIIIIIccIIIIIIIIIIIIIIIIIIIIIIIIIIIIIIIIccIIIIIIIIIIIIIIIIII",
"IIIIIIIIIIIIIIIIIIccIIIIIIIIIIIIIIIIIIIIIIIIIIIIIIIIccIIIIIIIIIIIIIIIIII",
"cccccccccccccccccccccccccccccccccccccccccccccccccccccccccccccccccccccccc",
"cccccccccccccccccccccccccccccccccccccccccccccccccccccccccccccccccccccccc"
};
