/* XPM */
static char *collectable_11706048918[] = {
/* columns rows colors chars-per-pixel */
"73 72 121 2 ",
"   c None",
".  c #7F7C6B",
"X  c #7B7B7B",
"o  c #7C7C7C",
"O  c gray49",
"+  c #7E7E7E",
"@  c gray50",
"#  c #E47329",
"$  c #E6752C",
"%  c #E7752C",
"&  c #E8772E",
"*  c #E9772E",
"=  c #E9782F",
"-  c #EA792F",
";  c #F77622",
":  c #F87D24",
">  c #EA7A30",
",  c #EB7A31",
"<  c #EC7B32",
"1  c #ED7B32",
"2  c #ED7C32",
"3  c #EE7D34",
"4  c #EF7D34",
"5  c #817E6E",
"6  c #827F6F",
"7  c #FDA732",
"8  c #FEAE34",
"9  c #FEB539",
"0  c #858271",
"q  c #878473",
"w  c #FDD959",
"e  c #FEE05B",
"r  c #FEE761",
"t  c #818181",
"y  c gray51",
"u  c #848484",
"i  c gray52",
"p  c #868686",
"a  c #888888",
"s  c #8D8D8D",
"d  c #909090",
"f  c #9A9A9A",
"g  c #9B9B9B",
"h  c #9D9D9D",
"j  c #9F9F9F",
"k  c #A3A08F",
"l  c #A4A190",
"z  c #A9A695",
"x  c #AAA796",
"c  c #AAA797",
"v  c #AAA897",
"b  c #ABA897",
"n  c #ADAA9A",
"m  c #AEAB9B",
"M  c #AFAC9B",
"N  c #AFAC9C",
"B  c #B2B09F",
"V  c gray63",
"C  c #A2A2A2",
"Z  c gray64",
"A  c #A4A4A4",
"S  c #A5A5A5",
"D  c gray65",
"F  c #A7A7A7",
"G  c gray66",
"H  c #A9A9A9",
"J  c #AAAAAA",
"K  c gray67",
"L  c #ACACAC",
"P  c gray68",
"I  c #AEAEAE",
"U  c #AFAFAF",
"Y  c #B3B1A0",
"T  c gray69",
"R  c #B1B1B1",
"E  c #B2B2B2",
"W  c gray70",
"Q  c gray71",
"!  c gray72",
"~  c #B9B9B9",
"^  c gray73",
"/  c #BBBBBB",
"(  c gray74",
")  c gray",
"_  c gray75",
"`  c #C2BFAE",
"'  c #C3C0AF",
"]  c #C4C1B0",
"[  c #C5C2B1",
"{  c #C0C0C0",
"}  c #C1C1C1",
"|  c #C3C3C3",
" . c #C6C6C6",
".. c #C8C8C8",
"X. c #CBCBCB",
"o. c gray80",
"O. c #CDCDCD",
"+. c #CECECE",
"@. c #D7D7D7",
"#. c gray85",
"$. c #DADADA",
"%. c gray86",
"&. c gray87",
"*. c gray88",
"=. c #E1E1E1",
"-. c #E2E2E2",
";. c gray89",
":. c #E4E4E4",
">. c gray90",
",. c #E7E7E7",
"<. c gray91",
"1. c #E9E9E9",
"2. c #EAEAEA",
"3. c gray92",
"4. c #ECECEC",
"5. c gray93",
"6. c #EEEEEE",
"7. c #EFEFEF",
"8. c gray94",
"9. c #F1F1F1",
"0. c gray95",
/* pixels */
"9.9.9.0.0.0.0.0.0.0.0.0.0.0.0.0.0.0.0.0.0.0.0.0.0.0.0.0.0.0.0.0.0.0.Q L <.0.0.0.0.0.0.0.0.0.0.0.0.0.0.0.0.0.0.0.0.0.0.0.0.0.0.0.0.0.0.0.0.0.Q K   ",
"9.9.0.0.0.0.0.0.0.0.0.0.0.0.0.0.0.0.0.0.0.0.0.0.0.0.0.0.0.0.0.0.0.0.Q L <.0.0.0.0.0.0.0.0.0.0.0.0.0.0.0.0.0.0.0.0.0.0.0.0.0.0.0.0.0.0.0.0.0.Q P   ",
"9.0.0.0.0.0.0.0.0.0.0.0.0.0.0.0.0.0.0.0.0.0.0.0.0.0.0.0.0.0.0.0.0.0.Q L <.0.0.0.0.0.0.0.0.0.0.0.0.0.0.0.0.0.0.0.0.0.0.0.0.0.0.0.0.0.0.0.0.0.Q P   ",
"9.0.0.0.0.0.0.0.0.0.0.0.0.0.0.0.0.0.0.0.0.0.0.0.0.0.0.0.0.0.0.0.0.0.Q P 3.0.0.0.0.0.0.0.0.0.0.0.0.0.0.0.0.0.0.0.0.0.0.0.0.0.0.0.0.0.0.0.0.0.Q P   ",
"9.0.0.0.0.0.0.0.0.0.0.0.0.0.0.0.0.0.0.0.0.0.0.0.0.0.0.0.0.0.0.0.0.0.Q L <.0.0.0.0.0.0.0.0.0.0.0.0.0.0.0.0.0.0.0.0.0.0.0.0.0.0.0.0.0.0.0.0.9.Q K   ",
"9.0.0.0.0.0.0.0.0.0.0.0.0.0.0.0.0.0.0.0.0.0.0.0.0.0.0.0.0.0.0.0.0.9.Q L <.0.0.0.0.0.0.0.0.0.0.0.0.0.0.0.0.0.0.0.0.0.0.0.0.0.0.0.0.0.0.0.0.9.Q P   ",
"9.0.0.0.0.0.0.0.0.0.0.0.0.0.0.0.0.0.0.0.0.0.0.0.0.0.0.0.0.0.0.0.0.0.Q P 3.0.0.0.0.0.0.0.0.0.0.0.0.0.0.0.0.0.0.0.0.0.0.0.0.0.0.0.0.0.0.0.0.0.Q K   ",
"9.0.0.0.0.0.0.0.0.0.0.0.0.0.0.0.0.0.0.0.0.0.0.0.0.0.0.0.0.0.0.0.0.0.Q P <.0.0.0.0.0.0.0.0.0.0.0.0.0.0.0.0.0.0.0.0.0.0.0.0.0.0.0.0.0.0.0.0.0.Q P   ",
"9.0.0.0.0.0.0.0.0.0.0.0.0.0.0.0.0.0.0.0.0.0.0.0.0.0.0.0.0.0.0.0.0.0.Q P <.0.0.0.0.0.0.0.0.0.0.0.0.0.0.0.0.0.0.0.0.0.0.0.0.0.0.0.0.0.0.0.0.0.Q K   ",
"9.0.0.0.0.0.0.0.0.0.0.0.0.0.0.0.0.0.0.0.0.0.0.0.0.0.0.0.0.0.0.0.0.0.Q L 3.0.0.0.0.0.0.0.0.0.0.0.0.0.0.0.0.0.0.0.0.0.0.0.0.0.0.0.0.0.0.0.0.0.Q P   ",
"9.0.0.0.0.0.0.0.0.0.0.0.0.0.0.0.0.0.0.0.0.0.0.0.0.0.0.0.0.0.0.0.0.0.Q L <.0.0.0.0.0.0.0.0.0.0.0.0.0.0.0.0.0.0.0.0.0.0.0.0.0.0.0.0.0.0.0.0.0.Q P   ",
"9.0.0.0.0.0.0.0.0.0.0.0.0.0.0.0.0.0.0.0.0.0.0.0.0.0.0.0.0.0.0.0.0.9.Q L <.0.0.0.0.0.0.0.0.0.0.0.0.0.0.0.0.0.0.0.0.0.0.0.0.0.0.0.0.0.0.0.0.0.Q P   ",
"9.0.0.0.0.0.0.0.0.0.0.0.0.0.0.0.0.0.0.0.0.0.0.0.0.0.0.0.0.0.0.0.0.0.Q L <.0.0.0.0.0.0.0.0.0.0.0.0.0.0.0.0.0.0.0.0.0.0.0.0.0.0.0.0.0.0.0.0.9.Q K   ",
"9.0.0.0.0.0.0.0.0.0.0.0.0.0.0.0.0.0.0.0.0.0.0.0.0.0.0.0.0.0.0.0.0.0.Q L <.0.0.0.0.0.0.0.0.0.0.0.0.0.0.0.0.0.0.0.0.0.0.0.0.0.0.0.0.0.0.0.0.9.Q P   ",
"9.0.0.0.0.0.0.0.0.0.0.0.0.0.0.0.0.0.0.0.0.0.0.0.0.0.0.0.0.0.9.9.0.0.Q L <.0.0.0.0.0.0.0.0.0.0.0.0.0.0.0.0.0.0.0.0.0.0.0.0.0.0.0.0.0.0.0.0.0.Q K   ",
"9.0.0.0.0.0.0.0.0.0.0.0.0.0.0.0.0.0.0.0.0.0.0.0.0.0.0.0.0.0.0.9.0.0.Q P 3.0.0.0.0.0.0.0.0.0.0.0.0.0.0.0.0.0.0.0.0.0.0.0.0.0.0.0.0.0.0.0.0.0.Q P   ",
"P P P P J J P P P P J J P P P P J P P P J J P P L L L L D D D D S S S S S S S S S S S F J K K P P L L L L L L L L L L L L L L L P K P K P K P K   ",
"J P P P P P P J P P P P P J P P J P P P P P P J P P L V s @ o o o X X X o X X X o X o p f J P K P L L L L P L L L L P P L L L L P P K P K P P P   ",
"9.9.9.0.0.0.9.9.0.0.0.0.9.0.0.0.Q P <.9.0.0.9.9.0.0.4.O.< ; ; ; 7 8 8 8 8 8 8 8 e r r r ] ,.0.0.0.0.9.0.0.0.Q L <.0.0.0.0.0.9.0.0.0.0.0.9.0.0.0.  ",
"9.9.0.0.0.0.0.9.0.0.0.0.9.9.0.0.Q P <.9.0.0.0.9.0.0.4._ > ; ; ; 7 8 8 8 8 8 8 8 e r r r m ;.0.0.0.0.0.0.0.9.Q L <.0.0.0.0.0.0.0.0.0.0.0.9.0.0.0.  ",
"9.0.0.0.0.0.0.0.0.0.0.0.0.0.0.0.Q P 4.0.0.0.0.9.<.<.;.E > ; ; ; 7 8 8 8 8 8 8 8 e r r r l @.>.<.7.9.0.0.0.0.Q L <.0.0.0.0.0.0.0.0.0.0.0.0.0.0.0.  ",
"9.0.0.0.0.0.0.0.0.0.0.0.0.0.0.0.Q P <.0.0.0.9.&.} L Z y # ; ; ; 7 8 8 8 8 8 8 8 e r r r 0 j K / #.7.0.0.0.0.Q L <.0.0.0.0.0.0.0.0.0.0.0.0.0.0.0.  ",
"9.0.0.0.0.0.0.0.0.0.0.0.0.0.0.0.Q P <.0.0.0.<...< ; ; ; ; ; ; ; 7 8 8 8 8 8 8 8 e r r r r r r r [ <.9.0.0.0.Q L 3.0.0.0.0.0.0.0.0.0.0.0.0.0.0.0.  ",
"9.0.0.0.0.0.0.0.0.0.0.0.0.0.0.0.Q P <.0.0.9.<.~ > ; ; ; ; ; ; ; 7 8 8 8 8 8 8 8 e r r r r r r r Y :.9.0.0.0.Q P <.0.0.0.0.0.0.0.0.0.0.0.0.0.0.0.  ",
"9.0.0.0.0.0.0.0.0.0.0.0.0.0.0.0.Q P <.9.4.<.;.P * ; ; ; 7 8 8 8 8 8 8 8 8 8 8 8 8 8 8 8 e r r r b #.<.3.7.9.Q L <.0.0.0.0.0.0.0.0.0.0.0.0.0.0.0.  ",
"9.0.0.0.0.0.0.0.0.0.0.0.0.0.0.0.Q J <.;. .W J u # ; ; ; 7 8 8 8 8 8 8 8 8 8 8 8 8 8 8 8 e r r r q Z R _ #.4.Q L 3.0.0.0.0.0.0.0.0.0.0.0.0.0.0.0.  ",
"9.0.0.0.0.0.0.0.0.0.0.0.0.0.0.0.Q P >...> ; ; ; 7 8 8 8 8 8 8 8 8 8 8 8 8 8 8 8 8 8 8 8 8 8 8 8 w r r r ` <.Q L <.0.0.0.0.0.0.0.0.0.0.0.0.0.0.0.  ",
"9.0.0.0.0.0.0.0.0.0.0.0.0.0.0.0.Q J >._ > ; ; ; 7 8 8 8 8 8 8 8 8 8 8 8 8 8 8 8 8 8 8 8 8 8 8 8 e r r r N ;.Q L <.0.0.0.0.0.0.0.0.0.0.0.0.0.0.0.  ",
"9.0.0.0.0.0.0.0.0.0.0.0.0.0.0.0.Q P ;.~ % ; ; ; 7 8 8 8 8 8 8 8 8 8 8 8 8 8 8 8 8 8 8 8 8 8 8 8 e r r r c =.Q L 3.0.0.0.0.0.0.0.0.0.0.0.0.0.0.0.  ",
"9.0.0.0.0.0.0.0.0.0.0.0.0.0.0.0.Q J ;.~ = ; ; ; 7 8 8 8 8 8 8 8 8 8 8 8 8 8 8 8 8 8 8 8 8 8 8 8 e r r r x =.Q K <.0.0.0.0.0.0.0.0.0.0.0.0.0.0.0.  ",
"9.0.0.0.0.0.0.0.0.0.0.0.0.0.0.0.Q P ;._ % ; ; ; 7 8 8 8 8 8 8 8 : ; ; ; w r r r 9 8 8 8 8 8 8 8 e r r r x =.Q L <.0.0.0.0.0.0.0.0.0.0.0.0.0.0.0.  ",
"9.0.0.0.0.0.0.0.0.0.0.0.0.0.0.0.Q P ;.~ = ; ; ; 7 8 8 8 8 8 8 8 : ; ; ; w r r r 9 8 8 8 8 8 8 8 e r r r x ;.Q P 3.0.0.0.0.0.0.0.0.0.0.0.0.0.0.0.  ",
"9.0.0.9.0.0.0.9.0.0.0.9.0.0.0.9.Q K :./ & ; ; ; 7 8 8 8 8 8 8 8 : ; ; ; w r r r 9 8 8 8 8 8 8 8 e r r r v ;.W K <.0.0.0.0.0.0.0.0.0.0.0.0.0.0.0.  ",
"9.0.0.9.0.0.0.9.0.0.0.9.0.0.0.9.Q K ;.~ & ; ; ; 7 8 8 8 8 8 8 8 : ; ; ; w r r r 9 8 8 8 8 8 8 8 e r r r v *.Q K 3.0.0.0.0.0.0.0.9.9.0.0.0.0.9.9.  ",
"P L L L P P L L P P L L P P L L K P G p # ; ; ; 7 8 8 8 8 8 8 8 : ; ; ; w r r r 9 8 8 8 8 8 8 8 e r r r 6 j P K K P K P K P K P P K P P P K P K   ",
"K L L L L L P P L L L L L L P P P K G u # ; ; ; 7 8 8 8 8 8 8 8 : ; ; ; w r r r 9 8 8 8 8 8 8 8 e r r r 0 V K P P K P K P K P K K P K P P P K P   ",
"K L <.9.0.0.0.0.9.0.0.0.0.0.0.0.9.0.3./ & ; ; ; 7 8 8 8 8 8 8 8 : ; ; ; w r r r 9 8 8 8 8 8 8 8 e r r r v *.0.0.0.0.0.0.0.0.0.0.0.0.0.0.0.0.0.0.  ",
"K L <.0.0.0.0.0.9.0.0.0.0.0.0.0.0.0.4.~ & ; ; ; 7 8 8 8 8 8 8 8 : ; ; ; w r r r 9 8 8 8 8 8 8 8 e r r r x ;.0.0.0.0.0.0.0.0.0.0.0.0.0.0.0.0.0.0.  ",
"K P <.0.0.0.0.0.0.0.0.0.0.0.0.0.0.0.4./ & ; ; ; 7 8 8 8 8 8 8 8 : ; ; ; w r r r 9 8 8 8 8 8 8 8 e r r r x *.9.0.0.0.0.0.0.0.0.0.0.0.0.0.0.0.0.0.  ",
"K P 3.0.0.0.0.0.0.0.0.0.0.0.0.0.0.0.4./ & ; ; ; 7 8 8 8 8 8 8 8 : ; ; ; w r r r 9 8 8 8 8 8 8 8 e r r r x *.9.9.0.0.0.0.0.0.0.0.0.0.0.0.0.0.0.0.  ",
"K L <.0.0.0.0.0.0.0.0.0.0.0.0.0.0.0.3./ = ; ; ; 7 8 8 8 8 8 8 8 8 8 8 8 8 8 8 8 8 8 8 8 8 8 8 8 w r r r x *.0.0.0.0.0.0.0.0.0.0.0.0.0.0.0.0.0.0.  ",
"K L <.0.0.0.0.0.0.0.0.0.0.0.0.0.0.0.3./ = ; ; ; 7 8 8 8 8 8 8 8 8 8 8 8 8 8 8 8 8 8 8 8 8 8 8 8 e r r r c ;.0.0.0.0.0.0.0.0.0.0.0.0.0.0.0.0.0.0.  ",
"K L <.0.0.0.0.0.0.0.0.0.0.0.0.0.0.0.4._ = ; ; ; 7 8 8 8 8 8 8 8 8 8 8 8 8 8 8 8 8 8 8 8 8 8 8 8 e r r r N ;.0.0.0.0.0.0.0.0.0.0.0.0.0.0.0.0.0.0.  ",
"K L <.0.0.0.0.0.0.0.0.0.0.0.0.0.0.0.4.O.3 ; ; ; 7 8 8 8 8 8 8 8 8 8 8 8 8 8 8 8 8 8 8 8 8 8 8 8 e r r r ` >.0.0.0.0.0.0.0.0.0.0.0.0.0.0.0.0.0.0.  ",
"K P <.0.0.0.0.0.0.0.0.0.0.0.0.0.0.0.6.;. .Q K u % ; ; ; 7 8 8 8 8 8 8 8 8 8 8 8 8 8 8 8 e r r r q S R } %.4.0.0.0.0.0.0.0.0.0.0.0.0.0.0.0.0.0.0.  ",
"K P 3.0.0.0.0.0.0.0.0.0.0.0.0.0.0.0.9.9.3.<.;.P > ; ; ; 7 8 8 8 8 8 8 8 8 8 8 8 8 8 8 8 e r r r z #.,.3.8.9.0.0.0.0.0.0.0.0.0.0.0.0.0.0.0.0.0.0.  ",
"K L <.0.0.0.0.0.0.0.0.0.0.0.0.0.0.0.0.0.0.9.3.~ > ; ; ; ; ; ; ; 7 8 8 8 8 8 8 8 e r r r r r r r Y :.0.0.0.0.0.0.0.0.0.0.0.0.0.0.0.0.0.0.0.0.0.0.  ",
"K L 3.0.0.0.0.0.0.0.0.0.0.0.0.0.0.0.0.0.0.9.4...3 ; ; ; ; ; ; ; 7 8 8 8 8 8 8 8 e r r r r r r r ] ,.0.0.0.0.0.0.0.0.0.0.0.0.0.0.0.0.0.0.0.0.0.0.  ",
"K L <.9.0.0.0.0.0.0.0.0.0.0.0.0.0.0.0.0.0.0.8.*.| I F u % ; ; ; 7 8 8 8 8 8 8 8 e r r r . j I / %.6.0.0.0.0.0.0.0.0.0.0.0.0.0.0.0.0.0.0.0.0.0.0.  ",
"K L <.0.0.0.0.0.0.0.0.0.0.0.0.0.0.0.0.0.0.0.0.8.3.,.*.W > ; ; ; 7 8 8 8 8 8 8 8 e r r r k #.,.2.6.8.0.0.0.0.0.0.0.0.0.0.0.0.0.0.0.0.0.0.0.0.0.0.  ",
"K P <.0.0.0.0.9.0.0.0.0.0.0.0.0.0.0.0.0.0.0.0.0.0.0.6.} > ; ; ; 7 8 8 8 8 8 8 8 e r r r n -.0.0.0.0.0.0.0.0.0.0.0.0.0.0.0.0.0.0.0.0.0.9.0.0.0.0.  ",
"K P 3.0.0.0.0.9.0.0.0.0.0.0.0.0.0.0.0.0.0.0.0.0.0.0.6.+.3 ; ; ; 7 8 8 8 8 8 8 8 e r r r ' ,.0.0.0.0.0.0.0.0.0.0.0.0.0.0.0.0.0.0.0.0.0.9.0.0.0.0.  ",
"K L L L L L L L L L L P P L L L I K K K I K K K K K K S d t + + + + + o o + + + + + + a g G K I K K K K I K K I I K K K K K K I P K P K P K P P   ",
"K L P P L L P P L L L P P L L L K K I K K K I K I K K K G D S F D D D F D S F S S D S F K K K K K I I K I K K K K K I I K I K K P P K P K P K P   ",
"9.9.0.0.9.0.0.0.9.9.0.0.0.0.9.9.0.0.Q I 3.0.0.0.0.0.0.0.0.0.0.0.0.0.0.0.0.0.0.0.0.0.0.0.0.0.0.0.0.0.0.0.Q K 3.0.0.0.0.0.0.0.0.0.0.0.0.0.9.9.0.0.  ",
"9.9.0.0.9.0.0.0.0.0.0.0.0.0.0.0.0.0.Q K ,.0.0.0.0.0.0.0.0.0.0.0.0.0.0.0.0.0.0.0.0.0.0.0.0.0.0.0.0.0.0.0.Q K 2.0.0.0.0.0.0.0.0.0.0.0.0.0.0.0.0.0.  ",
"9.0.0.0.0.0.0.0.0.0.0.0.0.0.0.0.0.0.Q K 3.0.0.0.0.0.0.0.0.0.0.0.0.0.0.0.0.0.0.0.0.0.0.0.0.0.0.0.0.0.0.0.Q I 3.0.0.0.0.0.0.0.0.0.0.0.0.0.0.0.0.0.  ",
"9.0.0.0.0.0.0.0.0.0.0.0.0.0.0.0.0.0.Q K 2.0.0.0.0.0.0.0.0.0.0.0.0.0.0.0.0.0.0.0.0.0.0.0.0.0.0.0.0.0.0.0.Q K ,.0.0.0.0.0.0.0.0.0.0.0.0.0.0.0.0.0.  ",
"9.0.0.0.0.0.0.0.0.0.0.0.0.0.0.0.0.0.! K ,.0.0.0.0.0.0.0.0.0.0.0.0.0.0.0.0.0.0.0.0.0.0.0.0.0.0.0.0.0.0.0.Q K ,.0.0.0.0.0.0.0.0.0.0.0.0.0.0.0.0.0.  ",
"9.0.0.0.0.0.0.0.0.0.0.0.0.0.0.0.0.0.W I 3.0.0.0.0.0.0.0.0.0.0.0.0.0.0.0.0.0.0.0.0.0.0.0.0.0.0.0.0.0.0.0.! K 3.0.0.0.0.0.0.0.0.0.0.0.0.0.0.0.0.0.  ",
"9.0.0.0.0.0.0.0.0.0.0.0.0.0.0.0.0.0.Q K ,.0.0.0.0.0.0.0.0.0.0.0.0.0.0.0.0.0.0.0.0.0.0.0.0.0.0.0.0.0.0.0.Q K 3.0.0.0.0.0.0.0.0.0.0.0.0.0.0.0.0.0.  ",
"9.0.0.0.0.0.0.0.0.0.0.0.0.0.0.0.0.0.Q K 2.0.0.0.0.0.0.0.0.0.0.0.0.0.0.0.0.0.0.0.0.0.0.0.0.0.0.0.0.0.0.0.Q I ,.0.0.0.0.0.0.0.0.0.0.0.0.0.0.0.0.0.  ",
"9.0.0.0.0.0.0.0.0.0.0.0.0.0.0.0.0.0.! K ,.0.0.0.0.0.0.0.0.0.0.0.0.0.0.0.0.0.0.0.0.0.0.0.0.0.0.0.0.0.0.0.W K 3.0.0.0.0.0.0.0.0.0.0.0.0.0.0.0.0.0.  ",
"9.0.0.0.0.0.0.0.0.0.0.0.0.0.0.0.0.0.W K 3.0.0.0.0.0.0.0.0.0.0.0.0.0.0.0.0.0.0.0.0.0.0.0.0.0.0.0.0.0.0.0.! K ,.0.0.0.0.0.0.0.0.0.0.0.0.0.0.0.9.9.  ",
"9.0.0.0.0.0.0.0.0.0.0.0.0.0.0.0.0.0.Q P <.0.0.0.0.0.0.0.0.0.0.0.0.0.0.0.0.0.0.0.0.0.0.0.0.0.0.0.0.0.0.0.Q P <.9.0.0.0.0.0.0.0.0.0.0.0.0.0.0.0.0.  ",
"9.0.0.0.0.0.0.0.0.0.0.0.0.0.0.0.0.0.Q P 3.0.0.0.0.0.0.0.0.0.0.0.0.0.0.0.0.0.0.0.0.0.0.0.0.0.0.0.0.0.0.0.Q P <.0.0.0.0.0.0.0.0.0.0.0.0.0.0.0.0.0.  ",
"9.0.0.0.0.0.0.0.0.0.0.0.0.0.0.0.0.9.Q L <.0.0.0.0.0.0.0.0.0.0.0.0.0.0.0.0.0.0.0.0.0.0.0.0.0.0.0.0.0.0.0.Q P <.0.0.0.0.0.0.0.0.0.0.0.0.0.0.0.0.0.  ",
"9.0.0.0.0.0.0.0.0.0.0.0.0.0.0.0.0.9.Q L <.0.0.0.0.0.0.0.0.0.0.0.0.0.0.0.0.0.0.0.0.0.0.0.0.0.0.0.0.0.0.0.Q P 3.0.0.0.0.0.0.0.0.0.0.0.0.0.0.0.0.0.  ",
"9.0.0.9.0.0.0.0.0.0.0.0.0.0.0.9.0.0.Q L <.9.0.0.0.0.0.9.0.0.0.0.0.0.0.0.0.0.0.9.0.0.0.0.0.0.0.0.0.0.0.9.Q L <.9.0.0.0.0.0.0.0.9.0.0.0.9.0.0.0.0.  ",
"9.0.0.9.0.0.0.0.9.9.0.0.0.0.0.9.0.0.Q L <.0.9.9.0.0.0.9.0.0.0.0.9.9.0.0.0.0.0.9.0.0.9.9.0.0.9.9.0.0.0.9.Q L <.0.9.9.0.0.0.0.0.9.0.0.0.9.0.0.0.0.  ",
"P L L L L L P P L L L L P P L L P L L L P L L L P P L L L L P P L L L L P P L L P L L L P L L L P P L L L L P P L L L L P P L L P P L L L L P P   ",
"K L L L L L L L L L L L L L L L P L L L P P L L L L L L L L L P L L L L L L L L P L L L P L L L L L L L L L L P L L L L L L L L L L L L L L L L   "
};
