/* XPM */
static char *result[] = {
/* columns rows colors chars-per-pixel */
"72 72 177 2 ",
"   c #124E89",
".  c #1E5387",
"X  c #1F5487",
"o  c #11538E",
"O  c #1B538A",
"+  c #1B548B",
"@  c #1C548B",
"#  c #0F5893",
"$  c #105793",
"%  c #2A5783",
"&  c #2D5A86",
"*  c #2E5B87",
"=  c #23588B",
"-  c #24598C",
";  c #255A8D",
":  c #265B8F",
">  c #2F5C88",
",  c #0E619D",
"<  c #396692",
"1  c #0B6AA7",
"2  c #0B6AA8",
"3  c #0973B2",
"4  c #0974B2",
"5  c #0779B7",
"6  c #0879B7",
"7  c #067DBC",
"8  c #077DBC",
"9  c #576E84",
"0  c #586E84",
"q  c #4A7095",
"w  c #4C7296",
"e  c #4C7297",
"r  c #4D7297",
"t  c #557798",
"y  c #647382",
"u  c #607E9C",
"i  c #62809D",
"p  c #64829F",
"a  c #748392",
"s  c #6A999C",
"d  c #6C87A0",
"f  c #768CA2",
"g  c #768DA3",
"h  c #788FA5",
"j  c #64AAAF",
"k  c #7AA9AC",
"l  c #0486C6",
"z  c #0486C7",
"x  c #038BCB",
"c  c #038BCC",
"v  c #028FD1",
"b  c #0290D1",
"n  c #0194D6",
"m  c #0099DB",
"M  c #029EDD",
"N  c #039EDD",
"B  c #05A3DE",
"V  c #0BACE1",
"C  c #0BADE1",
"Z  c #0BADE2",
"A  c #10B6E5",
"S  c #10B7E5",
"D  c #3ECBD5",
"F  c #16C0E8",
"G  c #16C1E8",
"H  c #19C5EA",
"J  c #19C6EA",
"K  c #1BCAEB",
"L  c #1ECFED",
"P  c #1ED0ED",
"I  c #21D4EE",
"U  c #21D4EF",
"Y  c #36DBE6",
"T  c #37DCE7",
"R  c #3BDFEB",
"E  c #26DEF1",
"W  c #27DEF2",
"Q  c #3BE0EB",
"!  c #29E3F3",
"~  c #2AE3F3",
"^  c #2CE8F5",
"/  c #33E3F0",
"(  c #34E4F0",
")  c #41CED8",
"_  c #42CFD8",
"`  c #5ACFD8",
"'  c #5AD0D9",
"]  c #5CD1DA",
"[  c #5ED3DB",
"{  c #7DC4C9",
"}  c #7EC5CA",
"|  c #63CDD5",
" . c #6CCAD0",
".. c #6FCCD3",
"X. c #6FCDD4",
"o. c #7ACCD2",
"O. c #60D6DE",
"+. c #72D0D6",
"@. c #4BD9E2",
"#. c #4EDBE4",
"$. c #8D8D8D",
"%. c #8E8E8E",
"&. c #979797",
"*. c #989898",
"=. c #9A9A9A",
"-. c gray62",
";. c #9F9F9F",
":. c #91A0AF",
">. c #92A1AF",
",. c #9CABBA",
"<. c #A7A7A7",
"1. c #AAAAAA",
"2. c gray67",
"3. c #ACACAC",
"4. c #A3AAB2",
"5. c #A4ACB2",
"6. c #A7AEB5",
"7. c #A7AEB6",
"8. c #A8B0B7",
"9. c #AEB6BD",
"0. c #A5BCBE",
"q. c #B2B5B9",
"w. c #B6BABE",
"e. c #B1BDBE",
"r. c #B9BDC0",
"t. c #81C7CC",
"y. c #82C9CE",
"u. c #9AC9CC",
"i. c #9BCACD",
"p. c #A8C0C1",
"a. c #AAC1C2",
"s. c #ADC5C7",
"d. c #B7C2C3",
"f. c #BAC6C7",
"g. c #B2C9CB",
"h. c #B2CACB",
"j. c #BDC9CA",
"k. c #A4D4D7",
"l. c #C0C0C0",
"z. c gray76",
"x. c #C3C3C3",
"c. c #C5C5C5",
"v. c #C6C6C6",
"b. c #C8C8C8",
"n. c #CACACA",
"m. c #CDCDCD",
"M. c #CECECE",
"N. c gray81",
"B. c gray82",
"V. c #D2D2D2",
"C. c LightGray",
"Z. c #D5D5D5",
"A. c #D7D7D7",
"S. c gray85",
"D. c #DADADA",
"F. c gainsboro",
"G. c #DDDDDD",
"H. c gray87",
"J. c gray88",
"K. c #E1E1E1",
"L. c #E2E2E2",
"P. c gray89",
"I. c #E4E4E4",
"U. c gray90",
"Y. c #E6E6E6",
"T. c #E7E7E7",
"R. c gray91",
"E. c #E9E9E9",
"W. c #EAEAEA",
"Q. c gray92",
"!. c #ECECEC",
"~. c gray93",
"^. c #EEEEEE",
"/. c #EFEFEF",
"(. c gray94",
"). c #F1F1F1",
"_. c gray95",
/* pixels */
"_._._._._._._._._._._._._._._._._._._._._._._._._._._._._._._._._._.3.3._._._._._._._._._._._._._._._._._._._._._._._._._._._._._._._._._._.3.3.",
"_._._._._._._._._._._._._._._._._._._._._._._._._._._._._._._._._._.3.3._._._._._._._._._._._._._._._._._._._._._._._._._._._._._._._._._._.3.3.",
"_._._._._._._._._._._._._._._._._._._._._._._._._._._._._._._._._._.3.3._._._._._._._._._._._._._._._._._._._._._._._._._._._._._._._._._._.3.3.",
"_._._._._._._._._._._._._._._._._._._._._._._._._._._._._._._._._._.3.3._._._._._._._._._._._._._._._._._._._._._._._._._._._._._._._._._._.3.3.",
"_._._._._._._._._._._._._._._._._._._._._._._._._._._._._._._._._._.3.3._._._._._._._._._._._._._._._._._._._._._._._._._._._._._._._._._._.3.3.",
"_._._._._._._._._._._._._._._._._._._._._._._._._._._._._._._._._._.3.3._._._._._._._._._._._._._._._._._._._._._._._._._._._._._._._._._._.3.3.",
"_._._._._._._._._._._._._._._._._._._._._._._._._._._._._._._._._._.3.3._._._._._._._._._._._._._._._._._._._._._._._._._._._._._._._._._._.3.3.",
"_._._._._._._._._._._._._._._._._._._._._._._._._._._._._._._._._._.3.3._._._._._._._._._._._._._._._._._._._._._._._._._._._._._._._._._._.3.3.",
"_._._._._._._._._._._._._._._._._._._._._._._._._._._._._._._._._._.3.3._._._._._._._._._._._._._._._._._._._._._._._._._._._._._._._._._._.3.3.",
"_._._._._._._._._._._._._._._._._._._._._._._._._._._._._._._._._._.3.3._._._._._._._._._._._._._._._._._._._._._._._._._._._._._._._._._._.3.3.",
"_._._._._._._._._._._._._._._._._._._._._._._._._._._._._._._._._._.3.3._._._._._._._._._._._._._._._._._._._._._._._._._._._._._._._._._._.3.3.",
"_._._._._._._._._._._._._._._._._._._._._._._._._._._._._._._._._._.3.3._._._._._._._._._._._._._._._._._._._._._._._._._._._._._._._._._._.3.3.",
"_._._._._._._._._._._._._._._._._._._._._._._._._._._._._._._._._._.2.3._._._._._._._._._._._._._._._._._._._._._._._._._._._._._._._._._._.3.3.",
"_._._._._._._._._._._._._._._._._._._._._._._._._._._._._._._._._./.<.<./._._._._._._._._._._._._._._._._._._._._._._._._._._._._._._._._._.3.3.",
"_._._._._._._._._._._._._._._._._._._._._._._._._._._._._._._._.).U.k a I.)._._._._._._._._._._._._._._._._._._._._._._._._._._._._._._._._.3.3.",
"_._._._._._._._._._._._._._._._._._._._._._._._._._._._._._._._.~.M.T & m.!._._._._._._._._._._._._._._._._._._._._._._._._._._._._._._._._.3.3.",
"3.3.3.3.3.3.3.3.3.3.3.3.3.3.3.3.3.3.3.3.3.3.3.3.3.3.3.3.3.3.3.2.;.j ^   y ;.1.3.3.3.3.3.3.3.3.3.3.3.3.3.3.3.3.3.3.3.3.3.3.3.3.3.3.3.3.3.3.3.3.3.",
"3.3.3.3.3.3.3.3.3.3.3.3.3.3.3.3.3.3.3.3.3.3.3.3.3.3.3.3.3.3.2.<.$.Y ^   % %.<.2.3.3.3.3.3.3.3.3.3.3.3.3.3.3.3.3.3.3.3.3.3.3.3.3.3.3.3.3.3.3.3.3.",
"_._._._._._._._._._._._._._._._.3.3._._._._._._._._._._._._.).F.y.^ U ,   g F.(._._._._._._._._._._._._._._.3.3._._._._._._._._._._._._._._._._.",
"_._._._._._._._._._._._._._._._.3.3._._._._._._._._._._._.).E.z.Q ^ B l   - x.W._._._._._._._._._._._._._._.3.3._._._._._._._._._._._._._._._._.",
"_._._._._._._._._._._._._._._._.3.3._._._._._._._._._._._.(.S.} ^ K m m ,   d S./._._._._._._._._._._._._._.3.3._._._._._._._._._._._._._._._._.",
"_._._._._._._._._._._._._._._._.3.3._._._._._._._._._._._.E.l.R ^ B m m b   @ r.E._._._._._._._._._._._._._.3.3._._._._._._._._._._._._._._._._.",
"_._._._._._._._._._._._._._._._.3.3._._._._._._._._._._./.S.{ ^ K m m m m 2   p S.(._._._._._._._._._._._._.3.3._._._._._._._._._._._._._._._._.",
"_._._._._._._._._._._._._._._._.3.3._._._._._._._._._._.R.g.R ^ B m m m m b o @ r.E._._._._._._._._._._._._.3.3._._._._._._._._._._._._._._._._.",
"_._._._._._._._._._._._._._._._.3.3._._._._._._._._._.(.S.X.^ K m m m m m m 3   p D./._._._._._._._._._._._.3.3._._._._._._._._._._._._._._._._.",
"_._._._._._._._._._._._._._._._.3.3._._._._._._._._._.R.h.R E B m m m m m m n o + w.Y._._._._._._._._._._._.3.3._._._._._._._._._._._._._._._._.",
"_._._._._._._._._._._._._._._._.3.3._._._._._._._._./.A.O.^ F m m m m m m m m 3   u Z./._._._._._._._._._._.3.3._._._._._._._._._._._._._._._._.",
"_._._._._._._._._._._._._._._._.3.3._._._._._._._.).U.s.^ E B m m m m m m m m n o O q.U.)._._._._._._._._._.3.3._._._._._._._._._._._._._._._._.",
"_._._._._._._._._._._._._._._._.3.3._._._._._._._.~.C.[ ^ S m m m m Z l m m m m 3   t C.^._._._._._._._._._.3.3._._._._._._._._._._._._._._._._.",
"_._._._._._._._._._._._._._._._.3.3._._._._._._.).P.p.^ E m m m m m K 1 m m m m n #   5.P.)._._._._._._._._.3.3._._._._._._._._._._._._._._._._.",
"_._._._._._._._._._._._._._._._.3.3._._._._._._.~.N.' ^ S m m m m B ^ o n m m m m 7   q N.~._._._._._._._._.3.3._._._._._._._._._._._._._._._._.",
"_._._._._._._._._._._._._._._._.3.3._._._._._.).L.0.^ E m m m m m H ^   3 m m m m m #   >.L.)._._._._._._._.3.3._._._._._._._._._._._._._._._._.",
"_._._._._._._._._._._._._._._._.3.3._._._._._.~.M.` ^ S m m m m M W ^   o m m m m m l   < M.!._._._._._._._.3.3._._._._._._._._._._._._._._._._.",
"_._._._._._._._._._._._._._._._.3.3._._._._.).L.0.^ E m m m M F ~ ^ ^     $ 6 v m m m ,   :.L.)._._._._._._.3.3._._._._._._._._._._._._._._._._.",
"3.3.3.3.3.3.3.3.3.3.3.3.3.3.3.3.3.3.3.3.3.3.1.*.) ^ V m Z P ^ ^ ^ ^ ^           1 x m l   * *.1.3.3.3.3.3.3.3.3.3.3.3.3.3.3.3.3.3.3.3.3.3.3.3.3.",
"3.3.3.3.3.3.3.3.3.3.3.3.3.3.3.3.3.3.3.3.3.3.1.=._ ^ V m C K ^ ^ ^ ^ ^         o 2 z m l   > &.1.3.3.3.3.3.3.3.3.3.3.3.3.3.3.3.3.3.3.3.3.3.3.3.3.",
"3.3._._._._._._._._._._._._._._._._._._._._.).P.u.^ I m m m B J E ^ ^     o 3 n m m m $   4.J.)._._._._._._._._._._._._._._._._._._._._._._._._.",
"3.3._._._._._._._._._._._._._._._._._._._._._.^.B.#.^ V m m m m N ! ^   # m m m m m 8   e B.~._._._._._._._._._._._._._._._._._._._._._._._._._.",
"3.3._._._._._._._._._._._._._._._._._._._._._.).P.i.^ W m m m m m G ^   5 m m m m m $   6.U.)._._._._._._._._._._._._._._._._._._._._._._._._._.",
"3.3._._._._._._._._._._._._._._._._._._._._._._.^.V.] ^ A m m m m N ^   b m m m m 8   w V.^._._._._._._._._._._._._._._._._._._._._._._._._._._.",
"3.3._._._._._._._._._._._._._._._._._._._._._._.).U.a.^ W N m m m m L 2 m m m m m $   7.U._._._._._._._._._._._._._._._._._._._._._._._._._._._.",
"3.3._._._._._._._._._._._._._._._._._._._._._._._.~.B.| ^ F m m m m C c m m m m 8   r C.^._._._._._._._._._._._._._._._._._._._._._._._._._._._.",
"3.3._._._._._._._._._._._._._._._._._._._._._._._.).U.e./ ! N m m m m m m m m v $   7.U.)._._._._._._._._._._._._._._._._._._._._._._._._._._._.",
"3.3._._._._._._._._._._._._._._._._._._._._._._._._.^.Z. .^ F m m m m m m m m 4   r C.^._._._._._._._._._._._._._._._._._._._._._._._._._._._._.",
"3.3._._._._._._._._._._._._._._._._._._._._._._._._._.T.d./ ! N m m m m m m v $ = 8.I._._._._._._._._._._._._._._._._._._._._._._._._._._._._._.",
"3.3._._._._._._._._._._._._._._._._._._._._._._._._._./.A...^ F m m m m m m 2   i Z.^._._._._._._._._._._._._._._._._._._._._._._._._._._._._._.",
"3.3._._._._._._._._._._._._._._._._._._._._._._._._._._.R.f.( ! B m m m m v   ; 9.R.)._._._._._._._._._._._._._._._._._._._._._._._._._._._._._.",
"3.3._._._._._._._._._._._._._._._._._._._._._._._._._._.(.F.+.^ K m m m m 2   f D./._._._._._._._._._._._._._._._._._._._._._._._._._._._._._._.",
"3.3._._._._._._._._._._._._._._._._._._._._._._._._._._._.E.j.( ^ B m m v   ; c.W.)._._._._._._._._._._._._._._._._._._._._._._._._._._._._._._.",
"3.3._._._._._._._._._._._._._._._._._._._._._._._._._._._.(.F.o.^ I m m 2   h H.(._._._._._._._._._._._._._._._._._._._._._._._._._._._._._._._.",
"3.3._._._._._._._._._._._._._._._._._._._._._._._._._._._.).W.c.Q ^ V v   . v.W._._._._._._._._._._._._._._._._._._._._._._._._._._._._._._._._.",
"3.3._._._._._._._._._._._._._._._._._._._._._._._._._._._._.(.G.t.^ I ,   0 G.(._._._._._._._._._._._._._._._._._._._._._._._._._._._._._._._._.",
"3.3.3.3.3.3.3.3.3.3.3.3.3.3.3.3.3.3.3.3.3.3.3.3.3.3.3.3.3.3.3.<.$.D ^   X $.<.3.3.3.3.3.3.3.3.3.3.3.3.3.3.3.3.3.3.3.3.3.3.3.3.3.3.3.3.3.3.3.3.3.",
"3.3.3.3.3.3.3.3.3.3.3.3.3.3.3.3.3.3.3.3.3.3.3.3.3.3.3.3.3.3.3.2.-.s ^   9 -.2.3.3.3.3.3.3.3.3.3.3.3.3.3.3.3.3.3.3.3.3.3.3.3.3.3.3.3.3.3.3.3.3.3.",
"_._._._._._._._._._._._._._._._._._.3.3._._._._._._._._._._._._.Q.n.@.: b.Q._._._._._._._._._._._._._._.3.3._._._._._._._._._._._._._._._._._._.",
"_._._._._._._._._._._._._._._._._._.3.3._._._._._._._._._._._._._.L.k.,.K./._._._._._._._._._._._._._._.3.3._._._._._._._._._._._._._._._._._._.",
"_._._._._._._._._._._._._._._._._._.3.3._._._._._._._._._._._._._./.T.T./._._._._._._._._._._._._._._._.3.3._._._._._._._._._._._._._._._._._._.",
"_._._._._._._._._._._._._._._._._._.3.3._._._._._._._._._._._._._._.).)._._._._._._._._._._._._._._._._.3.3._._._._._._._._._._._._._._._._._._.",
"_._._._._._._._._._._._._._._._._._.3.3._._._._._._._._._._._._._._._._._._._._._._._._._._._._._._._._.3.3._._._._._._._._._._._._._._._._._._.",
"_._._._._._._._._._._._._._._._._._.3.3._._._._._._._._._._._._._._._._._._._._._._._._._._._._._._._._.3.3._._._._._._._._._._._._._._._._._._.",
"_._._._._._._._._._._._._._._._._._.3.3._._._._._._._._._._._._._._._._._._._._._._._._._._._._._._._._.3.3._._._._._._._._._._._._._._._._._._.",
"_._._._._._._._._._._._._._._._._._.3.3._._._._._._._._._._._._._._._._._._._._._._._._._._._._._._._._.3.3._._._._._._._._._._._._._._._._._._.",
"_._._._._._._._._._._._._._._._._._.3.3._._._._._._._._._._._._._._._._._._._._._._._._._._._._._._._._.3.3._._._._._._._._._._._._._._._._._._.",
"_._._._._._._._._._._._._._._._._._.3.3._._._._._._._._._._._._._._._._._._._._._._._._._._._._._._._._.3.3._._._._._._._._._._._._._._._._._._.",
"_._._._._._._._._._._._._._._._._._.3.3._._._._._._._._._._._._._._._._._._._._._._._._._._._._._._._._.3.3._._._._._._._._._._._._._._._._._._.",
"_._._._._._._._._._._._._._._._._._.3.3._._._._._._._._._._._._._._._._._._._._._._._._._._._._._._._._.3.3._._._._._._._._._._._._._._._._._._.",
"_._._._._._._._._._._._._._._._._._.3.3._._._._._._._._._._._._._._._._._._._._._._._._._._._._._._._._.3.3._._._._._._._._._._._._._._._._._._.",
"_._._._._._._._._._._._._._._._._._.3.3._._._._._._._._._._._._._._._._._._._._._._._._._._._._._._._._.3.3._._._._._._._._._._._._._._._._._._.",
"_._._._._._._._._._._._._._._._._._.3.3._._._._._._._._._._._._._._._._._._._._._._._._._._._._._._._._.3.3._._._._._._._._._._._._._._._._._._.",
"_._._._._._._._._._._._._._._._._._.3.3._._._._._._._._._._._._._._._._._._._._._._._._._._._._._._._._.3.3._._._._._._._._._._._._._._._._._._.",
"3.3.3.3.3.3.3.3.3.3.3.3.3.3.3.3.3.3.3.3.3.3.3.3.3.3.3.3.3.3.3.3.3.3.3.3.3.3.3.3.3.3.3.3.3.3.3.3.3.3.3.3.3.3.3.3.3.3.3.3.3.3.3.3.3.3.3.3.3.3.3.3.",
"3.3.3.3.3.3.3.3.3.3.3.3.3.3.3.3.3.3.3.3.3.3.3.3.3.3.3.3.3.3.3.3.3.3.3.3.3.3.3.3.3.3.3.3.3.3.3.3.3.3.3.3.3.3.3.3.3.3.3.3.3.3.3.3.3.3.3.3.3.3.3.3."
};
