/* XPM */
static char *result[] = {
/* columns rows colors chars-per-pixel */
"72 72 64 1 ",
"  c gray46",
". c gray48",
"X c #7B7B7B",
"o c #7C7C7C",
"O c gray49",
"+ c #7E7E7E",
"@ c gray50",
"# c #F77622",
"$ c #FEAE34",
"% c #FEE761",
"& c #888888",
"* c gray54",
"= c #8B8B8B",
"- c gray55",
"; c #9D9D9D",
": c gray62",
"> c #9F9F9F",
", c gray63",
"< c #A2A2A2",
"1 c gray64",
"2 c #A4A4A4",
"3 c #A5A5A5",
"4 c gray65",
"5 c #A7A7A7",
"6 c gray66",
"7 c #A9A9A9",
"8 c #AAAAAA",
"9 c gray67",
"0 c #ACACAC",
"q c gray68",
"w c #AEAEAE",
"e c #AFAFAF",
"r c gray69",
"t c #B1B1B1",
"y c #B2B2B2",
"u c gray70",
"i c #B4B4B4",
"p c gray71",
"a c gray",
"s c gray75",
"d c #C0C0C0",
"f c #C1C1C1",
"g c gray77",
"h c #C5C5C5",
"j c gray78",
"k c gainsboro",
"l c #DDDDDD",
"z c gray87",
"x c #DFDFDF",
"c c #E2E2E2",
"v c gray90",
"b c #E6E6E6",
"n c #E7E7E7",
"m c gray91",
"M c #E9E9E9",
"N c #EAEAEA",
"B c gray92",
"V c #ECECEC",
"C c gray93",
"Z c #EEEEEE",
"A c #EFEFEF",
"S c gray94",
"D c #F1F1F1",
"F c gray95",
/* pixels */
"FFFFFFFFFFFFFFFFFFFFFFFFFFFFFFFFFF00FFFFFFFFFFFFFFFFFFFFFFFFFFFFFFFFFF00",
"FFFFFFFFFFFFFFFFFFFFFFFFFFFFFFFFFF00FFFFFFFFFFFFFFFFFFFFFFFFFFFFFFFFFF00",
"FFFFFFFFFFFFFFFFFFFFFFFFFFFFFFFFFF00FFFFFFFFFFFFFFFFFFFFFFFFFFFFFFFFFF00",
"FFFFFFFFFFFFFFFFFFFFFFFFFFFFFFFFFF00FFFFFFFFFFFFFFFFFFFFFFFFFFFFFFFFFF00",
"FFFFFFFFFFFFFFFFFFFFFFFFFFFFFFFFFF00FFFFFFFFFFFFFFFFFFFFFFFFFFFFFFFFFF00",
"FFFFFFFFFFFFFFFFFFFFFFFFFFFFFFFFFF00FFFFFFFFFFFFFFFFFFFFFFFFFFFFFFFFFF00",
"FFFFFFFFFFFFFFFFFFFFFFFFFFFFFFFFFF00FFFFFFFFFFFFFFFFFFFFFFFFFFFFFFFFFF00",
"FFFFFFFFFFFFFFFFFFFFFFFFFFFFFFFFFF00FFFFFFFFFFFFFFFFFFFFFFFFFFFFFFFFFF00",
"FFFFFFFFFFFFFFFFFFFFFFFFFFFFFFFFFF00FFFFFFFFFFFFFFFFFFFFFFFFFFFFFFFFFF00",
"FFFFFFFFFFFFFFFFFFFFFFFFFFFFFFFFFF00FFFFFFFFFFFFFFFFFFFFFFFFFFFFFFFFFF00",
"FFFFFFFFFFFFFFFFFFFFFFFFFFFFFFFFFF00FFFFFFFFFFFFFFFFFFFFFFFFFFFFFFFFFF00",
"FFFFFFFFFFFFFFFFFFFFFFFFFFFFFFFFFF00FFFFFFFFFFFFFFFFFFFFFFFFFFFFFFFFFF00",
"FFFFFFFFFFFFFFFFFFFFFFFFFFFFFFFFFF00FFFFFFFFFFFFFFFFFFFFFFFFFFFFFFFFFF00",
"FFFFFFFFFFFFFFFFFFFFFFFFFFFFFFFFFF00FFFFFFFFFFFFFFFFFFFFFFFFFFFFFFFFFF00",
"FFFFFFFFFFFFFFFFFFFFFFFFFFFFFFFFFF00FFFFFFFFFFFFFFFFFFFFFFFFFFFFFFFFFF00",
"FFFFFFFFFFFFFFFFFFFFFFFFFFFFFFFFFF00FFFFFFFFFFFFFFFFFFFFFFFFFFFFFFFFFF00",
"000000000000000000000000000853333333333333359000000000000000000000000000",
"000000000000000000000000008;&O.XXoXXXXX.oX+=>800000000000000000000000000",
"FFFFFFFFFFFFFFFF00FFFFFFFFBs%%%%$$$$$$$$####hBFFFFFFFF00FFFFFFFFFFFFFFFF",
"FFFFFFFFFFFFFFFF00FFFFFFFFm0%%%%$$$$$$$$####iMFFFFFFFF00FFFFFFFFFFFFFFFF",
"FFFFFFFFFFFFFFFF00FFFFDAMmk>%%%%$$$$$$$$####5knBZFFFFF00FFFFFFFFFFFFFFFF",
"FFFFFFFFFFFFFFFF00FFFFSla9, %%%%$$$$$$$$####.<0dzAFFFF00FFFFFFFFFFFFFFFF",
"FFFFFFFFFFFFFFFF00FFFFBd%%%%%%%%$$$$$$$$########dNFFFF00FFFFFFFFFFFFFFFF",
"FFFFFFFFFFFFFFFF00FFFFme%%%%%%%%$$$$$$$$########wnFFFF00FFFFFFFFFFFFFFFF",
"FFFFFFFFFFFFFFFF00DSVMz2%%%%$$$$$$$$$$$$$$$$####2zMVAF00FFFFFFFFFFFFFFFF",
"FFFFFFFFFFFFFFFF00Alft5.%%%%$$$$$$$$$$$$$$$$####.4tgxA00FFFFFFFFFFFFFFFF",
"FFFFFFFFFFFFFFFF00Na%%%%$$$$$$$$$$$$$$$$$$$$$$$$####gB00FFFFFFFFFFFFFFFF",
"FFFFFFFFFFFFFFFF00b8%%%%$$$$$$$$$$$$$$$$$$$$$$$$####iM00FFFFFFFFFFFFFFFF",
"FFFFFFFFFFFFFFFF00v2%%%%$$$$$$$$$$$$$$$$$$$$$$$$####tM00FFFFFFFFFFFFFFFF",
"FFFFFFFFFFFFFFFF00v2%%%%$$$$$$$$$$$$$$$$$$$$$$$$####yM00FFFFFFFFFFFFFFFF",
"FFFFFFFFFFFFFFFF00v3%%%%$$$$$$$$%%%%####$$$$$$$$####rN00FFFFFFFFFFFFFFFF",
"FFFFFFFFFFFFFFFF00v2%%%%$$$$$$$$%%%%####$$$$$$$$####tM00FFFFFFFFFFFFFFFF",
"FFFFFFFFFFFFFFFF00b2%%%%$$$$$$$$%%%%####$$$$$$$$####tM00FFFFFFFFFFFFFFFF",
"FFFFFFFFFFFFFFFF00v3%%%%$$$$$$$$%%%%####$$$$$$$$####tM00FFFFFFFFFFFFFFFF",
"0000000000000000001 %%%%$$$$$$$$%%%%####$$$$$$$$####+4000000000000000000",
"0000000000000000001 %%%%$$$$$$$$%%%%####$$$$$$$$####@4000000000000000000",
"00FFFFFFFFFFFFFFFFv3%%%%$$$$$$$$%%%%####$$$$$$$$####tMFFFFFFFFFFFFFFFFFF",
"00FFFFFFFFFFFFFFFFb3%%%%$$$$$$$$%%%%####$$$$$$$$####tMFFFFFFFFFFFFFFFFFF",
"00FFFFFFFFFFFFFFFFv3%%%%$$$$$$$$%%%%####$$$$$$$$####tMFFFFFFFFFFFFFFFFFF",
"00FFFFFFFFFFFFFFFFv4%%%%$$$$$$$$%%%%####$$$$$$$$####yMFFFFFFFFFFFFFFFFFF",
"00FFFFFFFFFFFFFFFFv2%%%%$$$$$$$$$$$$$$$$$$$$$$$$####rMFFFFFFFFFFFFFFFFFF",
"00FFFFFFFFFFFFFFFFv3%%%%$$$$$$$$$$$$$$$$$$$$$$$$####tMFFFFFFFFFFFFFFFFFF",
"00FFFFFFFFFFFFFFFFb8%%%%$$$$$$$$$$$$$$$$$$$$$$$$####pNFFFFFFFFFFFFFFFFFF",
"00FFFFFFFFFFFFFFFFMa%%%%$$$$$$$$$$$$$$$$$$$$$$$$####jCFFFFFFFFFFFFFFFFFF",
"00FFFFFFFFFFFFFFFFZlfy6+%%%%$$$$$$$$$$$$$$$$####o6ijcSFFFFFFFFFFFFFFFFFF",
"00FFFFFFFFFFFFFFFFFZNMx2%%%%$$$$$$$$$$$$$$$$####3lMVSFFFFFFFFFFFFFFFFFFF",
"00FFFFFFFFFFFFFFFFFFFFmw%%%%%%%%$$$$$$$$########wmFFFFFFFFFFFFFFFFFFFFFF",
"00FFFFFFFFFFFFFFFFFFFFBd%%%%%%%%$$$$$$$$########dNFFFFFFFFFFFFFFFFFFFFFF",
"00FFFFFFFFFFFFFFFFFFFFZkaq1 %%%%$$$$$$$$####O2wdlSFFFFFFFFFFFFFFFFFFFFFF",
"00FFFFFFFFFFFFFFFFFFFFFZMnk>%%%%$$$$$$$$####6lnNADFFFFFFFFFFFFFFFFFFFFFF",
"00FFFFFFFFFFFFFFFFFFFFFFFFm0%%%%$$$$$$$$####uMFFFFFFFFFFFFFFFFFFFFFFFFFF",
"00FFFFFFFFFFFFFFFFFFFFFFFFBd%%%%$$$$$$$$####gVFFFFFFFFFFFFFFFFFFFFFFFFFF",
"000000000000000000000000007:*@+++@+++++@@@@->800000000000000000000000000",
"000000000000000000000000000854434444444444458000000000000000000000000000",
"FFFFFFFFFFFFFFFFFF00FFFFFFFFFFFFFFFFFFFFFFFFFFFFFFFF00FFFFFFFFFFFFFFFFFF",
"FFFFFFFFFFFFFFFFFF00FFFFFFFFFFFFFFFFFFFFFFFFFFFFFFFF00FFFFFFFFFFFFFFFFFF",
"FFFFFFFFFFFFFFFFFF00FFFFFFFFFFFFFFFFFFFFFFFFFFFFFFFF00FFFFFFFFFFFFFFFFFF",
"FFFFFFFFFFFFFFFFFF00FFFFFFFFFFFFFFFFFFFFFFFFFFFFFFFF00FFFFFFFFFFFFFFFFFF",
"FFFFFFFFFFFFFFFFFF00FFFFFFFFFFFFFFFFFFFFFFFFFFFFFFFF00FFFFFFFFFFFFFFFFFF",
"FFFFFFFFFFFFFFFFFF00FFFFFFFFFFFFFFFFFFFFFFFFFFFFFFFF00FFFFFFFFFFFFFFFFFF",
"FFFFFFFFFFFFFFFFFF00FFFFFFFFFFFFFFFFFFFFFFFFFFFFFFFF00FFFFFFFFFFFFFFFFFF",
"FFFFFFFFFFFFFFFFFF00FFFFFFFFFFFFFFFFFFFFFFFFFFFFFFFF00FFFFFFFFFFFFFFFFFF",
"FFFFFFFFFFFFFFFFFF00FFFFFFFFFFFFFFFFFFFFFFFFFFFFFFFF00FFFFFFFFFFFFFFFFFF",
"FFFFFFFFFFFFFFFFFF00FFFFFFFFFFFFFFFFFFFFFFFFFFFFFFFF00FFFFFFFFFFFFFFFFFF",
"FFFFFFFFFFFFFFFFFF00FFFFFFFFFFFFFFFFFFFFFFFFFFFFFFFF00FFFFFFFFFFFFFFFFFF",
"FFFFFFFFFFFFFFFFFF00FFFFFFFFFFFFFFFFFFFFFFFFFFFFFFFF00FFFFFFFFFFFFFFFFFF",
"FFFFFFFFFFFFFFFFFF00FFFFFFFFFFFFFFFFFFFFFFFFFFFFFFFF00FFFFFFFFFFFFFFFFFF",
"FFFFFFFFFFFFFFFFFF00FFFFFFFFFFFFFFFFFFFFFFFFFFFFFFFF00FFFFFFFFFFFFFFFFFF",
"FFFFFFFFFFFFFFFFFF00FFFFFFFFFFFFFFFFFFFFFFFFFFFFFFFF00FFFFFFFFFFFFFFFFFF",
"FFFFFFFFFFFFFFFFFF00FFFFFFFFFFFFFFFFFFFFFFFFFFFFFFFF00FFFFFFFFFFFFFFFFFF",
"000000000000000000000000000000000000000000000000000000000000000000000000",
"000000000000000000000000000000000000000000000000000000000000000000000000"
};
