/* XPM */
static char *collectable_1_flip1706116393[] = {
/* columns rows colors chars-per-pixel */
"73 72 131 2 ",
"   c None",
".  c #7F6F64",
"X  c gray48",
"o  c #7B7B7B",
"O  c #7C7C7C",
"+  c #7E7E7E",
"@  c gray50",
"#  c #F77622",
"$  c #F87D24",
"%  c #806F65",
"&  c #827167",
"*  c #827267",
"=  c #85746A",
"-  c #86766C",
";  c #F8842A",
":  c #FDA732",
">  c #FEAE34",
",  c #FEB53A",
"<  c #FEE05C",
"1  c #EAD660",
"2  c #EAD661",
"3  c #ECD863",
"4  c #EDD963",
"5  c #EEDA65",
"6  c #EFDB65",
"7  c #EFDB66",
"8  c #F0DC66",
"9  c #F0DC67",
"0  c #F1DD67",
"q  c #F1DD68",
"w  c #F2DE68",
"e  c #F3DE69",
"r  c #F3DF6A",
"t  c #FEE761",
"y  c #F4E06B",
"u  c #F5E16B",
"i  c gray51",
"p  c #838383",
"a  c #848484",
"s  c gray52",
"d  c #868686",
"f  c #888888",
"g  c #8D8D8D",
"h  c #909090",
"j  c #9A9A9A",
"k  c gray61",
"l  c #9D9D9D",
"z  c #9F9F9F",
"x  c #A29287",
"c  c #A39288",
"v  c #A8998E",
"b  c #A9998E",
"n  c #A9998F",
"m  c #AA998F",
"M  c #A99A8F",
"N  c #AA9A8F",
"B  c #AB9A90",
"V  c #AC9C92",
"C  c #AD9D92",
"Z  c #AD9E93",
"A  c #AE9E93",
"S  c #B2A297",
"D  c #B3A398",
"F  c #A0A0A0",
"G  c gray63",
"H  c #A2A2A2",
"J  c gray64",
"K  c #A4A4A4",
"L  c #A5A5A5",
"P  c gray65",
"I  c #A7A7A7",
"U  c gray66",
"Y  c #A9A9A9",
"T  c #AAAAAA",
"R  c gray67",
"E  c #ACACAC",
"W  c gray68",
"Q  c #AEAEAE",
"!  c #AFAFAF",
"~  c gray69",
"^  c #B1B1B1",
"/  c #B2B2B2",
"(  c gray70",
")  c gray71",
"_  c gray72",
"`  c #B9B9B9",
"'  c gray73",
"]  c #BBBBBB",
"[  c #BCBCBC",
"{  c gray74",
"}  c gray",
"|  c gray75",
" . c #C0B0A5",
".. c #C1B0A6",
"X. c #C1B1A6",
"o. c #C1B1A7",
"O. c #C3B2A8",
"+. c #C3B4A9",
"@. c #C0C0C0",
"#. c #C1C1C1",
"$. c gray77",
"%. c #C6C6C6",
"&. c gray78",
"*. c gray79",
"=. c gray80",
"-. c #CDCDCD",
";. c #CECECE",
":. c gray84",
">. c #D7D7D7",
",. c gray85",
"<. c #DADADA",
"1. c gray86",
"2. c gray87",
"3. c gray88",
"4. c #E1E1E1",
"5. c #E2E2E2",
"6. c gray89",
"7. c #E4E4E4",
"8. c #E6E6E6",
"9. c #E7E7E7",
"0. c gray91",
"q. c #E9E9E9",
"w. c #EAEAEA",
"e. c gray92",
"r. c #ECECEC",
"t. c gray93",
"y. c #EEEEEE",
"u. c #EFEFEF",
"i. c gray94",
"p. c #F1F1F1",
"a. c gray95",
/* pixels */
"a.a.a.a.a.a.a.a.a.a.a.a.a.a.a.a.a.a.a.a.a.a.a.a.a.a.a.a.a.a.a.a.a.a.) E q.a.a.a.a.a.a.a.a.a.a.a.a.a.a.a.a.a.a.a.a.a.a.a.a.a.a.a.a.a.a.a.a.a.) E   ",
"a.a.a.a.a.a.a.a.a.a.a.a.a.a.a.a.a.a.a.a.a.a.a.a.a.a.a.a.a.a.a.a.a.a.) E q.a.a.a.a.a.a.a.a.a.a.a.a.a.a.a.a.a.a.a.a.a.a.a.a.a.a.a.a.a.a.a.a.a.) E   ",
"a.a.a.a.a.a.a.a.a.a.a.a.a.a.a.a.a.a.a.a.a.a.a.a.a.a.a.a.a.a.a.a.a.a.) E q.a.a.a.a.a.a.a.a.a.a.a.a.a.a.a.a.a.a.a.a.a.a.a.a.a.a.a.a.a.a.a.a.a.) E   ",
"a.a.a.a.a.a.a.a.a.a.a.a.a.a.a.a.a.a.a.a.a.a.a.a.a.a.a.a.a.a.a.a.a.a.) R q.a.a.a.a.a.a.a.a.a.a.a.a.a.a.a.a.a.a.a.a.a.a.a.a.a.a.a.a.a.a.a.a.a.) E   ",
"a.a.a.a.a.a.a.a.a.a.a.a.a.a.a.a.a.a.a.a.a.a.a.a.a.a.a.a.a.a.a.a.a.a.) E q.a.a.a.a.a.a.a.a.a.a.a.a.a.a.a.a.a.a.a.a.a.a.a.a.a.a.a.a.a.a.a.a.a.) E   ",
"a.a.a.a.a.a.a.a.a.a.a.a.a.a.a.a.a.a.a.a.a.a.a.a.a.a.a.a.a.a.a.a.a.a.) E q.a.a.a.a.a.a.a.a.a.a.a.a.a.a.a.a.a.a.a.a.a.a.a.a.a.a.a.a.a.a.a.a.a.) E   ",
"a.a.a.a.a.a.a.a.a.a.a.a.a.a.a.a.a.a.a.a.a.a.a.a.a.a.a.a.a.a.a.a.a.a.) E q.a.a.a.a.a.a.a.a.a.a.a.a.a.a.a.a.a.a.a.a.a.a.a.a.a.a.a.a.a.a.a.a.a.) E   ",
"a.a.a.a.a.a.a.a.a.a.a.a.a.a.a.a.a.a.a.a.a.a.a.a.a.a.a.a.a.a.a.a.a.a.) E q.a.a.a.a.a.a.a.a.a.a.a.a.a.a.a.a.a.a.a.a.a.a.a.a.a.a.a.a.a.a.a.a.a.) E   ",
"a.a.a.a.a.a.a.a.a.a.a.a.a.a.a.a.a.a.a.a.a.a.a.a.a.a.a.a.a.a.a.a.a.a.) E q.a.a.a.a.a.a.a.a.a.a.a.a.a.a.a.a.a.a.a.a.a.a.a.a.a.a.a.a.a.a.a.a.a.) E   ",
"a.a.a.a.a.a.a.a.a.a.a.a.a.a.a.a.a.a.a.a.a.a.a.a.a.a.a.a.a.a.a.a.a.a.) E q.a.a.a.a.a.a.a.a.a.a.a.a.a.a.a.a.a.a.a.a.a.a.a.a.a.a.a.a.a.a.a.a.a.) E   ",
"a.a.a.a.a.a.a.a.a.a.a.a.a.a.a.a.a.a.a.a.a.a.a.a.a.a.a.a.a.a.a.a.a.a.) E q.a.a.a.a.a.a.a.a.a.a.a.a.a.a.a.a.a.a.a.a.a.a.a.a.a.a.a.a.a.a.a.a.a.) E   ",
"a.a.a.a.a.a.a.a.a.a.a.a.a.a.a.a.a.a.a.a.a.a.a.a.a.a.a.a.a.a.a.a.a.a.) E q.a.a.a.a.a.a.a.a.a.a.a.a.a.a.a.a.a.a.a.a.a.a.a.a.a.a.a.a.a.a.a.a.a.) E   ",
"a.a.a.a.a.a.a.a.a.a.a.a.a.a.a.a.a.a.a.a.a.a.a.a.a.a.a.a.a.a.a.a.a.a.) E q.a.a.a.a.a.a.a.a.a.a.a.a.a.a.a.a.a.a.a.a.a.a.a.a.a.a.a.a.a.a.a.a.a.) E   ",
"a.a.a.a.a.a.a.a.a.a.a.a.a.a.a.a.a.a.a.a.a.a.a.a.a.a.a.a.a.a.a.a.a.a.) E q.a.a.a.a.a.a.a.a.a.a.a.a.a.a.a.a.a.a.a.a.a.a.a.a.a.a.a.a.a.a.a.a.a.) E   ",
"a.a.a.a.a.a.a.a.a.a.a.a.a.a.a.a.a.a.a.a.a.a.a.a.a.a.a.a.a.a.a.a.a.a.) E q.a.a.a.a.a.a.a.a.a.a.a.a.a.a.a.a.a.a.a.a.a.a.a.a.a.a.a.a.a.a.a.a.a.) E   ",
"a.a.a.a.a.a.a.a.a.a.a.a.a.a.a.a.a.a.a.a.a.a.a.a.a.a.a.a.a.a.a.a.a.a.) E q.a.a.a.a.a.a.a.a.a.a.a.a.a.a.a.a.a.a.a.a.a.a.a.a.a.a.a.a.a.a.a.a.a.) E   ",
"E E E E E E E E E E E E E E E E E E E E E E E E E E E R P P P K K P K P K P K P K P K I R R R W E E E E E E E E E E E E E E E E E E E E E E E E   ",
"E E E E E E E E E E E E E E E E E E E E E E E E R R R G g + X + o O o o o o o X O o O d j Y W R E E E E E E E E E E E E E E E E E E E E E E E E   ",
"a.a.a.a.a.a.a.a.a.a.a.a.a.a.a.a.) E q.a.a.a.a.a.a.a.u.-.q t t t , > > > > > > > $ # # # ( 9.a.a.a.a.a.a.a.a.) E q.a.a.a.a.a.a.a.a.a.a.a.a.a.a.a.  ",
"a.a.a.a.a.a.a.a.a.a.a.a.a.a.a.a.) E q.a.a.a.a.a.a.a.u.} q t t t , > > > > > > > $ # # # A 5.a.a.a.a.a.a.a.a.) E q.a.a.a.a.a.a.a.a.a.a.a.a.a.a.a.  ",
"a.a.a.a.a.a.a.a.a.a.a.a.a.a.a.a.) E q.a.a.a.a.u.q.q.5./ 4 t t t , > > > > > > > $ # # # c >.8.q.u.a.a.a.a.a.) E q.a.a.a.a.a.a.a.a.a.a.a.a.a.a.a.  ",
"a.a.a.a.a.a.a.a.a.a.a.a.a.a.a.a.) E q.a.a.a.a.2.#.E K a 2 t t t , > > > > > > > $ # # # . l R [ ,.r.a.a.a.a.) E q.a.a.a.a.a.a.a.a.a.a.a.a.a.a.a.  ",
"a.a.a.a.a.a.a.a.a.a.a.a.a.a.a.a.) E q.a.a.a.q.&.q t t t t t t t , > > > > > > > $ # # # # # # # O.q.a.a.a.a.) E q.a.a.a.a.a.a.a.a.a.a.a.a.a.a.a.  ",
"a.a.a.a.a.a.a.a.a.a.a.a.a.a.a.a.) E q.a.a.a.q._ q t t t t t t t , > > > > > > > $ # # # # # # # D 7.a.a.a.a.) E q.a.a.a.a.a.a.a.a.a.a.a.a.a.a.a.  ",
"a.a.a.a.a.a.a.a.a.a.a.a.a.a.a.a.) E q.a.u.q.5.! 4 t t t , > > > > > > > > > > > > > > > $ # # # M <.r.i.u.i.) E q.a.a.a.a.a.a.a.a.a.a.a.a.a.a.a.  ",
"a.a.a.a.a.a.a.a.a.a.a.a.a.a.a.a.) E q.5.&.( U i 2 t t t , > > > > > > > > > > > > > > > $ # # # - K ^ +.,.u.) E q.a.a.a.a.a.a.a.a.a.a.a.a.a.a.a.  ",
"a.a.a.a.a.a.a.a.a.a.a.a.a.a.a.a.) E 5.-.q t t t , > > > > > > > > > > > > > > > > > > > > > > > $ # # # ..7.) E q.a.a.a.a.a.a.a.a.a.a.a.a.a.a.a.  ",
"a.a.a.a.a.a.a.a.a.a.a.a.a.a.a.a.) E 5.} q t t t , > > > > > > > > > > > > > > > > > > > > > > > $ # # # A 5.) E q.a.a.a.a.a.a.a.a.a.a.a.a.a.a.a.  ",
"a.a.a.a.a.a.a.a.a.a.a.a.a.a.a.a.) E 7.} 4 t t t , > > > > > > > > > > > > > > > > > > > > > > > $ # # # v 5.) E q.a.a.a.a.a.a.a.a.a.a.a.a.a.a.a.  ",
"a.a.a.a.a.a.a.a.a.a.a.a.a.a.a.a.) E 7._ 4 t t t , > > > > > > > > > > > > > > > > > > > > > > > $ # # # v 3.) E q.a.a.a.a.a.a.a.a.a.a.a.a.a.a.a.  ",
"a.a.a.a.a.a.a.a.a.a.a.a.a.a.a.a.) E 7.} 4 t t t , > > > > > > > < t t t ; # # # : > > > > > > > $ # # # v 5.) E q.a.a.a.a.a.a.a.a.a.a.a.a.a.a.a.  ",
"a.a.a.a.a.a.a.a.a.a.a.a.a.a.a.a.) E 5._ 4 t t t , > > > > > > > < t t t ; # # # : > > > > > > > $ # # # v 5.) E q.a.a.a.a.a.a.a.a.a.a.a.a.a.a.a.  ",
"a.a.a.a.a.a.a.a.a.a.a.a.a.a.a.a.) E 6.] 7 t t t , > > > > > > > < t t t ; # # # : > > > > > > > $ # # # M 4.) W q.a.a.a.a.a.a.a.a.a.a.a.a.a.a.a.  ",
"a.a.a.a.a.a.a.a.a.a.a.a.a.a.a.a.) E 6.] 4 t t t , > > > > > > > < t t t ; # # # : > > > > > > > $ # # # M 6.) R q.a.a.a.a.a.a.a.a.a.a.a.a.a.a.a.  ",
"E E E E E E E E E E E E E E E E E E U a 3 t t t , > > > > > > > < t t t ; # # # : > > > > > > > $ # # # . H E E R W R W R W R W E E E E E E E E   ",
"E E E E E E E E E E E E E E E E E E U a 2 t t t , > > > > > > > < t t t ; # # # : > > > > > > > $ # # # . Z E E W R W R W R W R E E E E E E E E   ",
"E E q.a.a.a.a.a.a.a.a.a.a.a.a.a.a.a.r.] 4 t t t , > > > > > > > < t t t ; # # # : > > > > > > > $ # # # v 5.a.a.a.a.a.a.a.a.a.a.a.a.a.a.a.a.a.a.  ",
"E E q.a.a.a.a.a.a.a.a.a.a.a.a.a.a.a.r.] 7 t t t , > > > > > > > < t t t ; # # # : > > > > > > > $ # # # v 3.a.a.a.a.a.a.a.a.a.a.a.a.a.a.a.a.a.a.  ",
"E E q.a.a.a.a.a.a.a.a.a.a.a.a.a.a.a.r.] 4 t t t , > > > > > > > < t t t ; # # # : > > > > > > > $ # # # B 3.a.a.a.a.a.a.a.a.a.a.a.a.a.a.a.a.a.a.  ",
"E E q.a.a.a.a.a.a.a.a.a.a.a.a.a.a.a.r.] 7 t t t , > > > > > > > < t t t ; # # # : > > > > > > > $ # # # v 5.a.a.a.a.a.a.a.a.a.a.a.a.a.a.a.a.a.a.  ",
"E E q.a.a.a.a.a.a.a.a.a.a.a.a.a.a.a.r._ 7 t t t , > > > > > > > > > > > > > > > > > > > > > > > $ # # # v 4.a.a.a.a.a.a.a.a.a.a.a.a.a.a.a.a.a.a.  ",
"E E q.a.a.a.a.a.a.a.a.a.a.a.a.a.a.a.r.] 7 t t t , > > > > > > > > > > > > > > > > > > > > > > > $ # # # v 4.a.a.a.a.a.a.a.a.a.a.a.a.a.a.a.a.a.a.  ",
"E E q.a.a.a.a.a.a.a.a.a.a.a.a.a.a.a.u.| 7 t t t , > > > > > > > > > > > > > > > > > > > > > > > $ # # # Z 4.a.a.a.a.a.a.a.a.a.a.a.a.a.a.a.a.a.a.  ",
"E E q.a.a.a.a.a.a.a.a.a.a.a.a.a.a.a.r.-.y t t t , > > > > > > > > > > > > > > > > > > > > > > > $ # # # ( 8.a.a.a.a.a.a.a.a.a.a.a.a.a.a.a.a.a.a.  ",
"E E q.a.a.a.a.a.a.a.a.a.a.a.a.a.a.a.i.5.&.) E a 3 t t t , > > > > > > > > > > > > > > > $ # # # = K / #.<.i.a.a.a.a.a.a.a.a.a.a.a.a.a.a.a.a.a.a.  ",
"E E q.a.a.a.a.a.a.a.a.a.a.a.a.a.a.a.a.u.e.q.5.Q 7 t t t , > > > > > > > > > > > > > > > $ # # # m <.q.r.i.i.a.a.a.a.a.a.a.a.a.a.a.a.a.a.a.a.a.a.  ",
"E E q.a.a.a.a.a.a.a.a.a.a.a.a.a.a.a.a.a.a.a.e.` q t t t t t t t , > > > > > > > $ # # # # # # # S 7.a.a.a.a.a.a.a.a.a.a.a.a.a.a.a.a.a.a.a.a.a.a.  ",
"E E q.a.a.a.a.a.a.a.a.a.a.a.a.a.a.a.a.a.a.a.e.*.u t t t t t t t , > > > > > > > $ # # # # # # # O.9.a.a.a.a.a.a.a.a.a.a.a.a.a.a.a.a.a.a.a.a.a.a.  ",
"E E q.a.a.a.a.a.a.a.a.a.a.a.a.a.a.a.a.a.a.a.i.3.$.! I p 4 t t t , > > > > > > > $ # # # . Z E [ <.i.p.a.a.a.a.a.a.a.a.a.a.a.a.a.a.a.a.a.a.a.a.a.  ",
"E E q.a.a.a.a.a.a.a.a.a.a.a.a.a.a.a.a.a.a.a.a.i.w.8.3.( 7 t t t , > > > > > > > $ # # # c ,.9.r.i.p.a.a.a.a.a.a.a.a.a.a.a.a.a.a.a.a.a.a.a.a.a.a.  ",
"E E q.a.a.a.a.a.a.a.a.a.a.a.a.a.a.a.a.a.a.a.a.a.a.p.t.| q t t t , > > > > > > > $ # # # M 6.a.a.a.a.a.a.a.a.a.a.a.a.a.a.a.a.a.a.a.a.a.a.a.a.a.a.  ",
"E E q.a.a.a.a.a.a.a.a.a.a.a.a.a.a.a.a.a.a.a.a.a.a.p.i.;.u t t u , > > > > > > > $ # # # ( 8.a.a.a.a.a.a.a.a.a.a.a.a.a.a.a.a.a.a.a.a.a.a.a.a.a.a.  ",
"E E E E E E E E E E E E E E E E R W R W R W R W R R R H h p + + + @ + + + + + @ - @ @ f j Y E E E E E E E E E E E E E E E E E E E E E E E E E E   ",
"E E E E E E E E E E E E E E E E W R W R W R W R R W W R I I I L L I I L I I L I R I I I E E E E E E E E E E E E E E E E E E E E E E E E E E E E   ",
"a.a.a.a.a.a.a.a.a.a.a.a.a.a.a.a.a.a.) W q.a.a.a.a.a.a.a.a.a.a.a.a.a.p.a.a.a.a.a.a.a.a.a.a.a.a.a.a.a.a.a.) E q.a.a.a.a.a.a.a.a.a.a.a.a.a.a.a.a.a.  ",
"a.a.a.a.a.a.a.a.a.a.a.a.a.a.a.a.a.a.) R q.a.a.a.a.a.a.a.a.a.a.a.a.a.a.a.a.a.a.a.a.a.a.a.a.a.a.a.a.a.a.a.) E q.a.a.a.a.a.a.a.a.a.a.a.a.a.a.a.a.a.  ",
"a.a.a.a.a.a.a.a.a.a.a.a.a.a.a.a.a.a.) R w.a.a.a.a.a.a.a.a.a.a.a.a.a.a.a.a.a.a.a.a.a.a.a.a.a.a.a.a.a.a.a.) E q.a.a.a.a.a.a.a.a.a.a.a.a.a.a.a.a.a.  ",
"a.a.a.a.a.a.a.a.a.a.a.a.a.a.a.a.a.a.) W q.a.a.a.a.a.a.a.a.a.a.a.a.a.a.a.a.a.a.a.a.a.a.a.a.a.a.a.a.a.a.a.) E q.a.a.a.a.a.a.a.a.a.a.a.a.a.a.a.a.a.  ",
"a.a.a.a.a.a.a.a.a.a.a.a.a.a.a.a.a.a.) R q.a.a.a.a.a.a.a.a.a.a.a.a.a.a.a.a.a.a.a.a.a.a.a.a.a.a.a.a.a.a.a.) E q.a.a.a.a.a.a.a.a.a.a.a.a.a.a.a.a.a.  ",
"a.a.a.a.a.a.a.a.a.a.a.a.a.a.a.a.a.a.) W q.a.a.a.a.a.a.a.a.a.a.a.a.a.a.a.a.a.a.a.a.a.a.a.a.a.a.a.a.a.a.a.) E q.a.a.a.a.a.a.a.a.a.a.a.a.a.a.a.a.a.  ",
"a.a.a.a.a.a.a.a.a.a.a.a.a.a.a.a.a.a.) R q.a.a.a.a.a.a.a.a.a.a.a.a.a.a.a.a.a.a.a.a.a.a.a.a.a.a.a.a.a.a.a.) E q.a.a.a.a.a.a.a.a.a.a.a.a.a.a.a.a.a.  ",
"a.a.a.a.a.a.a.a.a.a.a.a.a.a.a.a.a.a.) W q.a.a.a.a.a.a.a.a.a.a.a.a.a.a.a.a.a.a.a.a.a.a.a.a.a.a.a.a.a.a.a.) E q.a.a.a.a.a.a.a.a.a.a.a.a.a.a.a.a.a.  ",
"a.a.a.a.a.a.a.a.a.a.a.a.a.a.a.a.a.a.) R q.a.a.a.a.a.a.a.a.a.a.a.a.a.a.a.a.a.a.a.a.a.a.a.a.a.a.a.a.a.a.a.) E q.a.a.a.a.a.a.a.a.a.a.a.a.a.a.a.a.a.  ",
"a.a.a.a.a.a.a.a.a.a.a.a.a.a.a.a.a.a.) R q.a.a.a.a.a.a.a.a.a.a.a.a.a.a.a.a.a.a.a.a.a.a.a.a.a.a.a.a.a.a.a.) E q.a.a.a.a.a.a.a.a.a.a.a.a.a.a.a.a.a.  ",
"a.a.a.a.a.a.a.a.a.a.a.a.a.a.a.a.a.a.) E q.a.a.a.a.a.a.a.a.a.a.a.a.a.a.a.a.a.a.a.a.a.a.a.a.a.a.a.a.a.a.a.) E q.a.a.a.a.a.a.a.a.a.a.a.a.a.a.a.a.a.  ",
"a.a.a.a.a.a.a.a.a.a.a.a.a.a.a.a.a.a.) E q.a.a.a.a.a.a.a.a.a.a.a.a.a.a.a.a.a.a.a.a.a.a.a.a.a.a.a.a.a.a.a.) E q.a.a.a.a.a.a.a.a.a.a.a.a.a.a.a.a.a.  ",
"a.a.a.a.a.a.a.a.a.a.a.a.a.a.a.a.a.a.) E q.a.a.a.a.a.a.a.a.a.a.a.a.a.a.a.a.a.a.a.a.a.a.a.a.a.a.a.a.a.a.a.) E q.a.a.a.a.a.a.a.a.a.a.a.a.a.a.a.a.a.  ",
"a.a.a.a.a.a.a.a.a.a.a.a.a.a.a.a.a.a.) E q.a.a.a.a.a.a.a.a.a.a.a.a.a.a.a.a.a.a.a.a.a.a.a.a.a.a.a.a.a.a.a.) E q.a.a.a.a.a.a.a.a.a.a.a.a.a.a.a.a.a.  ",
"a.a.a.a.a.a.a.a.a.a.a.a.a.a.a.a.a.a.) E q.a.a.a.a.a.a.a.a.a.a.a.a.a.a.a.a.a.a.a.a.a.a.a.a.a.a.a.a.a.a.a.) E q.a.a.a.a.a.a.a.a.a.a.a.a.a.a.a.a.a.  ",
"a.a.a.a.a.a.a.a.a.a.a.a.a.a.a.a.a.a.) E q.a.a.a.a.a.a.a.a.a.a.a.a.a.a.a.a.a.a.a.a.a.a.a.a.a.a.a.a.a.a.a.) E q.a.a.a.a.a.a.a.a.a.a.a.a.a.a.a.a.a.  ",
"E E E E E E E E E E E E E E E E E E E E E E E E E E E E E E E E E E E E E E E E E E E E E E E E E E E E E E E E E E E E E E E E E E E E E E E E   ",
"E E E E E E E E E E E E E E E E E E E E E E E E E E E E E E E E E E E E E E E E E E E E E E E E E E E E E E E E E E E E E E E E E E E E E E E E   "
};
