/* XPM */
static char *collectable_2_flip1706116393[] = {
/* columns rows colors chars-per-pixel */
"73 72 197 2 ",
"   c None",
".  c #124E89",
"X  c #1D5285",
"o  c #1F5387",
"O  c #1F5487",
"+  c #11538E",
"@  c #185188",
"#  c #1B538A",
"$  c #1B548B",
"%  c #1F5488",
"&  c #0F5893",
"*  c #105793",
"=  c #24598D",
"-  c #255A8D",
";  c #0D609D",
":  c #0E619D",
">  c #156296",
",  c #1C6596",
"<  c #36638F",
"1  c #296E9C",
"2  c #386591",
"3  c #396692",
"4  c #3A6693",
"5  c #0C66A2",
"6  c #0B6AA7",
"7  c #0B6AA8",
"8  c #0A6EAD",
"9  c #116FA6",
"0  c #1074AB",
"q  c #0973B2",
"w  c #0974B2",
"e  c #0778B7",
"r  c #067DBC",
"t  c #077DBC",
"y  c #486684",
"u  c #496885",
"i  c #566C82",
"p  c #4B7095",
"a  c #4C7297",
"s  c #4D7297",
"d  c #547698",
"f  c #607E9B",
"g  c #5D889B",
"h  c #7D848C",
"j  c #63819F",
"k  c #778E90",
"l  c #768DA2",
"z  c #788EA4",
"x  c #71A1A4",
"c  c #0486C6",
"v  c #0486C7",
"b  c #078BC8",
"n  c #0A90CA",
"m  c #028FD1",
"M  c #0290D1",
"N  c #0194D6",
"B  c #0099DB",
"V  c #029EDD",
"C  c #039EDD",
"Z  c #05A3DE",
"A  c #08A8E0",
"S  c #0BACE1",
"D  c #0EB2E3",
"F  c #10B6E5",
"G  c #10B7E5",
"H  c #13BBE6",
"J  c #13BBE7",
"K  c #4FBAC1",
"L  c #48BDC6",
"P  c #16C0E8",
"I  c #16C1E8",
"U  c #18C5E9",
"Y  c #18C5EA",
"T  c #1BCAEB",
"R  c #21D4EE",
"E  c #21D5EE",
"W  c #21D4EF",
"Q  c #21D5EF",
"!  c #3BDFEB",
"~  c #26DEF1",
"^  c #27DEF2",
"/  c #3BE0EB",
"(  c #3CE1ED",
")  c #3DE2ED",
"_  c #29E3F3",
"`  c #2AE3F3",
"'  c #2CE8F5",
"]  c #33E3F0",
"[  c #34E4F0",
"{  c #4DC2CB",
"}  c #50C5CD",
"|  c #41CED8",
" . c #5FD3DC",
".. c #7DC4C9",
"X. c #7EC4C9",
"o. c #6CCAD1",
"O. c #6FCCD3",
"+. c #6FCDD4",
"@. c #7ACCD2",
"#. c #60D6DE",
"$. c #72D0D7",
"%. c #4AD7E0",
"&. c #4BD7E1",
"*. c #4BD8E2",
"=. c #4BD9E2",
"-. c #84888C",
";. c gray57",
":. c #929292",
">. c #939393",
",. c gray59",
"<. c #9B9B9B",
"1. c #8B9AA9",
"2. c #8C9BAA",
"3. c #909FAE",
"4. c #8BA3A4",
"5. c #91A0AF",
"6. c #92A1AF",
"7. c gray63",
"8. c gray64",
"9. c #A4A4A4",
"0. c #A5A5A5",
"q. c #A9A9A9",
"w. c #AAAAAA",
"e. c gray67",
"r. c #ACACAC",
"t. c gray68",
"y. c #A3AAB2",
"u. c #A3ABB2",
"i. c #A6ADB4",
"p. c #A7AEB5",
"a. c #A7AEB6",
"s. c #A5BCBE",
"d. c #B0B4B7",
"f. c #B4B4B4",
"g. c gray71",
"h. c #B6BABE",
"j. c #B1BDBE",
"k. c #B8BCBF",
"l. c #8BB2C2",
"z. c #81C7CC",
"x. c #82C9CE",
"c. c #90C0C3",
"v. c #95C3C6",
"b. c #97C6C9",
"n. c #99C8CC",
"m. c #85CCD1",
"M. c #AEC5C7",
"N. c #B6C2C3",
"B. c #BBC7C8",
"V. c #B2C9CB",
"C. c #B2CACB",
"Z. c #BDC9CA",
"A. c #BDD4D6",
"S. c #C1C1C1",
"D. c gray76",
"F. c gray77",
"G. c #C5C5C5",
"H. c #C6C6C6",
"J. c gray78",
"K. c #C8C8C8",
"L. c #CACACA",
"P. c #CBCBCB",
"I. c #CDCDCD",
"U. c #CECECE",
"Y. c gray81",
"T. c #D0D0D0",
"R. c gray82",
"E. c #D2D2D2",
"W. c LightGray",
"Q. c #D5D5D5",
"!. c #D7D7D7",
"~. c #D8D8D8",
"^. c gray85",
"/. c #DADADA",
"(. c gray86",
"). c gainsboro",
"_. c #DDDDDD",
"`. c gray87",
"'. c gray88",
"]. c #E1E1E1",
"[. c #E2E2E2",
"{. c gray89",
"}. c #E4E4E4",
"|. c gray90",
" X c #E6E6E6",
".X c #E7E7E7",
"XX c gray91",
"oX c #E9E9E9",
"OX c #EAEAEA",
"+X c gray92",
"@X c #ECECEC",
"#X c gray93",
"$X c #EEEEEE",
"%X c #EFEFEF",
"&X c gray94",
"*X c #F1F1F1",
"=X c gray95",
/* pixels */
"=X=X=X=X=X=X=X=X=X=X=X=X=X=X=X=X=X=X=X=X=X=X=X=X=X=X=X=X=X=X=X=X=X=Xg.r.oX=X=X=X=X=X=X=X=X=X=X=X=X=X=X=X=X=X=X=X=X=X=X=X=X=X=X=X=X=X=X=X=X=Xg.r.  ",
"=X=X=X=X=X=X=X=X=X=X=X=X=X=X=X=X=X=X=X=X=X=X=X=X=X=X=X=X=X=X=X=X=X=Xg.r.oX=X=X=X=X=X=X=X=X=X=X=X=X=X=X=X=X=X=X=X=X=X=X=X=X=X=X=X=X=X=X=X=X=Xg.r.  ",
"=X=X=X=X=X=X=X=X=X=X=X=X=X=X=X=X=X=X=X=X=X=X=X=X=X=X=X=X=X=X=X=X=X=Xg.r.oX=X=X=X=X=X=X=X=X=X=X=X=X=X=X=X=X=X=X=X=X=X=X=X=X=X=X=X=X=X=X=X=X=Xg.r.  ",
"=X=X=X=X=X=X=X=X=X=X=X=X=X=X=X=X=X=X=X=X=X=X=X=X=X=X=X=X=X=X=X=X=X=Xg.r.oX=X=X=X=X=X=X=X=X=X=X=X=X=X=X=X=X=X=X=X=X=X=X=X=X=X=X=X=X=X=X=X=X=Xg.r.  ",
"=X=X=X=X=X=X=X=X=X=X=X=X=X=X=X=X=X=X=X=X=X=X=X=X=X=X=X=X=X=X=X=X=X=Xg.r.oX=X=X=X=X=X=X=X=X=X=X=X=X=X=X=X=X=X=X=X=X=X=X=X=X=X=X=X=X=X=X=X=X=Xg.r.  ",
"=X=X=X=X=X=X=X=X=X=X=X=X=X=X=X=X=X=X=X=X=X=X=X=X=X=X=X=X=X=X=X=X=X=Xg.r.oX=X=X=X=X=X=X=X=X=X=X=X=X=X=X=X=X=X=X=X=X=X=X=X=X=X=X=X=X=X=X=X=X=Xg.r.  ",
"=X=X=X=X=X=X=X=X=X=X=X=X=X=X=X=X=X=X=X=X=X=X=X=X=X=X=X=X=X=X=X=X=X=Xg.r.oX=X=X=X=X=X=X=X=X=X=X=X=X=X=X=X=X=X=X=X=X=X=X=X=X=X=X=X=X=X=X=X=X=Xg.r.  ",
"=X=X=X=X=X=X=X=X=X=X=X=X=X=X=X=X=X=X=X=X=X=X=X=X=X=X=X=X=X=X=X=X=X=Xg.r.oX=X=X=X=X=X=X=X=X=X=X=X=X=X=X=X=X=X=X=X=X=X=X=X=X=X=X=X=X=X=X=X=X=Xg.r.  ",
"=X=X=X=X=X=X=X=X=X=X=X=X=X=X=X=X=X=X=X=X=X=X=X=X=X=X=X=X=X=X=X=X=X=Xg.r.oX=X=X=X=X=X=X=X=X=X=X=X=X=X=X=X=X=X=X=X=X=X=X=X=X=X=X=X=X=X=X=X=X=Xg.r.  ",
"=X=X=X=X=X=X=X=X=X=X=X=X=X=X=X=X=X=X=X=X=X=X=X=X=X=X=X=X=X=X=X=X=X=Xg.r.oX=X=X=X=X=X=X=X=X=X=X=X=X=X=X=X=X=X=X=X=X=X=X=X=X=X=X=X=X=X=X=X=X=Xg.r.  ",
"=X=X=X=X=X=X=X=X=X=X=X=X=X=X=X=X=X=X=X=X=X=X=X=X=X=X=X=X=X=X=X=X=X=Xg.r.oX=X=X=X=X=X=X=X=X=X=X=X=X=X=X=X=X=X=X=X=X=X=X=X=X=X=X=X=X=X=X=X=X=Xg.r.  ",
"=X=X=X=X=X=X=X=X=X=X=X=X=X=X=X=X=X=X=X=X=X=X=X=X=X=X=X=X=X=X=X=X=X=Xg.r.oX=X=X=X=X=X=X=X=X=X=X=X=X=X=X=X=X=X=X=X=X=X=X=X=X=X=X=X=X=X=X=X=X=Xg.r.  ",
"=X=X=X=X=X=X=X=X=X=X=X=X=X=X=X=X=X=X=X=X=X=X=X=X=X=X=X=X=X=X=X=X=X=Xf.r.oX=X=X=X=X=X=X=X=X=X=X=X=X=X=X=X=X=X=X=X=X=X=X=X=X=X=X=X=X=X=X=X=X=Xg.r.  ",
"=X=X=X=X=X=X=X=X=X=X=X=X=X=X=X=X=X=X=X=X=X=X=X=X=X=X=X=X=X=X=X=X=X%Xr.0..X=X=X=X=X=X=X=X=X=X=X=X=X=X=X=X=X=X=X=X=X=X=X=X=X=X=X=X=X=X=X=X=X=Xg.r.  ",
"=X=X=X=X=X=X=X=X=X=X=X=X=X=X=X=X=X=X=X=X=X=X=X=X=X=X=X=X=X=X=X=X&X{.4.g Q.&X=X=X=X=X=X=X=X=X=X=X=X=X=X=X=X=X=X=X=X=X=X=X=X=X=X=X=X=X=X=X=X=Xg.r.  ",
"=X=X=X=X=X=X=X=X=X=X=X=X=X=X=X=X=X=X=X=X=X=X=X=X=X=X=X=X=X=X=X=X%XI.} , k.oX=X=X=X=X=X=X=X=X=X=X=X=X=X=X=X=X=X=X=X=X=X=X=X=X=X=X=X=X=X=X=X=Xg.r.  ",
"r.r.r.r.r.r.r.r.r.r.r.r.r.r.r.r.r.r.r.r.r.r.r.r.r.r.r.r.r.r.r.r.7.k ' > u <.q.r.r.r.r.r.r.r.r.r.r.r.r.r.r.r.r.r.r.r.r.r.r.r.r.r.r.r.r.r.r.r.r.r.  ",
"r.r.r.r.r.r.r.r.r.r.r.r.r.r.r.r.r.r.r.r.r.r.r.r.r.r.r.r.r.r.r.q.:.L ' > @ -.0.e.r.r.r.r.r.r.r.r.r.r.r.r.r.r.r.r.r.r.r.r.r.r.r.r.r.r.r.r.r.r.r.r.  ",
"=X=X=X=X=X=X=X=X=X=X=X=X=X=X=X=Xg.r.oX=X=X=X=X=X=X=X=X=X=X=X=X{.s.' ~ 8 . j ^.&X=X=X=X=X=X=X=X=X=X=X=X=X=X=Xg.r.oX=X=X=X=X=X=X=X=X=X=X=X=X=X=X=X  ",
"=X=X=X=X=X=X=X=X=X=X=X=X=X=X=X=Xg.r.oX=X=X=X=X=X=X=X=X=X=X=X%XI.&.' H N + $ h..X=X=X=X=X=X=X=X=X=X=X=X=X=X=Xg.r.oX=X=X=X=X=X=X=X=X=X=X=X=X=X=X=X  ",
"=X=X=X=X=X=X=X=X=X=X=X=X=X=X=X=Xg.r.oX=X=X=X=X=X=X=X=X=X=X=X{.b.' ~ B B w . f Q.%X=X=X=X=X=X=X=X=X=X=X=X=X=Xg.r.oX=X=X=X=X=X=X=X=X=X=X=X=X=X=X=X  ",
"=X=X=X=X=X=X=X=X=X=X=X=X=X=X=X=Xg.r.oX=X=X=X=X=X=X=X=X=X=X@XI.( ' F B B N + # d.{.=X=X=X=X=X=X=X=X=X=X=X=X=Xg.r.oX=X=X=X=X=X=X=X=X=X=X=X=X=X=X=X  ",
"=X=X=X=X=X=X=X=X=X=X=X=X=X=X=X=Xg.r.oX=X=X=X=X=X=X=X=X=X&X'.m.' W B B B B w . d I.%X=X=X=X=X=X=X=X=X=X=X=X=Xg.r.oX=X=X=X=X=X=X=X=X=X=X=X=X=X=X=X  ",
"=X=X=X=X=X=X=X=X=X=X=X=X=X=X=X=Xg.r.oX=X=X=X=X=X=X=X=X=XoXK.( ' S B B B B N + . u.'.=X=X=X=X=X=X=X=X=X=X=X=Xg.r.oX=X=X=X=X=X=X=X=X=X=X=X=X=X=X=X  ",
"=X=X=X=X=X=X=X=X=X=X=X=X=X=X=X=Xg.r.oX=X=X=X=X=X=X=X=X=X).x.' T B B B B B B e . p I.%X=X=X=X=X=X=X=X=X=X=X=Xg.r.oX=X=X=X=X=X=X=X=X=X=X=X=X=X=X=X  ",
"=X=X=X=X=X=X=X=X=X=X=X=X=X=X=X=Xg.r.oX=X=X=X=X=X=X=X=X.XS.! ' Z B B B B B B B & . 5.'.=X=X=X=X=X=X=X=X=X=X=Xg.r.oX=X=X=X=X=X=X=X=X=X=X=X=X=X=X=X  ",
"=X=X=X=X=X=X=X=X=X=X=X=X=X=X=X=Xg.r.oX=X=X=X=X=X=X=X%X^...' T B B B B B B B B t . 3 I.%X=X=X=X=X=X=X=X=X=X=Xg.r.oX=X=X=X=X=X=X=X=X=X=X=X=X=X=X=X  ",
"=X=X=X=X=X=X=X=X=X=X=X=X=X=X=X=Xg.r.oX=X=X=X=X=X=X=XoXS.( ' Z B B B B B B B B B : . 5.{.&X=X=X=X=X=X=X=X=X=Xg.r.oX=X=X=X=X=X=X=X=X=X=X=X=X=X=X=X  ",
"=X=X=X=X=X=X=X=X=X=X=X=X=X=X=X=Xg.r.oX=X=X=X=X=X=X%X^.X.' T B B B B Z n B B B B c . 3 I.%X=X=X=X=X=X=X=X=X=Xg.r.oX=X=X=X=X=X=X=X=X=X=X=X=X=X=X=X  ",
"=X=X=X=X=X=X=X=X=X=X=X=X=X=X=X=Xg.r.oX=X=X=X=X=X=XoXV.! ' Z B B B B J 0 B B B B B : . 5.{.&X=X=X=X=X=X=X=X=Xg.r.oX=X=X=X=X=X=X=X=X=X=X=X=X=X=X=X  ",
"=X=X=X=X=X=X=X=X=X=X=X=X=X=X=X=Xg.r.oX=X=X=X=X=X%X^.+.' I B B B B B ~ > c B B B B c . 3 K.oX=X=X=X=X=X=X=X=Xg.r.oX=X=X=X=X=X=X=X=X=X=X=X=X=X=X=X  ",
"=X=X=X=X=X=X=X=X=X=X=X=X=X=X=X=Xg.r.oX=X=X=X=X=XoXV.! ~ Z B B B B F ' > 5 B B B B B : . 2.).=X=X=X=X=X=X=X=Xg.r.oX=X=X=X=X=X=X=X=X=X=X=X=X=X=X=X  ",
"=X=X=X=X=X=X=X=X=X=X=X=X=X=X=X=Xf.r.oX=X=X=X=X&X!.#.' I B B B B B W ' > . m B B B B c . < J.oX=X=X=X=X=X=X=Xg.r.oX=X=X=X=X=X=X=X=X=X=X=X=X=X=X=X  ",
"=X=X=X=X=X=X=X=X=X=X=X=X=X=X=X=Xg.r.oX=X=X=X&X.XV.' ~ B B B V I ^ ' ' > . & 7 m B B B 7 . l ^.&X=X=X=X=X=X=Xg.r.oX=X=X=X=X=X=X=X=X=X=X=X=X=X=X=X  ",
"r.r.r.r.r.r.r.r.r.r.r.r.r.r.r.r.r.r.r.r.r.r.q.<.{ _ G B Z T _ ' ' ' ' > . . . . 5 c B M . o :.q.r.r.r.r.r.r.r.r.r.r.r.r.r.r.r.r.r.r.r.r.r.r.r.r.  ",
"r.r.r.r.r.r.r.r.r.r.r.r.r.r.r.r.r.r.r.r.r.r.e.<.K ' H B Z T _ ' ' ' ' > . . . . : v B m . o :.q.r.r.r.r.r.r.r.r.r.r.r.r.r.r.r.r.r.r.r.r.r.r.r.r.  ",
"r.r.oX=X=X=X=X=X=X=X=X=X=X=X=X=X=X=X=X=X=X=X&X{.j.[ ` V B B Z G ~ ' ' > . + q M B B B 7 . z ).=X=X=X=X=X=X=X=X=X=X=X=X=X=X=X=X=X=X=X=X=X=X=X=X=X  ",
"r.r.oX=X=X=X=X=X=X=X=X=X=X=X=X=X=X=X=X=X=X=X=X%XQ.o.' I B B B B B Q ' > . M B B B B M . = J.oX=X=X=X=X=X=X=X=X=X=X=X=X=X=X=X=X=X=X=X=X=X=X=X=X=X  ",
"r.r.oX=X=X=X=X=X=X=X=X=X=X=X=X=X=X=X=X=X=X=X=X=X.XN.] ` V B B B B D ' > 7 B B B B B 7 . z ).%X=X=X=X=X=X=X=X=X=X=X=X=X=X=X=X=X=X=X=X=X=X=X=X=X=X  ",
"r.r.oX=X=X=X=X=X=X=X=X=X=X=X=X=X=X=X=X=X=X=X=X=X%X!.O.' I B B B B B ` > v B B B B c . = J.oX=X=X=X=X=X=X=X=X=X=X=X=X=X=X=X=X=X=X=X=X=X=X=X=X=X=X  ",
"r.r.oX=X=X=X=X=X=X=X=X=X=X=X=X=X=X=X=X=X=X=X=X=X&XOXZ.[ _ V B B B B I 9 B B B B B : . 2.).=X=X=X=X=X=X=X=X=X=X=X=X=X=X=X=X=X=X=X=X=X=X=X=X=X=X=X  ",
"r.r.oX=X=X=X=X=X=X=X=X=X=X=X=X=X=X=X=X=X=X=X=X=X=X&X(.$.' U B B B B C b B B B B t . 3 P.+X=X=X=X=X=X=X=X=X=X=X=X=X=X=X=X=X=X=X=X=X=X=X=X=X=X=X=X  ",
"r.r.oX=X=X=X=X=X=X=X=X=X=X=X=X=X=X=X=X=X=X=X=X=X=X&XoXZ.[ ' Z B B B B B B B B B * . y.{.%X=X=X=X=X=X=X=X=X=X=X=X=X=X=X=X=X=X=X=X=X=X=X=X=X=X=X=X  ",
"r.r.oX=X=X=X=X=X=X=X=X=X=X=X=X=X=X=X=X=X=X=X=X=X=X=X&X_.@.' T B B B B B B B B t . s R.+X=X=X=X=X=X=X=X=X=X=X=X=X=X=X=X=X=X=X=X=X=X=X=X=X=X=X=X=X  ",
"r.r.oX=X=X=X=X=X=X=X=X=X=X=X=X=X=X=X=X=X=X=X=X=X=X=X=XOXF./ ' D B B B B B B B * . p.{.&X=X=X=X=X=X=X=X=X=X=X=X=X=X=X=X=X=X=X=X=X=X=X=X=X=X=X=X=X  ",
"r.r.oX=X=X=X=X=X=X=X=X=X=X=X=X=X=X=X=X=X=X=X=X=X=X=X=X&X(.z.' E B B B B B B t . s R.%X=X=X=X=X=X=X=X=X=X=X=X=X=X=X=X=X=X=X=X=X=X=X=X=X=X=X=X=X=X  ",
"r.r.oX=X=X=X=X=X=X=X=X=X=X=X=X=X=X=X=X=X=X=X=X=X=X=X=X=XoXG.=.' S B B B B B * . p..X=X=X=X=X=X=X=X=X=X=X=X=X=X=X=X=X=X=X=X=X=X=X=X=X=X=X=X=X=X=X  ",
"r.r.oX=X=X=X=X=X=X=X=X=X=X=X=X=X=X=X=X=X=X=X=X=X=X=X=X=X&X_.l.' Q B B B B q . s W.%X=X=X=X=X=X=X=X=X=X=X=X=X=X=X=X=X=X=X=X=X=X=X=X=X=X=X=X=X=X=X  ",
"r.r.oX=X=X=X=X=X=X=X=X=X=X=X=X=X=X=X=X=X=X=X=X=X=X=X=X=X=XoXL.%.' S B B m * . p..X=X=X=X=X=X=X=X=X=X=X=X=X=X=X=X=X=X=X=X=X=X=X=X=X=X=X=X=X=X=X=X  ",
"r.r.oX=X=X=X=X=X=X=X=X=X=X=X=X=X=X=X=X=X=X=X=X=X=X=X=X=X=X=X{.v.' Q B B q . s R.%X=X=X=X=X=X=X=X=X=X=X=X=X=X=X=X=X=X=X=X=X=X=X=X=X=X=X=X=X=X=X=X  ",
"r.r.oX=X=X=X=X=X=X=X=X=X=X=X=X=X=X=X=X=X=X=X=X=X=X=X=X=X=X=X%XI.=.' D M . o p..X&X=X=X=X=X=X=X=X=X=X=X=X=X=X=X=X=X=X=X=X=X=X=X=X=X=X=X=X=X=X=X=X  ",
"r.r.oX=X=X=X=X=X=X=X=X=X=X=X=X=X=X=X=X=X=X=X=X=X=X=X=X=X=X=X%X.Xn.' ~ 6 . y I.%X=X=X=X=X=X=X=X=X=X=X=X=X=X=X=X=X=X=X=X=X=X=X=X=X=X=X=X=X=X=X=X=X  ",
"r.r.r.r.r.r.r.r.r.r.r.r.r.r.r.r.r.r.r.r.r.r.r.r.r.r.r.r.r.r.r.q.,.| ' > = h 7.r.q.r.r.r.r.r.r.r.r.r.r.r.r.r.r.r.r.r.r.r.r.r.r.r.r.r.r.r.r.r.r.r.  ",
"r.r.r.r.r.r.r.r.r.r.r.r.r.r.r.r.r.r.r.r.r.r.r.r.r.r.r.r.r.r.r.r.0.x ' > i <.q.q.r.r.r.r.r.r.r.r.r.r.r.r.r.r.r.r.r.r.r.r.r.r.r.r.r.r.r.r.r.r.r.r.  ",
"=X=X=X=X=X=X=X=X=X=X=X=X=X=X=X=X=X=Xg.r.oX=X=X=X=X=X=X=X=X=X=X=X%XR. .1 J.oX=X=X=X=X=X=X=X=X=X=X=X=X=X=Xg.r.oX=X=X=X=X=X=X=X=X=X=X=X=X=X=X=X=X=X  ",
"=X=X=X=X=X=X=X=X=X=X=X=X=X=X=X=X=X=Xg.r.oX=X=X=X=X=X=X=X=X=X=X=X=X.XA.l.{.&X=X=X=X=X=X=X=X=X=X=X=X=X=X=Xg.r.oX=X=X=X=X=X=X=X=X=X=X=X=X=X=X=X=X=X  ",
"=X=X=X=X=X=X=X=X=X=X=X=X=X=X=X=X=X=Xg.r.oX=X=X=X=X=X=X=X=X=X=X=X=X%XoXoX%X=X=X=X=X=X=X=X=X=X=X=X=X=X=X=Xg.r.oX=X=X=X=X=X=X=X=X=X=X=X=X=X=X=X=X=X  ",
"=X=X=X=X=X=X=X=X=X=X=X=X=X=X=X=X=X=Xg.r.oX=X=X=X=X=X=X=X=X=X=X=X=X=X=X=X=X=X=X=X=X=X=X=X=X=X=X=X=X=X=X=Xg.r.oX=X=X=X=X=X=X=X=X=X=X=X=X=X=X=X=X=X  ",
"=X=X=X=X=X=X=X=X=X=X=X=X=X=X=X=X=X=Xg.r.oX=X=X=X=X=X=X=X=X=X=X=X=X=X=X=X=X=X=X=X=X=X=X=X=X=X=X=X=X=X=X=Xg.r.oX=X=X=X=X=X=X=X=X=X=X=X=X=X=X=X=X=X  ",
"=X=X=X=X=X=X=X=X=X=X=X=X=X=X=X=X=X=Xg.r.oX=X=X=X=X=X=X=X=X=X=X=X=X=X=X=X=X=X=X=X=X=X=X=X=X=X=X=X=X=X=X=Xg.r.oX=X=X=X=X=X=X=X=X=X=X=X=X=X=X=X=X=X  ",
"=X=X=X=X=X=X=X=X=X=X=X=X=X=X=X=X=X=Xg.r.oX=X=X=X=X=X=X=X=X=X=X=X=X=X=X=X=X=X=X=X=X=X=X=X=X=X=X=X=X=X=X=Xg.r.oX=X=X=X=X=X=X=X=X=X=X=X=X=X=X=X=X=X  ",
"=X=X=X=X=X=X=X=X=X=X=X=X=X=X=X=X=X=Xg.r.oX=X=X=X=X=X=X=X=X=X=X=X=X=X=X=X=X=X=X=X=X=X=X=X=X=X=X=X=X=X=X=Xg.r.oX=X=X=X=X=X=X=X=X=X=X=X=X=X=X=X=X=X  ",
"=X=X=X=X=X=X=X=X=X=X=X=X=X=X=X=X=X=Xg.r.oX=X=X=X=X=X=X=X=X=X=X=X=X=X=X=X=X=X=X=X=X=X=X=X=X=X=X=X=X=X=X=Xg.r.oX=X=X=X=X=X=X=X=X=X=X=X=X=X=X=X=X=X  ",
"=X=X=X=X=X=X=X=X=X=X=X=X=X=X=X=X=X=Xg.q.oX=X=X=X=X=X=X=X=X=X=X=X=X=X=X=X=X=X=X=X=X=X=X=X=X=X=X=X=X=X=X=Xg.r.oX=X=X=X=X=X=X=X=X=X=X=X=X=X=X=X=X=X  ",
"=X=X=X=X=X=X=X=X=X=X=X=X=X=X=X=X=X=Xg.r.oX=X=X=X=X=X=X=X=X=X=X=X=X=X=X=X=X=X=X=X=X=X=X=X=X=X=X=X=X=X=X=Xg.r.oX=X=X=X=X=X=X=X=X=X=X=X=X=X=X=X=X=X  ",
"=X=X=X=X=X=X=X=X=X=X=X=X=X=X=X=X=X=Xg.r.oX=X=X=X=X=X=X=X=X=X=X=X=X=X=X=X=X=X=X=X=X=X=X=X=X=X=X=X=X=X=X=Xg.r.oX=X=X=X=X=X=X=X=X=X=X=X=X=X=X=X=X=X  ",
"=X=X=X=X=X=X=X=X=X=X=X=X=X=X=X=X=X=Xg.r.oX=X=X=X=X=X=X=X=X=X=X=X=X=X=X=X=X=X=X=X=X=X=X=X=X=X=X=X=X=X=X=Xg.r.oX=X=X=X=X=X=X=X=X=X=X=X=X=X=X=X=X=X  ",
"=X=X=X=X=X=X=X=X=X=X=X=X=X=X=X=X=X=Xg.r.oX=X=X=X=X=X=X=X=X=X=X=X=X=X=X=X=X=X=X=X=X=X=X=X=X=X=X=X=X=X=X=Xg.r.oX=X=X=X=X=X=X=X=X=X=X=X=X=X=X=X=X=X  ",
"=X=X=X=X=X=X=X=X=X=X=X=X=X=X=X=X=X=Xg.r.oX=X=X=X=X=X=X=X=X=X=X=X=X=X=X=X=X=X=X=X=X=X=X=X=X=X=X=X=X=X=X=Xg.r.oX=X=X=X=X=X=X=X=X=X=X=X=X=X=X=X=X=X  ",
"=X=X=X=X=X=X=X=X=X=X=X=X=X=X=X=X=X=Xg.r.oX=X=X=X=X=X=X=X=X=X=X=X=X=X=X=X=X=X=X=X=X=X=X=X=X=X=X=X=X=X=X=Xg.r.oX=X=X=X=X=X=X=X=X=X=X=X=X=X=X=X=X=X  ",
"r.r.r.r.r.r.r.r.r.r.r.r.r.r.r.r.r.r.r.r.r.r.r.r.r.r.r.r.r.r.r.r.r.r.r.r.r.r.r.r.r.r.r.r.r.r.r.r.r.r.r.r.r.r.r.r.r.r.r.r.r.r.r.r.r.r.r.r.r.r.r.r.  ",
"r.r.r.r.r.r.r.r.r.r.r.r.r.r.r.r.r.r.r.r.r.r.r.r.r.r.r.r.r.r.r.r.r.r.r.r.r.r.r.r.r.r.r.r.r.r.r.r.r.r.r.r.r.r.r.r.r.r.r.r.r.r.r.r.r.r.r.r.r.r.r.r.  "
};
