/* XPM */
static char *result[] = {
/* columns rows colors chars-per-pixel */
"72 72 172 2 ",
"   c #124E89",
".  c #11538E",
"X  c #1B538A",
"o  c #1C548B",
"O  c #0F5893",
"+  c #105793",
"@  c #205487",
"#  c #2A5784",
"$  c #2E5B87",
"%  c #2F5C87",
"&  c #205588",
"*  c #24598C",
"=  c #24598D",
"-  c #0D609D",
";  c #0D619D",
":  c #386591",
">  c #3A6793",
",  c #0C65A2",
"<  c #0B6AA7",
"1  c #0B6AA8",
"2  c #0A6EAC",
"3  c #0A6EAD",
"4  c #0973B2",
"5  c #0974B2",
"6  c #067DBC",
"7  c #077DBC",
"8  c #5A7086",
"9  c #496F94",
"0  c #4A7095",
"q  c #4C7196",
"w  c #4E7398",
"e  c #547697",
"r  c #50759A",
"t  c #5F7D9A",
"y  c #637281",
"u  c #62809D",
"i  c #62809E",
"p  c #738291",
"a  c #6B9A9D",
"s  c #6583A0",
"d  c #6F89A3",
"f  c #748AA0",
"g  c #758BA1",
"h  c #778DA4",
"j  c #788FA5",
"k  c #62A8AD",
"l  c #7BAAAD",
"z  c #0486C6",
"x  c #0486C7",
"c  c #028FD1",
"v  c #0290D1",
"b  c #0194D6",
"n  c #0099DB",
"m  c #029EDD",
"M  c #039EDD",
"N  c #05A3DE",
"B  c #08A8E0",
"V  c #0BACE1",
"C  c #0BADE1",
"Z  c #0BADE2",
"A  c #10B6E5",
"S  c #10B7E5",
"D  c #13BBE6",
"F  c #13BCE6",
"G  c #3ECBD4",
"H  c #16C0E8",
"J  c #16C1E8",
"K  c #1BCAEB",
"L  c #21D5EE",
"P  c #21D5EF",
"I  c #35DAE5",
"U  c #3ADFEA",
"Y  c #3BDFEB",
"T  c #26DEF1",
"R  c #27DEF2",
"E  c #3BE0EB",
"W  c #3DE1ED",
"Q  c #29E3F3",
"!  c #2CE8F5",
"~  c #33E3F0",
"^  c #34E4F0",
"/  c #34E4F1",
"(  c #40CED7",
")  c #41CED8",
"_  c #42CFD9",
"`  c #5BD0D8",
"'  c #5CD2DA",
"]  c #5DD2DB",
"[  c #5DD3DB",
"{  c #78CACF",
"}  c #63CED4",
"|  c #6DCBD2",
" . c #6FCDD3",
".. c #71CFD5",
"X. c #4DDAE3",
"o. c #8D8D8D",
"O. c #8E8E8E",
"+. c #979797",
"@. c #989898",
"#. c #9A9A9A",
"$. c gray62",
"%. c #9F9F9F",
"&. c #93A2B1",
"*. c #94A3B2",
"=. c #9EADBC",
"-. c #A7A7A7",
";. c #AAAAAA",
":. c gray67",
">. c #ACACAC",
",. c #A1A9B0",
"<. c #A2A9B0",
"1. c #A5ACB4",
"2. c #A6ADB5",
"3. c #AAB2B9",
"4. c #AFB6BE",
"5. c #A6BEBF",
"6. c #B0B3B7",
"7. c #B5B9BC",
"8. c #A7BEC1",
"9. c #B3BFC0",
"0. c #B9BCC0",
"q. c #BCBFC3",
"w. c #80C6CB",
"e. c #80C7CB",
"r. c #82C8CD",
"t. c #98C7CA",
"y. c #AAC1C3",
"u. c #ABC3C5",
"i. c #B8C4C4",
"p. c #BBC6C7",
"a. c #BBC6C8",
"s. c #B1C9CB",
"d. c #A2D2D5",
"f. c #C0C0C0",
"g. c gray76",
"h. c #C3C3C3",
"j. c #C5C5C5",
"k. c #C6C6C6",
"l. c #C8C8C8",
"z. c #CACACA",
"x. c #CDCDCD",
"c. c #CECECE",
"v. c gray81",
"b. c gray82",
"n. c #D2D2D2",
"m. c LightGray",
"M. c #D5D5D5",
"N. c #D7D7D7",
"B. c gray85",
"V. c #DADADA",
"C. c gainsboro",
"Z. c #DDDDDD",
"A. c gray87",
"S. c gray88",
"D. c #E1E1E1",
"F. c #E2E2E2",
"G. c gray89",
"H. c #E4E4E4",
"J. c gray90",
"K. c #E6E6E6",
"L. c #E7E7E7",
"P. c gray91",
"I. c #E9E9E9",
"U. c #EAEAEA",
"Y. c gray92",
"T. c #ECECEC",
"R. c gray93",
"E. c #EEEEEE",
"W. c #EFEFEF",
"Q. c gray94",
"!. c #F1F1F1",
"~. c gray95",
/* pixels */
"~.~.~.~.~.~.~.~.~.~.~.~.~.~.~.~.~.~.~.~.~.~.~.~.~.~.~.~.~.~.~.~.~.~.>.>.~.~.~.~.~.~.~.~.~.~.~.~.~.~.~.~.~.~.~.~.~.~.~.~.~.~.~.~.~.~.~.~.~.~.>.>.",
"~.~.~.~.~.~.~.~.~.~.~.~.~.~.~.~.~.~.~.~.~.~.~.~.~.~.~.~.~.~.~.~.~.~.>.>.~.~.~.~.~.~.~.~.~.~.~.~.~.~.~.~.~.~.~.~.~.~.~.~.~.~.~.~.~.~.~.~.~.~.>.>.",
"~.~.~.~.~.~.~.~.~.~.~.~.~.~.~.~.~.~.~.~.~.~.~.~.~.~.~.~.~.~.~.~.~.~.>.>.~.~.~.~.~.~.~.~.~.~.~.~.~.~.~.~.~.~.~.~.~.~.~.~.~.~.~.~.~.~.~.~.~.~.>.>.",
"~.~.~.~.~.~.~.~.~.~.~.~.~.~.~.~.~.~.~.~.~.~.~.~.~.~.~.~.~.~.~.~.~.~.>.>.~.~.~.~.~.~.~.~.~.~.~.~.~.~.~.~.~.~.~.~.~.~.~.~.~.~.~.~.~.~.~.~.~.~.>.>.",
"~.~.~.~.~.~.~.~.~.~.~.~.~.~.~.~.~.~.~.~.~.~.~.~.~.~.~.~.~.~.~.~.~.~.>.>.~.~.~.~.~.~.~.~.~.~.~.~.~.~.~.~.~.~.~.~.~.~.~.~.~.~.~.~.~.~.~.~.~.~.>.>.",
"~.~.~.~.~.~.~.~.~.~.~.~.~.~.~.~.~.~.~.~.~.~.~.~.~.~.~.~.~.~.~.~.~.~.>.>.~.~.~.~.~.~.~.~.~.~.~.~.~.~.~.~.~.~.~.~.~.~.~.~.~.~.~.~.~.~.~.~.~.~.>.>.",
"~.~.~.~.~.~.~.~.~.~.~.~.~.~.~.~.~.~.~.~.~.~.~.~.~.~.~.~.~.~.~.~.~.~.>.>.~.~.~.~.~.~.~.~.~.~.~.~.~.~.~.~.~.~.~.~.~.~.~.~.~.~.~.~.~.~.~.~.~.~.>.>.",
"~.~.~.~.~.~.~.~.~.~.~.~.~.~.~.~.~.~.~.~.~.~.~.~.~.~.~.~.~.~.~.~.~.~.>.>.~.~.~.~.~.~.~.~.~.~.~.~.~.~.~.~.~.~.~.~.~.~.~.~.~.~.~.~.~.~.~.~.~.~.>.>.",
"~.~.~.~.~.~.~.~.~.~.~.~.~.~.~.~.~.~.~.~.~.~.~.~.~.~.~.~.~.~.~.~.~.~.>.>.~.~.~.~.~.~.~.~.~.~.~.~.~.~.~.~.~.~.~.~.~.~.~.~.~.~.~.~.~.~.~.~.~.~.>.>.",
"~.~.~.~.~.~.~.~.~.~.~.~.~.~.~.~.~.~.~.~.~.~.~.~.~.~.~.~.~.~.~.~.~.~.>.>.~.~.~.~.~.~.~.~.~.~.~.~.~.~.~.~.~.~.~.~.~.~.~.~.~.~.~.~.~.~.~.~.~.~.>.>.",
"~.~.~.~.~.~.~.~.~.~.~.~.~.~.~.~.~.~.~.~.~.~.~.~.~.~.~.~.~.~.~.~.~.~.>.>.~.~.~.~.~.~.~.~.~.~.~.~.~.~.~.~.~.~.~.~.~.~.~.~.~.~.~.~.~.~.~.~.~.~.>.>.",
"~.~.~.~.~.~.~.~.~.~.~.~.~.~.~.~.~.~.~.~.~.~.~.~.~.~.~.~.~.~.~.~.~.~.>.>.~.~.~.~.~.~.~.~.~.~.~.~.~.~.~.~.~.~.~.~.~.~.~.~.~.~.~.~.~.~.~.~.~.~.>.>.",
"~.~.~.~.~.~.~.~.~.~.~.~.~.~.~.~.~.~.~.~.~.~.~.~.~.~.~.~.~.~.~.~.~.~.:.>.~.~.~.~.~.~.~.~.~.~.~.~.~.~.~.~.~.~.~.~.~.~.~.~.~.~.~.~.~.~.~.~.~.~.>.>.",
"~.~.~.~.~.~.~.~.~.~.~.~.~.~.~.~.~.~.~.~.~.~.~.~.~.~.~.~.~.~.~.~.~.W.-.-.W.~.~.~.~.~.~.~.~.~.~.~.~.~.~.~.~.~.~.~.~.~.~.~.~.~.~.~.~.~.~.~.~.~.>.>.",
"~.~.~.~.~.~.~.~.~.~.~.~.~.~.~.~.~.~.~.~.~.~.~.~.~.~.~.~.~.~.~.~.!.J.p l H.!.~.~.~.~.~.~.~.~.~.~.~.~.~.~.~.~.~.~.~.~.~.~.~.~.~.~.~.~.~.~.~.~.>.>.",
"~.~.~.~.~.~.~.~.~.~.~.~.~.~.~.~.~.~.~.~.~.~.~.~.~.~.~.~.~.~.~.~.R.c.& ( x.T.~.~.~.~.~.~.~.~.~.~.~.~.~.~.~.~.~.~.~.~.~.~.~.~.~.~.~.~.~.~.~.~.>.>.",
">.>.>.>.>.>.>.>.>.>.>.>.>.>.>.>.>.>.>.>.>.>.>.>.>.>.>.>.>.>.>.:.%.8   ! a %.;.>.>.>.>.>.>.>.>.>.>.>.>.>.>.>.>.>.>.>.>.>.>.>.>.>.>.>.>.>.>.>.>.>.",
">.>.>.>.>.>.>.>.>.>.>.>.>.>.>.>.>.>.>.>.>.>.>.>.>.>.>.>.>.>.:.-.o.@   ! G O.-.:.>.>.>.>.>.>.>.>.>.>.>.>.>.>.>.>.>.>.>.>.>.>.>.>.>.>.>.>.>.>.>.>.",
"~.~.~.~.~.~.~.~.~.~.~.~.~.~.~.~.>.>.~.~.~.~.~.~.~.~.~.~.~.~.!.C.j   - L ! e.C.Q.~.~.~.~.~.~.~.~.~.~.~.~.~.~.>.>.~.~.~.~.~.~.~.~.~.~.~.~.~.~.~.~.",
"~.~.~.~.~.~.~.~.~.~.~.~.~.~.~.~.>.>.~.~.~.~.~.~.~.~.~.~.~.!.I.g.=   v C ! Y h.U.~.~.~.~.~.~.~.~.~.~.~.~.~.~.>.>.~.~.~.~.~.~.~.~.~.~.~.~.~.~.~.~.",
"~.~.~.~.~.~.~.~.~.~.~.~.~.~.~.~.>.>.~.~.~.~.~.~.~.~.~.~.~.Q.B.g   1 n n L ! { B.W.~.~.~.~.~.~.~.~.~.~.~.~.~.>.>.~.~.~.~.~.~.~.~.~.~.~.~.~.~.~.~.",
"~.~.~.~.~.~.~.~.~.~.~.~.~.~.~.~.>.>.~.~.~.~.~.~.~.~.~.~.~.I.f.*   v n n N ! ^ p.I.~.~.~.~.~.~.~.~.~.~.~.~.~.>.>.~.~.~.~.~.~.~.~.~.~.~.~.~.~.~.~.",
"~.~.~.~.~.~.~.~.~.~.~.~.~.~.~.~.>.>.~.~.~.~.~.~.~.~.~.~.W.B.f   1 n n n n K ! ..B.Q.~.~.~.~.~.~.~.~.~.~.~.~.>.>.~.~.~.~.~.~.~.~.~.~.~.~.~.~.~.~.",
"~.~.~.~.~.~.~.~.~.~.~.~.~.~.~.~.>.>.~.~.~.~.~.~.~.~.~.~.P.4.*   v n n n n N Q / a.I.~.~.~.~.~.~.~.~.~.~.~.~.>.>.~.~.~.~.~.~.~.~.~.~.~.~.~.~.~.~.",
"~.~.~.~.~.~.~.~.~.~.~.~.~.~.~.~.>.>.~.~.~.~.~.~.~.~.~.Q.B.i   1 n n n n n n J ! ..V.W.~.~.~.~.~.~.~.~.~.~.~.>.>.~.~.~.~.~.~.~.~.~.~.~.~.~.~.~.~.",
"~.~.~.~.~.~.~.~.~.~.~.~.~.~.~.~.>.>.~.~.~.~.~.~.~.~.~.P.4.* O v n n n n n n M Q ^ i.K.~.~.~.~.~.~.~.~.~.~.~.>.>.~.~.~.~.~.~.~.~.~.~.~.~.~.~.~.~.",
"~.~.~.~.~.~.~.~.~.~.~.~.~.~.~.~.>.>.~.~.~.~.~.~.~.~.W.N.r   4 n n n n n n n n J ! | M.W.~.~.~.~.~.~.~.~.~.~.>.>.~.~.~.~.~.~.~.~.~.~.~.~.~.~.~.~.",
"~.~.~.~.~.~.~.~.~.~.~.~.~.~.~.~.>.>.~.~.~.~.~.~.~.!.J.3.  O v n n n n n n n n M Q ~ 9.J.!.~.~.~.~.~.~.~.~.~.>.>.~.~.~.~.~.~.~.~.~.~.~.~.~.~.~.~.",
"~.~.~.~.~.~.~.~.~.~.~.~.~.~.~.~.>.>.~.~.~.~.~.~.~.R.m.w   6 n n n n z V n n n n J ! } m.E.~.~.~.~.~.~.~.~.~.>.>.~.~.~.~.~.~.~.~.~.~.~.~.~.~.~.~.",
"~.~.~.~.~.~.~.~.~.~.~.~.~.~.~.~.>.>.~.~.~.~.~.~.!.G.1.  O n n n n n 1 K n n n n M T ! 8.G.!.~.~.~.~.~.~.~.~.>.>.~.~.~.~.~.~.~.~.~.~.~.~.~.~.~.~.",
"~.~.~.~.~.~.~.~.~.~.~.~.~.~.~.~.>.>.~.~.~.~.~.~.R.v.0   6 n n n n c   Q M n n n n S ! ` v.R.~.~.~.~.~.~.~.~.>.>.~.~.~.~.~.~.~.~.~.~.~.~.~.~.~.~.",
"~.~.~.~.~.~.~.~.~.~.~.~.~.~.~.~.>.>.~.~.~.~.~.!.F.,.  O n n n n n 2   ! H n n n n n T ! t.F.!.~.~.~.~.~.~.~.>.>.~.~.~.~.~.~.~.~.~.~.~.~.~.~.~.~.",
"~.~.~.~.~.~.~.~.~.~.~.~.~.~.~.~.>.>.~.~.~.~.~.R.c.9   6 n n n n b +   ! Q n n n n n C ! X.c.T.~.~.~.~.~.~.~.>.>.~.~.~.~.~.~.~.~.~.~.~.~.~.~.~.~.",
"~.~.~.~.~.~.~.~.~.~.~.~.~.~.~.~.>.>.~.~.~.~.!.F.<.  O n n n b 5 .     ! ! R D N n n n L ! t.F.!.~.~.~.~.~.~.>.>.~.~.~.~.~.~.~.~.~.~.~.~.~.~.~.~.",
">.>.>.>.>.>.>.>.>.>.>.>.>.>.>.>.>.>.>.>.>.>.;.@.$   x n z ,           ! ! ! ! ! K B n C ! ) @.;.>.>.>.>.>.>.>.>.>.>.>.>.>.>.>.>.>.>.>.>.>.>.>.>.",
">.>.>.>.>.>.>.>.>.>.>.>.>.>.>.>.>.>.>.>.>.>.;.#.%   z n x 1           ! ! ! ! Q K C n Z ! _ +.;.>.>.>.>.>.>.>.>.>.>.>.>.>.>.>.>.>.>.>.>.>.>.>.>.",
">.>.~.~.~.~.~.~.~.~.~.~.~.~.~.~.~.~.~.~.~.~.!.G.&.  ; n n n v 3 O     ! ! Q J m n n n R ! 5.S.!.~.~.~.~.~.~.~.~.~.~.~.~.~.~.~.~.~.~.~.~.~.~.~.~.",
">.>.~.~.~.~.~.~.~.~.~.~.~.~.~.~.~.~.~.~.~.~.~.E.b.>   z n n n n b .   ! T n n n n n A ! ' b.R.~.~.~.~.~.~.~.~.~.~.~.~.~.~.~.~.~.~.~.~.~.~.~.~.~.",
">.>.~.~.~.~.~.~.~.~.~.~.~.~.~.~.~.~.~.~.~.~.~.!.G.*.  + n n n n n 4   ! F n n n n n R ! y.J.!.~.~.~.~.~.~.~.~.~.~.~.~.~.~.~.~.~.~.~.~.~.~.~.~.~.",
">.>.~.~.~.~.~.~.~.~.~.~.~.~.~.~.~.~.~.~.~.~.~.~.E.n.q   7 n n n n b   ! N n n n n A ! ' n.E.~.~.~.~.~.~.~.~.~.~.~.~.~.~.~.~.~.~.~.~.~.~.~.~.~.~.",
">.>.~.~.~.~.~.~.~.~.~.~.~.~.~.~.~.~.~.~.~.~.~.~.!.J.2.  + b n n n n , K n n n n n R ! y.J.~.~.~.~.~.~.~.~.~.~.~.~.~.~.~.~.~.~.~.~.~.~.~.~.~.~.~.",
">.>.~.~.~.~.~.~.~.~.~.~.~.~.~.~.~.~.~.~.~.~.~.~.~.R.b.e   4 n n n n z B n n n n A ! ] m.E.~.~.~.~.~.~.~.~.~.~.~.~.~.~.~.~.~.~.~.~.~.~.~.~.~.~.~.",
">.>.~.~.~.~.~.~.~.~.~.~.~.~.~.~.~.~.~.~.~.~.~.~.~.!.J.6.X . b n n n n n n n n N R ! y.J.!.~.~.~.~.~.~.~.~.~.~.~.~.~.~.~.~.~.~.~.~.~.~.~.~.~.~.~.",
">.>.~.~.~.~.~.~.~.~.~.~.~.~.~.~.~.~.~.~.~.~.~.~.~.~.E.M.t   4 n n n n n n n n J ! [ m.E.~.~.~.~.~.~.~.~.~.~.~.~.~.~.~.~.~.~.~.~.~.~.~.~.~.~.~.~.",
">.>.~.~.~.~.~.~.~.~.~.~.~.~.~.~.~.~.~.~.~.~.~.~.~.~.~.L.7.X . b n n n n n n N R U u.H.~.~.~.~.~.~.~.~.~.~.~.~.~.~.~.~.~.~.~.~.~.~.~.~.~.~.~.~.~.",
">.>.~.~.~.~.~.~.~.~.~.~.~.~.~.~.~.~.~.~.~.~.~.~.~.~.~.W.N.u   4 n n n n n n K !  .M.E.~.~.~.~.~.~.~.~.~.~.~.~.~.~.~.~.~.~.~.~.~.~.~.~.~.~.~.~.~.",
">.>.~.~.~.~.~.~.~.~.~.~.~.~.~.~.~.~.~.~.~.~.~.~.~.~.~.~.P.0.o . c n n n n N ! E s.P.!.~.~.~.~.~.~.~.~.~.~.~.~.~.~.~.~.~.~.~.~.~.~.~.~.~.~.~.~.~.",
">.>.~.~.~.~.~.~.~.~.~.~.~.~.~.~.~.~.~.~.~.~.~.~.~.~.~.~.Q.C.s   < n n n n K ! w.V.W.~.~.~.~.~.~.~.~.~.~.~.~.~.~.~.~.~.~.~.~.~.~.~.~.~.~.~.~.~.~.",
">.>.~.~.~.~.~.~.~.~.~.~.~.~.~.~.~.~.~.~.~.~.~.~.~.~.~.~.~.I.q.o   c n n N ! E j.U.!.~.~.~.~.~.~.~.~.~.~.~.~.~.~.~.~.~.~.~.~.~.~.~.~.~.~.~.~.~.~.",
">.>.~.~.~.~.~.~.~.~.~.~.~.~.~.~.~.~.~.~.~.~.~.~.~.~.~.~.~.Q.C.d   ; n n K ! r.A.Q.~.~.~.~.~.~.~.~.~.~.~.~.~.~.~.~.~.~.~.~.~.~.~.~.~.~.~.~.~.~.~.",
">.>.~.~.~.~.~.~.~.~.~.~.~.~.~.~.~.~.~.~.~.~.~.~.~.~.~.~.~.!.U.j.=   z N ! I k.U.~.~.~.~.~.~.~.~.~.~.~.~.~.~.~.~.~.~.~.~.~.~.~.~.~.~.~.~.~.~.~.~.",
">.>.~.~.~.~.~.~.~.~.~.~.~.~.~.~.~.~.~.~.~.~.~.~.~.~.~.~.~.~.Q.Z.h   ; P ! k Z.Q.~.~.~.~.~.~.~.~.~.~.~.~.~.~.~.~.~.~.~.~.~.~.~.~.~.~.~.~.~.~.~.~.",
">.>.>.>.>.>.>.>.>.>.>.>.>.>.>.>.>.>.>.>.>.>.>.>.>.>.>.>.>.>.>.-.o.#   ! I o.-.>.>.>.>.>.>.>.>.>.>.>.>.>.>.>.>.>.>.>.>.>.>.>.>.>.>.>.>.>.>.>.>.>.",
">.>.>.>.>.>.>.>.>.>.>.>.>.>.>.>.>.>.>.>.>.>.>.>.>.>.>.>.>.>.>.:.$.y   ! k $.:.>.>.>.>.>.>.>.>.>.>.>.>.>.>.>.>.>.>.>.>.>.>.>.>.>.>.>.>.>.>.>.>.>.",
"~.~.~.~.~.~.~.~.~.~.~.~.~.~.~.~.~.~.>.>.~.~.~.~.~.~.~.~.~.~.~.~.Y.z.: W l.Y.~.~.~.~.~.~.~.~.~.~.~.~.~.~.>.>.~.~.~.~.~.~.~.~.~.~.~.~.~.~.~.~.~.~.",
"~.~.~.~.~.~.~.~.~.~.~.~.~.~.~.~.~.~.>.>.~.~.~.~.~.~.~.~.~.~.~.~.~.F.=.d.D.W.~.~.~.~.~.~.~.~.~.~.~.~.~.~.>.>.~.~.~.~.~.~.~.~.~.~.~.~.~.~.~.~.~.~.",
"~.~.~.~.~.~.~.~.~.~.~.~.~.~.~.~.~.~.>.>.~.~.~.~.~.~.~.~.~.~.~.~.~.W.L.L.W.~.~.~.~.~.~.~.~.~.~.~.~.~.~.~.>.>.~.~.~.~.~.~.~.~.~.~.~.~.~.~.~.~.~.~.",
"~.~.~.~.~.~.~.~.~.~.~.~.~.~.~.~.~.~.>.>.~.~.~.~.~.~.~.~.~.~.~.~.~.~.!.!.~.~.~.~.~.~.~.~.~.~.~.~.~.~.~.~.>.>.~.~.~.~.~.~.~.~.~.~.~.~.~.~.~.~.~.~.",
"~.~.~.~.~.~.~.~.~.~.~.~.~.~.~.~.~.~.>.>.~.~.~.~.~.~.~.~.~.~.~.~.~.~.~.~.~.~.~.~.~.~.~.~.~.~.~.~.~.~.~.~.>.>.~.~.~.~.~.~.~.~.~.~.~.~.~.~.~.~.~.~.",
"~.~.~.~.~.~.~.~.~.~.~.~.~.~.~.~.~.~.>.>.~.~.~.~.~.~.~.~.~.~.~.~.~.~.~.~.~.~.~.~.~.~.~.~.~.~.~.~.~.~.~.~.>.>.~.~.~.~.~.~.~.~.~.~.~.~.~.~.~.~.~.~.",
"~.~.~.~.~.~.~.~.~.~.~.~.~.~.~.~.~.~.>.>.~.~.~.~.~.~.~.~.~.~.~.~.~.~.~.~.~.~.~.~.~.~.~.~.~.~.~.~.~.~.~.~.>.>.~.~.~.~.~.~.~.~.~.~.~.~.~.~.~.~.~.~.",
"~.~.~.~.~.~.~.~.~.~.~.~.~.~.~.~.~.~.>.>.~.~.~.~.~.~.~.~.~.~.~.~.~.~.~.~.~.~.~.~.~.~.~.~.~.~.~.~.~.~.~.~.>.>.~.~.~.~.~.~.~.~.~.~.~.~.~.~.~.~.~.~.",
"~.~.~.~.~.~.~.~.~.~.~.~.~.~.~.~.~.~.>.>.~.~.~.~.~.~.~.~.~.~.~.~.~.~.~.~.~.~.~.~.~.~.~.~.~.~.~.~.~.~.~.~.>.>.~.~.~.~.~.~.~.~.~.~.~.~.~.~.~.~.~.~.",
"~.~.~.~.~.~.~.~.~.~.~.~.~.~.~.~.~.~.>.>.~.~.~.~.~.~.~.~.~.~.~.~.~.~.~.~.~.~.~.~.~.~.~.~.~.~.~.~.~.~.~.~.>.>.~.~.~.~.~.~.~.~.~.~.~.~.~.~.~.~.~.~.",
"~.~.~.~.~.~.~.~.~.~.~.~.~.~.~.~.~.~.>.>.~.~.~.~.~.~.~.~.~.~.~.~.~.~.~.~.~.~.~.~.~.~.~.~.~.~.~.~.~.~.~.~.>.>.~.~.~.~.~.~.~.~.~.~.~.~.~.~.~.~.~.~.",
"~.~.~.~.~.~.~.~.~.~.~.~.~.~.~.~.~.~.>.>.~.~.~.~.~.~.~.~.~.~.~.~.~.~.~.~.~.~.~.~.~.~.~.~.~.~.~.~.~.~.~.~.>.>.~.~.~.~.~.~.~.~.~.~.~.~.~.~.~.~.~.~.",
"~.~.~.~.~.~.~.~.~.~.~.~.~.~.~.~.~.~.>.>.~.~.~.~.~.~.~.~.~.~.~.~.~.~.~.~.~.~.~.~.~.~.~.~.~.~.~.~.~.~.~.~.>.>.~.~.~.~.~.~.~.~.~.~.~.~.~.~.~.~.~.~.",
"~.~.~.~.~.~.~.~.~.~.~.~.~.~.~.~.~.~.>.>.~.~.~.~.~.~.~.~.~.~.~.~.~.~.~.~.~.~.~.~.~.~.~.~.~.~.~.~.~.~.~.~.>.>.~.~.~.~.~.~.~.~.~.~.~.~.~.~.~.~.~.~.",
"~.~.~.~.~.~.~.~.~.~.~.~.~.~.~.~.~.~.>.>.~.~.~.~.~.~.~.~.~.~.~.~.~.~.~.~.~.~.~.~.~.~.~.~.~.~.~.~.~.~.~.~.>.>.~.~.~.~.~.~.~.~.~.~.~.~.~.~.~.~.~.~.",
"~.~.~.~.~.~.~.~.~.~.~.~.~.~.~.~.~.~.>.>.~.~.~.~.~.~.~.~.~.~.~.~.~.~.~.~.~.~.~.~.~.~.~.~.~.~.~.~.~.~.~.~.>.>.~.~.~.~.~.~.~.~.~.~.~.~.~.~.~.~.~.~.",
">.>.>.>.>.>.>.>.>.>.>.>.>.>.>.>.>.>.>.>.>.>.>.>.>.>.>.>.>.>.>.>.>.>.>.>.>.>.>.>.>.>.>.>.>.>.>.>.>.>.>.>.>.>.>.>.>.>.>.>.>.>.>.>.>.>.>.>.>.>.>.>.",
">.>.>.>.>.>.>.>.>.>.>.>.>.>.>.>.>.>.>.>.>.>.>.>.>.>.>.>.>.>.>.>.>.>.>.>.>.>.>.>.>.>.>.>.>.>.>.>.>.>.>.>.>.>.>.>.>.>.>.>.>.>.>.>.>.>.>.>.>.>.>.>."
};
