/* XPM */
static char *collectable_21706048920[] = {
/* columns rows colors chars-per-pixel */
"73 72 203 2 ",
"   c None",
".  c #124E89",
"X  c #11528E",
"o  c #11538E",
"O  c #1B538A",
"+  c #1C548B",
"@  c #0F5893",
"#  c #105793",
"$  c #2E5B87",
"%  c #24588C",
"&  c #24598C",
"*  c #25598D",
"=  c #265B8E",
"-  c #265B8F",
";  c #375D82",
":  c #0D609D",
">  c #0D619D",
",  c #0E619D",
"<  c #0E619E",
"1  c #3D6287",
"2  c #36638F",
"3  c #376490",
"4  c #376491",
"5  c #386591",
"6  c #0B6AA7",
"7  c #0B6AA8",
"8  c #0A6FAD",
"9  c #0873B1",
"0  c #0873B2",
"q  c #0973B2",
"w  c #0874B2",
"e  c #0778B6",
"r  c #0779B7",
"t  c #077CBC",
"y  c #067DBC",
"u  c #416385",
"i  c #40668A",
"p  c #4D7398",
"a  c #50769A",
"s  c #5F7D9A",
"d  c #6C7B8A",
"f  c #747C82",
"g  c #617F9C",
"h  c #62809D",
"j  c #6583A0",
"k  c #6E89A3",
"l  c #738AA0",
"z  c #748BA0",
"x  c #768DA3",
"c  c #798FA5",
"v  c #7D93A9",
"b  c #5FA6AB",
"n  c #56B4BA",
"m  c #61A4AF",
"M  c #0681C1",
"N  c #0486C6",
"B  c #038ACC",
"V  c #028FD0",
"C  c #028FD1",
"Z  c #0290D0",
"A  c #0290D1",
"S  c #0194D6",
"D  c #0195D6",
"F  c #0099DB",
"G  c #039EDD",
"H  c #0DA3D7",
"J  c #05A3DE",
"K  c #06A3DE",
"L  c #0CA9DD",
"P  c #0BACE1",
"I  c #0BADE1",
"U  c #0BACE2",
"Y  c #0BADE2",
"T  c #10B6E4",
"R  c #11B7E5",
"E  c #14BCE7",
"W  c #16C1E7",
"Q  c #1DC1E1",
"!  c #16C1E8",
"~  c #19C5EA",
"^  c #1BCAEB",
"/  c #1CCAEB",
"(  c #1ECFEC",
")  c #20C6E3",
"_  c #2ECEE0",
"`  c #3ACEE0",
"'  c #21D4EE",
"]  c #21D4EF",
"[  c #29D5E8",
"{  c #34D9E4",
"}  c #36DAE5",
"|  c #35DAE6",
" . c #36DAE6",
".. c #26DEF1",
"X. c #27DEF2",
"o. c #31E1ED",
"O. c #33E3EF",
"+. c #3BE0EC",
"@. c #3CE0EC",
"#. c #29E3F4",
"$. c #2AE3F4",
"%. c #2CE8F5",
"&. c #34E4F0",
"*. c #5BD0D8",
"=. c #5CD2DA",
"-. c #5DD3DA",
";. c #63CDD4",
":. c #6CCAD1",
">. c #70CED5",
",. c #49D6E0",
"<. c #4CD8E2",
"1. c #4DDAE3",
"2. c #4CDAE4",
"3. c #4DDAE4",
"4. c #869293",
"5. c #889097",
"6. c #809899",
"7. c gray57",
"8. c #939393",
"9. c #959595",
"0. c #9A9A9A",
"q. c #9B9B9B",
"w. c #8A99A8",
"e. c #8E9DAB",
"r. c #909FAE",
"t. c #92A1B0",
"y. c #A2A2A2",
"u. c #A5A5A5",
"i. c gray65",
"p. c gray66",
"a. c #A9A9A9",
"s. c #AAAAAA",
"d. c gray67",
"f. c #ACACAC",
"g. c #AEAEAE",
"h. c #A2A9B1",
"j. c #AFB3B7",
"k. c #AAB2B9",
"l. c #AEB6BD",
"z. c #A6BDBE",
"x. c #A6BEBF",
"c. c #B4B4B4",
"v. c gray71",
"b. c #B5B8BC",
"n. c #B3BFC0",
"m. c #B9BCC0",
"M. c #BBBFC3",
"N. c #80C6CB",
"B. c #82C8CD",
"V. c #92C0C4",
"C. c #92C1C4",
"Z. c #98C6CA",
"A. c #98C7CA",
"S. c #8FC5D1",
"D. c #A8C0C1",
"F. c #AAC2C3",
"G. c #AAC2C4",
"H. c #B8C0C7",
"J. c #B8C4C4",
"K. c #BAC5C6",
"L. c #C0C0C0",
"P. c gray76",
"I. c gray77",
"U. c #C6C6C6",
"Y. c gray78",
"T. c #C8C8C8",
"R. c #CACACA",
"E. c gray80",
"W. c #CDCDCD",
"Q. c #CECECE",
"!. c gray81",
"~. c #D0D0D0",
"^. c gray82",
"/. c #D2D2D2",
"(. c LightGray",
"). c #D5D5D5",
"_. c #D7D7D7",
"`. c #D8D8D8",
"'. c gray85",
"]. c #DADADA",
"[. c gray86",
"{. c gainsboro",
"}. c #DDDDDD",
"|. c gray87",
" X c #DFDFDF",
".X c #E1E1E1",
"XX c #E2E2E2",
"oX c gray89",
"OX c #E4E4E4",
"+X c gray90",
"@X c #E6E6E6",
"#X c #E7E7E7",
"$X c gray91",
"%X c #E9E9E9",
"&X c #EAEAEA",
"*X c gray92",
"=X c #ECECEC",
"-X c gray93",
";X c #EEEEEE",
":X c #EFEFEF",
">X c gray94",
",X c #F1F1F1",
"<X c gray95",
/* pixels */
",X,X,X<X<X<X<X<X<X<X<X<X<X<X<X<X<X<X<X<X<X<X<X<X<X<X<X<X<X<X<X<X<X<Xv.f.*X,X,X,X<X<X<X<X<X<X<X<X<X<X<X<X<X<X<X<X<X<X<X<X<X<X<X<X<X<X<X<X<X<Xv.f.  ",
",X,X<X<X<X<X<X<X<X<X<X<X<X<X<X<X<X<X<X<X<X<X<X<X<X<X<X<X<X<X<X<X<X<Xv.f.*X,X<X<X<X<X<X<X<X<X<X<X<X<X<X<X<X<X<X<X<X<X<X<X<X<X<X<X<X<X<X<X<X<Xv.f.  ",
",X<X<X<X<X<X<X<X<X<X<X<X<X<X<X<X<X<X<X<X<X<X<X<X<X<X<X<X<X<X<X<X<X<Xv.f.*X<X<X<X<X<X<X<X<X<X<X<X<X<X<X<X<X<X<X<X<X<X<X<X<X<X<X<X<X<X<X<X<X<Xv.f.  ",
",X<X<X<X<X<X<X<X<X<X<X<X<X<X<X<X<X<X<X<X<X<X<X<X<X<X<X<X<X<X<X<X<X<Xv.f.*X<X<X<X<X<X<X<X<X<X<X<X<X<X<X<X<X<X<X<X<X<X<X<X<X<X<X<X<X<X<X<X<X<Xv.f.  ",
",X<X<X<X<X<X<X<X<X<X<X<X<X<X<X<X<X<X<X<X<X<X<X<X<X<X<X<X<X<X<X<X,X,Xv.f.*X,X,X,X<X<X<X<X<X<X<X<X<X<X<X<X<X<X<X<X<X<X<X<X<X<X<X<X<X<X<X<X<X<Xv.f.  ",
",X<X<X<X<X<X<X<X<X<X<X<X<X<X<X<X<X<X<X<X<X<X<X<X<X<X<X<X<X<X<X<X<X,Xv.f.#X,X<X<X<X<X<X<X<X<X<X<X<X<X<X<X<X<X<X<X<X<X<X<X<X<X<X<X<X<X<X<X<X<Xv.f.  ",
",X<X<X<X<X<X<X<X<X<X<X<X<X<X<X<X<X<X<X<X<X<X<X<X<X<X<X<X<X<X<X<X<X<Xv.f.*X<X<X<X<X<X<X<X<X<X<X<X<X<X<X<X<X<X<X<X<X<X<X<X<X<X<X<X<X<X<X<X<X<Xv.f.  ",
",X<X<X<X<X<X<X<X<X<X<X<X<X<X<X<X<X<X<X<X<X<X<X<X<X<X<X<X<X<X<X<X<X<Xv.d.*X<X<X<X<X<X<X<X<X<X<X<X<X<X<X<X<X<X<X<X<X<X<X<X<X<X<X<X<X<X<X<X<X<Xv.f.  ",
",X<X<X<X<X<X<X<X<X<X<X<X<X<X<X<X<X<X<X<X<X<X<X<X<X<X<X<X<X<X<X<X<X<Xv.f.*X,X,X,X,X<X<X<X<X<X<X<X<X<X<X<X<X<X<X<X<X<X<X<X<X<X<X<X<X<X<X<X<X<Xv.f.  ",
",X<X<X<X<X<X<X<X<X<X<X<X<X<X<X<X<X<X<X<X<X<X<X<X<X<X<X<X<X<X<X<X<X<Xv.f.*X,X,X,X<X<X<X<X<X<X<X<X<X<X<X<X<X<X<X<X<X<X<X<X<X<X<X<X<X<X<X<X<X<Xv.f.  ",
",X<X<X<X<X<X<X<X<X<X<X<X<X<X<X<X<X<X<X<X<X<X<X<X<X<X<X<X<X<X<X<X<X<Xv.f.*X,X<X<X<X<X<X<X<X<X<X<X<X<X<X<X<X<X<X<X<X<X<X<X<X<X<X<X<X<X<X<X<X<Xv.f.  ",
",X<X<X<X<X<X<X<X<X<X<X<X<X<X<X<X<X<X<X<X<X<X<X<X<X<X<X<X<X<X<X<X<X<Xv.f.*X<X<X<X<X<X<X<X<X<X<X<X<X<X<X<X<X<X<X<X<X<X<X<X<X<X<X<X<X<X<X<X<X<Xv.f.  ",
",X<X<X<X<X<X<X<X<X<X<X<X<X<X<X<X<X<X<X<X<X<X<X<X<X<X<X<X<X<X<X<X<X<Xv.f.*X,X<X<X<X<X<X<X<X<X<X<X<X<X<X<X<X<X<X<X<X<X<X<X<X<X<X<X<X<X<X<X<X<Xv.f.  ",
",X<X<X<X<X<X<X<X<X<X<X<X<X<X<X<X<X<X<X<X<X<X<X<X<X<X<X<X<X<X<X<X,X,Xf.i.#X,X<X<X<X<X<X<X<X<X<X<X<X<X<X<X<X<X<X<X<X<X<X<X<X<X<X<X<X<X<X<X<X<Xv.f.  ",
",X<X<X<X<X<X<X<X<X<X<X<X<X<X<X<X<X<X<X<X<X<X<X<X<X<X<X<X<X<X,X,X,X#X5.m _.:X,X,X<X<X<X<X<X<X<X<X<X<X<X<X<X<X<X<X<X<X<X<X<X<X<X<X<X<X<X<X<X<Xv.f.  ",
",X<X<X<X<X<X<X<X<X<X<X<X<X<X<X<X<X<X<X<X<X<X<X<X<X<X<X<X<X<X<X,X:X~.1 _ J.*X,X,X<X<X<X<X<X<X<X<X<X<X<X<X<X<X<X<X<X<X<X<X<X<X<X<X<X<X<X<X<X<Xv.f.  ",
"f.f.f.f.f.f.f.f.f.f.f.f.f.f.f.f.f.f.f.f.f.f.f.f.f.f.f.f.f.f.f.f.y.f . [ n q.d.f.f.f.f.f.f.f.f.f.f.f.f.f.f.f.f.f.f.f.f.f.f.f.f.f.f.f.f.f.f.f.f.f.  ",
"f.f.f.f.f.f.f.f.f.f.f.f.f.f.f.f.f.f.f.f.f.f.f.f.f.f.f.f.f.f.f.i.8.; . [ o.4.i.f.f.f.f.f.f.f.f.f.f.f.f.f.f.f.f.f.f.f.f.f.f.f.f.f.f.f.f.f.f.f.f.f.  ",
",X,X<X<X<X<X<X<X<X<X<X<X<X<X<X<Xv.f.*X,X<X<X,X,X<X<X<X<X<X<X<X#Xh.. # ~ %.>.`.,X<X<X<X<X<X<X<X<X<X<X<X<X<X<Xv.f.*X,X,X<X<X<X<X<X<X<X<X<X<X<X<X<X  ",
",X,X<X<X<X<X<X<X<X<X<X<X<X<X<X<Xv.f.*X,X<X<X<X<X<X<X<X<X<X<X:X!.5 . t G #.&.J.#X<X<X<X<X<X<X<X<X<X<X<X<X<X<Xv.f.*X,X,X<X<X<X<X<X<X<X<X<X<X<X<X<X  ",
",X<X<X<X<X<X<X<X<X<X<X<X<X<X<X<Xv.d.*X,X<X<X<X<X<X<X<X<X,X,X#Xt.. # F F E %.:.~.,X,X,X,X<X<X<X<X<X<X<X<X<X<Xv.f.*X<X<X<X<X<X<X<X<X<X<X<X<X<X<X<X  ",
",X<X<X<X<X<X<X<X<X<X<X<X<X<X<X<Xv.d.*X,X<X<X<X<X<X<X<X<X,X:XR.% . t F F G %.O.J.#X>X<X<X<X<X<X<X<X<X<X<X<X<Xv.f.*X<X<X<X<X<X<X<X<X<X<X<X<X<X<X<X  ",
",X<X<X<X<X<X<X<X<X<X<X<X<X<X<X<Xv.f.*X,X<X<X<X<X<X<X,X,X,X|.v . : F F F F E %.;.!.:X<X<X<X<X<X<X<X<X<X<X<X<Xv.f.*X,X<X<X<X<X<X<X<X<X<X<X<X<X<X<X  ",
",X<X<X<X<X<X<X<X<X<X<X<X<X<X<X<Xv.f.*X<X<X<X<X<X,X,X,X,X*XR.- . N F F F F G %.%.x.oX,X<X<X<X<X<X<X<X<X<X<X<Xv.f.*X,X<X<X<X<X<X<X<X<X<X<X<X<X<X<X  ",
",X<X<X<X<X<X<X<X<X<X<X<X<X<X<X<Xv.f.*X,X<X<X<X<X<X<X<X,X|.c . 7 F F F F F F E %.*.!.:X,X,X,X<X<X<X<X<X<X<X<Xv.f.#X,X<X<X<X<X<X<X<X<X<X<X<X<X<X<X  ",
",X<X<X<X<X<X<X<X<X<X<X<X<X<X<X<Xv.f.*X,X<X<X<X<X<X<X,X*XL.% . A F F F F F F F X.%.Z.XX>X<X<X<X<X<X<X<X<X<X<Xv.f.*X,X<X<X<X<X<X<X<X<X<X<X<X<X<X<X  ",
",X<X<X<X<X<X<X<X<X<X<X<X<X<X<X<Xv.d.*X,X<X<X<X<X,X,X,X`.l . 7 F F F F F F F F R %.<.!.:X<X<X<X<X<X<X<X<X<X<Xv.f.*X,X,X<X<X<X<X<X<X<X<X<X<X<X<X<X  ",
",X<X<X<X<X<X<X<X<X<X<X<X<X<X<X<Xv.d.*X,X<X<X<X<X,X,X*XL.% . C F F F F F F F F F ' %.Z.XX,X,X<X<X<X<X<X<X<X<Xv.f.#X,X,X<X<X<X<X<X<X<X<X<X<X<X<X<X  ",
",X<X<X<X<X<X<X<X<X<X<X<X<X<X<X<Xv.d.#X,X,X,X<X<X,X,X`.z . 7 F F F F C H F F F F I %.<.~.:X<X<X<X<X<X<X<X<X<Xv.f.*X<X<X<X<X<X<X<X<X<X<X<X<X<X<X<X  ",
",X<X<X<X<X<X<X<X<X<X<X<X<X<X<X<Xv.d.*X,X<X,X<X<X,X*Xl.% . A F F F F e Q F F F F F ' %.A.XX,X<X<X<X<X<X<X<X<Xv.f.*X<X<X<X<X<X<X<X<X<X<X<X<X<X<X<X  ",
",X<X<X<X<X<X<X<X<X<X<X<X<X<X<X<Xv.f.*X,X<X<X<X<X:X_.g . q F F F F F @ [ I F F F F I %.<.R.*X<X<X<X<X<X<X,X,Xv.d.*X,X<X<X<X<X<X<X<X<X<X<X<X<X<X<X  ",
",X<X<X<X<X<X<X<X<X<X<X<X<X<X<X<Xv.f.*X,X<X<X<X<X*Xl.% # C F F F F y . [ ( F F F F F ' %.V.|.,X<X<X<X<X<X,X,Xv.d.*X,X<X<X<X<X<X<X<X<X<X<X<X<X<X<X  ",
",X<X<X<X<X<X<X<X<X<X<X<X<X<X<X<Xv.f.*X<X<X,X,X:X`.a . w F F F F F : . [ %.J F F F F Y %.,.U.*X,X,X<X<X<X<X<Xv.f.*X,X<X<X<X<X<X<X<X<X<X<X<X<X<X<X  ",
",X<X<X<X<X<X<X<X<X<X<X<X<X<X<X<Xv.d.*X<X<X,X,XXXk.. @ F F F S w @ . . [ %.X.^ J F F F / %.N.[.:X,X<X<X<X<X<Xv.f.*X,X,X,X<X<X<X<X<X<X<X<X<X<X<X<X  ",
"f.f.f.f.f.f.f.f.f.f.f.f.f.f.f.f.f.f.f.f.f.f.d.q.1 . t F B 8 o . . . . [ %.%.%.%.( U F J %.} 8.p.f.f.f.f.f.f.f.f.f.f.f.f.f.f.f.f.f.f.f.f.f.f.f.f.  ",
"f.f.f.f.f.f.f.f.f.f.f.f.f.f.f.f.f.f.f.f.f.f.d.q.u . e F A 7 X . . . . [ %.%.%.%.] Y F J %.} 8.p.f.f.f.f.f.f.f.f.f.f.f.f.f.f.f.f.f.f.f.f.f.f.f.f.  ",
"d.f.*X,X<X<X<X<X<X<X<X<X<X<X<X<X,X<X<X<X<X<X,X#Xc.O X F F F B t @ . . [ %.$.W J F F F ^ %.B.|.,X<X<X<X<X<X<X<X<X<X<X<X<X<X<X<X<X<X<X<X<X<X<X<X<X  ",
"d.f.*X,X<X<X<X<X<X<X<X<X<X<X<X<X,X,X<X<X<X<X<X:X).s . 9 F F F F F : . [ %.J F F F F J %.+.U.*X<X<X<X<X<X<X<X<X<X<X<X<X<X<X<X<X<X<X<X<X<X<X<X<X<X  ",
"d.f.$X,X<X<X<X<X<X<X<X<X<X<X<X<X<X<X<X<X<X<X,X,X#Xb.O X F F F F F M . [ / F F F F F ( %.B.|.,X,X<X<X<X<X<X<X<X<X<X<X<X<X<X<X<X<X<X<X<X<X<X<X<X<X  ",
"d.f.*X,X<X<X<X<X<X<X<X<X<X<X<X<X<X<X<X<X<X,X,X,X:X_.g . w F F F F F X [ Y F F F F I %. .U.*X<X<X<X<X<X<X<X<X<X<X<X<X<X<X<X<X<X<X<X<X<X<X<X<X<X<X  ",
"d.f.*X,X,X<X<X<X<X<X<X<X<X<X<X<X<X<X<X<X<X<X<X<X<X$Xb.+ X S F F F F q ) F F F F F ' %.C.|.:X,X,X<X<X<X<X<X<X<X<X<X<X<X<X<X<X<X<X<X<X<X<X<X<X<X<X  ",
"d.f.*X,X,X,X<X<X<X<X<X<X<X<X<X<X<X<X<X<X<X<X<X<X<X:X|.j . 8 F F F F S L F F F F T %.<.R.:X<X,X,X<X<X<X<X<X<X<X<X<X<X<X<X<X<X<X<X<X<X<X<X<X<X<X<X  ",
"d.f.*X,X<X<X<X<X<X<X<X<X<X<X<X<X<X<X<X<X<X<X<X<X,X<X*XJ.+ . A F F F F F F F F F X.%.x.XX,X<X<X<X<X<X<X<X<X<X<X<X<X<X<X<X<X<X<X<X<X<X<X<X<X<X<X<X  ",
"d.f.#X,X<X<X<X<X<X<X<X<X<X<X<X<X<X<X<X<X<X<X<X<X,X,X:X{.l . 7 F F F F F F F F T %.-.~.=X<X<X<X<X<X<X<X<X<X<X<X<X<X<X<X<X<X<X<X<X<X<X<X<X<X<X<X<X  ",
"d.d.*X,X<X<X<X<X<X<X<X<X<X<X<X<X<X<X<X<X<X<X<X<X<X<X<X*XU.% . N F F F F F F F X.%.F.#X,X,X,X<X<X<X<X<X<X<X<X<X<X<X<X<X<X<X<X<X<X<X<X<X<X<X<X<X<X  ",
"d.d.*X,X<X<X<X<X<X<X<X<X<X<X<X<X<X<X<X<X<X<X<X<X<X<X<X:X{.z . : F F F F F F T %.-.~.:X,X<X,X<X<X<X<X<X<X<X<X<X<X<X<X<X<X<X<X<X<X<X<X<X<X<X<X<X<X  ",
"d.f.*X,X<X<X<X<X<X<X<X<X<X<X<X<X<X<X<X<X<X<X<X<X<X<X<X<X*XI.2 . N F F F F F X.%.G.#X,X,X<X<X<X<X<X<X<X<X<X<X<X<X<X<X<X<X<X<X<X<X<X<X<X<X<X<X<X<X  ",
"d.f.*X<X<X<X<X<X<X<X<X<X<X<X<X<X<X<X<X<X<X<X<X<X<X<X<X<X:X{.w.. : F F F F W %.-.~.,X,X,X<X<X<X<X<X<X<X<X<X<X<X<X<X<X<X<X<X<X<X<X<X<X<X<X<X<X<X<X  ",
"d.f.*X,X<X<X<X<X<X<X<X<X<X<X<X<X<X<X<X<X<X<X<X<X<X<X<X<X<X*XE.2 . N F F H ..%.F.#X,X<X<X<X<X<X<X<X<X<X<X<X<X<X<X<X<X<X<X<X<X<X<X<X<X<X<X<X<X<X<X  ",
"d.f.*X,X<X<X<X<X<X<X<X<X<X<X<X<X<X<X<X<X<X<X<X<X<X<X<X<X,X,XXXe.. > F F W %.-.(.:X<X<X<X<X<X<X<X<X<X<X<X<X<X<X<X<X<X<X<X<X<X<X<X<X<X<X<X<X<X<X<X  ",
"d.f.#X,X<X<X<X<X<X<X<X<X<X<X<X<X<X<X<X<X<X<X<X<X<X<X<X<X<X,X*XE.2 . y J %.{ D.OX>X,X<X<X<X<X<X<X<X<X<X<X<X<X<X,X<X<X<X<X<X<X<X<X<X<X<X<X<X<X<X<X  ",
"d.f.*X,X<X<X<X<X<X<X<X<X<X<X<X<X<X<X<X<X<X<X<X<X<X<X<X<X<X,X,XoXt.. @ ^ %.n Q.;X,X,X<X<X<X<X<X<X<X<X<X<X<X<X<X,X<X<X<X<X<X<X<X<X<X<X<X<X<X<X<X<X  ",
"d.f.f.f.f.f.f.f.f.f.f.f.f.f.f.f.f.f.f.f.f.f.f.f.f.f.f.f.f.f.f.d.9.$ . [ } c u.f.f.f.f.f.f.f.f.f.f.f.f.f.f.f.f.f.f.f.f.f.f.f.f.f.f.f.f.f.f.f.f.f.  ",
"d.f.f.f.f.f.f.f.f.f.f.f.f.f.f.f.f.f.f.f.f.f.f.f.f.f.f.f.f.f.f.f.y.d . [ b q.a.f.f.f.f.f.f.f.f.f.f.f.f.f.f.f.f.f.f.f.f.f.f.f.f.f.f.f.f.f.f.f.f.f.  ",
",X,X,X<X<X<X<X<X<X<X<X<X<X<X<X<X<X<Xv.f.*X,X<X<X<X<X<X<X<X<X<X<X:X~.p ` Y.*X,X<X<X<X<X<X<X<X<X<X<X<X<X<Xv.f.*X,X<X<X<X<X<X<X<X<X<X<X<X<X<X<X<X<X  ",
",X,X<X<X<X<X<X<X<X<X<X<X<X<X<X<X,X,Xv.f.*X,X<X<X<X<X<X<X<X<X<X<X,X#XJ.S.XX,X<X<X<X<X<X<X<X<X<X<X<X<X<X<Xv.f.*X,X<X<X<X<X<X<X<X<X<X<X<X<X<X<X<X<X  ",
",X<X<X<X<X<X<X<X<X<X<X<X<X<X<X<X<X<Xv.f.*X,X<X<X<X<X<X<X<X<X<X<X,X:X*X*X:X,X,X<X<X<X<X<X<X<X<X<X<X<X<X<Xv.f.*X,X<X<X<X<X<X<X<X<X<X<X<X<X<X<X<X<X  ",
",X<X<X<X<X<X<X<X<X<X<X<X<X<X<X<X<X<Xv.f.*X,X<X<X<X<X<X<X<X<X<X<X<X<X,X,X,X,X<X<X<X<X<X<X<X<X<X<X<X<X<X<Xv.f.$X,X<X<X<X<X<X<X<X<X<X<X<X<X<X<X<X<X  ",
",X<X<X<X<X<X<X<X<X<X<X<X<X<X<X<X<X<Xv.f.*X,X<X<X<X<X<X<X<X<X<X<X<X<X<X<X<X<X<X<X<X<X<X<X<X<X<X<X<X<X<X<Xv.f.*X,X<X<X<X<X<X<X<X<X<X<X<X<X<X<X<X<X  ",
",X<X<X<X<X<X<X<X<X<X<X<X<X<X<X<X<X<Xv.f.#X,X<X<X<X<X<X<X<X<X<X<X<X<X<X<X<X<X<X<X<X<X<X<X<X<X<X<X<X<X,X,Xv.f.*X,X<X<X<X<X<X<X<X<X<X<X<X<X<X<X<X<X  ",
",X<X<X<X<X<X<X<X<X<X<X<X<X<X<X<X<X<Xv.f.*X<X<X<X<X<X<X<X<X<X<X<X<X<X<X<X<X<X<X<X<X<X<X<X<X<X<X<X<X<X<X<Xv.f.*X,X<X<X<X<X<X<X<X<X<X<X<X<X<X<X<X<X  ",
",X<X<X<X<X<X<X<X<X<X<X<X<X<X<X<X<X<Xv.f.*X<X<X<X<X<X<X<X<X<X<X<X<X<X<X<X<X<X<X<X<X<X<X<X<X<X<X<X<X<X<X<Xv.f.$X,X<X<X<X<X<X<X<X<X<X<X<X<X<X<X<X<X  ",
",X<X<X<X<X<X<X<X<X<X<X<X<X<X<X<X<X<Xv.f.#X,X<X<X<X<X<X<X<X<X<X<X<X<X<X<X<X<X<X<X<X<X<X<X<X<X<X<X<X<X<X<Xv.f.*X<X<X<X<X<X<X<X<X<X<X<X<X<X<X<X<X<X  ",
",X<X<X<X<X<X<X<X<X<X<X<X<X<X<X<X,X,Xv.f.*X,X<X<X<X<X<X<X<X<X<X<X<X<X<X<X<X<X<X<X<X<X<X<X<X<X<X<X<X<X<X<Xc.d.*X<X<X<X<X<X<X<X<X<X<X<X<X<X<X<X<X<X  ",
",X<X<X<X<X<X<X<X<X<X<X<X<X<X<X<X<X<Xv.f.$X,X,X<X<X<X<X<X<X<X<X<X<X<X<X<X<X<X<X<X<X<X<X<X<X<X<X<X<X<X<X<Xv.f.*X,X<X<X<X<X<X<X<X<X<X<X<X<X<X<X<X<X  ",
",X<X<X<X<X<X<X<X<X<X<X<X<X<X<X<X<X<Xv.f.*X,X,X<X<X<X<X<X<X<X<X<X<X<X<X<X<X<X<X<X<X<X<X<X<X<X<X<X<X<X<X<Xv.f.*X,X<X<X<X<X<X<X<X<X<X<X<X<X<X<X<X<X  ",
",X<X<X<X<X<X<X<X<X<X<X<X<X<X<X<X<X<Xv.f.*X,X<X<X<X<X<X<X<X<X<X<X<X<X<X<X<X<X<X<X<X<X<X<X<X<X<X<X<X<X<X<Xv.f.*X,X<X<X<X<X<X<X<X<X<X<X<X<X<X<X<X<X  ",
",X<X<X<X<X<X<X<X<X<X<X<X<X<X<X<X<X<Xv.f.*X<X<X<X<X<X<X<X<X<X<X<X<X<X<X<X<X<X<X<X<X<X<X<X<X<X<X<X<X<X<X<Xv.d.*X,X<X<X<X<X<X<X<X<X<X<X<X<X<X<X<X<X  ",
",X<X<X<X<X<X<X<X<X<X<X<X<X<X<X,X<X<Xv.f.*X,X<X<X<X<X<X<X<X<X<X<X<X<X<X<X<X<X<X<X<X<X<X<X<X<X<X<X<X<X,X,Xv.f.*X,X<X<X<X<X<X<X<X<X<X<X<X<X<X<X<X<X  ",
",X<X<X<X<X<X<X<X<X<X<X<X<X<X<X,X<X<Xv.f.*X,X,X,X<X<X<X<X<X<X<X<X<X<X<X<X<X<X<X<X<X<X<X<X<X<X<X<X<X<X<X,Xv.f.*X,X<X<X<X<X<X<X<X<X<X<X<X<X<X<X<X<X  ",
"f.f.f.f.f.f.f.f.f.f.f.f.f.f.f.f.f.f.f.f.f.f.f.f.f.f.f.f.f.f.f.f.f.f.f.f.f.f.f.f.f.f.f.f.f.f.f.f.f.f.f.f.f.f.d.d.f.f.f.f.f.f.f.f.f.f.f.f.f.f.f.f.  ",
"f.f.f.f.f.f.f.f.f.f.f.f.f.f.f.f.f.f.f.f.f.f.f.f.f.f.f.f.f.f.f.f.f.f.f.f.f.f.f.f.f.f.f.f.f.f.f.f.f.f.f.f.f.f.f.f.f.f.f.f.f.f.f.f.f.f.f.f.f.f.f.f.  "
};
