/* XPM */
static char *result[] = {
/* columns rows colors chars-per-pixel */
"72 72 87 1 ",
"  c black",
". c gray4",
"X c #151515",
"o c #161616",
"O c #1D1310",
"+ c #241814",
"@ c #2C1C19",
"# c #33221C",
"$ c #202020",
"% c gray17",
"& c #392721",
"* c #3A2621",
"= c #483029",
"- c #4F3C36",
"; c #573931",
": c #573A31",
"> c #573932",
", c #5E3E35",
"< c #5F3E36",
"1 c #66433A",
"2 c #6C483E",
"3 c #6D483E",
"4 c gray25",
"5 c #4B4B4B",
"6 c #4C4C4C",
"7 c #565656",
"8 c #6C4F47",
"9 c #744D42",
"0 c #704E44",
"q c #7C574D",
"w c #7B594F",
"e c #6C5D59",
"r c gray38",
"t c gray42",
"y c #6C6C6C",
"u c #767676",
"i c #777777",
"p c #836258",
"a c #846158",
"s c #846258",
"d c #82655C",
"f c #8B6C63",
"g c #93766E",
"h c #8C7670",
"j c #907C77",
"k c #93827E",
"l c #9B8179",
"z c #818181",
"x c #8B8B8B",
"c c gray55",
"v c #978885",
"b c gray59",
"n c #979797",
"m c #A38B84",
"M c #B39F9A",
"N c #A5A09F",
"B c gray63",
"V c #A8A6A5",
"C c #ACACAC",
"Z c #BBA9A5",
"A c gray69",
"S c #B4B4B4",
"D c gray71",
"F c #B9B9B9",
"G c gray74",
"H c #C3B4B0",
"J c #CABFBB",
"K c #C1C1C1",
"L c gray76",
"P c #C6C6C6",
"I c #CACACA",
"U c #CBCBCB",
"Y c gray81",
"T c #D3C8C6",
"R c LightGray",
"E c gray83",
"W c #D7D7D7",
"Q c #DAD3D1",
"! c #D8D8D8",
"~ c gainsboro",
"^ c #E2DDDC",
"/ c #E2DEDC",
"( c gray88",
") c gray90",
"_ c #E9E9E9",
"` c #EEEEEE",
"' c gray95",
/* pixels */
"''''''''''''''''''''''''''''''''''CC''''''''''''''''''''''''''''''''''CC",
"''''''''''''''''''''''''''''''''''CC''''''''''''''''''''''''''''''''''CC",
"''''''''''''''''''''''''''''''''''CC''''''''''''''''''''''''''''''''''CC",
"''''''''''''''''''''''''''''''''''CC''''''''''''''''''''''''''''''''''CC",
"''''''''''''''''''''''''''''''''''CC''''''''''''''''''''''''''''''''''CC",
"''''''''''''''''''''''''''''''''''CC''''''''''''''''''''''''''''''''''CC",
"''''''''''''''''''''''''''''''''''CC''''''''''''''''''''''''''''''''''CC",
"''''''''''''''''''''''''''''''''''CC''''''''''''''''''''''''''''''''''CC",
"''''''''''''''''''''''''''''''''''CC''''''''''''''''''''''''''''''''''CC",
"''''''''''''''''''''''''''''''''''CC''''''''''''''''''''''''''''''''''CC",
"''''''''''''''''''''''''''''''''''CC''''''''''''''''''''''''''''''''''CC",
"''''''''''''''''''''''''''''''''''CC''''''''''''''''''''''''''''''''''CC",
"''''''''''''''''''''''''''''''''''CC''''''''''''''''''''''''''''''''''CC",
"'''''''''''''''''''MMMMMMMMMMMMZ''CC''''/MMMMMMMMMMMMH''''''''''''''''CC",
"''''''''''''''''''H999999999999f''CC''''M999999999999g''''''''''''''''CC",
"''''''''''''''''''Tmq999999999pQ''CC''''Jl9999999999f^''''''''''''''''CC",
"CCCCCCCCCCCCCCCCCCCCCvd999999dVCCCCCCCCCCCNvw999999hVCCCCCCCCCCCCCCCCCCC",
"CCCCCCCCCCCCCCCCCCCCCCv99999jCCCCCCCCCCCCCCCj99999kCCCCCCCCCCCCCCCCCCCCC",
"''''''''''''''''CC''''H9999s''''''''''''''''M9999g''''CC''''''''''''''''",
"''''''''''''''''CC''''H9999s''''''''''''''''M9999g''''CC''''''''''''''''",
"''''''''''''''''CC''''H9999s''''''''''''''''M9999g''''CC''''''''''''''''",
"''''''''''''''''CC''''H9999s''''''''''''''''M9999g''''CC''''''''''''''''",
"''''''''''''''''CC''''H9999s''''''''''''''''M9999g''''CC''''''''''''''''",
"''''''''''''''''CC''''H9999s''''''''''''''''M9999g''''CC''''''''''''''''",
"''''''''''''''''CC''''H9999s''''''''''''''''M9999g''''CC''''''''''''''''",
"''''''''''''''''CC''''H9999s''''''''''''''''M9999g''''CC''''''''''''''''",
"''''''''''''''''CC''''H9999s''''''''''''''''M9999g''''CC''''''''''''''''",
"''''''''''''''''CC''''H9999s''''''''''''''''M9999g''''CC''''''''''''''''",
"''''''''''''''''CC''''H9999s''''''''''''''''M9999g''''CC''''''''''''''''",
"''''''''''''''''CC''''H99999aaaaaaaaaaaaaaaaq9999g''''CC''''''''''''''''",
"''''''''''''''''CC''''H99999999999999999999999999g''''CC''''''''''''''''",
"''''''''''''''''CC''''H9999s''''''''''''''''M9999g''''CC''''''''''''''''",
"''''''''''''''''CC''''H9999s''''''''''''''''M9999g''''CC''''''''''''''''",
"''''''''''''''''CC''''H9999s''''''''''''''''M9999g''''CC''''''''''''''''",
"CCCCCCCCCCCCCCCCCCCCCCv9999wCCCCCCCCCCCCCCCCj9999dCCCCCCCCCCCCCCCCCCCCCC",
"CCCCCCCCCCCCCCCCCCCCCCv9999wCCCCCCCCCCCCCCCCj9999dCCCCCCCCCCCCCCCCCCCCCC",
"CC''''''''''''''''`(KAv9999wCCBbzzyyyyzzcBCCj9999dAK!'''''''''''''''''''",
"CC''''''''''''''`YACCCv99990o.            .$-9999dCCCDP_''''''''''''''''",
"CC''''''''''''`YACCCCze99991                *99998zCCCCCP_''''''''''''''",
"CC'''''''''''EACCCB7o @99991                *9999: XtnCCCD!'''''''''''''",
"CC''''''''''PCCCB7.   @99991                *9999:   X7BCCCI''''''''''''",
"CC'''''''''FCCCzX     @99991                *9999:     XcCCCF`''''''''''",
"CC''''''''UCCCr       @99991                *9999:       tCCCP''''''''''",
"CC'''''''!CCCu        @99991                *9999:        zCCC('''''''''",
"CC'''''''FCCCX        @99991                *9999:        XBCCG'''''''''",
"CC''''''_CCCu         @99991                *9999:         zCCC_''''''''",
"CC''''''(CCC7         @99991                *9999:         7CCC(''''''''",
"CC'''''')CCCy         @99993================<9999:         iCCC(''''''''",
"CC''''''`CCCB.        @99999999999999999999999999:         nCCC`''''''''",
"CC'''''''GCCCr        @99993OOOOOOOOOOOOOOOO=9999:        7CCCP'''''''''",
"CC'''''''_CCCC5       @99991                *9999:       6CCCC_'''''''''",
"CC''''''''RCCCC7      @99991                *9999:      rCCCCY''''''''''",
"CCCCCCCCCCCCCCCCn$    @99991                *9999:    %zCCCCCCCCCCCCCCCC",
"CCCCCCCCCCCCCCCCCCz%  +29991                *9992&  %zCCCCCCCCCCCCCCCCCC",
"'''''''''''''_LCCCCCnr$ O*>,                #;*O %7BCCCCCG_'''''''''''''",
"'''''''''''''''WSCCCCCCnu5%.                .%5yBCCCCCCG('''''''''''''''",
"'''''''''''''''''(CCCCCCCCCCBzur75444457ryxbCCCCCCCCCC('''''''''''''''''",
"''''''''''''''''''CCWLACCCCCCCCCCCCCCCCCCCCCCCCCCAGRCC''''''''''''''''''",
"''''''''''''''''''CC'''(RLFCCCCCCCCCCCCCCCCCCSPR('''CC''''''''''''''''''",
"''''''''''''''''''CC'''''''')(WYYPPPPPPYYW~_''''''''CC''''''''''''''''''",
"''''''''''''''''''CC''''''''''''''''''''''''''''''''CC''''''''''''''''''",
"''''''''''''''''''CC''''''''''''''''''''''''''''''''CC''''''''''''''''''",
"''''''''''''''''''CC''''''''''''''''''''''''''''''''CC''''''''''''''''''",
"''''''''''''''''''CC''''''''''''''''''''''''''''''''CC''''''''''''''''''",
"''''''''''''''''''CC''''''''''''''''''''''''''''''''CC''''''''''''''''''",
"''''''''''''''''''CC''''''''''''''''''''''''''''''''CC''''''''''''''''''",
"''''''''''''''''''CC''''''''''''''''''''''''''''''''CC''''''''''''''''''",
"''''''''''''''''''CC''''''''''''''''''''''''''''''''CC''''''''''''''''''",
"''''''''''''''''''CC''''''''''''''''''''''''''''''''CC''''''''''''''''''",
"''''''''''''''''''CC''''''''''''''''''''''''''''''''CC''''''''''''''''''",
"CCCCCCCCCCCCCCCCCCCCCCCCCCCCCCCCCCCCCCCCCCCCCCCCCCCCCCCCCCCCCCCCCCCCCCCC",
"CCCCCCCCCCCCCCCCCCCCCCCCCCCCCCCCCCCCCCCCCCCCCCCCCCCCCCCCCCCCCCCCCCCCCCCC"
};
