/* XPM */
static char *floor_11706048919[] = {
/* columns rows colors chars-per-pixel */
"73 72 99 2 ",
"   c None",
".  c black",
"X  c #070504",
"o  c gray4",
"O  c #0B0B0B",
"+  c #0E0A08",
"@  c #150E0C",
"#  c #160F0C",
"$  c #151515",
"%  c #161616",
"&  c #1D1311",
"*  c #241815",
"=  c #2C1C19",
"-  c #33221D",
";  c #202020",
":  c gray13",
">  c gray17",
",  c #2F2A29",
"<  c #3B2721",
"1  c #412B25",
"2  c #483029",
"3  c #50342D",
"4  c #50352D",
"5  c #50352E",
"6  c #4C3D39",
"7  c #573931",
"8  c #573A32",
"9  c #65433A",
"0  c #66443A",
"q  c #6D483E",
"w  c #6D493E",
"e  c gray25",
"r  c #414141",
"t  c #4B4B4B",
"y  c #4C4C4C",
"u  c #565656",
"i  c #744D42",
"p  c #7B574D",
"a  c #7C574D",
"s  c #685E5C",
"d  c #7E5F55",
"f  c #606060",
"g  c gray38",
"h  c gray42",
"j  c #6C6C6C",
"k  c #767676",
"l  c #836158",
"z  c #846158",
"x  c #82645C",
"c  c #82655C",
"v  c #8B6B63",
"b  c #897069",
"n  c #8C7670",
"m  c #907C76",
"M  c #818181",
"N  c gray55",
"B  c #978884",
"V  c gray59",
"C  c #979797",
"Z  c #9E9491",
"A  c #9E9492",
"S  c #A38A84",
"D  c #B39F9A",
"F  c #A5A09F",
"G  c gray63",
"H  c #A2A2A2",
"J  c #A8A6A5",
"K  c gray67",
"L  c #ACACAC",
"P  c #BBAAA5",
"I  c gray69",
"U  c #B4B4B4",
"Y  c gray71",
"T  c #B9B9B9",
"R  c gray74",
"E  c gray",
"W  c #C3B4B0",
"Q  c #C1C1C1",
"!  c #C6C6C6",
"~  c #CBCBCB",
"^  c #CECECE",
"/  c gray81",
"(  c #D2C8C6",
")  c #D2C9C6",
"_  c LightGray",
"`  c #D7D7D7",
"'  c #DAD3D1",
"]  c #D8D8D8",
"[  c gainsboro",
"{  c #E2DDDC",
"}  c gray88",
"|  c #E1E1E1",
" . c #E4E4E4",
".. c gray90",
"X. c #E9E9E9",
"o. c gray93",
"O. c #EEEEEE",
"+. c #F1F1F1",
"@. c gray95",
/* pixels */
"+.+.+.@.@.@.@.@.@.@.@.@.@.@.@.@.@.@.@.@.@.@.@.@.@.@.@.@.@.@.@.@.@.@.Y L X.@.@.@.@.@.@.@.@.@.@.@.@.@.@.@.@.@.@.@.@.@.@.@.@.@.@.@.@.@.@.@.@.@.Y L   ",
"+.+.@.@.@.@.@.@.@.@.@.@.@.@.@.@.@.@.@.@.@.@.@.@.@.@.@.@.@.@.@.@.@.@.Y L X.@.@.@.@.@.@.@.@.@.@.@.@.@.@.@.@.@.@.@.@.@.@.@.@.@.@.@.@.@.@.@.@.@.Y L   ",
"+.@.@.@.@.@.@.@.@.@.@.@.@.@.@.@.@.@.@.@.@.@.@.@.@.@.@.@.@.@.@.@.@.@.Y L X.@.@.@.@.@.@.@.@.@.@.@.@.@.@.@.@.@.@.@.@.@.@.@.@.@.@.@.@.@.@.@.@.@.Y L   ",
"+.@.@.@.@.@.@.@.@.@.@.@.@.@.@.@.@.@.@.@.@.@.@.@.@.@.@.@.@.@.@.@.@.@.Y L X.@.@.@.@.@.@.@.@.@.@.@.@.@.@.@.@.@.@.@.@.@.@.@.@.@.@.@.@.@.@.@.@.@.Y L   ",
"+.@.@.@.@.@.@.@.@.@.@.@.@.@.@.@.@.@.@.@.@.@.@.@.@.@.@.@.@.@.@.@.@.@.Y L X.@.@.@.@.@.@.@.@.@.@.@.@.@.@.@.@.@.@.@.@.@.@.@.@.@.@.@.@.@.@.@.@.@.Y L   ",
"+.@.@.@.@.@.@.@.@.@.@.@.@.@.@.@.@.@.@.@.@.@.@.@.@.@.@.@.@.@.@.@.@.@.Y L X.@.@.@.@.@.@.@.@.@.@.@.@.@.@.@.@.@.@.@.@.@.@.@.@.@.@.@.@.@.@.@.@.@.Y L   ",
"+.@.@.@.@.@.@.@.@.@.@.@.@.@.@.@.@.@.@.@.@.@.@.@.@.@.@.@.@.@.@.@.@.@.Y L X.@.@.@.@.@.@.@.@.@.@.@.@.@.@.@.@.@.@.@.@.@.@.@.@.@.@.@.@.@.@.@.@.@.Y L   ",
"+.@.@.@.@.@.@.@.@.@.@.@.@.@.@.@.@.@.@.@.@.@.@.@.@.@.@.@.@.@.@.@.@.@.Y L X.@.@.@.@.@.@.@.@.@.@.@.@.@.@.@.@.@.@.@.@.@.@.@.@.@.@.@.@.@.@.@.@.@.Y L   ",
"+.@.@.@.@.@.@.@.@.@.@.@.@.@.@.@.@.@.@.@.@.@.@.@.@.@.@.@.@.@.@.@.@.@.Y L X.@.@.@.@.@.@.@.@.@.@.@.@.@.@.@.@.@.@.@.@.@.@.@.@.@.@.@.@.@.@.@.@.@.Y L   ",
"+.@.@.@.@.@.@.@.@.@.@.@.@.@.@.@.@.@.@.@.@.@.@.@.@.@.@.@.@.@.@.@.@.@.Y L X.@.@.@.@.@.@.@.@.@.@.@.@.@.@.@.@.@.@.@.@.@.@.@.@.@.@.@.@.@.@.@.@.@.Y L   ",
"+.@.@.@.@.@.@.@.@.@.@.@.@.@.@.@.@.@.@.@.@.@.@.@.@.@.@.@.@.@.@.@.@.@.Y L X.@.@.@.@.@.@.@.@.@.@.@.@.@.@.@.@.@.@.@.@.@.@.@.@.@.@.@.@.@.@.@.@.@.Y L   ",
"+.@.@.@.@.@.@.@.@.@.@.@.@.@.@.@.@.@.@.@.@.@.@.@.@.@.@.@.@.@.@.@.@.@.Y L X.@.@.@.@.@.@.@.@.@.@.@.@.@.@.@.@.@.@.@.@.@.@.@.@.@.@.@.@.@.@.@.@.@.Y L   ",
"+.@.@.@.@.@.@.@.@.@.@.@.@.@.@.@.@.@.@.@.@.@.@.@.@.@.@.@.@.@.@.@.@.@.Y L X.@.@.@.@.@.@.@.@.@.@.@.@.@.@.@.@.@.@.@.@.@.@.@.@.@.@.@.@.@.@.@.@.@.Y L   ",
"+.@.@.@.@.@.@.@.@.@.@.@.@.@.@.@.@.@.@.W D D D D D D D D D D D D @.@.Y L X.@.@.@.@.D D D D D D D D D D D D P @.@.@.@.@.@.@.@.@.@.@.@.@.@.@.@.Y L   ",
"+.@.@.@.@.@.@.@.@.@.@.@.@.@.@.@.@.@.) i i i i i i i i i i i i i @.@.Y L X.@.@.@.W i i i i i i i i i i i i v @.@.@.@.@.@.@.@.@.@.@.@.@.@.@.@.Y L   ",
"+.@.@.@.@.@.@.@.@.@.@.@.@.@.@.@.@.@.' S z i i i i i i i i i a ) @.@.Y L X.@.@.@.) S a i i i i i i i i i z ' @.@.@.@.@.@.@.@.@.@.@.@.@.@.@.@.Y L   ",
"L L L L L L L L L L L L L L L L L L L L L A b i i i i i i l H L L L L L L L L L L L L B c i i i i i i c J L L L L L L L L L L L L L L L L L L L   ",
"L L L L L L L L L L L L L L L L L L L L L L H i i i i i b J L L L L L L L L L L L L L L B i i i i i m L L L L L L L L L L L L L L L L L L L L L   ",
"+.+.@.@.@.@.@.@.@.@.@.@.@.@.@.@.Y L X.@.@.@.{ i i i i i { @.@.@.@.@.@.@.@.@.@.@.@.@.@.@.W i i i i i @.@.@.@.Y L X.@.@.@.@.@.@.@.@.@.@.@.@.@.@.@.  ",
"+.+.@.@.@.@.@.@.@.@.@.@.@.@.@.@.Y L X.@.@.@.{ i i i i i { @.@.@.@.@.@.@.@.@.@.@.@.@.@.@.W i i i i i @.@.@.@.Y L X.@.@.@.@.@.@.@.@.@.@.@.@.@.@.@.  ",
"+.@.@.@.@.@.@.@.@.@.@.@.@.@.@.@.Y L X.@.@.@.{ i i i i i { @.@.@.@.@.@.@.@.@.@.@.@.@.@.@.W i i i i i @.@.@.@.Y L X.@.@.@.@.@.@.@.@.@.@.@.@.@.@.@.  ",
"+.@.@.@.@.@.@.@.@.@.@.@.@.@.@.@.Y L X.@.@.@.{ i i i i i { @.@.@.@.@.@.@.@.@.@.@.@.@.@.@.W i i i i i @.@.@.@.Y L X.@.@.@.@.@.@.@.@.@.@.@.@.@.@.@.  ",
"+.@.@.@.@.@.@.@.@.@.@.@.@.@.@.@.Y L X.@.@.@.{ i i i i i { @.@.@.@.@.@.@.@.@.@.@.@.@.@.@.W i i i i i @.@.@.@.Y L X.@.@.@.@.@.@.@.@.@.@.@.@.@.@.@.  ",
"+.@.@.@.@.@.@.@.@.@.@.@.@.@.@.@.Y L X.@.@.@.{ i i i i i { @.@.@.@.@.@.@.@.@.@.@.@.@.@.@.W i i i i i @.@.@.@.Y L X.@.@.@.@.@.@.@.@.@.@.@.@.@.@.@.  ",
"+.@.@.@.@.@.@.@.@.@.@.@.@.@.@.@.Y L X.@.@.@.{ i i i i i { @.@.@.@.@.@.@.@.@.@.@.@.@.@.@.W i i i i i @.@.@.@.Y L X.@.@.@.@.@.@.@.@.@.@.@.@.@.@.@.  ",
"+.@.@.@.@.@.@.@.@.@.@.@.@.@.@.@.Y L X.@.@.@.{ i i i i i { @.@.@.@.@.@.@.@.@.@.@.@.@.@.@.W i i i i i @.@.@.@.Y L X.@.@.@.@.@.@.@.@.@.@.@.@.@.@.@.  ",
"+.@.@.@.@.@.@.@.@.@.@.@.@.@.@.@.Y L X.@.@.@.{ i i i i i { @.@.@.@.@.@.@.@.@.@.@.@.@.@.@.W i i i i i @.@.@.@.Y L X.@.@.@.@.@.@.@.@.@.@.@.@.@.@.@.  ",
"+.@.@.@.@.@.@.@.@.@.@.@.@.@.@.@.Y L X.@.@.@.{ i i i i i { @.@.@.@.@.@.@.@.@.@.@.@.@.@.@.W i i i i i @.@.@.@.Y L X.@.@.@.@.@.@.@.@.@.@.@.@.@.@.@.  ",
"+.@.@.@.@.@.@.@.@.@.@.@.@.@.@.@.Y L X.@.@.@.{ i i i i i { @.@.@.@.@.@.@.@.@.@.@.@.@.@.@.W i i i i i @.@.@.@.Y L X.@.@.@.@.@.@.@.@.@.@.@.@.@.@.@.  ",
"+.@.@.@.@.@.@.@.@.@.@.@.@.@.@.@.Y L X.@.@.@.{ i i i i i z z z z z z z z z z z z z z z z a i i i i i @.@.@.@.Y L X.@.@.@.@.@.@.@.@.@.@.@.@.@.@.@.  ",
"+.@.@.@.@.@.@.@.@.@.@.@.@.@.@.@.Y L X.@.@.@.{ i i i i i i i i i i i i i i i i i i i i i i i i i i i @.@.@.@.Y L X.@.@.@.@.@.@.@.@.@.@.@.@.@.@.@.  ",
"+.@.@.@.@.@.@.@.@.@.@.@.@.@.@.@.Y L X.@.@.@.' i i i i i { @.@.@.@.@.@.@.@.@.@.@.@.@.@.@.W i i i i i @.@.@.@.Y L X.@.@.@.@.@.@.@.@.@.@.@.@.@.@.@.  ",
"+.@.@.@.@.@.@.@.@.@.@.@.@.@.@.@.Y L X.@.@.@.) i i i i i { @.@.@.@.@.@.@.@.@.@.@.@.@.@.@.W i i i i i @.@.@.@.Y L X.@.@.@.@.@.@.@.@.@.@.@.@.@.@.@.  ",
"+.@.@.@.@.@.@.@.@.@.@.@.@.@.@.@.Y L X.@.@.@.) i i i i i { @.@.+.@.@.@.@.@.@.@.@.@.@.@.@.W i i i i i @.@.@.@.Y L X.@.@.@.@.@.@.@.@.@.@.@.@.@.@.@.  ",
"L L L L L L L L L L L L L L L L L L L L L L A i i i i i H L L L L L L L L L L L L L L L B i i i i i L L L L L L L L L L L L L L L L L L L L L L   ",
"K L L L L L L L L L L L L L L L L L L L L L A i i i i i F L L L L L L L L L L L L L L L B i i i i i L L L L L L L L L L L L L L L L L L L L L L   ",
"K L X.+.@.@.@.@.@.@.@.@.@.@.@.@.@.+.+.| ~ L A i i i i i H L G V M M j j j j M M N H L L B i i i i i L W [ +.@.@.@.@.@.@.@.@.@.@.@.@.@.@.@.@.@.@.  ",
"K L X.@.@.@.@.@.@.@.@.@.@.@.@.@.O._ I L L L A i i i i i , + . . . . . . . . . . . . . : 6 i i i i i L L L L ! X.@.@.@.@.@.@.@.@.@.@.@.@.@.@.@.@.  ",
"L L X.@.@.@.@.@.@.@.@.@.@.@.O./ I L L L L V s i i i i i + . . . . . . . . . . . . . . . = i i i i i M L L L L L ! X.@.@.@.@.@.@.@.@.@.@.@.@.@.@.  ",
"K L X.@.@.@.@.@.@.@.@.@.@.| Y L L L G g > . * i i i i i + . . . . . . . . . . . . . . . = i i i i i . % r C L L L L / @.@.@.@.@.@.@.@.@.@.@.@.@.  ",
"K L X.@.@.@.@.@.@.@.@.@./ L L L L g + . . . & i i i i i + . . . . . . . . . . . . . . . = i i i i i . . . . r C L L L E X.@.@.@.@.@.@.@.@.@.@.@.  ",
"K L X.@.@.@.@.@.@.@.@./ L L L C : . . . . . & i i i i i + . . . . . . . . . . . . . . . = i i i i i . . . . . % j L L L Y X.@.@.@.@.@.@.@.@.@.@.  ",
"K L X.@.@.@.@.@.@.@./ L L L N O . . . . . . & i i i i i + . . . . . . . . . . . . . . . = i i i i i . . . . . . . u L L L T @.@.@.@.@.@.@.@.@.@.  ",
"K L X.+.@.@.@.@.@.X.L L L C O . . . . . . . & i i i i i + . . . . . . . . . . . . . . . = i i i i i . . . . . . . . g L L L / @.@.@.@.@.@.@.@.@.  ",
"L L X.@.@.@.@.@.@.! L L L : . . . . . . . . & i i i i i + . . . . . . . . . . . . . . . = i i i i i . . . . . . . . O H L L I O.@.@.@.@.@.@.@.@.  ",
"K L X.@.@.@.@.@.+.I L L N . . . . . . . . . & i i i i i + . . . . . . . . . . . . . . . = i i i i i . . . . . . . . . g L L L | @.@.@.@.@.@.@.@.  ",
"K L X.@.@.@.@.@.X.L L L k . . . . . . . . . & i i i i i + . . . . . . . . . . . . . . . = i i i i i . . . . . . . . . r L L L ] @.@.@.@.@.@.@.@.  ",
"K L X.@.@.@.@.@.X.L L L N . . . . . . . . . & i i i i i 5 2 2 2 2 2 2 2 2 2 2 2 2 2 2 2 7 i i i i 9 . . . . . . . . . u L L L ] @.@.@.@.@.@.@.@.  ",
"K L X.+.@.@.@.@.@.I L L L o . . . . . . . . & i i i i i i i i i i i i i i i i i i i i i i i i i i 9 . . . . . . . . . V L L L ..@.@.@.@.@.@.@.@.  ",
"K L X.@.@.@.@.@.@./ L L L k . . . . . . . . & i i i i i = & & & & & & & & & & & & & & & < i i i i 9 . . . . . . . . y L L L Y +.@.@.@.@.@.@.@.@.  ",
"L L X.@.@.@.@.@.@.O.I L L L u . . . . . . . & i i i i i + . . . . . . . . . . . . . . . = i i i i 9 . . . . . . . : G L K K ` +.@.@.@.@.@.@.@.@.  ",
"K L X.@.@.@.@.@.@.@.| K L L K g o . . . . . & i i i i i + . . . . . . . . . . . . . . . = i i i i 9 . . . . . . y L K L L _ +.+.@.@.@.@.@.@.@.@.  ",
"K L L L L L L L L L L L L L L L V e . . . . & i i i i i + . . . . . . . . . . . . . . . = i i i i 9 . . . . % M L L L L L L L L L L L L L L L L   ",
"K L L L L L L L L L L L L L L L L L V r . . @ 0 i i i i + . . . . . . . . . . . . . . . = i i i w 5 . . > h L L L L L L L L L L L L L L L L L L   ",
"+.@.@.@.@.@.@.@.@.@.@.@.@.X.! L K L L L V j > . @ - 5 w + . . . . . . . . . . . . . . . * 7 1 & X % u M L L L K L E ..+.@.@.+.+.@.@.@.@.@.@.@.@.  ",
"+.+.@.@.@.@.@.@.@.@.@.@.@.@.+.X.E L L L L L L G k t > o . . . . . . . . . . . . . . . . o : t j V L L L L L L Y ] +.@.@.@.@.@.+.@.@.@.@.@.@.@.@.  ",
"+.@.@.@.@.@.@.@.@.@.@.@.@.@.@.@.@.X.I L L L L L L L L L G M k f u u r , t e t u g h M V L L L L L L L K L L [ @.+.@.@.@.@.@.@.@.@.@.@.@.@.@.@.@.  ",
"+.@.@.@.@.@.@.@.@.@.@.@.@.@.@.@.@.@.Y L _ ! Y L L L L L L L L L L L L L I I L L L L L L L L K K L L E ` Y L X.@.@.@.@.@.@.@.@.@.@.@.@.@.@.@.@.@.  ",
"+.@.@.@.@.@.@.@.@.@.@.@.@.@.@.@.@.@.Y L X.@.@. ._ Q T L L L L L L L L L L L L L K K L L L Y Q ` | O.@.@.Y L X.@.@.@.@.@.@.@.@.@.@.@.@.@.@.@.@.@.  ",
"+.@.@.@.@.@.@.@.@.@.@.@.@.@.@.@.@.@.Y L X.@.@.@.@.@.+.+. .| ] / / ! ! ! ! ! ! ~ _ ] [ X.O.+.+.+.@.+.@.@.Y L X.@.@.@.@.@.@.@.@.@.@.@.@.@.@.@.@.@.  ",
"+.@.@.@.@.@.@.@.@.@.@.@.@.@.@.@.@.@.Y L X.@.@.@.@.@.@.@.@.@.@.@.@.@.@.@.@.@.@.@.@.@.@.@.@.@.@.@.@.@.@.@.Y L X.@.@.@.@.@.@.@.@.@.@.@.@.@.@.@.@.@.  ",
"+.@.@.@.@.@.@.@.@.@.@.@.@.@.@.@.@.@.Y L X.@.@.@.@.@.@.@.@.@.@.@.@.@.@.@.@.@.@.@.@.@.@.@.@.@.@.@.@.@.@.@.Y L X.@.@.@.@.@.@.@.@.@.@.@.@.@.@.@.@.@.  ",
"+.@.@.@.@.@.@.@.@.@.@.@.@.@.@.@.@.@.Y L X.@.@.@.@.@.@.@.@.@.@.@.@.@.@.@.@.@.@.@.@.@.@.@.@.@.@.@.@.@.@.@.Y L X.@.@.@.@.@.@.@.@.@.@.@.@.@.@.@.@.@.  ",
"+.@.@.@.@.@.@.@.@.@.@.@.@.@.@.@.@.@.Y L X.@.@.@.@.@.@.@.@.@.@.@.@.@.@.@.@.@.@.@.@.@.@.@.@.@.@.@.@.@.@.@.Y L X.@.@.@.@.@.@.@.@.@.@.@.@.@.@.@.@.@.  ",
"+.@.@.@.@.@.@.@.@.@.@.@.@.@.@.@.@.@.Y L X.@.@.@.@.@.@.@.@.@.@.@.@.@.@.@.@.@.@.@.@.@.@.@.@.@.@.@.@.@.@.@.Y L X.@.@.@.@.@.@.@.@.@.@.@.@.@.@.@.@.@.  ",
"+.@.@.@.@.@.@.@.@.@.@.@.@.@.@.@.@.@.Y L X.@.@.@.@.@.@.@.@.@.@.@.@.@.@.@.@.@.@.@.@.@.@.@.@.@.@.@.@.@.@.@.Y L X.@.@.@.@.@.@.@.@.@.@.@.@.@.@.@.@.@.  ",
"+.@.@.@.@.@.@.@.@.@.@.@.@.@.@.@.@.@.Y L X.@.@.@.@.@.@.@.@.@.@.@.@.@.@.@.@.@.@.@.@.@.@.@.@.@.@.@.@.@.@.@.Y L X.@.@.@.@.@.@.@.@.@.@.@.@.@.@.@.@.@.  ",
"+.@.@.@.@.@.@.@.@.@.@.@.@.@.@.@.@.@.Y L X.@.@.@.@.@.@.@.@.@.@.@.@.@.@.@.@.@.@.@.@.@.@.@.@.@.@.@.@.@.@.@.Y L X.@.@.@.@.@.@.@.@.@.@.@.@.@.@.@.@.@.  ",
"+.@.@.@.@.@.@.@.@.@.@.@.@.@.@.@.@.@.Y L X.@.@.@.@.@.@.@.@.@.@.@.@.@.@.@.@.@.@.@.@.@.@.@.@.@.@.@.@.@.@.@.Y L X.@.@.@.@.@.@.@.@.@.@.@.@.@.@.@.@.@.  ",
"+.@.@.@.@.@.@.@.@.@.@.@.@.@.@.+.@.@.Y L X.@.@.@.@.@.@.@.@.@.@.@.@.@.@.@.@.@.@.@.@.@.@.@.@.@.@.@.@.@.@.@.Y L X.@.@.@.@.@.@.@.@.@.@.@.@.@.@.@.@.@.  ",
"L L L L L L L L L L L L L L L L L L L L L L L L L L L L L L L L L L L L L L L L L L L L L L L L L L L L L L L L L L L L L L L L L L L L L L L L   ",
"K L L L L L L L L L L L L L L L L L L L L L L L L L L L L L L L L L L L L L L L L L L L L L L L L L L L L L L L L L L L L L L L L L L L L L L L   "
};
