/* XPM */
static char *result[] = {
/* columns rows colors chars-per-pixel */
"72 72 2 1 ",
"  c #ACACAC",
". c gray95",
/* pixels */
"..................................  ..................................  ",
"..................................  ..................................  ",
"..................................  ..................................  ",
"..................................  ..................................  ",
"..................................  ..................................  ",
"..................................  ..................................  ",
"..................................  ..................................  ",
"..................................  ..................................  ",
"..................................  ..................................  ",
"..................................  ..................................  ",
"..................................  ..................................  ",
"..................................  ..................................  ",
"..................................  ..................................  ",
"..................................  ..................................  ",
"..................................  ..................................  ",
"..................................  ..................................  ",
"                                                                        ",
"                                                                        ",
"................  ....................................  ................",
"................  ....................................  ................",
"................  ....................................  ................",
"................  ....................................  ................",
"................  ....................................  ................",
"................  ....................................  ................",
"................  ....................................  ................",
"................  ....................................  ................",
"................  ....................................  ................",
"................  ....................................  ................",
"................  ....................................  ................",
"................  ....................................  ................",
"................  ....................................  ................",
"................  ....................................  ................",
"................  ....................................  ................",
"................  ....................................  ................",
"                                                                        ",
"                                                                        ",
"....................................  ..................................",
"....................................  ..................................",
"....................................  ..................................",
"....................................  ..................................",
"....................................  ..................................",
"....................................  ..................................",
"....................................  ..................................",
"....................................  ..................................",
"....................................  ..................................",
"....................................  ..................................",
"....................................  ..................................",
"....................................  ..................................",
"....................................  ..................................",
"....................................  ..................................",
"....................................  ..................................",
"....................................  ..................................",
"                                                                        ",
"                                                                        ",
"..................  ................................  ..................",
"..................  ................................  ..................",
"..................  ................................  ..................",
"..................  ................................  ..................",
"..................  ................................  ..................",
"..................  ................................  ..................",
"..................  ................................  ..................",
"..................  ................................  ..................",
"..................  ................................  ..................",
"..................  ................................  ..................",
"..................  ................................  ..................",
"..................  ................................  ..................",
"..................  ................................  ..................",
"..................  ................................  ..................",
"..................  ................................  ..................",
"..................  ................................  ..................",
"                                                                        ",
"                                                                        "
};
