/* XPM */
static char *floor1705954688[] = {
/* columns rows colors chars-per-pixel */
"36 36 2 1 ",
"  c #ACACAC",
". c gray95",
/* pixels */
"................. ................. ",
"................. ................. ",
"................. ................. ",
"................. ................. ",
"................. ................. ",
"................. ................. ",
"................. ................. ",
"................. ................. ",
"                                    ",
"........ .................. ........",
"........ .................. ........",
"........ .................. ........",
"........ .................. ........",
"........ .................. ........",
"........ .................. ........",
"........ .................. ........",
"........ .................. ........",
"                                    ",
".................. .................",
".................. .................",
".................. .................",
".................. .................",
".................. .................",
".................. .................",
".................. .................",
".................. .................",
"                                    ",
"......... ................ .........",
"......... ................ .........",
"......... ................ .........",
"......... ................ .........",
"......... ................ .........",
"......... ................ .........",
"......... ................ .........",
"......... ................ .........",
"                                    "
};
