/* XPM */
static char *charactre_left1706048920[] = {
/* columns rows colors chars-per-pixel */
"73 72 152 2 ",
"   c None",
".  c #040406",
"X  c #0F0B0C",
"o  c #120B0A",
"O  c #1A100F",
"+  c #130F11",
"@  c #031A1E",
"#  c #121015",
"$  c #1A1212",
"%  c #151219",
"&  c #19191B",
"*  c #211C1C",
"=  c #311F1D",
"-  c #131725",
";  c #181925",
":  c #131829",
">  c #191D2C",
",  c #181E31",
"<  c #1C2133",
"1  c #1E253E",
"2  c #312C2D",
"3  c #2A2E3D",
"4  c #3A3433",
"5  c #482E2A",
"6  c #423E3E",
"7  c #1F2740",
"8  c #212A45",
"9  c #232D4B",
"0  c #2C3245",
"q  c #2C344B",
"w  c #303647",
"e  c #3F3D40",
"r  c #30374D",
"t  c #353A4B",
"y  c #3C3F4B",
"u  c #263051",
"i  c #283356",
"p  c #2A365B",
"a  c #2D3A63",
"s  c #313F6C",
"d  c #3F424C",
"f  c #394056",
"g  c #3F465B",
"h  c #3B4566",
"j  c #3D4A74",
"k  c #4B4545",
"l  c #444549",
"z  c #504C4E",
"x  c #4E4E52",
"c  c #525256",
"v  c #595555",
"b  c #56565A",
"n  c #5B5B5E",
"m  c #744840",
"M  c #755149",
"N  c #765C58",
"B  c #7B5951",
"V  c #494F62",
"C  c #4E5467",
"Z  c #5D5E63",
"A  c #555A6A",
"S  c #445079",
"D  c #49557C",
"F  c #555E7D",
"G  c #5F626D",
"H  c #626266",
"J  c #666669",
"K  c #686568",
"L  c #6A696C",
"P  c #726F6F",
"I  c #616676",
"U  c #666975",
"Y  c #6D6D71",
"T  c #656A7A",
"R  c #737274",
"E  c #75757B",
"W  c #7A7A7D",
"Q  c #8A645D",
"!  c #9E695F",
"~  c #A26457",
"^  c #A3675A",
"/  c #AE6D5F",
"(  c #95746C",
")  c #8C7876",
"_  c #827E7E",
"`  c #A57065",
"'  c #AF7164",
"]  c #B97364",
"[  c #AC7F75",
"{  c #BC7E71",
"}  c #BE8073",
"|  c #C08679",
" . c #C28A7E",
".. c #545F82",
"X. c #616C8E",
"o. c #6E7383",
"O. c #727685",
"+. c #767A87",
"@. c #7D7D82",
"#. c #767A88",
"$. c #7B7F8E",
"%. c #717994",
"&. c #7A8688",
"*. c #838285",
"=. c #8A8384",
"-. c #83838A",
";. c #8B8B8E",
":. c #878991",
">. c #8E8E93",
",. c #898D99",
"<. c #8E919B",
"1. c #939396",
"2. c #95959A",
"3. c #9A9A9B",
"4. c #B99F99",
"5. c #B3A19D",
"6. c #858DA7",
"7. c #8F95AA",
"8. c #9C9CA2",
"9. c #9297AB",
"0. c #989CA9",
"q. c #9699A3",
"w. c #A2A2A4",
"e. c #A6A6AA",
"r. c #ACACAC",
"t. c #AAA2A2",
"y. c #ADADB1",
"u. c #A9AEBF",
"i. c #A5A8B4",
"p. c #B5B5B5",
"a. c #B5B5B9",
"s. c #BAB9BA",
"d. c #C48C80",
"f. c #C69287",
"g. c #CAABA4",
"h. c #C3B3AF",
"j. c #C2BDBC",
"k. c #DCC2BC",
"l. c #AAAFC0",
"z. c #BCBDC1",
"x. c #C2C2C4",
"c. c #C8C7C7",
"v. c #C6C6C8",
"b. c #CACACB",
"n. c #CDCDD0",
"m. c #D2D2D4",
"M. c #DADADC",
"N. c #DEDEE1",
"B. c #E4E4E5",
"V. c #E9E9E9",
"C. c #EBE2E0",
"Z. c #F2F2F2",
/* pixels */
"Z.Z.Z.Z.Z.Z.Z.Z.Z.Z.Z.Z.Z.Z.Z.Z.Z.Z.Z.Z.Z.Z.Z.Z.Z.Z.Z.Z.Z.Z.Z.Z.Z.Z.p.r.V.Z.Z.Z.Z.Z.Z.Z.Z.Z.Z.Z.Z.Z.Z.Z.Z.Z.Z.Z.Z.Z.Z.Z.Z.Z.Z.Z.Z.Z.Z.Z.Z.Z.p.r.  ",
"Z.Z.Z.Z.Z.Z.Z.Z.Z.Z.Z.Z.Z.Z.Z.Z.Z.Z.Z.Z.Z.Z.Z.Z.Z.Z.Z.Z.Z.Z.Z.Z.Z.Z.p.r.V.Z.Z.Z.Z.Z.Z.Z.Z.Z.Z.Z.Z.Z.Z.Z.Z.Z.Z.Z.Z.Z.Z.Z.Z.Z.Z.Z.Z.Z.Z.Z.Z.Z.p.r.  ",
"Z.Z.Z.Z.Z.Z.Z.Z.Z.Z.Z.Z.Z.Z.Z.Z.Z.Z.Z.Z.Z.Z.Z.Z.Z.Z.Z.Z.Z.Z.Z.Z.Z.Z.p.r.V.Z.Z.Z.Z.Z.Z.Z.Z.Z.Z.Z.Z.Z.Z.Z.Z.Z.Z.Z.Z.Z.Z.Z.Z.Z.Z.Z.Z.Z.Z.Z.Z.Z.p.r.  ",
"Z.Z.Z.Z.Z.Z.Z.Z.Z.Z.Z.Z.Z.Z.Z.Z.Z.Z.Z.Z.Z.Z.Z.Z.Z.Z.Z.Z.Z.Z.Z.Z.Z.Z.p.r.V.Z.Z.Z.Z.Z.Z.Z.Z.Z.Z.Z.Z.Z.Z.Z.Z.Z.Z.Z.Z.Z.Z.Z.Z.Z.Z.Z.Z.Z.Z.Z.Z.Z.p.r.  ",
"V.Z.Z.Z.Z.Z.Z.Z.Z.Z.Z.Z.Z.Z.Z.Z.Z.Z.Z.Z.Z.Z.Z.Z.Z.Z.Z.Z.Z.Z.Z.Z.Z.Z.p.r.V.Z.Z.Z.Z.Z.Z.Z.Z.Z.Z.Z.Z.Z.Z.Z.Z.Z.Z.Z.Z.Z.Z.Z.Z.Z.Z.Z.Z.Z.Z.Z.Z.Z.p.r.  ",
"Z.Z.Z.Z.Z.Z.Z.Z.Z.Z.Z.Z.Z.Z.Z.Z.Z.Z.Z.Z.Z.Z.Z.Z.Z.Z.Z.Z.Z.Z.Z.Z.Z.Z.p.r.V.Z.Z.Z.Z.Z.Z.Z.Z.Z.Z.Z.Z.Z.Z.Z.Z.Z.Z.Z.Z.Z.Z.Z.Z.Z.Z.Z.Z.Z.Z.Z.Z.Z.p.r.  ",
"Z.Z.Z.Z.Z.Z.Z.Z.Z.Z.Z.Z.Z.Z.Z.Z.Z.Z.Z.Z.Z.Z.Z.Z.Z.Z.Z.Z.Z.Z.Z.Z.Z.Z.p.r.V.Z.Z.Z.Z.Z.Z.Z.Z.Z.Z.Z.Z.Z.Z.Z.Z.Z.Z.Z.Z.Z.Z.Z.Z.Z.Z.Z.Z.Z.Z.Z.Z.Z.p.r.  ",
"Z.Z.Z.Z.Z.Z.Z.Z.Z.Z.Z.Z.Z.Z.Z.Z.Z.Z.Z.Z.Z.Z.Z.Z.Z.Z.Z.Z.Z.Z.Z.Z.Z.Z.p.r.V.Z.Z.Z.Z.Z.Z.Z.Z.Z.Z.Z.Z.Z.Z.Z.Z.Z.Z.Z.Z.Z.Z.Z.Z.Z.Z.Z.Z.Z.Z.Z.Z.Z.p.r.  ",
"Z.Z.Z.Z.Z.Z.Z.Z.Z.Z.Z.Z.Z.Z.Z.Z.Z.Z.Z.Z.Z.Z.Z.Z.Z.Z.Z.k.3.3.3.1.3.3.P w.V.Z.Z.Z.Z.Z.Z.Z.Z.Z.Z.Z.Z.Z.Z.Z.Z.Z.Z.Z.Z.Z.Z.Z.Z.Z.Z.Z.Z.Z.Z.Z.Z.Z.p.r.  ",
"Z.Z.Z.Z.Z.Z.Z.Z.Z.Z.Z.Z.Z.Z.Z.Z.Z.Z.Z.Z.Z.Z.Z.Z.Z.Z.Z.W . . . . . . . 1.V.Z.Z.Z.Z.Z.Z.Z.Z.Z.Z.Z.Z.Z.Z.Z.Z.Z.Z.Z.Z.Z.Z.Z.Z.Z.Z.Z.Z.Z.Z.Z.Z.Z.p.r.  ",
"Z.Z.Z.Z.Z.Z.Z.Z.Z.Z.Z.Z.Z.Z.Z.Z.Z.Z.Z.Z.Z.Z.Z.Z.Z.Z.Z.g.! ~ ~ ~ $ . . & P Z.Z.Z.Z.Z.Z.Z.Z.Z.Z.Z.Z.Z.Z.Z.Z.Z.Z.Z.Z.Z.Z.Z.Z.Z.Z.Z.Z.Z.Z.Z.Z.Z.p.r.  ",
"Z.Z.Z.Z.Z.Z.Z.Z.Z.Z.Z.Z.Z.Z.Z.Z.Z.Z.Z.Z.Z.Z.Z.Z.Z.Z.Z.5.M / ! M 5 = . . n Z.Z.Z.Z.Z.Z.Z.Z.Z.Z.Z.Z.Z.Z.Z.Z.Z.Z.Z.Z.Z.Z.Z.Z.Z.Z.Z.Z.Z.Z.Z.Z.Z.p.r.  ",
"Z.Z.Z.Z.Z.Z.Z.Z.Z.Z.Z.Z.Z.Z.Z.Z.Z.Z.Z.Z.Z.Z.Z.Z.Z.Z.Z.&.@ ! M @ ^ m . . n Z.Z.Z.Z.Z.Z.Z.Z.Z.Z.Z.Z.Z.Z.Z.Z.Z.Z.Z.Z.Z.Z.Z.Z.Z.Z.Z.Z.Z.Z.Z.Z.Z.p.r.  ",
"Z.Z.Z.Z.Z.Z.Z.Z.Z.Z.Z.Z.Z.Z.Z.Z.Z.Z.Z.Z.Z.Z.Z.Z.Z.Z.Z.p.} } } ) } B . . n Z.Z.Z.Z.Z.Z.Z.Z.Z.Z.Z.Z.Z.Z.Z.Z.Z.Z.Z.Z.Z.Z.Z.Z.Z.Z.Z.Z.Z.Z.Z.Z.Z.p.r.  ",
"Z.Z.Z.Z.Z.Z.Z.Z.Z.Z.Z.Z.Z.Z.Z.Z.Z.Z.Z.Z.Z.Z.Z.Z.Z.Z.Z.k.f.f.f.f.f.Q 2 o Z Z.Z.Z.Z.Z.Z.Z.Z.Z.Z.Z.Z.Z.Z.Z.Z.Z.Z.Z.Z.Z.Z.Z.Z.Z.Z.Z.Z.Z.Z.Z.Z.Z.s.r.  ",
"Z.Z.Z.Z.Z.Z.Z.Z.Z.Z.Z.Z.Z.Z.Z.Z.Z.Z.Z.Z.Z.Z.Z.Z.Z.Z.Z.k.f.f.f.f.f.} ] $ Z Z.Z.Z.Z.Z.Z.Z.Z.Z.Z.Z.Z.Z.Z.Z.Z.Z.Z.Z.Z.Z.Z.Z.Z.Z.Z.Z.Z.Z.Z.Z.Z.Z.s.y.  ",
"e.r.r.r.r.r.r.r.r.r.r.r.r.r.r.r.r.r.r.r.r.r.r.r.r.r.r.5.f.f.f.f.f.| ] O l r.r.r.r.r.r.r.r.r.r.r.r.r.r.r.r.r.r.r.r.r.r.r.r.r.r.r.r.r.r.r.r.r.r.r.  ",
"r.r.r.e.r.r.r.r.r.r.r.r.r.r.r.r.r.r.r.r.r.r.r.r.y.y.r.5.f.f.f.f. .{ ] 4 H r.r.r.r.r.r.r.r.r.r.r.r.r.r.r.r.r.r.r.r.r.r.r.r.r.r.r.r.y.r.r.r.r.r.r.  ",
"Z.Z.Z.Z.Z.Z.Z.Z.Z.Z.Z.Z.Z.Z.Z.Z.p.r.V.Z.Z.Z.Z.Z.Z.Z.Z.x.f.1.} f.] ] ] C.Z.Z.Z.Z.Z.Z.Z.Z.Z.Z.Z.Z.Z.Z.Z.Z.Z.Z.p.r.V.Z.Z.Z.Z.Z.Z.Z.Z.Z.Z.Z.Z.Z.Z.Z.  ",
"Z.Z.Z.Z.Z.Z.Z.Z.Z.Z.Z.Z.Z.Z.Z.Z.p.r.V.Z.Z.Z.Z.Z.Z.Z.&.} } } } } ] ! N =.$.E y.a.p.p.n.Z.Z.Z.Z.Z.Z.Z.Z.Z.Z.Z.p.r.V.Z.Z.Z.Z.Z.Z.Z.Z.Z.Z.Z.Z.Z.Z.Z.  ",
"Z.Z.Z.Z.Z.Z.Z.Z.Z.Z.Z.Z.Z.Z.Z.Z.p.r.V.Z.Z.Z.Z.Z.Z.Z.x n J ` ! } ' Q x x y 1 -.>.>.>.y.B.Z.Z.Z.Z.Z.Z.Z.Z.Z.Z.p.r.V.Z.Z.Z.Z.Z.Z.Z.Z.Z.Z.Z.Z.Z.Z.Z.  ",
"Z.Z.Z.Z.Z.Z.Z.Z.Z.Z.Z.Z.Z.Z.Z.Z.p.r.V.Z.Z.Z.Z.Z.Z.Z.x x x H J L L Z x x d 1 &.>.>.>.>.>.M.Z.Z.Z.Z.Z.Z.Z.Z.Z.p.r.V.Z.Z.Z.Z.Z.Z.Z.Z.Z.Z.Z.Z.Z.Z.Z.  ",
"Z.Z.Z.Z.Z.Z.Z.Z.Z.Z.Z.Z.Z.Z.Z.Z.p.r.V.Z.Z.Z.Z.Z.b.3.x x x b b b n b x x y 1 &.>.>.>.>.>.e.c.Z.Z.Z.Z.Z.Z.Z.Z.s.r.V.Z.Z.Z.Z.Z.Z.Z.Z.Z.Z.Z.Z.Z.Z.Z.  ",
"Z.Z.Z.Z.Z.Z.Z.Z.Z.Z.Z.Z.Z.Z.Z.Z.p.r.V.Z.Z.Z.Z.Z.r.L x x x x x x x x x x d 8 &.>.>.>.>.>.;.r.Z.Z.Z.Z.Z.Z.Z.Z.p.r.V.Z.Z.Z.Z.Z.Z.Z.Z.Z.Z.Z.Z.Z.Z.Z.  ",
"Z.Z.Z.Z.Z.Z.Z.Z.Z.Z.Z.Z.Z.Z.Z.Z.p.r.V.Z.Z.Z.Z.V.9.x J n x x x x x x x x y 7 $.>.<.>.>.>.G R Z.Z.Z.Z.Z.Z.Z.Z.p.r.V.Z.Z.Z.Z.Z.Z.Z.Z.Z.Z.Z.Z.Z.Z.Z.  ",
"Z.Z.Z.Z.Z.Z.Z.Z.Z.Z.Z.Z.Z.Z.Z.Z.p.r.V.Z.Z.Z.Z.} b 3 n c x d d x x l t t 0 3 C Z Y Y Y Y v G w.M.Z.Z.Z.Z.Z.Z.p.r.V.Z.Z.Z.Z.Z.Z.Z.Z.Z.Z.Z.Z.Z.Z.Z.  ",
"Z.Z.Z.Z.Z.Z.Z.Z.Z.Z.Z.Z.Z.Z.Z.Z.p.r.V.Z.Z.Z.Z.o o o x x g 3 d g x y 8 7 8 1 8 w x x x x x x x b.Z.Z.Z.Z.Z.Z.p.r.V.Z.Z.Z.Z.Z.Z.Z.Z.Z.Z.Z.Z.Z.Z.Z.  ",
"Z.Z.Z.Z.Z.Z.Z.Z.Z.Z.Z.Z.Z.Z.Z.Z.p.r.V.Z.Z.Z.Z.o o o X &.Z.S s s s s s s s s s p 8 l x x x x x b.Z.Z.Z.Z.Z.Z.p.r.V.Z.Z.Z.Z.Z.Z.Z.Z.Z.Z.Z.Z.Z.Z.Z.  ",
"Z.Z.Z.Z.Z.Z.Z.Z.Z.Z.Z.Z.Z.Z.Z.Z.p.r.V.Z.Z.Z.Z.z 2 o } u.V.D s s s s s s s s s a i r d x x x x P 3.Z.Z.Z.Z.Z.p.r.V.Z.Z.Z.Z.Z.Z.Z.Z.Z.Z.Z.Z.Z.Z.Z.  ",
"Z.Z.Z.Z.Z.Z.Z.Z.Z.Z.Z.Z.Z.Z.Z.Z.p.r.V.Z.Z.Z.Z.>.z o Z.Z.Z.D s s s s s s s s s s h 8 q x x x x * k Z.Z.Z.Z.Z.p.r.V.Z.Z.Z.Z.Z.Z.Z.Z.Z.Z.Z.Z.Z.Z.Z.  ",
"V.Z.Z.Z.Z.Z.Z.Z.Z.Z.Z.Z.Z.Z.Z.Z.p.r.V.Z.Z.c.3.>.r.m.Z.Z.Z.M.9.8 8 8 8 8 8 8 8 8 8 7 U M.P 6 $ O k Z.Z.Z.Z.Z.p.r.V.Z.Z.Z.Z.Z.Z.Z.Z.Z.Z.Z.Z.Z.Z.Z.  ",
"Z.Z.Z.Z.Z.Z.Z.Z.Z.Z.Z.Z.Z.Z.Z.Z.p.r.V.Z.m.r.1.>.x.Z.Z.Z.Z.Z.i.i u u u u u u u u u 8 E Z.r.J o o 2 t.V.Z.Z.Z.p.r.V.Z.Z.Z.Z.Z.Z.Z.Z.Z.Z.Z.Z.Z.Z.Z.  ",
"Z.Z.Z.Z.Z.Z.Z.Z.Z.Z.Z.Z.Z.Z.Z.Z.p.r.V.Z.>.>.>.>.x.Z.Z.Z.Z.Z.l.s s s s s s s s s s 8 o.Z.Z.s.o o O = j.Z.Z.Z.a.r.V.Z.Z.Z.Z.Z.Z.Z.Z.Z.Z.Z.Z.Z.Z.Z.  ",
"Z.Z.Z.Z.Z.Z.Z.Z.Z.Z.Z.Z.Z.Z.Z.Z.p.r.V.Z.>.>.>.V.V.Z.Z.Z.Z.X.j s s s s s s s s s s 8 q t n.s.o o o O s.Z.Z.Z.a.r.V.Z.Z.Z.Z.Z.Z.Z.Z.Z.Z.Z.Z.Z.Z.Z.  ",
"r.r.r.r.r.r.r.r.r.r.r.r.r.r.r.r.r.r.e.w.*.-.>.r.r.r.r.r.e.h p p p p p p p p p p p 8 7 7 :.2.k $ * 6 *.w.r.r.3.P Y &.r.r.r.r.r.r.r.r.r.r.r.r.r.r.  ",
"r.r.r.r.r.r.r.r.r.r.r.r.r.r.r.r.r.r.3.>.L @.>.e.r.r.r.r.e.r 1 1 7 7 7 7 7 7 7 7 7 7 7 7 :.y.r.4 2 >.>.2.i.0.} o X 4 r.r.r.r.r.r.r.r.r.y.r.r.r.r.  ",
"r.r.V.Z.Z.Z.Z.Z.Z.Z.Z.Z.Z.Z.Z.Z.Z.Z.x.>.m.w.R Z.Z.Z.Z.l.X.a a a a p a p a a a a a a p a ..6.Z.v.t.R -.e.Z.R 4 o o k Z.Z.Z.Z.Z.Z.Z.Z.Z.Z.Z.Z.Z.Z.  ",
"r.r.V.Z.Z.Z.Z.Z.Z.Z.Z.Z.Z.Z.Z.Z.Z.Z.b.e.Z.z.;.Z.Z.Z.Z.9.a s s s a a a s s s s s s s s s a F b.b.p.L -.w.M.6 o o 4 P Z.Z.Z.Z.Z.Z.Z.Z.Z.Z.Z.Z.Z.Z.  ",
"e.r.V.Z.Z.Z.Z.Z.Z.Z.Z.Z.Z.Z.Z.Z.Z.Z.Z.Z.Z.Z.Z.Z.Z.Z.Z.,.7 a s s 8 7 7 s s s s s s s s s 9 0 z x c J -.>.>.2 o o s.Z.Z.Z.Z.Z.Z.Z.Z.Z.Z.Z.Z.Z.Z.Z.  ",
"r.r.V.Z.Z.Z.Z.Z.Z.Z.Z.Z.Z.Z.Z.Z.Z.Z.Z.Z.Z.Z.Z.Z.Z.Z.A f 3 s a 9 % % % 8 9 9 a s s s a 9 8 V b.Y c b *.>.>.y.s.s.B.Z.Z.Z.Z.Z.Z.Z.Z.Z.Z.Z.Z.Z.Z.Z.  ",
"r.r.V.Z.Z.Z.Z.Z.Z.Z.Z.Z.Z.Z.Z.Z.Z.Z.Z.Z.Z.Z.Z.Z.Z.Z.7 7 7 s 9 , + o o , 1 7 a s s s p 7 l %.V.E x x R &.>.c.N.Z.Z.Z.Z.Z.Z.Z.Z.Z.Z.Z.Z.Z.Z.Z.Z.Z.  ",
"r.r.V.Z.Z.Z.Z.Z.Z.Z.Z.Z.Z.Z.Z.Z.Z.Z.Z.Z.Z.Z.Z.Z.Z.Z.7 i j 7 > X o o o - , 7 s s s s p 7 e.n.n.U x x x Z >.>.e.Z.Z.Z.Z.Z.Z.Z.Z.Z.Z.Z.Z.Z.Z.Z.Z.Z.  ",
"r.r.V.Z.Z.Z.Z.Z.Z.Z.Z.Z.Z.Z.Z.Z.Z.Z.Z.Z.Z.Z.Z.Z.a.o.1 i s 7 , X o o o - , 7 a s s s ..,.q.e.e.K x x x b W &.e.Z.Z.Z.Z.Z.Z.Z.Z.Z.Z.Z.Z.Z.Z.Z.Z.Z.  ",
"r.r.V.Z.Z.Z.Z.Z.Z.Z.Z.Z.Z.Z.Z.Z.Z.Z.Z.Z.Z.Z.Z.Z.,.7 7 i s 7 , X o o + - : 3 a s s S %.v.8.>.>.K v x x b H ;.e.Z.Z.Z.Z.Z.Z.Z.Z.Z.Z.Z.Z.Z.Z.Z.Z.Z.  ",
"e.r.V.Z.Z.Z.Z.Z.Z.Z.Z.Z.Z.Z.Z.Z.Z.Z.Z.Z.Z.Z.Z.Z.,.7 7 i s 8 > o o + : : , 7 8 u s z.a.>.>.>.>.>.&.x x x x &.e.Z.Z.Z.Z.Z.Z.Z.Z.Z.Z.Z.Z.Z.Z.Z.Z.Z.  ",
"r.r.V.Z.Z.Z.Z.Z.Z.Z.Z.Z.Z.Z.Z.Z.Z.Z.Z.Z.Z.Z.Z.Z.,.7 7 9 u ; # o o # : : : , 8 C 9.0.8.>.>.>.>.y.y.8.Z x x A ;.Z.Z.Z.Z.Z.Z.Z.Z.Z.Z.Z.Z.Z.Z.Z.Z.Z.  ",
"r.r.V.Z.Z.Z.Z.Z.Z.Z.Z.Z.Z.Z.Z.Z.Z.Z.Z.Z.Z.Z.Z.M.$.7 7 7 7 + o o + # : : , 3 t T v.2.>.>.2.2.2.v.n.n.} A A G } Z.Z.Z.Z.Z.Z.Z.Z.Z.Z.Z.Z.Z.Z.Z.Z.Z.  ",
"r.r.V.Z.Z.Z.Z.Z.Z.Z.Z.Z.Z.Z.Z.Z.Z.Z.Z.Z.Z.Z.Z.7 7 7 7 7 7 + o o - : : : A m.n.a.>.>.>.>.z.n.n.V.Z.Z.Z.Z.Z.Z.V.Z.Z.Z.Z.Z.Z.Z.Z.Z.Z.Z.Z.Z.Z.Z.Z.Z.  ",
"r.r.V.Z.Z.Z.Z.Z.Z.Z.Z.Z.Z.Z.Z.Z.Z.Z.Z.Z.Z.Z.Z.7 7 7 7 < ; o o o - : : U <.n.p.w.>.i.y.i.c.s.P n.Z.Z.Z.Z.Z.Z.Z.Z.Z.Z.Z.Z.Z.Z.Z.Z.Z.Z.Z.Z.Z.Z.Z.Z.  ",
"r.r.V.Z.Z.Z.Z.Z.Z.Z.Z.Z.Z.Z.Z.Z.Z.Z.Z.Z.Z.Z.Z.7 7 7 7 ; o o o o - : : a.n.n.2.>.>.v.n.b.b.3.o s.Z.Z.Z.Z.Z.Z.Z.Z.Z.Z.Z.Z.Z.Z.Z.Z.Z.Z.Z.Z.Z.Z.Z.Z.  ",
"r.r.V.Z.Z.Z.Z.Z.Z.Z.Z.Z.Z.Z.Z.Z.Z.Z.Z.Z.Z.Z.Z.7 7 7 o o o o o o - A n.2.>.>.>.e.n.n.&.. o o o s.Z.Z.Z.Z.Z.Z.Z.Z.Z.Z.Z.Z.Z.Z.Z.Z.Z.Z.Z.Z.Z.Z.Z.Z.  ",
"r.r.V.Z.Z.Z.Z.Z.Z.Z.Z.Z.Z.Z.Z.Z.Z.Z.Z.Z.Z.Z.Z.7 7 7 2 * o o 4 L E ;.y.2.3.y.y.q.O.&.&.} n z z b.Z.Z.Z.Z.Z.Z.Z.Z.Z.Z.Z.Z.Z.Z.Z.Z.Z.Z.Z.Z.Z.Z.Z.Z.  ",
"r.r.r.r.r.r.r.r.r.r.r.r.r.r.r.r.r.r.r.r.r.r.r.7 7 7 c 2 X o v b.n.a.>.>.e.n.n.<.1 7 A r.1.;.1.w.i.r.r.r.r.r.r.r.r.r.r.r.r.r.r.r.r.r.r.r.r.r.r.r.  ",
"r.r.r.r.r.r.r.r.r.r.r.r.r.r.r.r.r.r.r.r.r.r.r.7 U r.>.Y c s.n.n.n.b.n.n.x.y.q 1 7 7 A r.J Z ;.1.q.r.r.r.r.r.r.r.r.r.r.r.r.r.r.r.r.r.r.r.r.r.r.y.  ",
"V.Z.Z.Z.Z.Z.Z.Z.Z.Z.Z.Z.Z.Z.Z.Z.Z.Z.p.r.V.Z.Z.7 #.b.e.1.@.v.n.n.n.a.:.:.y.Z.f 7 7 I ,.p.Y Z >.;.e.Z.Z.Z.p.r.V.Z.Z.Z.Z.Z.Z.Z.Z.Z.Z.Z.Z.Z.Z.Z.Z.Z.  ",
"Z.Z.Z.Z.Z.Z.Z.Z.Z.Z.Z.Z.Z.Z.Z.Z.Z.Z.p.r.V.Z.Z.7 A >.n.n.n.n.n.n.n.:.: : I Z.f 7 7 M.p.x z G >.1.e.Z.Z.Z.p.r.V.Z.Z.Z.Z.Z.Z.Z.Z.Z.Z.Z.Z.Z.Z.Z.Z.Z.  ",
"Z.Z.Z.Z.Z.Z.Z.Z.Z.Z.Z.Z.Z.Z.Z.Z.Z.Z.p.r.V.Z.Z.7 o.v.n.n.n.n.N.V.Z.q.: s.B.Z.f I M.Z.V.M.Y x b b &.Z.Z.Z.p.r.V.Z.Z.Z.Z.Z.Z.Z.Z.Z.Z.Z.Z.Z.Z.Z.Z.Z.  ",
"Z.Z.Z.Z.Z.Z.Z.Z.Z.Z.Z.Z.Z.Z.Z.Z.Z.Z.p.r.V.V.B.I q.n.n.m.M.N.B.Z.Z.z.U B.Z.Z.&.i.Z.Z.Z.Z.r.&.J L &.Z.Z.Z.p.r.V.Z.Z.Z.Z.Z.Z.Z.Z.Z.Z.Z.Z.Z.Z.Z.Z.Z.  ",
"Z.Z.Z.Z.Z.Z.Z.Z.Z.Z.Z.Z.Z.Z.Z.Z.Z.Z.p.r.V.N.n.n.n.n.n.N.Z.Z.Z.Z.Z.Z.Z.Z.Z.Z.Z.Z.Z.Z.Z.Z.Z.M.;.;.e.Z.Z.Z.p.r.V.Z.Z.Z.Z.Z.Z.Z.Z.Z.Z.Z.Z.Z.Z.Z.Z.Z.  ",
"Z.Z.Z.Z.Z.Z.Z.Z.Z.Z.Z.Z.Z.Z.Z.Z.Z.Z.p.r.m.m.n.n.2.Z Z e.Z.Z.Z.Z.Z.Z.Z.Z.Z.Z.Z.Z.Z.Z.Z.Z.Z.c.v L P W M.Z.p.r.V.Z.Z.Z.Z.Z.Z.Z.Z.Z.Z.Z.Z.Z.Z.Z.Z.Z.  ",
"Z.Z.Z.Z.Z.Z.Z.Z.Z.Z.Z.Z.Z.Z.Z.Z.Z.Z.s.p.b.z.y.r.@.x x 8.Z.Z.Z.Z.Z.Z.Z.Z.Z.Z.Z.Z.Z.Z.Z.Z.Z.b.x n G G b.Z.p.r.V.Z.Z.Z.Z.Z.Z.Z.Z.Z.Z.Z.Z.Z.Z.Z.Z.Z.  ",
"Z.Z.Z.Z.Z.Z.Z.Z.Z.Z.Z.Z.Z.Z.Z.Z.Z.Z.v.b.n.>.x x c x x w.Z.Z.Z.Z.Z.Z.Z.Z.Z.Z.Z.Z.Z.Z.Z.Z.Z.b.x x z z b.Z.p.r.V.Z.Z.Z.Z.Z.Z.Z.Z.Z.Z.Z.Z.Z.Z.Z.Z.Z.  ",
"Z.Z.Z.Z.Z.Z.Z.Z.Z.Z.Z.Z.Z.Z.Z.Z.Z.Z.s.p.B.M.b.b.b.b.b.M.Z.Z.Z.Z.Z.Z.Z.Z.Z.Z.Z.Z.Z.Z.Z.Z.Z.V.b.b.c.b.V.Z.p.r.V.Z.Z.Z.Z.Z.Z.Z.Z.Z.Z.Z.Z.Z.Z.Z.Z.Z.  ",
"Z.Z.Z.Z.Z.Z.Z.Z.Z.Z.Z.Z.Z.Z.Z.Z.Z.Z.p.e.V.Z.Z.Z.Z.Z.Z.Z.Z.Z.Z.Z.Z.Z.Z.Z.Z.Z.Z.Z.Z.Z.Z.Z.Z.Z.Z.Z.Z.Z.Z.Z.p.r.V.Z.Z.Z.Z.Z.Z.Z.Z.Z.Z.Z.Z.Z.Z.Z.Z.Z.  ",
"Z.Z.Z.Z.Z.Z.Z.Z.Z.Z.Z.Z.Z.Z.Z.Z.Z.Z.p.r.V.Z.Z.Z.Z.Z.Z.Z.Z.Z.Z.Z.Z.Z.Z.Z.Z.Z.Z.Z.Z.Z.Z.Z.Z.Z.Z.Z.Z.Z.Z.Z.p.r.V.Z.Z.Z.Z.Z.Z.Z.Z.Z.Z.Z.Z.Z.Z.Z.Z.Z.  ",
"Z.Z.Z.Z.Z.Z.Z.Z.Z.Z.Z.Z.Z.Z.Z.Z.Z.Z.p.r.V.Z.Z.Z.Z.Z.Z.Z.Z.Z.Z.Z.Z.Z.Z.Z.Z.Z.Z.Z.Z.Z.Z.Z.Z.Z.Z.Z.Z.Z.Z.Z.s.r.V.Z.Z.Z.Z.Z.Z.Z.Z.Z.Z.Z.Z.Z.Z.Z.Z.Z.  ",
"Z.Z.Z.Z.Z.Z.Z.Z.Z.Z.Z.Z.Z.Z.Z.Z.Z.Z.p.r.V.Z.Z.Z.Z.Z.Z.Z.Z.Z.Z.Z.Z.Z.Z.Z.Z.Z.Z.Z.Z.Z.Z.Z.Z.Z.Z.Z.Z.Z.Z.Z.p.r.V.Z.Z.Z.Z.Z.Z.Z.Z.Z.Z.Z.Z.Z.Z.Z.Z.Z.  ",
"Z.Z.Z.Z.Z.Z.Z.Z.Z.Z.Z.Z.Z.Z.Z.Z.Z.Z.p.r.V.Z.Z.Z.Z.Z.Z.Z.Z.Z.Z.Z.Z.Z.Z.Z.Z.Z.Z.Z.Z.Z.Z.Z.Z.Z.Z.Z.Z.Z.Z.Z.p.r.V.Z.Z.Z.Z.Z.Z.Z.Z.Z.Z.Z.Z.Z.Z.Z.Z.Z.  ",
"Z.Z.Z.Z.Z.Z.Z.Z.Z.Z.Z.Z.Z.Z.Z.Z.Z.Z.p.r.V.Z.Z.Z.Z.Z.Z.Z.Z.Z.Z.Z.Z.Z.Z.Z.Z.Z.Z.Z.Z.Z.Z.Z.Z.Z.Z.Z.Z.Z.Z.Z.p.r.V.Z.Z.Z.Z.Z.Z.Z.Z.Z.Z.Z.Z.Z.Z.Z.Z.Z.  ",
"V.Z.Z.Z.Z.Z.Z.Z.Z.Z.Z.Z.Z.Z.Z.Z.Z.Z.p.r.V.Z.Z.Z.Z.Z.Z.Z.Z.Z.Z.Z.Z.Z.Z.Z.Z.Z.Z.Z.Z.Z.Z.Z.Z.Z.Z.Z.Z.Z.Z.Z.p.r.V.Z.Z.Z.Z.Z.Z.Z.Z.Z.Z.Z.Z.Z.Z.Z.Z.Z.  ",
"r.r.r.r.r.r.r.r.r.r.r.r.r.r.r.r.r.r.r.r.r.r.r.r.r.r.r.r.r.r.r.r.r.r.r.r.r.r.r.r.r.r.r.r.r.r.r.r.r.r.r.r.r.r.r.r.r.r.r.r.r.r.r.r.r.r.r.r.r.r.r.r.  ",
"r.r.r.r.r.r.r.r.r.r.r.r.r.r.r.r.r.r.r.r.r.r.r.r.r.r.r.r.r.r.r.r.r.r.r.r.r.r.r.r.r.r.r.r.r.r.r.r.r.r.r.r.r.r.r.r.r.r.r.r.r.r.r.r.r.r.r.r.r.r.r.r.  "
};
