/* XPM */
static char *result[] = {
/* columns rows colors chars-per-pixel */
"72 72 135 2 ",
"   c #040406",
".  c #0F0B0B",
"X  c #120B0A",
"o  c #1A100E",
"O  c #140E11",
"+  c #141215",
"@  c #1A1212",
"#  c #16141E",
"$  c #19191A",
"%  c #221513",
"&  c #241E1D",
"*  c #321F1C",
"=  c #171722",
"-  c #181925",
";  c #131829",
":  c #1B1D2E",
">  c #1A2527",
",  c #1B2236",
"<  c #1D2339",
"1  c #222223",
"2  c #292424",
"3  c #2E2827",
"4  c #302C2E",
"5  c #262B39",
"6  c #343133",
"7  c #472D29",
"8  c #4B3532",
"9  c #443C3B",
"0  c #6A423A",
"q  c #1F2740",
"w  c #222A45",
"e  c #242E4E",
"r  c #2D3243",
"t  c #2D354A",
"y  c #303547",
"u  c #363A49",
"i  c #3C3E4B",
"p  c #263050",
"a  c #283356",
"s  c #2A365C",
"d  c #353C52",
"f  c #2F3C67",
"g  c #313F6C",
"h  c #3C414F",
"j  c #4C4646",
"k  c #44464E",
"l  c #4A494C",
"z  c #504C4E",
"x  c #4E4E52",
"c  c #494D5F",
"v  c #515155",
"b  c #595556",
"n  c #56565A",
"m  c #5B5B5D",
"M  c #715B5A",
"N  c #474D61",
"B  c #555967",
"V  c #5D5E64",
"C  c #545968",
"Z  c #5C6B6E",
"A  c #636265",
"S  c #6E6567",
"D  c #656569",
"F  c #6A696C",
"G  c #7A6361",
"H  c #616677",
"J  c #666A74",
"K  c #6E6E72",
"L  c #717174",
"P  c #70727C",
"I  c #7C7B7C",
"U  c #8B594F",
"Y  c #91645C",
"T  c #A26457",
"R  c #A2675B",
"E  c #AE6D5E",
"W  c #886A64",
"Q  c #937068",
"!  c #827E7E",
"~  c #8A7E7D",
"^  c #917876",
"/  c #AE7164",
"(  c #B97263",
")  c #B7796C",
"_  c #BD7C6E",
"`  c #C18679",
"'  c #556185",
"]  c #626B8B",
"[  c #6E7383",
"{  c #7B7C82",
"}  c #767A88",
"|  c #7B7F8E",
" . c #6B7491",
".. c #7C849D",
"X. c #828285",
"o. c #86868B",
"O. c #8C8C8E",
"+. c #878991",
"@. c #8E8E93",
"#. c #888C99",
"$. c #949497",
"%. c #95969B",
"&. c #9A9A9D",
"*. c #A18681",
"=. c #A69895",
"-. c #BC9C94",
";. c #858BA2",
":. c #9095A6",
">. c #9D9EA3",
",. c #9198AD",
"<. c #999CA8",
"1. c #A0A0A2",
"2. c #A4A5AC",
"3. c #ACACAC",
"4. c #ADADB1",
"5. c #B4B4B6",
"6. c #B3B4BA",
"7. c #BABABC",
"8. c #C48E83",
"9. c #C69287",
"0. c #C39D95",
"q. c #D7B6AF",
"w. c #BFBFC0",
"e. c #B6BAC8",
"r. c #C0C0C2",
"t. c #C6C6C8",
"y. c #CCCCCD",
"u. c #CDCDD0",
"i. c #D4D4D5",
"p. c #DADBDD",
"a. c #DEDEE1",
"s. c #E5E5E5",
"d. c #E6E7EA",
"f. c #EBEBEB",
"g. c gray95",
/* pixels */
"g.g.g.g.g.g.g.g.g.g.g.g.g.g.g.g.g.g.g.g.g.g.g.g.g.g.g.g.g.g.g.g.g.g.3.3.g.g.g.g.g.g.g.g.g.g.g.g.g.g.g.g.g.g.g.g.g.g.g.g.g.g.g.g.g.g.g.g.g.g.3.3.",
"g.g.g.g.g.g.g.g.g.g.g.g.g.g.g.g.g.g.g.g.g.g.g.g.g.g.g.g.g.g.g.g.g.g.3.3.g.g.g.g.g.g.g.g.g.g.g.g.g.g.g.g.g.g.g.g.g.g.g.g.g.g.g.g.g.g.g.g.g.g.3.3.",
"g.g.g.g.g.g.g.g.g.g.g.g.g.g.g.g.g.g.g.g.g.g.g.g.g.g.g.g.g.g.g.g.g.g.3.3.g.g.g.g.g.g.g.g.g.g.g.g.g.g.g.g.g.g.g.g.g.g.g.g.g.g.g.g.g.g.g.g.g.g.3.3.",
"g.g.g.g.g.g.g.g.g.g.g.g.g.g.g.g.g.g.g.g.g.g.g.g.g.g.g.g.g.g.g.g.g.g.3.3.g.g.g.g.g.g.g.g.g.g.g.g.g.g.g.g.g.g.g.g.g.g.g.g.g.g.g.g.g.g.g.g.g.g.3.3.",
"g.g.g.g.g.g.g.g.g.g.g.g.g.g.g.g.g.g.g.g.g.g.g.g.g.g.g.g.g.g.g.g.g.g.3.3.g.g.g.g.g.g.g.g.g.g.g.g.g.g.g.g.g.g.g.g.g.g.g.g.g.g.g.g.g.g.g.g.g.g.3.3.",
"g.g.g.g.g.g.g.g.g.g.g.g.g.g.g.g.g.g.g.g.g.g.g.g.g.g.g.g.g.g.g.g.g.g.3.3.g.g.g.g.g.g.g.g.g.g.g.g.g.g.g.g.g.g.g.g.g.g.g.g.g.g.g.g.g.g.g.g.g.g.3.3.",
"g.g.g.g.g.g.g.g.g.g.g.g.g.g.g.g.g.g.g.g.g.g.g.g.g.g.g.g.g.g.g.g.g.g.3.3.g.g.g.g.g.g.g.g.g.g.g.g.g.g.g.g.g.g.g.g.g.g.g.g.g.g.g.g.g.g.g.g.g.g.3.3.",
"g.g.g.g.g.g.g.g.g.g.g.g.g.g.g.g.g.g.g.g.g.g.g.g.g.g.g.g.g.s.i.i.i.i.$.$.i.g.g.g.g.g.g.g.g.g.g.g.g.g.g.g.g.g.g.g.g.g.g.g.g.g.g.g.g.g.g.g.g.g.3.3.",
"g.g.g.g.g.g.g.g.g.g.g.g.g.g.g.g.g.g.g.g.g.g.g.g.g.g.g.g.g.A   .   .     1 g.g.g.g.g.g.g.g.g.g.g.g.g.g.g.g.g.g.g.g.g.g.g.g.g.g.g.g.g.g.g.g.g.3.3.",
"g.g.g.g.g.g.g.g.g.g.g.g.g.g.g.g.g.g.g.g.g.g.g.g.g.g.g.g.g.*.0 0 0 0     @ m 5.g.g.g.g.g.g.g.g.g.g.g.g.g.g.g.g.g.g.g.g.g.g.g.g.g.g.g.g.g.g.g.3.3.",
"g.g.g.g.g.g.g.g.g.g.g.g.g.g.g.g.g.g.g.g.g.g.g.g.g.g.g.g.g.0.R ( E U @ X     &.g.g.g.g.g.g.g.g.g.g.g.g.g.g.g.g.g.g.g.g.g.g.g.g.g.g.g.g.g.g.g.3.3.",
"g.g.g.g.g.g.g.g.g.g.g.g.g.g.g.g.g.g.g.g.g.g.g.g.g.g.g.g.g.Z > ( 9 > ( 7     &.g.g.g.g.g.g.g.g.g.g.g.g.g.g.g.g.g.g.g.g.g.g.g.g.g.g.g.g.g.g.g.3.3.",
"g.g.g.g.g.g.g.g.g.g.g.g.g.g.g.g.g.g.g.g.g.g.g.g.g.g.g.g.g.=.W ` Q W ` 8 .   &.g.g.g.g.g.g.g.g.g.g.g.g.g.g.g.g.g.g.g.g.g.g.g.g.g.g.g.g.g.g.g.3.3.",
"g.g.g.g.g.g.g.g.g.g.g.g.g.g.g.g.g.g.g.g.g.g.g.g.g.g.g.g.g.q.9.9.9.9.9.8 o   $.g.g.g.g.g.g.g.g.g.g.g.g.g.g.g.g.g.g.g.g.g.g.g.g.g.g.g.g.g.g.g.3.3.",
"g.g.g.g.g.g.g.g.g.g.g.g.g.g.g.g.g.g.g.g.g.g.g.g.g.g.g.g.g.q.9.9.9.9.9._ T   &.g.g.g.g.g.g.g.g.g.g.g.g.g.g.g.g.g.g.g.g.g.g.g.g.g.g.g.g.g.g.g.3.3.",
"g.g.g.g.g.g.g.g.g.g.g.g.g.g.g.g.g.g.g.g.g.g.g.g.g.g.g.g.g.q.9.9.9.9.9.` T   &.g.g.g.g.g.g.g.g.g.g.g.g.g.g.g.g.g.g.g.g.g.g.g.g.g.g.g.g.g.g.g.3.3.",
"3.3.3.3.3.3.3.3.3.3.3.3.3.3.3.3.3.3.3.3.3.3.3.3.3.3.3.3.3.0.9.9.9.9.8._ T $ I 3.3.3.3.3.3.3.3.3.3.3.3.3.3.3.3.3.3.3.3.3.3.3.3.3.3.3.3.3.3.3.3.3.",
"3.3.3.3.3.3.3.3.3.3.3.3.3.3.3.3.3.3.3.3.3.3.3.3.3.3.3.3.3.-.9.9.9.8.( ( ) 3.3.3.3.3.3.3.3.3.3.3.3.3.3.3.3.3.3.3.3.3.3.3.3.3.3.3.3.3.3.3.3.3.3.3.",
"g.g.g.g.g.g.g.g.g.g.g.g.g.g.g.g.3.3.g.g.g.g.g.g.g.g.g.s.O.~ ^ _ _ _ ( Y G O.} } 5.5.5.5.p.g.g.g.g.g.g.g.g.g.3.3.g.g.g.g.g.g.g.g.g.g.g.g.g.g.g.g.",
"g.g.g.g.g.g.g.g.g.g.g.g.g.g.g.g.3.3.g.g.g.g.g.g.g.g.g.a.l A S / / / / M x x y t @.+.@.@.t.s.g.g.g.g.g.g.g.g.3.3.g.g.g.g.g.g.g.g.g.g.g.g.g.g.g.g.",
"g.g.g.g.g.g.g.g.g.g.g.g.g.g.g.g.3.3.g.g.g.g.g.g.g.g.g.a.x v v F F F F n x x y t @.@.@.@.@.@.g.g.g.g.g.g.g.g.3.3.g.g.g.g.g.g.g.g.g.g.g.g.g.g.g.g.",
"g.g.g.g.g.g.g.g.g.g.g.g.g.g.g.g.3.3.g.g.g.g.g.g.g.g.g.a.V v v n n n n v x x y t @.@.@.@.@.@.6.i.g.g.g.g.g.g.3.3.g.g.g.g.g.g.g.g.g.g.g.g.g.g.g.g.",
"g.g.g.g.g.g.g.g.g.g.g.g.g.g.g.g.3.3.g.g.g.g.g.g.g.g.f.u.A m v x x x x x x x t t @.@.@.@.@.@.o.7.g.g.g.g.g.g.3.3.g.g.g.g.g.g.g.g.g.g.g.g.g.g.g.g.",
"g.g.g.g.g.g.g.g.g.g.g.g.g.g.g.g.3.3.g.g.g.g.g.g.g.g.&.D x V D x x x x x x x y t @.@.@.@.@.@.x 1.g.g.g.g.g.g.3.3.g.g.g.g.g.g.g.g.g.g.g.g.g.g.g.g.",
"g.g.g.g.g.g.g.g.g.g.g.g.g.g.g.g.3.3.g.g.g.g.g.g.s.A m b Z b v t k x x h t y w r c Z A D D D x K O.g.g.g.g.g.3.3.g.g.g.g.g.g.g.g.g.g.g.g.g.g.g.g.",
"g.g.g.g.g.g.g.g.g.g.g.g.g.g.g.g.3.3.g.g.g.g.g.g.i.X 6 l D n x w h x x t w q w q w h l x x x x x v i.s.g.g.g.3.3.g.g.g.g.g.g.g.g.g.g.g.g.g.g.g.g.",
"g.g.g.g.g.g.g.g.g.g.g.g.g.g.g.g.3.3.g.g.g.g.g.g.i.X X @ x x x g g g g g g g g g g p w x x x x x z X ! g.g.g.3.3.g.g.g.g.g.g.g.g.g.g.g.g.g.g.g.g.",
"g.g.g.g.g.g.g.g.g.g.g.g.g.g.g.g.3.3.g.g.g.g.g.g.a.z 2 & >.>.%.g g g g g g g g g g s a u l x x x z X ! g.g.g.3.3.g.g.g.g.g.g.g.g.g.g.g.g.g.g.g.g.",
"g.g.g.g.g.g.g.g.g.g.g.g.g.g.g.g.3.3.g.g.g.g.g.g.s.$.9 3 g.g.a.g g g g g g g g g g g g q h x x z x X ! g.g.g.3.3.g.g.g.g.g.g.g.g.g.g.g.g.g.g.g.g.",
"g.g.g.g.g.g.g.g.g.g.g.g.g.g.g.g.3.3.g.g.g.g.g.5.@.@.y.g.g.g.g.g.[ q q q q q q q q q q q 2.g.x 4 X X % * g.g.3.3.g.g.g.g.g.g.g.g.g.g.g.g.g.g.g.g.",
"g.g.g.g.g.g.g.g.g.g.g.g.g.g.g.g.3.3.g.g.g.f.r.1.@.@.y.g.g.g.g.g.[ q q q q q q q q q q q 2.g.1.b X X o % g.g.3.3.g.g.g.g.g.g.g.g.g.g.g.g.g.g.g.g.",
"g.g.g.g.g.g.g.g.g.g.g.g.g.g.g.g.3.3.g.g.g.s.@.@.@.@.y.g.g.g.g.g.[ q q q q q q q q q q q 2.g.g.! X X X X g.g.3.3.g.g.g.g.g.g.g.g.g.g.g.g.g.g.g.g.",
"g.g.g.g.g.g.g.g.g.g.g.g.g.g.g.g.3.3.g.g.g.d.@.@.>.g.g.g.g.g.g.g...g g g g g g g g g f q 2.g.g.g.g.. z @.@.r.3.3.! X X ! g.g.g.g.g.g.g.g.g.g.g.g.",
"g.g.g.g.g.g.g.g.g.g.g.g.g.g.g.g.3.3.g.g.i.6.{ o.&.g.g.g.g.g.s.,.' g g g g g g g g g f q H #.g.g.g.! I { #.r.3.m j X X ~ g.g.g.g.g.g.g.g.g.g.g.g.",
"3.3.3.3.3.3.3.3.3.3.3.3.3.3.3.3.3.3.3.3.&.O.D X.@.3.3.3.3.3.<.g g g g g g g g g g g f q q q 4.3.3.3.O.D @.=.3.X X X X m 3.3.3.3.3.3.3.3.3.3.3.3.",
"3.3.3.3.3.3.3.3.3.3.3.3.3.3.3.3.3.3.3.3.&.@.3.! L 3.3.3.3.3.<.q q q q q q q q q q q q q q q 3.{ x v V D @.@.@.X X X 3.3.3.3.3.3.3.3.3.3.3.3.3.3.",
"3.3.g.g.g.g.g.g.g.g.g.g.g.g.g.g.g.g.g.g.i.t.g.y.5.g.g.g.g.e.;.s a a a a s a a a a a a a a a ,.<.1.x v V @.@.@.! ! ! g.g.g.g.g.g.g.g.g.g.g.g.g.g.",
"3.3.g.g.g.g.g.g.g.g.g.g.g.g.g.g.g.g.g.g.g.g.g.g.g.g.g.g.g...g g g g g g g g g g g g g g g g g ,.g.x x x @.@.@.g.g.g.g.g.g.g.g.g.g.g.g.g.g.g.g.g.",
"3.3.g.g.g.g.g.g.g.g.g.g.g.g.g.g.g.g.g.g.g.g.g.g.g.g.g.g.g.[ q g g f q q q g g g g g g g g g u.u.u.x x x v K @.@.w.g.g.g.g.g.g.g.g.g.g.g.g.g.g.g.",
"3.3.g.g.g.g.g.g.g.g.g.g.g.g.g.g.g.g.g.g.g.g.g.g.g.g.g.d.;.N q g s p - ; : a a s g g g g ] #.4.4.4.x x x l D { @.r.g.g.g.g.g.g.g.g.g.g.g.g.g.g.g.",
"3.3.g.g.g.g.g.g.g.g.g.g.g.g.g.g.g.g.g.g.g.g.g.g.g.g.g.a.q q q g p < X X O q q q g g g g ,.u.@.@.@.x x x x m F @.r.g.g.g.g.g.g.g.g.g.g.g.g.g.g.g.",
"3.3.g.g.g.g.g.g.g.g.g.g.g.g.g.g.g.g.g.g.g.g.g.g.g.g.g.i.q s f q = X X X . ; < q g g ' u.2.@.@.@.@.@.K x x x l @.r.g.g.g.g.g.g.g.g.g.g.g.g.g.g.g.",
"3.3.g.g.g.g.g.g.g.g.g.g.g.g.g.g.g.g.g.g.g.g.g.g.g.g.6.| q s f q # X X X O ; < w g ] ..4.&.@.@.@.@.4.1.@.x x x L 5.g.g.g.g.g.g.g.g.g.g.g.g.g.g.g.",
"3.3.g.g.g.g.g.g.g.g.g.g.g.g.g.g.g.g.g.g.g.g.g.g.g.g.[ q q s f q # X X X . ; < w g :.t.#.@.@.@.@.@.y.u.u.x x x x &.g.g.g.g.g.g.g.g.g.g.g.g.g.g.g.",
"3.3.g.g.g.g.g.g.g.g.g.g.g.g.g.g.g.g.g.g.g.g.g.g.g.g.[ q w s f w # X X # ; ; +.u.u.2.@.@.@.@.u.u.u.g.g.g.g.g.g.g.g.g.g.g.g.g.g.g.g.g.g.g.g.g.g.g.",
"3.3.g.g.g.g.g.g.g.g.g.g.g.g.g.g.g.g.g.g.g.g.g.g.g.g.[ q < e e - + X X # , P 2.y.4.&.$.4.4.4.u.&.K g.g.g.g.g.g.g.g.g.g.g.g.g.g.g.g.g.g.g.g.g.g.g.",
"3.3.g.g.g.g.g.g.g.g.g.g.g.g.g.g.g.g.g.g.g.g.g.g.g.g.[ q w < < X X X X # 5 u.u.t.@.@.%.u.u.u.u.K X g.g.g.g.g.g.g.g.g.g.g.g.g.g.g.g.g.g.g.g.g.g.g.",
"3.3.g.g.g.g.g.g.g.g.g.g.g.g.g.g.g.g.g.g.g.g.g.g.p.q q q q q < X X X ; +.t.@.@.@.@.5.u.u.H q X X X g.g.g.g.g.g.g.g.g.g.g.g.g.g.g.g.g.g.g.g.g.g.g.",
"3.3.g.g.g.g.g.g.g.g.g.g.g.g.g.g.g.g.g.g.g.g.g.g.p.w q q q : = X j K P :.4.@.1.4.4.:...} h - X X X g.g.g.g.g.g.g.g.g.g.g.g.g.g.g.g.g.g.g.g.g.g.g.",
"3.3.g.g.g.g.g.g.g.g.g.g.g.g.g.g.g.g.g.g.g.g.g.g.p.< q q 5 $ . X X.y.y.2.@.@.6.u.y. .g q $ X X X X g.g.g.g.g.g.g.g.g.g.g.g.g.g.g.g.g.g.g.g.g.g.g.",
"3.3.g.g.g.g.g.g.g.g.g.g.g.g.g.g.g.g.g.g.g.g.g.g.p.q q < X X 2 u.u.u.u.u.u.u.s.p.w < q q $ X X X X g.g.g.g.g.g.g.g.g.g.g.g.g.g.g.g.g.g.g.g.g.g.g.",
"3.3.g.g.g.g.g.g.g.g.g.g.g.g.g.g.g.g.g.g.g.g.g.g.p.q q r K F I u.u.u.u.%.P P r.p.< w q q : - z l z g.g.g.g.g.g.g.g.g.g.g.g.g.g.g.g.g.g.g.g.g.g.g.",
"3.3.3.3.3.3.3.3.3.3.3.3.3.3.3.3.3.3.3.3.3.3.3.3.:.< q d u.u.u.u.u.u.u.V ; ; P %.q q q q q q @.@.@.3.3.3.3.3.3.3.3.3.3.3.3.3.3.3.3.3.3.3.3.3.3.3.",
"3.3.3.3.3.3.3.3.3.3.3.3.3.3.3.3.3.3.3.3.3.3.3.3.3.3.w.u.u.u.u.u.7.3.3.3.>.; ; 5 3.C q q q q x K @.@.&.3.3.3.3.3.3.3.3.3.3.3.3.3.3.3.3.3.3.3.3.3.",
"g.g.g.g.g.g.g.g.g.g.g.g.g.g.g.g.g.g.3.3.g.g.g.d.a.s.i.u.u.2.%.a.f.g.g.g.s.o.i r g.6.#.#.B u x K @.@.r.g.3.3.g.g.g.g.g.g.g.g.g.g.g.g.g.g.g.g.g.g.",
"g.g.g.g.g.g.g.g.g.g.g.g.g.g.g.g.g.g.3.3.g.g.g.p.u.u.y.u.u.{ A g.g.g.g.g.g.g.J r g.g.g.g.O.x x K @.@.r.g.3.3.g.g.g.g.g.g.g.g.g.g.g.g.g.g.g.g.g.g.",
"g.g.g.g.g.g.g.g.g.g.g.g.g.g.g.g.g.g.3.3.g.f.u.u.u.u.2.o.x x A g.g.g.g.g.g.g.g.g.g.g.g.g.g.g.x x l v 1.g.3.3.g.g.g.g.g.g.g.g.g.g.g.g.g.g.g.g.g.g.",
"g.g.g.g.g.g.g.g.g.g.g.g.g.g.g.g.g.g.3.3.f.a.y.p.p.4.&.o.x ! 3.g.g.g.g.g.g.g.g.g.g.g.g.g.g.g.1.o.L F 5.g.3.3.g.g.g.g.g.g.g.g.g.g.g.g.g.g.g.g.g.g.",
"g.g.g.g.g.g.g.g.g.g.g.g.g.g.g.g.g.g.3.3.p.y.u.s.s.@.@.o.x 5.g.g.g.g.g.g.g.g.g.g.g.g.g.g.g.g.g.w.$.@.r.g.3.3.g.g.g.g.g.g.g.g.g.g.g.g.g.g.g.g.g.g.",
"g.g.g.g.g.g.g.g.g.g.g.g.g.g.g.g.g.g.3.3.g.g.g.g.p.v x x x 5.g.g.g.g.g.g.g.g.g.g.g.g.g.g.g.g.g.1.x l 1.g.3.3.g.g.g.g.g.g.g.g.g.g.g.g.g.g.g.g.g.g.",
"g.g.g.g.g.g.g.g.g.g.g.g.g.g.g.g.g.g.3.3.g.g.g.g.a.x x x x 5.g.g.g.g.g.g.g.g.g.g.g.g.g.g.g.g.g.1.x m o.3.3.3.g.g.g.g.g.g.g.g.g.g.g.g.g.g.g.g.g.g.",
"g.g.g.g.g.g.g.g.g.g.g.g.g.g.g.g.g.g.3.3.g.g.g.g.a.z v x v 5.g.g.g.g.g.g.g.g.g.g.g.g.g.g.g.g.g.1.x F F F 3.3.g.g.g.g.g.g.g.g.g.g.g.g.g.g.g.g.g.g.",
"g.g.g.g.g.g.g.g.g.g.g.g.g.g.g.g.g.g.3.3.g.g.g.$.A x l v x 5.g.g.g.g.g.g.g.g.g.g.g.g.g.g.g.g.g.1.x v v v 3.3.g.g.g.g.g.g.g.g.g.g.g.g.g.g.g.g.g.g.",
"g.g.g.g.g.g.g.g.g.g.g.g.g.g.g.g.g.g.3.3.g.g.g.5.O.O.O.O.O.y.g.g.g.g.g.g.g.g.g.g.g.g.g.g.g.g.g.w.O.O.O.O.3.3.g.g.g.g.g.g.g.g.g.g.g.g.g.g.g.g.g.g.",
"g.g.g.g.g.g.g.g.g.g.g.g.g.g.g.g.g.g.3.3.g.g.g.g.g.g.g.g.g.g.g.g.g.g.g.g.g.g.g.g.g.g.g.g.g.g.g.g.g.g.g.g.3.3.g.g.g.g.g.g.g.g.g.g.g.g.g.g.g.g.g.g.",
"g.g.g.g.g.g.g.g.g.g.g.g.g.g.g.g.g.g.3.3.g.g.g.g.g.g.g.g.g.g.g.g.g.g.g.g.g.g.g.g.g.g.g.g.g.g.g.g.g.g.g.g.3.3.g.g.g.g.g.g.g.g.g.g.g.g.g.g.g.g.g.g.",
"g.g.g.g.g.g.g.g.g.g.g.g.g.g.g.g.g.g.3.3.g.g.g.g.g.g.g.g.g.g.g.g.g.g.g.g.g.g.g.g.g.g.g.g.g.g.g.g.g.g.g.g.3.3.g.g.g.g.g.g.g.g.g.g.g.g.g.g.g.g.g.g.",
"g.g.g.g.g.g.g.g.g.g.g.g.g.g.g.g.g.g.3.3.g.g.g.g.g.g.g.g.g.g.g.g.g.g.g.g.g.g.g.g.g.g.g.g.g.g.g.g.g.g.g.g.3.3.g.g.g.g.g.g.g.g.g.g.g.g.g.g.g.g.g.g.",
"g.g.g.g.g.g.g.g.g.g.g.g.g.g.g.g.g.g.3.3.g.g.g.g.g.g.g.g.g.g.g.g.g.g.g.g.g.g.g.g.g.g.g.g.g.g.g.g.g.g.g.g.3.3.g.g.g.g.g.g.g.g.g.g.g.g.g.g.g.g.g.g.",
"g.g.g.g.g.g.g.g.g.g.g.g.g.g.g.g.g.g.3.3.g.g.g.g.g.g.g.g.g.g.g.g.g.g.g.g.g.g.g.g.g.g.g.g.g.g.g.g.g.g.g.g.3.3.g.g.g.g.g.g.g.g.g.g.g.g.g.g.g.g.g.g.",
"3.3.3.3.3.3.3.3.3.3.3.3.3.3.3.3.3.3.3.3.3.3.3.3.3.3.3.3.3.3.3.3.3.3.3.3.3.3.3.3.3.3.3.3.3.3.3.3.3.3.3.3.3.3.3.3.3.3.3.3.3.3.3.3.3.3.3.3.3.3.3.3.",
"3.3.3.3.3.3.3.3.3.3.3.3.3.3.3.3.3.3.3.3.3.3.3.3.3.3.3.3.3.3.3.3.3.3.3.3.3.3.3.3.3.3.3.3.3.3.3.3.3.3.3.3.3.3.3.3.3.3.3.3.3.3.3.3.3.3.3.3.3.3.3.3."
};
