/* XPM */
static char *character_right1706048920[] = {
/* columns rows colors chars-per-pixel */
"73 72 156 2 ",
"   c None",
".  c #040406",
"X  c #120B0A",
"o  c #120E11",
"O  c #1A1312",
"+  c #16131A",
"@  c #19191B",
"#  c #261715",
"$  c #261817",
"%  c #211C1C",
"&  c #321F1D",
"*  c #131522",
"=  c #131829",
"-  c #1A1C2A",
";  c #181E33",
":  c #1B2135",
">  c #1D253D",
",  c #2E2727",
"<  c #2E2827",
"1  c #2D2B2D",
"2  c #312B2D",
"3  c #342524",
"4  c #31302F",
"5  c #20263E",
"6  c #23283C",
"7  c #2A2E3E",
"8  c #3C383A",
"9  c #482D29",
"0  c #413D3D",
"q  c #563C38",
"w  c #5E423C",
"e  c #1F2740",
"r  c #222A45",
"t  c #282F43",
"y  c #242D4B",
"u  c #2C3143",
"i  c #2C344A",
"p  c #303647",
"a  c #3F3F41",
"s  c #30374D",
"d  c #363A49",
"f  c #3C3F4B",
"g  c #263051",
"h  c #293456",
"j  c #2A365B",
"k  c #2B385E",
"l  c #353C52",
"z  c #2D3A62",
"x  c #313F6C",
"c  c #394056",
"v  c #3E5053",
"b  c #444042",
"n  c #4A4544",
"m  c #44454D",
"M  c #48494F",
"N  c #504C4E",
"B  c #4E4E52",
"V  c #474A57",
"C  c #525255",
"Z  c #585454",
"A  c #555559",
"S  c #5A595C",
"D  c #605C5F",
"F  c #645656",
"G  c #464D62",
"H  c #4A5064",
"J  c #5E5E62",
"K  c #545A6C",
"L  c #445179",
"P  c #49557D",
"I  c #595F78",
"U  c #565C72",
"Y  c #636265",
"T  c #66666A",
"R  c #69696C",
"E  c #6E6665",
"W  c #7A6664",
"Q  c #726F6F",
"!  c #606576",
"~  c #6E6E72",
"^  c #706D71",
"/  c #757576",
"(  c #75757B",
")  c #7C7A7B",
"_  c #805046",
"`  c #80564D",
"'  c #8B5C52",
"]  c #8A625B",
"[  c #A26457",
"{  c #827E7E",
"}  c #897978",
"|  c #967975",
" . c #9A7C75",
".. c #AD6F62",
"X. c #AF7164",
"o. c #B97263",
"O. c #BC7A6C",
"+. c #A17971",
"@. c #BE7E71",
"#. c #B0847B",
"$. c #C08275",
"%. c #C28A7E",
"&. c #545F82",
"*. c #5E6785",
"=. c #666D84",
"-. c #616C8E",
";. c #6E7383",
":. c #747781",
">. c #777983",
",. c #7D7D83",
"<. c #767A88",
"1. c #828285",
"2. c #85858B",
"3. c #8C8C8E",
"4. c #878991",
"5. c #8E8E93",
"6. c #8B8E9B",
"7. c #8D919B",
"8. c #929195",
"9. c #94959B",
"0. c #9B9A9C",
"q. c #AC948E",
"w. c #858DA7",
"e. c #9599A4",
"r. c #9C9DA3",
"t. c #989CAD",
"y. c #9EA0A6",
"u. c #A3A3A5",
"i. c #A5A6AB",
"p. c #ACACAC",
"a. c #AAA2A2",
"s. c #A6A8B2",
"d. c #ADADB1",
"f. c #B5B5B5",
"g. c #B5B5B8",
"h. c #B7B8BE",
"j. c #BAB9BA",
"k. c #C69287",
"l. c #C09890",
"z. c #D1AAA1",
"x. c #BDBEC4",
"c. c #C0C0C2",
"v. c #C8C6C6",
"b. c #C6C6C9",
"n. c #CACACB",
"m. c #C1C5D0",
"M. c #CDCDD0",
"N. c #CED0D9",
"B. c #D2D2D4",
"V. c #D6D6D8",
"C. c #D9DADB",
"Z. c #D9DCE1",
"A. c #E4E4E5",
"S. c #E6E7EA",
"D. c #E9E9E9",
"F. c #F2F2F2",
/* pixels */
"F.F.F.F.F.F.F.F.F.F.F.F.F.F.F.F.F.F.F.F.F.F.F.F.F.F.F.F.F.F.F.F.F.F.f.p.D.F.F.F.F.F.F.F.F.F.F.F.F.F.F.F.F.F.F.F.F.F.F.F.F.F.F.F.F.F.F.F.F.F.f.p.  ",
"F.F.F.F.F.F.F.F.F.F.F.F.F.F.F.F.F.F.F.F.F.F.F.F.F.F.F.F.F.F.F.F.F.F.f.p.D.F.F.F.F.F.F.F.F.F.F.F.F.F.F.F.F.F.F.F.F.F.F.F.F.F.F.F.F.F.F.F.F.F.f.p.  ",
"F.F.F.F.F.F.F.F.F.F.F.F.F.F.F.F.F.F.F.F.F.F.F.F.F.F.F.F.F.F.F.F.F.F.f.p.D.F.F.F.F.F.F.F.F.F.F.F.F.F.F.F.F.F.F.F.F.F.F.F.F.F.F.F.F.F.F.F.F.F.j.p.  ",
"F.F.F.F.F.F.F.F.F.F.F.F.F.F.F.F.F.F.F.F.F.F.F.F.F.F.F.F.F.F.F.F.F.F.f.p.D.F.F.F.F.F.F.F.F.F.F.F.F.F.F.F.F.F.F.F.F.F.F.F.F.F.F.F.F.F.F.F.F.F.f.p.  ",
"D.F.F.F.F.F.F.F.F.F.F.F.F.F.F.F.F.F.F.F.F.F.F.F.F.F.F.F.F.F.F.F.F.F.f.p.D.F.F.F.F.F.F.F.F.F.F.F.F.F.F.F.F.F.F.F.F.F.F.F.F.F.F.F.F.F.F.F.F.F.f.p.  ",
"F.F.F.F.F.F.F.F.F.F.F.F.F.F.F.F.F.F.F.F.F.F.F.F.F.F.F.F.F.F.F.F.F.F.f.p.D.F.F.F.F.F.F.F.F.F.F.F.F.F.F.F.F.F.F.F.F.F.F.F.F.F.F.F.F.F.F.F.F.F.f.p.  ",
"F.F.F.F.F.F.F.F.F.F.F.F.F.F.F.F.F.F.F.F.F.F.F.F.F.F.F.F.F.F.F.F.F.F.f.p.D.F.F.F.F.F.F.F.F.F.F.F.F.F.F.F.F.F.F.F.F.F.F.F.F.F.F.F.F.F.F.F.F.F.f.p.  ",
"F.F.F.F.F.F.F.F.F.F.F.F.F.F.F.F.F.F.F.F.F.F.F.F.F.F.F.F.F.F.F.F.F.F.f.p.D.F.F.F.F.F.F.F.F.F.F.F.F.F.F.F.F.F.F.F.F.F.F.F.F.F.F.F.F.F.F.F.F.F.f.p.  ",
"F.F.F.F.F.F.F.F.F.F.F.F.F.F.F.F.F.F.F.F.F.F.F.F.F.F.F.F.F.F.F.F.F.F.f.p.a.0.0.9.0.0.9.f.F.F.F.F.F.F.F.F.F.F.F.F.F.F.F.F.F.F.F.F.F.F.F.F.F.F.f.p.  ",
"F.F.F.F.F.F.F.F.F.F.F.F.F.F.F.F.F.F.F.F.F.F.F.F.F.F.F.F.F.F.F.F.F.F.f.p.@ . . . . . . w F.F.F.F.F.F.F.F.F.F.F.F.F.F.F.F.F.F.F.F.F.F.F.F.F.F.f.p.  ",
"F.F.F.F.F.F.F.F.F.F.F.F.F.F.F.F.F.F.F.F.F.F.F.F.F.F.F.F.F.F.F.F.F.F.1.@ . . . _ [ [ [ #.F.F.F.F.F.F.F.F.F.F.F.F.F.F.F.F.F.F.F.F.F.F.F.F.F.F.f.p.  ",
"F.F.F.F.F.F.F.F.F.F.F.F.F.F.F.F.F.F.F.F.F.F.F.F.F.F.F.F.F.F.F.F.F.F./ . . O 9 w ' o.F | F.F.F.F.F.F.F.F.F.F.F.F.F.F.F.F.F.F.F.F.F.F.F.F.F.F.f.p.  ",
"F.F.F.F.F.F.F.F.F.F.F.F.F.F.F.F.F.F.F.F.F.F.F.F.F.F.F.F.F.F.F.F.F.F./ . . & o.4 4 o.4 v F.F.F.F.F.F.F.F.F.F.F.F.F.F.F.F.F.F.F.F.F.F.F.F.F.F.f.p.  ",
"F.F.F.F.F.F.F.F.F.F.F.F.F.F.F.F.F.F.F.F.F.F.F.F.F.F.F.F.F.F.F.F.F.F./ . . 3 %.+.+.%.#.q.F.F.F.F.F.F.F.F.F.F.F.F.F.F.F.F.F.F.F.F.F.F.F.F.F.F.f.p.  ",
"F.F.F.F.F.F.F.F.F.F.F.F.F.F.F.F.F.F.F.F.F.F.F.F.F.F.F.F.F.F.F.F.F.F./ . $ w %.k.%.k.k.z.F.F.F.F.F.F.F.F.F.F.F.F.F.F.F.F.F.F.F.F.F.F.F.F.F.F.j.p.  ",
"F.F.F.F.F.F.F.F.F.F.F.F.F.F.F.F.F.F.F.F.F.F.F.F.F.F.F.F.F.F.F.F.F.F./ . [ #.k.k.k.k.k.z.F.F.F.F.F.F.F.F.F.F.F.F.F.F.F.F.F.F.F.F.F.F.F.F.F.F.f.p.  ",
"p.p.p.p.p.p.p.p.p.p.p.p.p.p.p.p.p.p.p.p.p.p.p.p.p.p.p.p.p.p.p.p.p.p.R . [ O.k.k.k.k.k.l.p.p.p.p.p.p.p.p.p.p.p.p.p.p.p.p.p.p.p.p.p.p.p.p.p.p.p.p.  ",
"p.p.p.p.p.p.p.p.p.p.p.p.p.p.p.p.p.p.p.p.p.p.p.p.p.p.p.p.p.p.p.p.p.p.) 4 ..O.%.k.k.k.k.q.p.p.p.p.p.p.p.p.p.p.p.p.p.p.p.p.p.p.p.p.p.f.p.p.p.p.p.p.  ",
"D.F.F.F.F.F.F.F.F.F.F.F.F.F.F.F.g.p.D.F.F.F.F.F.F.F.F.F.F.F.F.F.F.F.F.F.#.o.o.%.k.k.k.z.F.F.F.F.F.F.F.F.F.F.f.p.D.F.F.F.F.F.F.F.F.F.F.F.F.F.F.F.  ",
"F.F.F.F.F.F.F.F.F.F.F.F.F.F.F.F.g.p.D.F.F.F.F.F.F.F.F.F.C.f.f.f.f.<.<.5.] ' o.O.$.$. .} 3.C.F.F.F.F.F.F.F.F.f.p.D.F.F.F.F.F.F.F.F.F.F.F.F.F.F.F.  ",
"F.F.F.F.F.F.F.F.F.F.F.F.F.F.F.F.f.p.D.F.F.F.F.F.F.F.F.A.n.5.5.5.5.i p B B F X.X.o.X.W J B n.F.F.F.F.F.F.F.F.f.p.D.F.F.F.F.F.F.F.F.F.F.F.F.F.F.F.  ",
"F.F.F.F.F.F.F.F.F.F.F.F.F.F.F.F.f.p.D.F.F.F.F.F.F.F.F.0.5.5.5.5.5.i p B B A T R R R A B B n.F.F.F.F.F.F.F.F.f.p.D.F.F.F.F.F.F.F.F.F.F.F.F.F.F.F.  ",
"F.F.F.F.F.F.F.F.F.F.F.F.F.F.F.F.f.p.D.F.F.F.F.F.F.C.f.9.5.5.5.5.5.i p B B C A S S S C B B 1.f.F.F.F.F.F.F.F.f.p.D.F.F.F.F.F.F.F.F.F.F.F.F.F.F.F.  ",
"F.F.F.F.F.F.F.F.F.F.F.F.F.F.F.F.f.p.D.F.F.F.F.F.F.M.5.5.5.5.5.5.5.i p B B B B B B B B B B Y 3.F.F.F.F.F.F.F.f.p.D.F.F.F.F.F.F.F.F.F.F.F.F.F.F.F.  ",
"F.F.F.F.F.F.F.F.F.F.F.F.F.F.F.F.f.p.D.F.F.F.F.F.F.f.B 2.5.5.5.5.5.i p B B N N B B B B C R A ( F.F.F.F.F.F.F.f.p.D.F.F.F.F.F.F.F.F.F.F.F.F.F.F.F.  ",
"F.F.F.F.F.F.F.F.F.F.F.F.F.F.F.F.f.p.D.F.F.F.F.F.s.1.B R ~ ~ ~ R K t t d d c B B M d B C J 8 b { V.F.F.F.F.F.f.p.D.F.F.F.F.F.F.F.F.F.F.F.F.F.F.F.  ",
"F.F.F.F.F.F.F.F.F.F.F.F.F.F.F.F.f.p.D.F.F.F.F.F.Y B B B B B N c e e e e e u B B m > v B B @ X X j.F.F.F.F.F.f.p.D.F.F.F.F.F.F.F.F.F.F.F.F.F.F.F.  ",
"D.F.F.F.F.F.F.F.F.F.F.F.F.F.F.F.f.p.D.F.F.F.F.S.Y B B B B B 6 g x x x x x x x x x x x.j.X X X X j.F.F.F.F.F.f.p.D.F.F.F.F.F.F.F.F.F.F.F.F.F.F.F.  ",
"F.F.F.F.F.F.F.F.F.F.F.F.F.F.F.F.f.p.D.F.F.F.v.#.A B B B m d h k x x x x x x x x x x m.V.) 1 % N v.F.F.F.F.F.f.p.D.F.F.F.F.F.F.F.F.F.F.F.F.F.F.F.  ",
"F.F.F.F.F.F.F.F.F.F.F.F.F.F.F.F.f.p.D.F.F.F.0.X v B B B c > x x x x x x x x x x x x m.F.F.w < 8.C.F.F.F.F.F.f.p.D.F.F.F.F.F.F.F.F.F.F.F.F.F.F.F.  ",
"F.F.F.F.F.F.F.F.F.F.F.F.F.F.F.F.f.p.D.F.F.F.0.X O < B n.r.> r r e y e y r e e y U Z.S.F.F.A.j.8.0.f.F.F.F.F.f.p.D.F.F.F.F.F.F.F.F.F.F.F.F.F.F.F.  ",
"F.F.F.F.F.F.F.F.F.F.F.F.F.F.F.F.f.p.D.F.F.a.E X X 8 3.A.i.> g g g g g g g g g g I F.F.F.F.F.C.3.3.0.n.F.F.F.f.p.D.F.F.F.F.F.F.F.F.F.F.F.F.F.F.F.  ",
"F.F.F.F.F.F.F.F.F.F.F.F.F.F.F.F.f.p.D.F.F.& # X X E F.F.s.e z x x x x x x x x x *.F.F.F.F.F.C.5.5.5.5.C.F.F.g.p.D.F.F.F.F.F.F.F.F.F.F.F.F.F.F.F.  ",
"F.F.F.F.F.F.F.F.F.F.F.F.F.F.F.F.f.p.D.F.F.X X X X Y F.K i r z x x x x x x x x x x P N.F.F.F.F.A.u.5.5.C.F.F.f.p.D.F.F.F.F.F.F.F.F.F.F.F.F.F.F.F.  ",
"p.p.p.p.p.p.p.p.p.p.p.p.p.3.Q Q 3.p.p.i.a.0 2 X 0 Q p.s e e h k k k j k j j j j k j 6.p.d.p.p.p.9.4.,.0.u.p.p.p.p.p.p.p.p.p.p.p.p.p.p.p.p.p.p.p.  ",
"p.p.p.p.p.p.p.p.p.p.p.p.p.D X X D p.p.0.5.5.S X 8.p.p.h e e e > > e > e e e e e e e 4.p.p.p.p.p.9.2.R 2.8.p.p.p.p.p.p.p.p.p.p.p.p.p.p.d.p.p.p.p.  ",
"p.p.A.F.F.F.F.F.F.F.F.F.F.{ X X < w F.x.5./ 1.h.F.m.-.z z z z z z z z z z k z k z z &.w.F.F.F.F.8.2.B.r.0.F.F.F.F.F.F.F.F.F.F.F.F.F.F.F.F.F.F.F.  ",
"p.p.D.F.F.F.F.F.F.F.F.F.F.0.n X X X C.f.5.R 8.n.v.7.k x x x x x x x x x x k k x x x z *.F.F.F.F.u.u.F.j.g.F.F.F.F.F.F.F.F.F.F.F.F.F.F.F.F.F.F.F.  ",
"p.p.D.F.F.F.F.F.F.F.F.F.F.F.F.X X X 5.5.5.R J B N f r z x x x x x x x x r > e z x x y K F.F.F.F.F.F.F.F.F.F.F.F.F.F.F.F.F.F.F.F.F.F.F.F.F.F.F.F.  ",
"p.p.D.F.F.F.F.F.F.F.F.F.F.F.F.j.j.j.5.5.5.Z C B g.7.r y h x x x x g y y @ + + > h x y i K M.F.F.F.F.F.F.F.F.F.F.F.F.F.F.F.F.F.F.F.F.F.F.F.F.F.F.  ",
"p.p.D.F.F.F.F.F.F.F.F.F.F.F.F.F.A.C.5.2.,.B B B V.s.H i g x x x x e e > o X X * > z y y e x.F.F.F.F.F.F.F.F.F.F.F.F.F.F.F.F.F.F.F.F.F.F.F.F.F.F.  ",
"p.p.D.F.F.F.F.F.F.F.F.F.F.F.F.F.c.5.5.~ B B B B c.M.M.l g x x x x r : = X X X X + e z z e x.F.F.F.F.F.F.F.F.F.F.F.F.F.F.F.F.F.F.F.F.F.F.F.F.F.F.  ",
"p.p.A.F.F.F.F.F.F.F.F.F.F.F.F.F.c.5.( Y B B B B 0.i.i.9.=.x x x x e : = o X X X + e z k e K e.F.F.F.F.F.F.F.F.F.F.F.F.F.F.F.F.F.F.F.F.F.F.F.F.F.  ",
"p.p.D.F.F.F.F.F.F.F.F.F.F.F.F.F.c.5.T S B B B S 2.5.5.x.t.L x x x e : = o X X X + > z z e e K F.F.F.F.F.F.F.F.F.F.F.F.F.F.F.F.F.F.F.F.F.F.F.F.F.  ",
"p.p.D.F.F.F.F.F.F.F.F.F.F.F.F.F.x.5.B B B B T 5.5.5.5.5.i.M.L h e e : = = * X X + > z z r > K F.F.F.F.F.F.F.F.F.F.F.F.F.F.F.F.F.F.F.F.F.F.F.F.F.  ",
"p.p.D.F.F.F.F.F.F.F.F.F.F.F.F.F.p.T B B B y.i.f.8.5.5.5.9.i.t.=.e : ; = = * X X X + r y e 5 K F.F.F.F.F.F.F.F.F.F.F.F.F.F.F.F.F.F.F.F.F.F.F.F.F.  ",
"p.p.D.F.F.F.F.F.F.F.F.F.F.F.F.F.p.Y Y Y Y B.B.B.r.9.9.5.5.5.x.9.l u : = = * o X X X : > e e G C.F.F.F.F.F.F.F.F.F.F.F.F.F.F.F.F.F.F.F.F.F.F.F.F.  ",
"p.p.D.F.F.F.F.F.F.F.F.F.F.F.F.F.F.F.F.F.F.F.F.F.B.B.n.9.5.5.8.i.M.M.4.= = = = o X X : r e e e e c.F.F.F.F.F.F.F.F.F.F.F.F.F.F.F.F.F.F.F.F.F.F.F.  ",
"p.p.A.F.F.F.F.F.F.F.F.F.F.F.F.F.F.F.F.F.F.F.F.F.{ 8.n.f.p.d.9.0.d.n.s.( : = = o X X @ - e e e e x.F.F.F.F.F.F.F.F.F.F.F.F.F.F.F.F.F.F.F.F.F.F.F.  ",
"p.p.A.F.F.F.F.F.F.F.F.F.F.F.F.F.F.F.F.F.F.F.F.F.< Z B.n.M.M.9.5.5.b.M.M.7 = = o X X X + e e e e x.F.F.F.F.F.F.F.F.F.F.F.F.F.F.F.F.F.F.F.F.F.F.F.  ",
"p.p.D.F.F.F.F.F.F.F.F.F.F.F.F.F.F.F.F.F.F.F.F.F.< X X X Z M.n.h.5.5.5.5.b.r.= o X X X X X : e e x.F.F.F.F.F.F.F.F.F.F.F.F.F.F.F.F.F.F.F.F.F.F.F.  ",
"p.p.D.F.F.F.F.F.F.F.F.F.F.F.F.F.F.F.F.F.F.F.F.F.Y N N / ,.<.<.6.d.d.u.5.p.r.( ~ Z X X O 1 6 e e x.F.F.F.F.F.F.F.F.F.F.F.F.F.F.F.F.F.F.F.F.F.F.F.  ",
"p.p.p.p.p.p.p.p.p.p.p.p.p.p.p.p.p.p.p.p.p.p.p.p.8.8.5.p.( r e ! M.M.g.5.5.r.M.M.0.X X % B u e e 5.p.p.p.p.p.p.p.p.p.p.p.p.p.p.p.p.p.p.p.p.p.p.p.  ",
"p.p.p.p.p.p.p.p.p.p.p.p.p.p.p.p.p.p.p.p.p.p.u.5.5./ N r.>.> e e e r.h.M.M.M.M.M.M.M.~ J 5.i.5.> 4.p.p.d.p.p.p.p.p.p.p.p.p.p.p.p.p.p.p.p.p.p.p.f.  ",
"F.F.F.F.F.F.F.F.F.F.F.F.F.F.F.F.F.F.f.p.D.F.M.3.5.( C p.9.;.i e e C.n.4.4.r.M.M.M.M.9.2.i.j.s.e x.F.F.F.f.p.D.F.F.F.F.F.F.F.F.F.F.F.F.F.F.F.F.F.  ",
"F.F.F.F.F.F.F.F.F.F.F.F.F.F.F.F.F.F.f.p.D.F.M.5.5.( M C 3.F.c e e C.y.= = V M.M.M.n.B.n.M.r.( e x.F.F.F.f.p.D.F.F.F.F.F.F.F.F.F.F.F.F.F.F.F.F.F.  ",
"F.F.F.F.F.F.F.F.F.F.F.F.F.F.F.F.F.F.f.p.D.F.j.A A C B n.S.F.C.t.e C.A.V.u V F.D.A.B.n.M.M.n.e.e x.F.F.F.f.p.D.F.F.F.F.F.F.F.F.F.F.F.F.F.F.F.F.F.  ",
"F.F.F.F.F.F.F.F.F.F.F.F.F.F.F.F.F.F.f.p.D.F.c.T T / 3.S.F.F.F.x.;.S.F.F.:.2.F.F.D.C.C.C.M.M.h.! x.D.F.F.f.p.D.F.F.F.F.F.F.F.F.F.F.F.F.F.F.F.F.F.  ",
"F.F.F.F.F.F.F.F.F.F.F.F.F.F.F.F.F.F.f.p.D.F.M.5.5.f.F.F.F.F.F.F.F.F.F.F.F.F.F.F.F.F.F.D.M.M.M.B.M.C.F.F.f.p.D.F.F.F.F.F.F.F.F.F.F.F.F.F.F.F.F.F.  ",
"F.F.F.F.F.F.F.F.F.F.F.F.F.F.F.F.F.F.f.p.D.) / R S 5.F.F.F.F.F.F.F.F.F.F.F.F.F.F.F.F.F.n.J J ,.n.M.M.B.D.f.p.D.F.F.F.F.F.F.F.F.F.F.F.F.F.F.F.F.F.  ",
"F.F.F.F.F.F.F.F.F.F.F.F.F.F.F.F.F.F.f.p.S.Y Y Y B 3.F.F.F.F.F.F.F.F.F.F.F.F.F.F.F.F.F.n.B B T d.d.g.M.A.j.p.D.F.F.F.F.F.F.F.F.F.F.F.F.F.F.F.F.F.  ",
"F.F.F.F.F.F.F.F.F.F.F.F.F.F.F.F.F.F.f.p.S.B C B B 3.F.F.F.F.F.F.F.F.F.F.F.F.F.F.F.F.F.n.B B B B B ~ M.M.n.p.D.F.F.F.F.F.F.F.F.F.F.F.F.F.F.F.F.F.  ",
"F.F.F.F.F.F.F.F.F.F.F.F.F.F.F.F.F.F.g.p.D.n.n.n.n.C.F.F.F.F.F.F.F.F.F.F.F.F.F.F.F.F.F.A.n.n.v.n.n.B.S.S.j.p.D.F.F.F.F.F.F.F.F.F.F.F.F.F.F.F.F.F.  ",
"F.F.F.F.F.F.F.F.F.F.F.F.F.F.F.F.F.F.f.p.D.F.F.F.F.F.F.F.F.F.F.F.F.F.F.F.F.F.F.F.F.F.F.F.F.F.F.F.F.F.F.F.j.p.D.F.F.F.F.F.F.F.F.F.F.F.F.F.F.F.F.F.  ",
"D.F.F.F.F.F.F.F.F.F.F.F.F.F.F.F.F.F.f.p.D.F.F.F.F.F.F.F.F.F.F.F.F.F.F.F.F.F.F.F.F.F.F.F.F.F.F.F.F.F.F.F.f.p.D.F.F.F.F.F.F.F.F.F.F.F.F.F.F.F.F.F.  ",
"F.F.F.F.F.F.F.F.F.F.F.F.F.F.F.F.F.F.f.p.D.F.F.F.F.F.F.F.F.F.F.F.F.F.F.F.F.F.F.F.F.F.F.F.F.F.F.F.F.F.F.F.f.p.D.F.F.F.F.F.F.F.F.F.F.F.F.F.F.F.F.F.  ",
"F.F.F.F.F.F.F.F.F.F.F.F.F.F.F.F.F.F.f.p.D.F.F.F.F.F.F.F.F.F.F.F.F.F.F.F.F.F.F.F.F.F.F.F.F.F.F.F.F.F.F.F.f.p.D.F.F.F.F.F.F.F.F.F.F.F.F.F.F.F.F.F.  ",
"F.F.F.F.F.F.F.F.F.F.F.F.F.F.F.F.F.F.f.p.D.F.F.F.F.F.F.F.F.F.F.F.F.F.F.F.F.F.F.F.F.F.F.F.F.F.F.F.F.F.F.F.f.p.D.F.F.F.F.F.F.F.F.F.F.F.F.F.F.F.F.F.  ",
"F.F.F.F.F.F.F.F.F.F.F.F.F.F.F.F.F.F.f.p.D.F.F.F.F.F.F.F.F.F.F.F.F.F.F.F.F.F.F.F.F.F.F.F.F.F.F.F.F.F.F.F.f.p.D.F.F.F.F.F.F.F.F.F.F.F.F.F.F.F.F.F.  ",
"F.F.F.F.F.F.F.F.F.F.F.F.F.F.F.F.F.F.f.p.D.F.F.F.F.F.F.F.F.F.F.F.F.F.F.F.F.F.F.F.F.F.F.F.F.F.F.F.F.F.F.F.f.p.D.F.F.F.F.F.F.F.F.F.F.F.F.F.F.F.F.F.  ",
"p.p.p.p.p.p.p.p.p.p.p.p.p.p.p.p.p.p.p.p.p.p.p.p.p.p.p.p.p.p.p.p.p.p.p.p.p.p.p.p.p.p.p.p.p.p.p.p.p.p.p.p.p.p.p.p.p.p.p.p.p.p.p.p.p.p.p.p.p.p.p.p.  ",
"p.p.p.p.p.p.p.p.p.p.p.p.p.p.p.p.p.p.p.p.p.p.p.p.p.p.p.p.p.p.p.p.p.p.p.p.p.p.p.p.p.p.p.p.p.p.p.p.p.p.p.p.p.p.p.p.p.p.p.p.p.p.p.p.p.p.p.p.p.p.p.p.  "
};
