/* XPM */
static char *result[] = {
/* columns rows colors chars-per-pixel */
"72 72 138 2 ",
"   c #040406",
".  c #0F0B0B",
"X  c #120B0A",
"o  c #1A100E",
"O  c #0E0E11",
"+  c #140F11",
"@  c #1A1212",
"#  c #16141E",
"$  c #19191B",
"%  c #221513",
"&  c #241E1D",
"*  c #321F1C",
"=  c #171721",
"-  c #181925",
";  c #131829",
":  c #1B1D2E",
">  c #192526",
",  c #1B2236",
"<  c #1D2339",
"1  c #2B2525",
"2  c #302C2E",
"3  c #262B39",
"4  c #343133",
"5  c #482D29",
"6  c #4B3532",
"7  c #403C3D",
"8  c #483B38",
"9  c #58403C",
"0  c #6A423A",
"q  c #1F2740",
"w  c #222A45",
"e  c #292F46",
"r  c #252E4E",
"t  c #2F3342",
"y  c #2C344A",
"u  c #303647",
"i  c #363A49",
"p  c #3C3F4B",
"a  c #263051",
"s  c #283356",
"d  c #2A365C",
"f  c #353C52",
"g  c #2F3C67",
"h  c #313F6C",
"j  c #3C414F",
"k  c #434344",
"l  c #44454E",
"z  c #4C4748",
"x  c #4A494C",
"c  c #504C4E",
"v  c #4E4E52",
"b  c #515155",
"n  c #595556",
"m  c #56565A",
"M  c #5B5A5D",
"N  c #754840",
"B  c #715B59",
"V  c #464D61",
"C  c #555967",
"Z  c #5D5D64",
"A  c #545969",
"S  c #445179",
"D  c #5C6B6E",
"F  c #636265",
"G  c #656569",
"H  c #6F6668",
"J  c #6A696C",
"K  c #7A6461",
"L  c #616677",
"P  c #666A74",
"I  c #6E6E72",
"U  c #707074",
"Y  c #71737C",
"T  c #7C7B7C",
"R  c #8B594F",
"E  c #91645D",
"W  c #A26557",
"Q  c #A2675B",
"!  c #AE6D5E",
"~  c #886A64",
"^  c #937068",
"/  c #827E7E",
"(  c #8A7E7D",
")  c #AE7164",
"_  c #B97263",
"`  c #B77A6C",
"'  c #BD7C6E",
"]  c #BE7E70",
"[  c #C18679",
"{  c #556185",
"}  c #626B8B",
"|  c #6E7382",
" . c #7B7C82",
".. c #767A88",
"X. c #7B7F8E",
"o. c #6C7491",
"O. c #7C849E",
"+. c #838285",
"@. c #86868B",
"#. c #8C8C8E",
"$. c #878991",
"%. c #8E8E93",
"&. c #888C99",
"*. c #939397",
"=. c #94959B",
"-. c #9A9A9C",
";. c #A18681",
":. c #A69895",
">. c #BC9C95",
",. c #858BA2",
"<. c #9095A6",
"1. c #9D9EA3",
"2. c #9298AD",
"3. c #999CA8",
"4. c #A0A0A2",
"5. c #A4A6AC",
"6. c #ACACAC",
"7. c #ADADB1",
"8. c #B3B3B6",
"9. c #B3B4BA",
"0. c #B9B9BB",
"q. c #C58E83",
"w. c #C69287",
"e. c #C39C94",
"r. c #D7B6AF",
"t. c #BFBFC0",
"y. c #B6BAC8",
"u. c #C0C0C2",
"i. c #C6C6C9",
"p. c #CBCBCD",
"a. c #CDCDD0",
"s. c #D4D4D5",
"d. c #DBDBDD",
"f. c #DEDEE1",
"g. c #E5E5E6",
"h. c #E6E7EA",
"j. c #EBEBEB",
"k. c gray95",
/* pixels */
"k.k.k.k.k.k.k.k.k.k.k.k.k.k.k.k.k.k.k.k.k.k.k.k.k.k.k.k.k.k.k.k.k.k.6.6.k.k.k.k.k.k.k.k.k.k.k.k.k.k.k.k.k.k.k.k.k.k.k.k.k.k.k.k.k.k.k.k.k.k.6.6.",
"k.k.k.k.k.k.k.k.k.k.k.k.k.k.k.k.k.k.k.k.k.k.k.k.k.k.k.k.k.k.k.k.k.k.6.6.k.k.k.k.k.k.k.k.k.k.k.k.k.k.k.k.k.k.k.k.k.k.k.k.k.k.k.k.k.k.k.k.k.k.6.6.",
"k.k.k.k.k.k.k.k.k.k.k.k.k.k.k.k.k.k.k.k.k.k.k.k.k.k.k.k.k.k.k.k.k.k.6.6.k.k.k.k.k.k.k.k.k.k.k.k.k.k.k.k.k.k.k.k.k.k.k.k.k.k.k.k.k.k.k.k.k.k.6.6.",
"k.k.k.k.k.k.k.k.k.k.k.k.k.k.k.k.k.k.k.k.k.k.k.k.k.k.k.k.k.k.k.k.k.k.6.6.k.k.k.k.k.k.k.k.k.k.k.k.k.k.k.k.k.k.k.k.k.k.k.k.k.k.k.k.k.k.k.k.k.k.6.6.",
"k.k.k.k.k.k.k.k.k.k.k.k.k.k.k.k.k.k.k.k.k.k.k.k.k.k.k.k.k.k.k.k.k.k.6.6.k.k.k.k.k.k.k.k.k.k.k.k.k.k.k.k.k.k.k.k.k.k.k.k.k.k.k.k.k.k.k.k.k.k.6.6.",
"k.k.k.k.k.k.k.k.k.k.k.k.k.k.k.k.k.k.k.k.k.k.k.k.k.k.k.k.k.k.k.k.k.k.6.6.k.k.k.k.k.k.k.k.k.k.k.k.k.k.k.k.k.k.k.k.k.k.k.k.k.k.k.k.k.k.k.k.k.k.6.6.",
"k.k.k.k.k.k.k.k.k.k.k.k.k.k.k.k.k.k.k.k.k.k.k.k.k.k.k.k.k.k.k.k.k.k.6.6.k.k.k.k.k.k.k.k.k.k.k.k.k.k.k.k.k.k.k.k.k.k.k.k.k.k.k.k.k.k.k.k.k.k.6.6.",
"k.k.k.k.k.k.k.k.k.k.k.k.k.k.k.k.k.k.k.k.k.k.k.k.k.k.k.k.k.k.k.k.k.k.6.=.s.s.s.s.s.s.g.k.k.k.k.k.k.k.k.k.k.k.k.k.k.k.k.k.k.k.k.k.k.k.k.k.k.k.6.6.",
"k.k.k.k.k.k.k.k.k.k.k.k.k.k.k.k.k.k.k.k.k.k.k.k.k.k.k.k.k.k.k.k.k.k.6.$             F k.k.k.k.k.k.k.k.k.k.k.k.k.k.k.k.k.k.k.k.k.k.k.k.k.k.k.6.6.",
"k.k.k.k.k.k.k.k.k.k.k.k.k.k.k.k.k.k.k.k.k.k.k.k.k.k.k.k.k.k.k.k.k.8.k O     0 0 N N ;.k.k.k.k.k.k.k.k.k.k.k.k.k.k.k.k.k.k.k.k.k.k.k.k.k.k.k.6.6.",
"k.k.k.k.k.k.k.k.k.k.k.k.k.k.k.k.k.k.k.k.k.k.k.k.k.k.k.k.k.k.k.k.k.-.    X o R ! _ Q e.k.k.k.k.k.k.k.k.k.k.k.k.k.k.k.k.k.k.k.k.k.k.k.k.k.k.k.6.6.",
"k.k.k.k.k.k.k.k.k.k.k.k.k.k.k.k.k.k.k.k.k.k.k.k.k.k.k.k.k.k.k.k.k.-.    5 _ > 8 _ > D k.k.k.k.k.k.k.k.k.k.k.k.k.k.k.k.k.k.k.k.k.k.k.k.k.k.k.6.6.",
"k.k.k.k.k.k.k.k.k.k.k.k.k.k.k.k.k.k.k.k.k.k.k.k.k.k.k.k.k.k.k.k.k.-.    6 [ ~ ^ [ ~ :.k.k.k.k.k.k.k.k.k.k.k.k.k.k.k.k.k.k.k.k.k.k.k.k.k.k.k.6.6.",
"k.k.k.k.k.k.k.k.k.k.k.k.k.k.k.k.k.k.k.k.k.k.k.k.k.k.k.k.k.k.k.k.k.-.  o 9 w.w.w.w.w.r.k.k.k.k.k.k.k.k.k.k.k.k.k.k.k.k.k.k.k.k.k.k.k.k.k.k.k.6.6.",
"k.k.k.k.k.k.k.k.k.k.k.k.k.k.k.k.k.k.k.k.k.k.k.k.k.k.k.k.k.k.k.k.k.*.  W ] w.w.w.w.w.r.k.k.k.k.k.k.k.k.k.k.k.k.k.k.k.k.k.k.k.k.k.k.k.k.k.k.k.6.6.",
"k.k.k.k.k.k.k.k.k.k.k.k.k.k.k.k.k.k.k.k.k.k.k.k.k.k.k.k.k.k.k.k.k.-.  W ] w.w.w.w.w.r.k.k.k.k.k.k.k.k.k.k.k.k.k.k.k.k.k.k.k.k.k.k.k.k.k.k.k.6.6.",
"6.6.6.6.6.6.6.6.6.6.6.6.6.6.6.6.6.6.6.6.6.6.6.6.6.6.6.6.6.6.6.6.6.T $ W ' q.w.w.w.w.>.6.6.6.6.6.6.6.6.6.6.6.6.6.6.6.6.6.6.6.6.6.6.6.6.6.6.6.6.6.",
"6.6.6.6.6.6.6.6.6.6.6.6.6.6.6.6.6.6.6.6.6.6.6.6.6.6.6.6.6.6.6.6.6.6.6.` _ _ q.w.w.w.>.6.6.6.6.6.6.6.6.6.6.6.6.6.6.6.6.6.6.6.6.6.6.6.6.6.6.6.6.6.",
"k.k.k.k.k.k.k.k.k.k.k.k.k.k.k.k.6.6.k.k.k.k.k.k.k.k.k.d.8.8.8.8... .#.K E _ ' ] [ ^ ( #.j.k.k.k.k.k.k.k.k.k.6.6.k.k.k.k.k.k.k.k.k.k.k.k.k.k.k.k.",
"k.k.k.k.k.k.k.k.k.k.k.k.k.k.k.k.6.6.k.k.k.k.k.k.k.k.g.i.%.%.%.%.y y v v B ) ) ) ) H Z c d.k.k.k.k.k.k.k.k.k.6.6.k.k.k.k.k.k.k.k.k.k.k.k.k.k.k.k.",
"k.k.k.k.k.k.k.k.k.k.k.k.k.k.k.k.6.6.k.k.k.k.k.k.k.k.%.%.%.%.%.%.y u v v m J G J G b v v d.k.k.k.k.k.k.k.k.k.6.6.k.k.k.k.k.k.k.k.k.k.k.k.k.k.k.k.",
"k.k.k.k.k.k.k.k.k.k.k.k.k.k.k.k.6.6.k.k.k.k.k.k.s.8.%.%.%.%.%.%.y u v v b m M m M v m F f.k.k.k.k.k.k.k.k.k.6.6.k.k.k.k.k.k.k.k.k.k.k.k.k.k.k.k.",
"k.k.k.k.k.k.k.k.k.k.k.k.k.k.k.k.6.6.k.k.k.k.k.k.0.#.%.%.%.%.%.%.y u v v v v v v c v m G a.j.k.k.k.k.k.k.k.k.6.6.k.k.k.k.k.k.k.k.k.k.k.k.k.k.k.k.",
"k.k.k.k.k.k.k.k.k.k.k.k.k.k.k.k.6.6.k.k.k.k.k.k.4.v %.%.%.%.%.%.y u x b v v v v v F D v G -.k.k.k.k.k.k.k.k.6.6.k.k.k.k.k.k.k.k.k.k.k.k.k.k.k.k.",
"k.k.k.k.k.k.k.k.k.k.k.k.k.k.k.k.6.6.k.k.k.k.k.#.J v G G G G C V y w u u p v v l i b Z D n n H g.k.k.k.k.k.k.6.6.k.k.k.k.k.k.k.k.k.k.k.k.k.k.k.k.",
"k.k.k.k.k.k.k.k.k.k.k.k.k.k.k.k.6.6.k.k.k.g.s.v b v v b v x j w w w w w u v v p w l b G x 4 X s.k.k.k.k.k.k.6.6.k.k.k.k.k.k.k.k.k.k.k.k.k.k.k.k.",
"k.k.k.k.k.k.k.k.k.k.k.k.k.k.k.k.6.6.k.k.k./ X v v v x b v w a h h h h h h h h h h v v v @ X X s.k.k.k.k.k.k.6.6.k.k.k.k.k.k.k.k.k.k.k.k.k.k.k.k.",
"k.k.k.k.k.k.k.k.k.k.k.k.k.k.k.k.6.6.k.k.k./ X v v v v x i a g h h h h h h h h h h =.4.4.& 1 x f.k.k.k.k.k.k.6.6.k.k.k.k.k.k.k.k.k.k.k.k.k.k.k.k.",
"k.k.k.k.k.k.k.k.k.k.k.k.k.k.k.k.6.6.k.k.k./ X v v v v j q g h h h h h h h h h h h f.k.k.1 7 %.g.k.k.k.k.k.k.6.6.k.k.k.k.k.k.k.k.k.k.k.k.k.k.k.k.",
"k.k.k.k.k.k.k.k.k.k.k.k.k.k.k.k.6.6.k.k.* % X X 2 v k.5.q q q q q q q q q q q | k.k.k.k.k.p.%.%.8.k.k.k.k.k.6.6.k.k.k.k.k.k.k.k.k.k.k.k.k.k.k.k.",
"k.k.k.k.k.k.k.k.k.k.k.k.k.k.k.k.6.6.k.k.% o X X n 4.k.5.q q q q q q q q q q q | k.k.k.k.k.a.%.%.4.t.j.k.k.k.6.6.k.k.k.k.k.k.k.k.k.k.k.k.k.k.k.k.",
"k.k.k.k.k.k.k.k.k.k.k.k.k.k.k.k.6.6.k.k.X X X X / k.k.5.q q q q q q q q q q q | k.k.k.k.k.a.%.%.%.*.g.k.k.k.6.6.k.k.k.k.k.k.k.k.k.k.k.k.k.k.k.k.",
"k.k.k.k.k.k.k.k.k.k.k.k./ X . / 6.6.t.%.*.c X k.k.k.k.5.q g h h h h h h h h h O.k.k.k.k.k.k.k.-.%.%.g.k.k.k.6.6.k.k.k.k.k.k.k.k.k.k.k.k.k.k.k.k.",
"k.k.k.k.k.k.k.k.k.k.k.k./ . . 9 M 6.u.%.T T / k.k.k.&.L q g h h h h h h h h h { 2.h.k.k.k.k.k.1.@. .8.s.k.k.6.6.k.k.k.k.k.k.k.k.k.k.k.k.k.k.k.k.",
"6.6.6.6.6.6.6.6.6.6.6.6.M X X X X 6.1.%.G #.6.6.6.6.q q q g h h h h h h h h h h h 3.7.7.6.6.6.*.+.G $.-.6.6.6.6.6.6.6.6.6.6.6.6.6.6.6.6.6.6.6.6.",
"6.6.6.6.6.6.6.6.6.6.6.6.6.6.X X X %.%.%.J M v v  .6.q q q q < w q q q q q q q q q 1.5.7.6.6.6.U +.6.*.-.6.6.6.6.6.6.6.6.6.6.6.6.6.6.6.6.6.6.6.6.",
"6.6.k.k.k.k.k.k.k.k.k.k.k.k.O./ / %.%.%.Z m v 1.3.2.s s d s s s s s s s s s s s d ,.y.k.k.k.k.8.i.k.i.s.k.k.k.k.k.k.k.k.k.k.k.k.k.k.k.k.k.k.k.k.",
"6.6.k.k.k.k.k.k.k.k.k.k.k.k.j.k.k.%.%.%.v v v k.2.h h h h h h h h h h h h h h h h h X.k.k.k.k.k.k.k.k.k.k.k.k.k.k.k.k.k.k.k.k.k.k.k.k.k.k.k.k.k.",
"6.6.k.k.k.k.k.k.k.k.k.k.k.k.k.u.%.%.I v v v b a.a.a.h h h h h h h h h w q q g h h q | k.k.k.k.k.k.k.k.k.k.k.k.k.k.k.k.k.k.k.k.k.k.k.k.k.k.k.k.k.",
"6.6.k.k.k.k.k.k.k.k.k.k.k.k.k.u.%.T G v v v v 7.7.7.O.} h h h h d s s : ; ; q g h q V &.g.k.k.k.k.k.k.k.k.k.k.k.k.k.k.k.k.k.k.k.k.k.k.k.k.k.k.k.",
"6.6.k.k.k.k.k.k.k.k.k.k.k.k.k.y.%.J M v v v v %.%.%.a.2.h h h h q q q + X X , a h w < q d.k.k.k.k.k.k.k.k.k.k.k.k.k.k.k.k.k.k.k.k.k.k.k.k.k.k.k.",
"6.6.k.k.k.k.k.k.k.k.k.k.k.k.k.r.%.v v v v I %.%.%.%.%.5.p.S h h w < ; O X X X # w g d q d.k.k.k.k.k.k.k.k.k.k.k.k.k.k.k.k.k.k.k.k.k.k.k.k.k.k.k.",
"6.6.k.k.k.k.k.k.k.k.k.k.k.k.k.8.I v v v %.1.7.%.%.%.%.1.7.,.} h q , ; X X X X = q g d q X.9.k.k.k.k.k.k.k.k.k.k.k.k.k.k.k.k.k.k.k.k.k.k.k.k.k.k.",
"6.6.k.k.k.k.k.k.k.k.k.k.k.k.k.4.v v v v p.a.a.%.%.%.%.%.%.i.<.h w , ; + X X X # q g d q q | k.k.k.k.k.k.k.k.k.k.k.k.k.k.k.k.k.k.k.k.k.k.k.k.k.k.",
"6.6.k.k.k.k.k.k.k.k.k.k.k.k.k.k.k.k.k.k.k.k.k.a.a.a.%.%.%.%.5.a.a.$.; ; # X X = q g d q q | k.k.k.k.k.k.k.k.k.k.k.k.k.k.k.k.k.k.k.k.k.k.k.k.k.k.",
"6.6.k.k.k.k.k.k.k.k.k.k.k.k.k.k.k.k.k.k.k.k.k.I :.a.7.7.7.*.1.7.i.7.Y , # X X + - a r q q | k.k.k.k.k.k.k.k.k.k.k.k.k.k.k.k.k.k.k.k.k.k.k.k.k.k.",
"6.6.k.k.k.k.k.k.k.k.k.k.k.k.k.k.k.k.k.k.k.k.k.X J p.a.a.a.=.%.%.i.a.a.e # X X X X , w q q | k.k.k.k.k.k.k.k.k.k.k.k.k.k.k.k.k.k.k.k.k.k.k.k.k.k.",
"6.6.k.k.k.k.k.k.k.k.k.k.k.k.k.k.k.k.k.k.k.k.k.X X X w L a.a.8.%.&.%.%.i.@.; X X X , q q q q q d.k.k.k.k.k.k.k.k.k.k.k.k.k.k.k.k.k.k.k.k.k.k.k.k.",
"6.6.k.k.k.k.k.k.k.k.k.k.k.k.k.k.k.k.k.k.k.k.k.X X X = j ..O.<.7.7.4.%.6.=.Y I z X = : 3 q q q d.k.k.k.k.k.k.k.k.k.k.k.k.k.k.k.k.k.k.k.k.k.k.k.k.",
"6.6.k.k.k.k.k.k.k.k.k.k.k.k.k.k.k.k.k.k.k.k.k.X X X X $ q g o.a.a.9.%.%.5.a.a.+.X . = w q q q d.k.k.k.k.k.k.k.k.k.k.k.k.k.k.k.k.k.k.k.k.k.k.k.k.",
"6.6.k.k.k.k.k.k.k.k.k.k.k.k.k.k.k.k.k.k.k.k.k.X X X X # q q q q d.g.a.a.a.a.a.a.a.1 X X < q q d.k.k.k.k.k.k.k.k.k.k.k.k.k.k.k.k.k.k.k.k.k.k.k.k.",
"6.6.k.k.k.k.k.k.k.k.k.k.k.k.k.k.k.k.k.k.k.k.k.v c c - > q q q q f.u.Y Y =.a.a.a.p.T J I w q < d.k.k.k.k.k.k.k.k.k.k.k.k.k.k.k.k.k.k.k.k.k.k.k.k.",
"6.6.6.6.6.6.6.6.6.6.6.6.6.6.6.6.6.6.6.6.6.6.6.%.%.%.q q q q q q 1.Y ; ; Z a.a.a.a.a.a.a.f w < 1.6.6.6.6.6.6.6.6.6.6.6.6.6.6.6.6.6.6.6.6.6.6.6.6.",
"6.6.6.6.6.6.6.6.6.6.6.6.6.6.6.6.6.6.6.6.6.-.%.%.I v q q q q A 6.3 ; ; =.6.6.6.0.a.a.a.a.a.u.6.6.6.6.6.6.6.6.6.6.6.6.6.6.6.6.6.6.6.6.6.6.6.6.6.6.",
"k.k.k.k.k.k.k.k.k.k.k.k.k.k.k.k.k.k.6.6.k.u.%.%.I v i C &.&.8.k.t p @.g.k.k.k.j.f.=.5.p.a.s.d.g.g.k.k.k.6.6.k.k.k.k.k.k.k.k.k.k.k.k.k.k.k.k.k.k.",
"k.k.k.k.k.k.k.k.k.k.k.k.k.k.k.k.k.k.6.6.k.u.%.%.I v v #.k.k.k.k.t P k.k.k.k.k.k.k.F  .a.p.s.p.a.d.k.k.k.6.6.k.k.k.k.k.k.k.k.k.k.k.k.k.k.k.k.k.k.",
"k.k.k.k.k.k.k.k.k.k.k.k.k.k.k.k.k.k.6.6.k.4.v v v v k.k.k.k.k.k.k.k.k.k.k.k.k.k.k.F v v @.5.a.a.a.a.j.k.6.6.k.k.k.k.k.k.k.k.k.k.k.k.k.k.k.k.k.k.",
"k.k.k.k.k.k.k.k.k.k.k.k.k.k.k.k.k.k.6.6.k.7.I I @.4.k.k.k.k.k.k.k.k.k.k.k.k.k.k.k.6.+.v @.-.6.d.d.a.f.h.6.6.k.k.k.k.k.k.k.k.k.k.k.k.k.k.k.k.k.k.",
"k.k.k.k.k.k.k.k.k.k.k.k.k.k.k.k.k.k.6.6.k.u.%.%.u.k.k.k.k.k.k.k.k.k.k.k.k.k.k.k.k.k.8.v @.%.%.g.g.p.a.d.6.6.k.k.k.k.k.k.k.k.k.k.k.k.k.k.k.k.k.k.",
"k.k.k.k.k.k.k.k.k.k.k.k.k.k.k.k.k.k.6.6.k.4.v b 4.k.k.k.k.k.k.k.k.k.k.k.k.k.k.k.k.k.8.v v v v d.k.k.k.k.6.6.k.k.k.k.k.k.k.k.k.k.k.k.k.k.k.k.k.k.",
"k.k.k.k.k.k.k.k.k.k.k.k.k.k.k.k.k.k.6.6.7.+.M v 4.k.k.k.k.k.k.k.k.k.k.k.k.k.k.k.k.k.8.v v v c f.k.k.k.k.6.6.k.k.k.k.k.k.k.k.k.k.k.k.k.k.k.k.k.k.",
"k.k.k.k.k.k.k.k.k.k.k.k.k.k.k.k.k.k.6.6.J P G v 4.k.k.k.k.k.k.k.k.k.k.k.k.k.k.k.k.k.8.v v v c d.k.k.k.k.6.6.k.k.k.k.k.k.k.k.k.k.k.k.k.k.k.k.k.k.",
"k.k.k.k.k.k.k.k.k.k.k.k.k.k.k.k.k.k.6.6.b b b v 4.k.k.k.k.k.k.k.k.k.k.k.k.k.k.k.k.k.8.v b v b G *.k.k.k.6.6.k.k.k.k.k.k.k.k.k.k.k.k.k.k.k.k.k.k.",
"k.k.k.k.k.k.k.k.k.k.k.k.k.k.k.k.k.k.6.6.#.#.$.&.r.k.k.k.k.k.k.k.k.k.k.k.k.k.k.k.k.k.p.#.#.#.#.#.8.k.k.k.6.6.k.k.k.k.k.k.k.k.k.k.k.k.k.k.k.k.k.k.",
"k.k.k.k.k.k.k.k.k.k.k.k.k.k.k.k.k.k.6.6.k.k.k.k.k.k.k.k.k.k.k.k.k.k.k.k.k.k.k.k.k.k.k.k.k.k.k.k.k.k.k.k.6.6.k.k.k.k.k.k.k.k.k.k.k.k.k.k.k.k.k.k.",
"k.k.k.k.k.k.k.k.k.k.k.k.k.k.k.k.k.k.6.6.k.k.k.k.k.k.k.k.k.k.k.k.k.k.k.k.k.k.k.k.k.k.k.k.k.k.k.k.k.k.k.k.6.6.k.k.k.k.k.k.k.k.k.k.k.k.k.k.k.k.k.k.",
"k.k.k.k.k.k.k.k.k.k.k.k.k.k.k.k.k.k.6.6.k.k.k.k.k.k.k.k.k.k.k.k.k.k.k.k.k.k.k.k.k.k.k.k.k.k.k.k.k.k.k.k.6.6.k.k.k.k.k.k.k.k.k.k.k.k.k.k.k.k.k.k.",
"k.k.k.k.k.k.k.k.k.k.k.k.k.k.k.k.k.k.6.6.k.k.k.k.k.k.k.k.k.k.k.k.k.k.k.k.k.k.k.k.k.k.k.k.k.k.k.k.k.k.k.k.6.6.k.k.k.k.k.k.k.k.k.k.k.k.k.k.k.k.k.k.",
"k.k.k.k.k.k.k.k.k.k.k.k.k.k.k.k.k.k.6.6.k.k.k.k.k.k.k.k.k.k.k.k.k.k.k.k.k.k.k.k.k.k.k.k.k.k.k.k.k.k.k.k.6.6.k.k.k.k.k.k.k.k.k.k.k.k.k.k.k.k.k.k.",
"k.k.k.k.k.k.k.k.k.k.k.k.k.k.k.k.k.k.6.6.k.k.k.k.k.k.k.k.k.k.k.k.k.k.k.k.k.k.k.k.k.k.k.k.k.k.k.k.k.k.k.k.6.6.k.k.k.k.k.k.k.k.k.k.k.k.k.k.k.k.k.k.",
"6.6.6.6.6.6.6.6.6.6.6.6.6.6.6.6.6.6.6.6.6.6.6.6.6.6.6.6.6.6.6.6.6.6.6.6.6.6.6.6.6.6.6.6.6.6.6.6.6.6.6.6.6.6.6.6.6.6.6.6.6.6.6.6.6.6.6.6.6.6.6.6.",
"6.6.6.6.6.6.6.6.6.6.6.6.6.6.6.6.6.6.6.6.6.6.6.6.6.6.6.6.6.6.6.6.6.6.6.6.6.6.6.6.6.6.6.6.6.6.6.6.6.6.6.6.6.6.6.6.6.6.6.6.6.6.6.6.6.6.6.6.6.6.6.6."
};
