/* XPM */
static char *character_right1705954686[] = {
/* columns rows colors chars-per-pixel */
"36 36 179 2 ",
"   c #0F0B0B",
".  c #120B0A",
"X  c #180F0D",
"o  c #120E12",
"O  c #141014",
"+  c #1E1716",
"@  c #201918",
"#  c #211C1C",
"$  c #121421",
"%  c #171722",
"&  c #131625",
"*  c #131829",
"=  c #161C2F",
"-  c #191B28",
";  c #1A1D2C",
":  c #1C2032",
">  c #192035",
",  c #1D253D",
"<  c #2B2626",
"1  c #2E2827",
"2  c #2E2E2F",
"3  c #332321",
"4  c #312C2C",
"5  c #2A2E3E",
"6  c #3E3837",
"7  c #38383A",
"8  c #543630",
"9  c #1F2740",
"0  c #222944",
"q  c #232D4B",
"w  c #242E4D",
"e  c #2C344B",
"r  c #3F3F41",
"t  c #31374D",
"y  c #343848",
"u  c #33384C",
"i  c #393D4A",
"p  c #263051",
"a  c #263153",
"s  c #283356",
"d  c #293458",
"f  c #2A365B",
"g  c #2E3858",
"h  c #343C52",
"j  c #2C3961",
"k  c #2D3A64",
"l  c #2E3A64",
"z  c #2F3D69",
"x  c #303D6A",
"c  c #313F6C",
"v  c #3A4056",
"b  c #3F465F",
"n  c #3B476F",
"m  c #434344",
"M  c #4A4444",
"N  c #4C4747",
"B  c #42444E",
"V  c #45474F",
"C  c #4E4E52",
"Z  c #41465B",
"A  c #494E5F",
"S  c #505052",
"D  c #505054",
"F  c #535357",
"G  c #585457",
"H  c #545458",
"J  c #56565A",
"K  c #58585C",
"L  c #5A5A5E",
"P  c #5C5C60",
"I  c #5E5E62",
"U  c #565A69",
"Y  c #545A6C",
"T  c #555B6D",
"R  c #585C68",
"E  c #4A5373",
"W  c #666261",
"Q  c #66666A",
"!  c #6C6C6D",
"~  c #606576",
"^  c #6E6E71",
"/  c #6A6C74",
"(  c #6B6D75",
")  c #6E717B",
"_  c #747070",
"`  c #76767A",
"'  c #77777A",
"]  c #7B7A79",
"[  c #84574F",
"{  c #85625B",
"}  c #A26458",
"|  c #906D67",
" . c #9B6E64",
".. c #BB786A",
"X. c #BD7C6E",
"o. c #A57F77",
"O. c #C18679",
"+. c #606A88",
"@. c #6E7382",
"#. c #737682",
"$. c #7B7B82",
"%. c #7E7E83",
"&. c #78809B",
"*. c #858383",
"=. c #848385",
"-. c #878486",
";. c #8C8583",
":. c #838388",
">. c #858589",
",. c #8D8D8F",
"<. c #8F8F92",
"1. c #8E8E93",
"2. c #8F8F94",
"3. c #888C99",
"4. c #919196",
"5. c #929296",
"6. c #949499",
"7. c #97979A",
"8. c #96969B",
"9. c #9B9A9A",
"0. c #9B9B9E",
"q. c #9A9A9F",
"w. c #A58B86",
"e. c #858DA7",
"r. c #9699A4",
"t. c #999BA3",
"y. c #9D9DA1",
"u. c #9D9DA2",
"i. c #A0A0A2",
"p. c #A1A1A2",
"a. c #A0A0A3",
"s. c #A2A2A2",
"d. c #A0A1A7",
"f. c #A4A4A5",
"g. c #A5A5A7",
"h. c #A6A6A7",
"j. c #A7A7AB",
"k. c #ACAAAA",
"l. c #AAAAAC",
"z. c #ACACAC",
"x. c #AEAEAE",
"c. c #AAABB1",
"v. c #ABADB2",
"b. c #B1B1B4",
"n. c #B1B2B5",
"m. c #B3B3B6",
"M. c #B5B5B6",
"N. c #B5B5B9",
"B. c #BABABD",
"V. c #B8B9BF",
"C. c #C69287",
"Z. c #D1AAA1",
"A. c #B7B9C4",
"S. c #BDBDC1",
"D. c #BDBFC5",
"F. c #BEC1C8",
"G. c #C5C5C9",
"H. c #C6C6C8",
"J. c #C9C9CA",
"K. c #CDCDCE",
"L. c #CACCD0",
"P. c #CBCCD1",
"I. c #CDCED2",
"U. c #D2D2D4",
"Y. c #D3D3D4",
"T. c #D6D5D5",
"R. c #DAD7D7",
"E. c #D3D4D8",
"W. c #D8D8D8",
"Q. c #D9D9DA",
"!. c #D8D9DC",
"~. c gray87",
"^. c #DFDFE0",
"/. c #E4E4E3",
"(. c #E5E5E6",
"). c gray91",
"_. c #E9E9EA",
"`. c #EEEEEE",
"'. c gray95",
/* pixels */
"'.'.'.'.'.'.'.'.'.'.'.'.'.'.'.'.'.z.'.'.'.'.'.'.'.'.'.'.'.'.'.'.'.'.'.z.",
"'.'.'.'.'.'.'.'.'.'.'.'.'.'.'.'.'.z.'.'.'.'.'.'.'.'.'.'.'.'.'.'.'.'.'.z.",
"'.'.'.'.'.'.'.'.'.'.'.'.'.'.'.'.'.z.'.'.'.'.'.'.'.'.'.'.'.'.'.'.'.'.'.z.",
"'.'.'.'.'.'.'.'.'.'.'.'.'.'.'.'.'.z.'.'.'.'.'.'.'.'.'.'.'.'.'.'.'.'.'.z.",
"'.'.'.'.'.'.'.'.'.'.'.'.'.'.'.'.'.z.r r r ! '.'.'.'.'.'.'.'.'.'.'.'.'.z.",
"'.'.'.'.'.'.'.'.'.'.'.'.'.'.'.'.'.7   8 } o.'.'.'.'.'.'.'.'.'.'.'.'.'.z.",
"'.'.'.'.'.'.'.'.'.'.'.'.'.'.'.'.'.2 3 {  .! '.'.'.'.'.'.'.'.'.'.'.'.'.z.",
"'.'.'.'.'.'.'.'.'.'.'.'.'.'.'.'.'.2 [ C.C.Z.'.'.'.'.'.'.'.'.'.'.'.'.'.z.",
"z.z.z.z.z.z.z.z.z.z.z.z.z.z.z.z.k.m ..C.C.C.z.z.z.z.z.z.z.z.z.z.z.z.z.z.",
"'.'.'.'.'.'.'.'.z.'.'.'.'.'.Y.K.V.n. .X.O.w.Y.'.'.'.'.z.'.'.'.'.'.'.'.'.",
"'.'.'.'.'.'.'.'.z.'.'.'.'.Q.q.1.U B H | | P p.'.'.'.'.z.'.'.'.'.'.'.'.'.",
"'.'.'.'.'.'.'.'.z.'.'.'.^.q.1.1.U B F H F C ! Q.'.'.'.z.'.'.'.'.'.'.'.'.",
"'.'.'.'.'.'.'.'.z.'.'.'.l.Q %.$.A i V C V F S 9.(.'.'.z.'.'.'.'.'.'.'.'.",
"'.'.'.'.'.'.'.'.z.'.'.'.C C C u s s g Z g =.# . T.'.'.z.'.'.'.'.'.'.'.'.",
"'.'.'.'.'.'.'.'.z.'.'._ C C y l c z c c c /.W G (.'.'.z.'.'.'.'.'.'.'.'.",
"'.'.'.'.'.'.'.'.z.'.R.6 < M.Y q w q w w F.'.'.j.q.^.'.z.'.'.'.'.'.'.'.'.",
"'.'.'.'.'.'.'.'.k.'.;.X M K.n n c c c c e.'.'.G.6.n.'.z.'.'.'.'.'.'.'.'.",
"z.z.z.z.z.z.*.N s.g.] @ ] ~ : p p p p p a c.c.c.2.:.a.l.z.z.z.z.z.z.z.z.",
"z.'.'.'.'.'.l.+ 1 T.&.l.A.n l z z l j l n $.'.'.u.I.Y.'.'.'.'.'.'.'.'.'.",
"z.'.'.'.'.'.'.9.W <.' H ( w z z l f ; 0 z h K.'.'.'.'.'.'.'.'.'.'.'.'.'.",
"z.'.'.'.'.'.'.'.B.-.L S I.T j z s > . o 0 s 3.'.'.'.'.'.'.'.'.'.'.'.'.'.",
"z.'.'.'.'.'.'.'.9.Q S J 7.g.+.n p = . . : k e P.'.'.'.'.'.'.'.'.'.'.'.'.",
"z.'.'.'.'.'.'.'.,.S P 5.1.1.n.E , = $ . - d 0 D.'.'.'.'.'.'.'.'.'.'.'.'.",
"z.'.'.'.'.'.'.'.l.p.F.~.v.y.<.d.#.5 & o . , , @.).'.'.'.'.'.'.'.'.'.'.'.",
"z.'.'.'.'.'.'.'.'.'.'.'.W H.B.6.M.v.= O . % 9 , !.'.'.'.'.'.'.'.'.'.'.'.",
"z.'.'.'.'.'.'.'.'.'.'.'.4 6 1.d.y.5.i.h + o = 5 !.'.'.'.'.'.'.'.'.'.'.'.",
"z.z.z.z.z.z.z.z.k.k.k.p.-.,.V v t.n.N.I.-.8 / t t.z.z.z.z.z.z.z.z.z.z.z.",
"'.'.'.'.'.'.'.'.'.k.'.f.&.W z., 3.) ~ P.P.n.n.b !.'.z.'.'.'.'.'.'.'.'.'.",
"'.'.'.'.'.'.'.'.'.z.'.&.L l.'.P.r.'.R '.!.Y.K.~ Y.'.z.'.'.'.'.'.'.'.'.'.",
"'.'.'.'.'.'.'.'.'.z.Q.5.7.'.'.'.'.'.'.'.'.!.y.G.Y._.z.'.'.'.'.'.'.'.'.'.",
"'.'.'.'.'.'.'.'.'.z.g.K ' '.'.'.'.'.'.'.'.J.C ^ >.Y.M.'.'.'.'.'.'.'.'.'.",
"'.'.'.'.'.'.'.'.'.k.).~.~.'.'.'.'.'.'.'.'.'.~.~.~.`.z.'.'.'.'.'.'.'.'.'.",
"'.'.'.'.'.'.'.'.'.z.'.'.'.'.'.'.'.'.'.'.'.'.'.'.'.'.z.'.'.'.'.'.'.'.'.'.",
"'.'.'.'.'.'.'.'.'.z.'.'.'.'.'.'.'.'.'.'.'.'.'.'.'.'.z.'.'.'.'.'.'.'.'.'.",
"'.'.'.'.'.'.'.'.'.z.'.'.'.'.'.'.'.'.'.'.'.'.'.'.'.'.z.'.'.'.'.'.'.'.'.'.",
"z.z.z.z.z.z.z.z.z.z.z.z.z.z.z.z.z.z.z.z.z.z.z.z.z.z.z.z.z.z.z.z.z.z.z.z."
};
