/* XPM */
static char *enemy_right1706048920[] = {
/* columns rows colors chars-per-pixel */
"73 72 188 2 ",
"   c None",
".  c #3F1C0E",
"X  c #1E2A0E",
"o  c #342A16",
"O  c #253314",
"+  c #2A3917",
"@  c #2B3B18",
"#  c #2A3617",
"$  c #3B3919",
"%  c #333A19",
"&  c #212E11",
"*  c #28292D",
"=  c #3B2D2A",
"-  c #2E2F34",
";  c #323237",
":  c #33343A",
">  c #37393E",
",  c #393C3D",
"<  c #3D3A20",
"1  c #441F10",
"2  c #4F2414",
"3  c #432317",
"4  c #45381A",
"5  c #5A351C",
"6  c #6A331E",
"7  c #64341D",
"8  c #442D26",
"9  c #532F24",
"0  c #48362A",
"q  c #593022",
"w  c #58392F",
"e  c #543927",
"r  c #533B37",
"t  c #653422",
"y  c #6E3620",
"u  c #6A3D2C",
"i  c #743A24",
"p  c #733F2B",
"a  c #7A3F28",
"s  c #793E27",
"d  c #643D30",
"f  c #30421A",
"g  c #354A1D",
"h  c #3A501F",
"j  c #374625",
"k  c #3C5321",
"l  c #3F5129",
"z  c #3E4B33",
"x  c #657A17",
"c  c #445E24",
"v  c #465435",
"b  c #57482D",
"n  c #7D412A",
"m  c #654439",
"M  c #7B4C3A",
"N  c #496527",
"B  c #4E6B29",
"V  c #4A622F",
"C  c #516D2A",
"Z  c #53732C",
"A  c #54673E",
"S  c #5E7A3C",
"D  c #587533",
"F  c #647035",
"G  c #3C3C43",
"H  c #483F42",
"J  c #3F4048",
"K  c #41424A",
"L  c #434447",
"P  c #494A52",
"I  c #57585F",
"U  c #585D59",
"Y  c #505D40",
"T  c #6C5247",
"R  c #7A5141",
"E  c #5C684E",
"W  c #566246",
"Q  c #626A55",
"!  c #677657",
"~  c #617240",
"^  c #6D6E74",
"/  c #747376",
"(  c #79797E",
")  c #6C716A",
"_  c #82452D",
"`  c #884931",
"'  c #864730",
"]  c #82503D",
"[  c #8C5540",
"{  c #865948",
"}  c #955E49",
"|  c #8C6253",
" . c #9B6A57",
".. c #9F705E",
"X. c #956E60",
"o. c #9D7A6E",
"O. c #8E7A72",
"+. c #A67968",
"@. c #73840F",
"#. c #748A17",
"$. c #678345",
"%. c #6A814C",
"&. c #6E8454",
"*. c #76885A",
"=. c #7A935E",
"-. c #73894F",
";. c #75806A",
":. c #7B8969",
">. c #7D8376",
",. c #839F1E",
"<. c #9FB916",
"1. c #8BA113",
"2. c #A3B609",
"3. c #B7CD0B",
"4. c #C6DC0B",
"5. c #ECFF00",
"6. c #818F5F",
"7. c #88857C",
"8. c #8A9977",
"9. c #939B72",
"0. c #9C9878",
"q. c #808F6C",
"w. c #A98578",
"e. c #B08879",
"r. c #8FA276",
"t. c #94A472",
"y. c #7A7B80",
"u. c #908C8C",
"i. c #968B87",
"p. c #8E9685",
"a. c #8F9B80",
"s. c #959D8C",
"d. c #909A84",
"f. c #999594",
"g. c #9B9B9B",
"h. c #959596",
"j. c #818287",
"k. c #AE9288",
"l. c #A49B97",
"z. c #AF958B",
"x. c #97A882",
"c. c #9BA193",
"v. c #A4AD83",
"b. c #A3A89A",
"n. c #ABB899",
"m. c #B4B09A",
"M. c #9A9BA0",
"N. c #AAA7A7",
"B. c #A7ADA0",
"V. c #AAAAA5",
"C. c #ACACAC",
"Z. c #A4A4A7",
"A. c #BFAAA3",
"S. c #B4B9A9",
"D. c #AFB0B3",
"F. c #B5B5B5",
"G. c #BBBABC",
"H. c #AFB1A8",
"J. c #C4A89E",
"K. c #C1AAA1",
"L. c #C2BEBD",
"P. c #CBBBB5",
"I. c #D0BDB5",
"U. c #BBC29C",
"Y. c #B3C59F",
"T. c #B6C2A8",
"R. c #B3C5A0",
"E. c #C0C4BB",
"W. c #C9C9BA",
"Q. c #D0C2BD",
"!. c #C2C8A6",
"~. c #BFBFC1",
"^. c #C3C3C3",
"/. c #C6C6C8",
"(. c #CCCBCB",
"). c #D5CBC6",
"_. c #CAD2C0",
"`. c #D4DACD",
"'. c #D4D4D4",
"]. c #D9DBD6",
"[. c #DBDBDC",
"{. c #E3DCD9",
"}. c #E1DAD7",
"|. c #DEE2D9",
" X c #E6E6E6",
".X c #E9E9E9",
"XX c #E9E8E4",
"oX c #F2F2F2",
/* pixels */
"oXoXoXoXoXoXoXoXoXoXoXoXoXoXoXoXoXoXoXoXoXoXoXoXoXoXoXoXoXoXoXoXoXoXF.C.XXoXoXoXoXoXoXoXoXoXoXoXoXoXoXoXoXoXoXoXoXoXoXoXoXoXoXoXoXoXoXoXoXoXF.C.  ",
"oXoXoXoXoXoXoXoXoXoXoXoXoXoXoXoXoXoXoXoXoXoXoXoXoXoXoXoXoXoXoXoXoXoXF.C..XoXoXoXoXoXoXoXoXoXoXoXoXoXoXoXoXoXoXoXoXoXoXoXoXoXoXoXoXoXoXoXoXoXF.C.  ",
"oXoXoXoXoXoXoXoXoXoXoXoXoXoXoXoXoXoXoXoXoXoXoXoXoXoXoXoXoXoXoXoXoXoXF.C..XoXoXoXoXoXoXoXoXoXoXoXoXoXoXoXoXoXoXoXoXoXoXoXoXoXoXoXoXoXoXoXoXoXF.C.  ",
"oXoXoXoXoXoXoXoXoXoXoXoXoXoXoXoXoXoXoXoXoXoXoXoXoXoXoXoXoXoXoXoXoXoXF.D..XoXoXoXoXoXoXoXoXoXoXoXoXoXoXoXoXoXoXoXoXoXoXoXoXoXoXoXoXoXoXoXoXoXF.C.  ",
".XoXoXoXoXoXoXoXoXoXoXoXoXoXoXoXoXoXoXoXoXoXoXoXoXoXoXoXoXoXoXoXoXoXF.C..XoXoXoXoXoXoXoXoXoXoXoXoXoXoXoXoXoXoXoXoXoXoXoXoXoXoXoXoXoXoXoXoXoXF.C.  ",
"oXoXoXoXoXoXoXoXoXoXoXoXoXoXoXoXoXoXoXoXoXoXoXoXoXoXoXoXoXoXoXoXoXoXF.C..XoXoXoXoXoXoXoXoXoXoXoXoXoXoXoXoXoXoXoXoXoXoXoXoXoXoXoXoXoXoXoXoXoXF.C.  ",
"oXoXoXoXoXoXoXoXoXoXoXoXoXoXoXoXoXoXoXoXoXoXoXoXoXoXoXoXoXoXoXoXoXoXF.C..XoXoXoXoXoXoXoXoXoXoXoXoXoXoXoXoXoXoXoXoXoXoXoXoXoXoXoXoXoXoXoXoXoXG.C.  ",
"oXoXoXoXoXoXoXoXoXoXoXoXoXoXoXoXoXoXoXoXoXoXoXoXoXoXoXoXoXoXoXoXoXoXF.C..XoXoXoXoXoXoXoXoXoXoXoXoXoXoXoXoXoXoXoXoXoXoXoXoXoXoXoXoXoXoXoXoXoXF.C.  ",
"oXoXoXoXoXoXoXoXoXoXoXoXoXoXoXoXoXoXoXoXoXoXoXoXoXoXoXoXoXoXoXoXoXoXF.C..XoXoXoXoXoXoXoXoXoXoXoXoXoXoXoXoXoXoXoXoXoXoXoXoXoXoXoXoXoXoXoXoXoXF.C.  ",
"oXoXoXoXoXoXoXoXoXoXoXoXoXoXoXoXoXoXoXoXoXoXoXoXoXoXoXoXoXoXoXoXoXoXF.C..XoXoXoXoXoXoXoXoXoXoXoXoXoXoXoXoXoXoXoXoXoXoXoXoXoXoXoXoXoXoXoXoXoXF.C.  ",
"oXoXoXoXoXoXoXoXoXoXoXoXoXoXoXoXoXoXoXoXoXoXoXoXoXoXoXoXoXoXoXoXoXoXF.C..XoXoX.Xy.~.oXoXoXoXoXoXoXoXoXoXoXoXoXoXoXoXoXoXoXoXoXoXoXoXoXoXoXoXF.C.  ",
"oXoXoXoXoXoXoXoXoXoXoXoXoXoXoXoXoXoXoXoXoXoXoXoXoXoXoXoXoXoXoXoXoXoXF.C..XoXoX[.P M././.[.oXoXoXoXoXoXoXoXoXoXoXoXoXoXoXoXoXoXoXoXoXoXoXoXoXF.C.  ",
"oXoXoXoXoXoXoXoXoXoXoXoXoXoXoXoXoXoXoXoXoXoXoXoXoXoXoXoXoXoXoXoXoXoXF.C..XoXoX[.- G G G D.oXoXoXoXoXoXoXoXoXoXoXoXoXoXoXoXoXoXoXoXoXoXoXoXoXF.C.  ",
"oXoXoXoXoXoXoXoXoXoXoXoXoXoXoXoXoXoXoXoXoXoXoXoXoXoXoXoXv A $.oXoXoXF.D..XoXoXoX[.^ G G D.oXoXoXoXoXoXoXoXoXoXoXoXoXoXoXoXoXoXoXoXoXoXoXoXoXF.C.  ",
"oXoXoXoXoXoXoXoXoXoXoXoXoXoXoXoXoXoXoXoXoXoXoXoXoXoXoXoX@ g N T.T.T.r.c..XoXoXoXoXy.- G y.~.oXoXoXoXoX|.T..XoXoXoXoXoXoXoXoXoXoXoXoXoXoXoXoXF.C.  ",
"oXoXoXoXoXoXoXoXoXoXoXoXoXoXoXoXoXoXoXoXoXoXoXoXoXoXoXoX+ + + Z Z Z Z :..XoXoXoXoXy.- G G I oXoXoXoXoX_.Z (.oXoXoXoXoXoXoXoXoXoXoXoXoXoXoXoXF.C.  ",
"N.C.C.C.C.C.C.C.C.C.C.C.C.C.C.C.C.C.C.C.C.C.C.C.C.C.C.C.g.Q @ f f f Z D S S d.C.Z.;.V - - z S a.D.C.C.s.Z s.N.C.C.C.C.C.C.C.C.C.C.C.C.C.C.C.C.C.  ",
"N.C.C.C.C.C.C.C.C.C.C.C.C.C.C.C.C.C.C.C.C.C.C.C.C.C.C.C.D.7.E @ @ @ c N Z Z ! >.8.&.B z z z Z *.c.C.a.:.N s.C.C.C.C.C.C.C.C.C.C.C.C.C.C.C.C.C.C.  ",
"oXoXoXoXoXoXoXoXoXoXoXoXoXoXoXoXF.C..XoXoXoXoXoXoXoXoXoXoXoXoX@ @ @ @ c Z Z h f Z Z Z Z Z Z Z Z =.oX=.N @ E.F.C..XoXoXoXoXoXoXoXoXoXoXoXoXoXoXoX  ",
"oXoXoXoXoXoXoXoXoXoXoXoXoXoXoXoXF.C..XoXoXoXoXoXoXoXoXoXoXoXoXoXp.@ @ @ f Z Z B f c Z Z Z Z Z $.N + N N @ E.F.C..XoXoXoXoXoXoXoXoXoXoXoXoXoXoXoX  ",
"oXoXoXoXoXoXoXoXoXoXoXoXoXoXoXoXF.C..XoXoXoXoXoXoXoXoXoXoXoXoXoXT.s.@ @ @ k B B + #.<.<.@.k Z #.,.k k h f T.F.C..XoXoXoXoXoXoXoXoXoXoXoXoXoXoXoX  ",
"oXoXoXoXoXoXoXoXoXoXoXoXoXoXoXoXF.C..XoXoXoXoXoXoXoXoXoXoXoXoXoXoXoX@ @ @ @ c B + <.5.5.@.f Z 3.4.Z g @ @ ^.F.C..XoXoXoXoXoXoXoXoXoXoXoXoXoXoXoX  ",
"oXoXoXoXoXoXoXoXoXoXoXoXoXoXoXoXF.C..XoXoXoXoXoXoXoXoXoXoXoXoXoXoXoXoXp.@ @ + + + 2.5.5.@.@ + 2.3.+ @ E oXoXF.C..XoXoXoXoXoXoXoXoXoXoXoXoXoXoXoX  ",
"oXoXoXoXoXoXoXoXoXoXoXoXoXoXoXoXF.C..XoXoXoXoXoXoXoXoXoXoXoXoXoXoXoXoXE.a.@ @ + + x 1.<.Z k + x @.f @ E oXoXF.C..XoXoXoXoXoXoXoXoXoXoXoXoXoXoXoX  ",
"oXoXoXoXoXoXoXoXoXoXoXoXoXoXoXoXF.C..XoXoXoXoXoXoXoXoXoXoXoXoX{.{.{.{.{.{.@ @ @ @ @ f B Z B f f @ @ v ! oXoXF.C..XoXoXoXoXoXoXoXoXoXoXoXoXoXoXoX  ",
"oXoXoXoXoXoXoXoXoXoXoXoXoXoXoXoXF.C..XoXoXoXoXoXoXoXoXoXoXoXoX' ` ` ` ' ` % O X @ f + @ c Z Z Z V % T.oXoXoXF.C..XoXoXoXoXoXoXoXoXoXoXoXoXoXoXoX  ",
"oXoXoXoXoXoXoXoXoXoXoXoXoXoXoXoXF.C..XoXoXoXoXoXoXx.r.r.r.r.9.F b b _ _ i @ & # r.v & @ g k Z Z *.B.].oXoXoXF.C..XoXoXoXoXoXoXoXoXoXoXoXoXoXoXoX  ",
"oXoXoXoXoXoXoXoXoXoXoXoXoXoXoXoXF.C..XoXoXoX|.|.|.$.Z B B B B B c @ _ a y % & j R.W X @ @ f B Z =.oXoXoXoXoXF.C..XoXoXoXoXoXoXoXoXoXoXoXoXoXoXoX  ",
".XoXoXoXoXoXoXoXoXoXoXoXoXoXoXoXF.C..XoXoXoX$.Z Z Z c @ @ @ @ @ @ @ ` ` ` 6 4 # X X X + @ @ @ c =.oXoXoXoXoXF.C..XoXoXoXoXoXoXoXoXoXoXoXoXoXoXoX  ",
"oXoXoXoXoXoXoXoXoXoXoXoXoXoXoXoXF.C..XoX_.=.Z N g g f @ @ @ @ @ @ @ i n ` _ 4 @ + ! x.& + @ @ f ! oXoXoXoXoXF.C..XoXoXoXoXoXoXoXoXoXoXoXoXoXoXoX  ",
"oXoXoXoXoXoXoXoXoXoXoXoXoXoXoXoXF.C..XXXn.Z B k @ Y E E E E E $ $ $ y n ` ` b $ @ :.r.X j Y + + E oXoXoXoXoXF.C..XoXoXoXoXoXoXoXoXoXoXoXoXoXoXoX  ",
"oXoXoXoXoXoXoXoXoXoXoXoXoXoXoXoXF.C..X!.t.Z f @ @ ].oXoXoXoXoX6 6 6 ` ` ` ' i 7 @ + + X 8.R.X O E oXoXoXoXoXF.C..XoXoXoXoXoXoXoXoXoXoXoXoXoXoXoX  ",
"oXoXoXoXoXoXoXoXoXoXoX).T T O.oXF.m.W.U.v.6.j E E.oXoXoXoXoXoXt i _ ` ` ` ` s 7 q 4 # > U U O + v =.`.oXoXoXF.C..XoXoXoXoXoXoXoXoXoXoXoXoXoXoXoX  ",
"oXoXoXoXoXoXoXoXoXoXoXL.. . m L.H.S.U.n.v.9.E c.oXoXoXoXoXoXoX| ] ' ` ` ` ` s i y 4 < K K , $ # f N n.`.oXoXF.H..XoXoXoXoXoXoXoXoXoXoXoXoXoXoXoX  ",
"C.C.C.C.C.C.C.C.N.C.C.i.. . . . 0.U.U.0.9.9.N.C.C.C.C.C.C.C.C.C.o.` ` ` ` ` ' _ 6 6 q H > : y 4 @ @ N $.C.C.C.C.C.C.C.C.C.C.C.C.C.C.C.C.C.C.C.C.  ",
"N.C.C.C.C.C.C.C.C.C.C.C.f.S B B Z -.9.b.B.Z.D.D.C.C.C.C.C.C.C.C.o.` ` ` ` 6 i 6 6 t t G 9 t 6 O.>.+ @ h S c.C.C.C.C.C.C.C.C.C.C.C.C.C.F.C.C.C.C.  ",
"C.C..XoXoXoXoXoXoXoXoXoXoX&.V Z Z S =.b.T.oXoXoXoXoXoXoXoXoXoXoXI.e.n a _ 6 6 6 6 6 6 8 q p o.I.]./ j f N r.T.T.T.W.oXoXoXoXoXoXoXoXoXoXoXoXoXoX  ",
"C.C..XoXoXoXoXoXoXoXoXoXoXQ j Z Z Z Z f ;.oXoXoXoXoXoXoXoXoXoXoXoXoX6 6 6 6 6 6 6 6 6 6 y R oXoXoXoXE f @ N Z Z Z =.oXoXoXoXoXoXoXoXoXoXoXoXoXoX  ",
"C.C..XoXoXoXoXoXoXoXoXoXoX.XZ.j f f f % ;.oXoXoXoXoXoXoXoXoXoXoXZ.I 1 1 1 1 1 1 1 1 1 1 z.}.oXoXoXoXXX`.].W f f f k $.$.x.oXoXoXoXoXoXoXoXoXoXoX  ",
"C.C..XoXoXoXoXoXoXoXoXoXoXoXT.@ + % o E b.oXoXoXoXoXoXoXoX'.D.D.y.H o 3 2 2 2 2 2 2 2 2 N.oXoXoXoXoXoXoXoXc.Q h h k c c 8.oXoXoXoXoXoXoXoXoXoXoX  ",
"N.C..XoXoXoXoXoXoXoXoXoXoXoXT.% @ o 1 G.|.oXoXoXoXoXoXoXoXg.J K J K * 8 y y 6 y 6 y 6 6 K.oXoXoXoXoXoXoXoXoX_.Z Z N @ @ ;.oXoXoXoXoXoXoXoXoXoXoX  ",
"C.C. XoXoXoXoXoXoXoXoXoXoXoXoXoXT m u.(.{.oXoXoXoXoXD.J J J J J J K * w ` ` ' ' ' i 6 6 H K K F.oXoXoXoXoXoX_.Z g E oXv ;.oXoXoXoXoXoXoXoXoXoXoX  ",
"C.C. XoXoXoXoXoXoXoXoXoXoXoXoXoXl.7.u.H.^. XoXoXoXoXF.K K K K G : > * w ` ` ' ' s y t r K K J y.D.oXoXoXoXoX(.l :.C.oXc.F.oXoXoXoXoXoXoXoXoXoXoX  ",
"C.C..XoXoXoXoXoXoXoXoXoXoXoXoXoX].F.u.u.N.]..XoXoXoXD.K K K K * * * * w ` ` ' _ y y t G K K K K ^ oXoXoXoXoXT.@ T.oXoXoXoXoXoXoXoXoXoXoXoXoXoXoX  ",
"N.C..XoXoXoXoXoXoXoXoXoXoXoXoXoXoX X'.f.N.'..XoXoXI K K K J L * * * * * * ` i y 6 6 t K K K K K K K /.oXoXoXoXoXoXoXoXoXoXoXoXoXoXoXoXoXoXoXoXoX  ",
"C.D..XoXoXoXoXoXoXoXoXoXoXoXoXoXoXoX X~.D.N.[..XoXI K K K , ; * * * * * * ` i 6 6 9 = - G K K K K K ^ Z.oXoXoXoXoXoXoXoXoXoXoXoXoXoXoXoXoXoXoXoX  ",
"C.C..XoXoXoXoXoXoXoXoXoXoXoXoXoXoXoXoX[.L.f.^.'. XI K K J : * * * * * * * _ i 6 6 8 * * G H J K J J K ^ |.oXoXoXoXoXoXoXoXoXoXoXoXoXoXoXoXoXoXoX  ",
"C.C..XoXoXoXoXoXoXoXoXoXoXoXoXoXoXoXoXoX X'.f.u.u.P K J * * * * * * * * * y y 6 6 = * * G G J J J J J J J /.oXoXoXoXoXoXoXoXoXoXoXoXoXoXoXoXoXoX  ",
"C.C..XoXoXoXoXoXoXoXoXoXoXoXoXoXoXoXoXoX.X.XL.N.u.M./ : * * * * * * * 8 d 6 y p A.N.g.* - - - G K J G ; : ^.oXoXoXoXoXoXoXoXoXoXoXoXoXoXoXoXoXoX  ",
"N.C..XoXoXoXoXoXoXoXoXoXoXoXoXoXoXoXoXoXoXoX[.~.f.^.h.; J : * * * * J m ' 6 p | oXoX].H : * * G K J - * * ~.oXoXoXoXoXoXoXoXoXoXoXoXoXoXoXoXoXoX  ",
"C.C..XoXoXoXoXoXoXoXoXoXoXoXoXoXoXoXoXoXoXoXoXXX'.h.u.u.'.y.* * * * oXk.6 6 K.oXoXoXoXoX/ * * G G * * * * ~.oXoXoXoXoXoXoXoXoXoXoXoXoXoXoXoXoXoX  ",
"C.C..XoXoXoXoXoXoXoXoXoXoXoXoXoXoXoXoXoXoXoXe... .M m L l.Z.N.* / ~.oXk.y i.{.oXoXoX X| d q q u m q q 9 q Q.oXoXoXoXoXoXoXoXoXoXoXoXoXoXoXoXoXoX  ",
"C.C.C.C.C.C.C.C.C.C.C.C.C.C.C.C.C.C.C.C.C.D.] ` ` y 9 = / u.N.P y.C.C.O.R C.C.C.C.C.l.y 6 6 y _ _ 6 6 i R f.C.C.C.C.C.C.C.C.C.C.C.C.C.C.C.C.C.C.  ",
"C.C.C.N.C.C.C.C.C.C.C.C.C.C.C.C.C.C.C.C.C.A.] ` ` y 6 6 * * * C.C.C.C.D.C.C.C.C.C.C.l.t 6 y ` ` _ 6 6 R C.H.C.C.C.C.C.C.C.C.C.C.C.C.C.C.C.C.C.C.  ",
"oXoXoXoXoXoXoXoXoXoXoXoXoXoXoXoXoXoXF.C.Q.+.` ` ` y 7 6 ~.~.~.oXoXoXoXoXoXoXoXoXoXK. .a _ _ ` a { Q.Q.).F.C..XoXoXoXoXoXoXoXoXoXoXoXoXoXoXoXoXoX  ",
"oXoXoXoXoXoXoXoXoXoXoXoXoXoXoXoXoXoXF.C.J.' ` ' _ y y 6 oXoXoXoXoXoXoXoXoXoXoXoXoXe.` ` ` ` _ ] w.oXoXoXF.C..XoXoXoXoXoXoXoXoXoXoXoXoXoXoXoXoXoX  ",
"oXoXoXoXoXoXoXoXoXoXoXoXoXoXoXoXoXoXF.C.K.` ` n 6 6 t y oXoXoXoXoXoXoXoXoXoXoXoXoXe.` ` ` ' 6 K.oXoXoXoXF.C..XoXoXoXoXoXoXoXoXoXoXoXoXoXoXoXoXoX  ",
"oXoXoXoXoXoXoXoXoXoXoXoXoXoXoXoXoXoXF.C.K.` ` n 6 6 X.{.oXoXoXoXoXoXoXoXoXoXoXoXoXe.` ` s ] }.XXoXoXoXoXF.C..XoXoXoXoXoXoXoXoXoXoXoXoXoXoXoXoXoX  ",
"oXoXoXoXoXoXoXoXoXoXoXoXoXoXoXoXoXoXG.i.w.` _ i 6 X.K.oXoXoXoXoXoXoXoXoXoXoXoXoXoXe.' a y p K.}.oXoXoXoXF.C..XoXoXoXoXoXoXoXoXoXoXoXoXoXoXoXoXoX  ",
"oXoXoXoXoXoXoXoXoXoXoXoXoXoXoXoXoXoXF.[ ` ` y 6 6 }.oXoXoXoXoXoXoXoXoXoXoXoXoXoXoXe._ 6 6 6 6 K.oXoXoXoXF.C..XoXoXoXoXoXoXoXoXoXoXoXoXoXoXoXoXoX  ",
"oXoXoXoXoXoXoXoXoXoXoXoXoXoXoXoX+.} [ ` n y 6 X.}.oXoXoXoXoXoXoXoXoXoXoXoXoXoXoXoXo.y 6 6 6 t n o.oXoXoXF.C..XoXoXoXoXoXoXoXoXoXoXoXoXoXoXoXoXoX  ",
"oXoXoXoXoXoXoXoXoXoXoXoXoXoXXXz.} ` ` n i 6 6 o.oXoXoXoXoXoXoXoXoXoXoXoXoXoXoXoX.XP.z.z.{ 6 7 6 M k.}.oXF.C..XoXoXoXoXoXoXoXoXoXoXoXoXoXoXoXoXoX  ",
"oXoXoXoXoXoXoXoXoXoXoXoXoXoX).` ` ` ` y 6 6 6 o.oXoXoXoXoXoXoXoXoXoXoXoXoXoXoXoXoXoXoXoXo.6 6 6 6 6 Q.oXF.C..XoXoXoXoXoXoXoXoXoXoXoXoXoXoXoXoXoX  ",
"oXoXoXoXoXoXoXoXoXoXoXoXoXoXoXoXoXoXF.C..XoXoXoXoXoXoXoXoXoXoXoXoXoXoXoXoXoXoXoXoXoXoXoXoXoXoXoXoXoXoXoXF.C..XoXoXoXoXoXoXoXoXoXoXoXoXoXoXoXoXoX  ",
".XoXoXoXoXoXoXoXoXoXoXoXoXoXoXoXoXoXF.C..XoXoXoXoXoXoXoXoXoXoXoXoXoXoXoXoXoXoXoXoXoXoXoXoXoXoXoXoXoXoXoXG.C..XoXoXoXoXoXoXoXoXoXoXoXoXoXoXoXoXoX  ",
"oXoXoXoXoXoXoXoXoXoXoXoXoXoXoXoXoXoXF.C..XoXoXoXoXoXoXoXoXoXoXoXoXoXoXoXoXoXoXoXoXoXoXoXoXoXoXoXoXoXoXoXF.C..XoXoXoXoXoXoXoXoXoXoXoXoXoXoXoXoXoX  ",
"oXoXoXoXoXoXoXoXoXoXoXoXoXoXoXoXoXoXF.C..XoXoXoXoXoXoXoXoXoXoXoXoXoXoXoXoXoXoXoXoXoXoXoXoXoXoXoXoXoXoXoXF.C..XoXoXoXoXoXoXoXoXoXoXoXoXoXoXoXoXoX  ",
"oXoXoXoXoXoXoXoXoXoXoXoXoXoXoXoXoXoXF.C..XoXoXoXoXoXoXoXoXoXoXoXoXoXoXoXoXoXoXoXoXoXoXoXoXoXoXoXoXoXoXoXF.C..XoXoXoXoXoXoXoXoXoXoXoXoXoXoXoXoXoX  ",
"oXoXoXoXoXoXoXoXoXoXoXoXoXoXoXoXoXoXF.C..XoXoXoXoXoXoXoXoXoXoXoXoXoXoXoXoXoXoXoXoXoXoXoXoXoXoXoXoXoXoXoXF.C..XoXoXoXoXoXoXoXoXoXoXoXoXoXoXoXoXoX  ",
"oXoXoXoXoXoXoXoXoXoXoXoXoXoXoXoXoXoXF.C..XoXoXoXoXoXoXoXoXoXoXoXoXoXoXoXoXoXoXoXoXoXoXoXoXoXoXoXoXoXoXoXF.C..XoXoXoXoXoXoXoXoXoXoXoXoXoXoXoXoXoX  ",
"C.C.C.C.C.C.C.C.C.C.C.C.C.C.C.C.C.C.C.C.C.C.C.C.C.C.C.C.C.C.C.C.C.C.C.C.C.C.C.C.C.C.C.C.C.C.C.C.C.C.C.C.C.C.C.C.C.C.C.C.C.C.C.C.C.C.C.C.C.C.C.C.  ",
"N.C.C.C.C.C.C.C.C.C.C.C.C.C.C.C.C.C.C.C.C.C.C.C.C.C.C.C.C.C.C.C.C.C.C.C.C.C.C.C.C.C.C.C.C.C.C.C.C.C.C.C.C.C.C.C.C.C.C.C.C.C.C.C.C.C.C.C.C.C.C.C.  "
};
