/* XPM */
static char *result[] = {
/* columns rows colors chars-per-pixel */
"72 72 177 2 ",
"   c #3F1C0E",
".  c #1D290E",
"X  c #212E10",
"o  c #352915",
"O  c #2A3615",
"+  c #293917",
"@  c #2B3B18",
"#  c #353B1A",
"$  c #3A3919",
"%  c #28292D",
"&  c #3A2C2A",
"*  c #33372A",
"=  c #2D2E33",
"-  c #313236",
";  c #323339",
":  c #383A3C",
">  c #441F10",
",  c #4F2414",
"<  c #463A1C",
"1  c #5A351C",
"2  c #63341E",
"3  c #6A331E",
"4  c #492E25",
"5  c #43312E",
"6  c #4C352E",
"7  c #593123",
"8  c #53352C",
"9  c #483B3A",
"0  c #633321",
"q  c #6E3520",
"w  c #603629",
"e  c #643C2E",
"r  c #6B3C29",
"t  c #703722",
"y  c #733924",
"u  c #793E27",
"i  c #30421A",
"p  c #364A1D",
"a  c #3A501F",
"s  c #3B492A",
"d  c #3D5421",
"f  c #3D4A34",
"g  c #596E19",
"h  c #677811",
"j  c #564825",
"k  c #445E24",
"l  c #425729",
"z  c #445233",
"x  c #475834",
"c  c #70452B",
"v  c #7D4129",
"b  c #6E483B",
"n  c #744838",
"m  c #7B4B38",
"M  c #476226",
"N  c #496527",
"B  c #4E6C2A",
"V  c #516A29",
"C  c #53732C",
"Z  c #4D6134",
"A  c #566C36",
"S  c #59733B",
"D  c #5E7A3C",
"F  c #647034",
"G  c #3D3E45",
"H  c #3F4148",
"J  c #424246",
"K  c #4C4947",
"L  c #41424A",
"P  c #4B4C4E",
"I  c #535E46",
"U  c #58585B",
"Y  c #6A5249",
"T  c #79584C",
"R  c #5D694F",
"E  c #667E46",
"W  c #626F51",
"Q  c #6C775F",
"!  c #5D5D61",
"~  c #656669",
"^  c #757E6A",
"/  c #6D6E74",
"(  c #82442D",
")  c #864830",
"_  c #884931",
"`  c #885745",
"'  c #955E49",
"]  c #8C6353",
"[  c #856458",
"{  c #966A5A",
"}  c #907063",
"|  c #977062",
" . c #9D7A6E",
".. c #867771",
"X. c #A37361",
"o. c #A97D6D",
"O. c #7A8E12",
"+. c #678345",
"@. c #6F8159",
"#. c #788B59",
"$. c #7B935D",
"%. c #75806A",
"&. c #7D8B6C",
"*. c #7C8274",
"=. c #91A40E",
"-. c #9FB916",
";. c #95B019",
":. c #BCCE06",
">. c #B3CA11",
",. c #D7EA04",
"<. c #ECFF00",
"1. c #818F5F",
"2. c #84956A",
"3. c #8D827E",
"4. c #9F877E",
"5. c #889875",
"6. c #8B967C",
"7. c #929A71",
"8. c #A6867B",
"9. c #8FA276",
"0. c #9EA87E",
"q. c #767880",
"w. c #848486",
"e. c #838489",
"r. c #908C8C",
"t. c #9B8D88",
"y. c #8E9685",
"u. c #939C88",
"i. c #8E8F93",
"p. c #989595",
"a. c #AE9288",
"s. c #B79E96",
"d. c #BD9D91",
"f. c #9CAC89",
"g. c #9DA296",
"h. c #A6B08B",
"j. c #A1A59C",
"k. c #AFA29C",
"l. c #ABB99B",
"z. c #9E9EA0",
"x. c #A7A5A5",
"c. c #A7ADA0",
"v. c #A9ABA3",
"b. c #ACACAC",
"n. c #BFAAA2",
"m. c #AFB4A7",
"M. c #B5B8AA",
"N. c #AFB0B3",
"B. c #B1B0B1",
"V. c #B8B7B7",
"C. c #BABABA",
"Z. c #C8B2AA",
"A. c #C6BDB9",
"S. c #BBC29C",
"D. c #B3C4A0",
"F. c #B6C2A8",
"G. c #BEC7B3",
"H. c #C9CEB1",
"J. c #C0C4BB",
"K. c #D0C2BD",
"L. c #BFC0C1",
"P. c #C1C1C3",
"I. c #C6C6C8",
"U. c #CCCCCB",
"Y. c #D8CECB",
"T. c #D7D7CD",
"R. c #D4D4D4",
"E. c #D9DBD7",
"W. c #DADBDB",
"Q. c #E1DAD7",
"!. c #E3DBD9",
"~. c #DEE2D9",
"^. c #E5E6DC",
"/. c #E4E4E4",
"(. c #EAE6E5",
"). c #EAEAE9",
"_. c gray95",
/* pixels */
"_._._._._._._._._._._._._._._._._._._._._._._._._._._._._._._._._._.b.b._._._._._._._._._._._._._._._._._._._._._._._._._._._._._._._._._._.b.b.",
"_._._._._._._._._._._._._._._._._._._._._._._._._._._._._._._._._._.b.b._._._._._._._._._._._._._._._._._._._._._._._._._._._._._._._._._._.b.b.",
"_._._._._._._._._._._._._._._._._._._._._._._._._._._._._._._._._._.b.b._._._._._._._._._._._._._._._._._._._._._._._._._._._._._._._._._._.b.b.",
"_._._._._._._._._._._._._._._._._._._._._._._._._._._._._._._._._._.b.b._._._._._._._._._._._._._._._._._._._._._._._._._._._._._._._._._._.b.b.",
"_._._._._._._._._._._._._._._._._._._._._._._._._._._._._._._._._._.b.b._._._._._._._._._._._._._._._._._._._._._._._._._._._._._._._._._._.b.b.",
"_._._._._._._._._._._._._._._._._._._._._._._._._._._._._._._._._._.b.b._._._._._._._._._._._._._._._._._._._._._._._._._._._._._._._._._._.b.b.",
"_._._._._._._._._._._._._._._._._._._._._._._._._._._._._._._._._._.b.b._._._._._._._._._._._._._._._._._._._._._._._._._._._._._._._._._._.b.b.",
"_._._._._._._._._._._._._._._._._._._._._._._._._._._._._._._._._._.b.b._._._._._._._._._._._._._._._._._._._._._._._._._._._._._._._._._._.b.b.",
"_._._._._._._._._._._._._._._._._._._._._._._._._._._._._._._._._._.b.b._._._._._._._._._._._._._._._._._._._._._._._._._._._._._._._._._._.b.b.",
"_._._._._._._._._._._._._._._._._._._._._._._._._._._._._._._._._._.b.b._._._._._._._._._._._._._._._._._._._._._._._._._._._._._._._._._._.b.b.",
"_._._._._._._._._._._._._._._._._._._._._._._._._._._._._._._._._._.b.b._._._.R.q.R._._._._._._._._._._._._._._._._._._._._._._._._._._._._.b.b.",
"_._._._._._._._._._._._._._._._._._._._._._._._._._._._._._._._._._.b.b._._._.I.P x.I.I.)._._._._._._._._._._._._._._._._._._._._._._._._._.b.b.",
"_._._._._._._._._._._._._._._._._._._._._._._._._._._._._._._._._._.b.b._._._.L.; G G G L.)._._._._._._._._._._._._._._._._._._._._._._._._.b.b.",
"_._._._._._._._._._._._._._._._._._._._._._._._._._._.E.l R $._._._.b.b._._._._.W.U G G L._._._._._._._._._._._._._._._._._._._._._._._._._.b.b.",
"_._._._._._._._._._._._._._._._._._._._._._._._._._._.E.@ d B F.F.F.6.j._._._._._.~ G G i.I._._._._._.~.F.)._._._._._._._._._._._._._._._._.b.b.",
"_._._._._._._._._._._._._._._._._._._._._._._._._._._.E.@ @ i C C C C 6._._._._._.! % G G e._._._._._.F.A W._._._._._._._._._._._._._._._._.b.b.",
"b.b.b.b.b.b.b.b.b.b.b.b.b.b.b.b.b.b.b.b.b.b.b.b.b.b.b.b.g.I @ i i p C S D D g.b.N.E x ; ; f D g.b.b.b.6.C g.b.b.b.b.b.b.b.b.b.b.b.b.b.b.b.b.b.b.",
"b.b.b.b.b.b.b.b.b.b.b.b.b.b.b.b.b.b.b.b.b.b.b.b.b.b.b.b.b.*.I @ @ @ M B C C Q &.y.+.B f f x C 5.u.N.y.@.k g.b.b.b.b.b.b.b.b.b.b.b.b.b.b.b.b.b.b.",
"_._._._._._._._._._._._._._._._.b.b._._._._._._._._._._._._.E.@ @ @ @ k C C s p B C C C C C C C 9._.+.k @ E.b.b._._._._._._._._._._._._._._._._.",
"_._._._._._._._._._._._._._._._.b.b._._._._._._._._._._._._._._.%.@ @ @ p C C N @ N C C C C C C d i B k @ E.b.b._._._._._._._._._._._._._._._._.",
"_._._._._._._._._._._._._._._._.b.b._._._._._._._._._._._._._._.M.&.@ @ i d B N @ O.-.-.g k C ;.O.k d a @ E.b.b._._._._._._._._._._._._._._._._.",
"_._._._._._._._._._._._._._._._.b.b._._._._._._._._._._._._._._._.E.@ @ @ @ N N @ :.<.<.g d C ,.>.C i @ @ E.b.b._._._._._._._._._._._._._._._._.",
"_._._._._._._._._._._._._._._._.b.b._._._._._._._._._._._._._._._._._.%.+ @ @ + + :.<.<.g @ @ ,.-.@ @ %._._.b.b._._._._._._._._._._._._._._._._.",
"_._._._._._._._._._._._._._._._.b.b._._._._._._._._._._._._._._._._._.M.^ @ @ + + O.=.-.g a @ O.h @ @ %._._.b.b._._._._._._._._._._._._._._._._.",
"_._._._._._._._._._._._._._._._.b.b._._._._._._._._._._._._._.!.!.!.!.!.V.@ @ @ @ @ i B C M i i i @ x *._._.b.b._._._._._._._._._._._._._._._._.",
"_._._._._._._._._._._._._._._._.b.b._._._._._._._._._._._._.Q._ _ _ _ _ c @ X X @ @ @ @ N C C C k @ E._._._.b.b._._._._._._._._._._._._._._._._.",
"_._._._._._._._._._._._._._._._.b.b._._._._._._._.9.9.9.9.9.2.F j j _ v 0 + X s 9.s X @ p d C C #.c.)._._._.b.b._._._._._._._._._._._._._._._._.",
"_._._._._._._._._._._._._._._._.b.b._._._._.~.~.~.C C V V V V V d # _ u 1 # X z D.x X @ @ d B C 9._._._._._.b.b._._._._._._._._._._._._._._._._.",
"_._._._._._._._._._._._._._._._.b.b._._._._.C C C C a + @ @ @ @ @ $ _ _ ( q $ + . . X i + @ @ B 9._._._._._.b.b._._._._._._._._._._._._._._._._.",
"_._._._._._._._._._._._._._._._.b.b._._.F.$.C k p p i + @ @ @ @ @ i y v _ v $ @ + &.&.X + @ @ p %._._._._._.b.b._._._._._._._._._._._._._._._._.",
"_._._._._._._._._._._._._._._._.b.b._.^.f.C N a + R R R R R R $ $ < y v _ _ 8 # @ 5.&.. f x + @ %._._._._._.b.b._._._._._._._._._._._._._._._._.",
"_._._._._._._._._._._._._._._._.b.b._.S.2.C @ @ + _._._._._.Q.3 3 3 _ _ _ _ y 1 @ @ @ . f.9.. @ %._._._._._.b.b._._._._._._._._._._._._._._._._.",
"_._._._._._._._._._._.A.Y Y 4._.v.m.H.S.0.1.@ ^ J._._._._._.!.0 v ( _ _ _ _ t 3 1 $ * : U K O + x $.~._._._.b.b._._._._._._._._._._._._._._._._.",
"_._._._._._._._._._._.k.    T A.m.M.S.l.0.7.R v._._._._._._.Q.] ` ) _ _ _ _ v t 3 < $ L H : $ @ d N G.T._._.b.b._._._._._._._._._._._._._._._._.",
"b.b.b.b.b.b.b.b.b.b.b...    >   S.S.S.7.7.7.b.b.b.b.b.b.b.b.b.b.| _ _ _ _ _ ) v 3 3 w H ; 5 3 # @ @ B #.b.b.b.b.b.b.b.b.b.b.b.b.b.b.b.b.b.b.b.b.",
"b.b.b.b.b.b.b.b.b.b.b.x.p.S V N F 1.7.v.v.v.b.b.b.b.b.b.b.b.b.b.| ) _ _ ( 3 t 3 3 q 7 ; 7 2 3 u.^ + i l D j.b.N.b.b.b.b.b.b.b.b.b.b.b.b.b.b.b.b.",
"b.b._._._._._._._._._._._.E M C C +.#.l.U._._._._._._._._._._._.Z.o.v v v 3 3 3 q 3 0 5 0 n o.(.L.%.s p k l.F.F.F.T._._._._._._._._._._._._._._.",
"b.b._._._._._._._._._._._.z d B C C C O y._._._._._._._._._._._._.Q.3 3 3 3 3 3 q 0 3 3 3  ._._._._.z + @ B C C C h._._._._._._._._._._._._._._.",
"b.b._._._._._._._._._._._.E.g.i i i i @ y._._._._._._._._._._._.i.U > > > > > > > > > > n.)._._._._.E.E.E.x i @ i Z +.+.l._._._._._._._._._._._.",
"b.b._._._._._._._._._._._._.c.@ @ O o Q m._._._._._._._._.I.N.N./ G o > , , , , , , , , A._._._._._._._._.&.W d d d k l f._._._._._._._._._._._.",
"b.b._._._._._._._._._._._._.v.+ @ o > R.~._._._._._._._._.e.L L J G % 7 3 3 3 3 3 3 3 3 Y._._._._._._._._._.F.C C d @ @ y._._._._._._._._._._._.",
"b.b._._._._._._._._._._._._._._.> Y r.R./._._._._._.e.L L L H G J G % e _ _ _ _ _ y 3 3 9 L G W._._._._._._.F.C @ y._.@ y._._._._._._._._._._._.",
"b.b._._._._._._._._._._._._._._...3.r.B.I./._._._._.e.L L L G G ; ; % e _ _ _ ( u q q 8 J J L i.L._._._._._.m.d y.G._.y.L._._._._._._._._._._._.",
"b.b._._._._._._._._._._._._._._.R.B.r.r.B.R._._._._.e.L L L G % % % % e _ _ _ ( q q w L L L L L e._._._._._.c.@ _._._._._._._._._._._._._._._._.",
"b.b._._._._._._._._._._._._._._._./.R.r.B.R._._._.L L L L L H % % % % % 5 _ y 3 0 0 w L L L L L H L ~._._._._._._._._._._._._._._._._._._._._._.",
"b.b._._._._._._._._._._._._._._._.).(.V.B.x.!.)._.L L L L : - % % % % % & _ y 3 3 4 & - G L L L H L q.N._._._._._._._._._._._._._._._._._._._._.",
"b.b._._._._._._._._._._._._._._._._._.E.V.p.U.E./.L L L G - % % % % % % & _ y 3 3 & % % G L L L L L L q.W._._._._._._._._._._._._._._._._._._._.",
"b.b._._._._._._._._._._._._._._._._._._./.R.r.r.r.L L G % % % % % % % % & q 0 0 3 & % % G H L L L L L L H ~._._._._._._._._._._._._._._._._._._.",
"b.b._._._._._._._._._._._._._._._._._._.).(.C.x.r.z.! - % % % % % % % 6 e 3 3 ` Z.b.w.% = ; - H L L ; ; - W._._._._._._._._._._._._._._._._._._.",
"b.b._._._._._._._._._._._._._._._._._._._._.R.V.p.U./ ; 9 ; % % % % G b ( 3 n | )._.I.H % % % H H H = % % E._._._._._._._._._._._._._._._._._._.",
"b.b._._._._._._._._._._._._._._._._._._._._._./.Y.r.r.p.R.~ % % % J _. .3 3 K._._._._._.! % % H G % % % % E._._._._._._._._._._._._._._._._._._.",
"b.b._._._._._._._._._._._._._._._._._._._._.X.X.{ m K K z.z.z.% w.U._. .n t.(._._._.Y.] e 7 8 u e 7 7 7 7 E._._._._._._._._._._._._._._._._._._.",
"b.b.b.b.b.b.b.b.b.b.b.b.b.b.b.b.b.b.b.b.b.b._ _ _ q 4 9 / p.p.P r.b.b.} [ b.b.b.b.b.t.3 3 3 y ) u 3 3 t T k.b.b.b.b.b.b.b.b.b.b.b.b.b.b.b.b.b.b.",
"b.b.b.b.b.b.b.b.b.b.b.b.b.b.b.b.b.b.b.b.b.b._ _ _ 3 3 0 % % : b.b.b.b.b.b.n.b.b.b.b.t.3 3 y ) _ v 3 3 [ b.b.b.b.b.b.b.b.b.b.b.b.b.b.b.b.b.b.b.b.",
"_._._._._._._._._._._._._._._._._._.b.b.Z.X._ _ _ 3 3 r P.L.U._._._._._._._._._._.a.{ v ( ) ) y ] K.K.!.b.b._._._._._._._._._._._._._._._._._._.",
"_._._._._._._._._._._._._._._._._._.b.b.d._ _ ) ( 3 3 m _._._._._._._._._._._._._.X._ _ ) ) ( ` s._._._.b.b._._._._._._._._._._._._._._._._._._.",
"_._._._._._._._._._._._._._._._._._.b.b.d._ _ u 3 3 3 n _._._._._._._._._._._._._.X.) _ _ u 3 Q._._._._.b.b._._._._._._._._._._._._._._._._._._.",
"_._._._._._._._._._._._._._._._._._.b.b.d._ _ u 3 3 s.W._._._._._._._._._._._._._.X._ _ y | Q._._._._._.b.b._._._._._._._._._._._._._._._._._._.",
"_._._._._._._._._._._._._._._._._._.b.8.o._ u y 3 o.K._._._._._._._._._._._._._._.X.) u y ] Z.(._._._._.b.b._._._._._._._._._._._._._._._._._._.",
"_._._._._._._._._._._._._._._._._._.b._ _ _ q 0 3 _._._._._._._._._._._._._._._._.X.( 3 3 3 3 W._._._._.b.b._._._._._._._._._._._._._._._._._._.",
"_._._._._._._._._._._._._._._._.' ' ` _ u q 3 8.W._._._._._._._._._._._._._._._._.] q 3 3 3 3 m 8._._._.b.b._._._._._._._._._._._._._._._._._._.",
"_._._._._._._._._._._._._._.Y.d._ _ _ u y 3 3 a._._._._._._._._._._._._._._._._._.n.a.a.m 3 3 3 ` a.(._.b.b._._._._._._._._._._._._._._._._._._.",
"_._._._._._._._._._._._._._.Z._ _ _ _ 3 3 3 3 a._._._._._._._._._._._._._._._._._._._._.] 3 3 3 3 3 Q._.b.b._._._._._._._._._._._._._._._._._._.",
"_._._._._._._._._._._._._._._._._._.b.b._._._._._._._._._._._._._._._._._._._._._._._._._._._._._._._._.b.b._._._._._._._._._._._._._._._._._._.",
"_._._._._._._._._._._._._._._._._._.b.b._._._._._._._._._._._._._._._._._._._._._._._._._._._._._._._._.b.b._._._._._._._._._._._._._._._._._._.",
"_._._._._._._._._._._._._._._._._._.b.b._._._._._._._._._._._._._._._._._._._._._._._._._._._._._._._._.b.b._._._._._._._._._._._._._._._._._._.",
"_._._._._._._._._._._._._._._._._._.b.b._._._._._._._._._._._._._._._._._._._._._._._._._._._._._._._._.b.b._._._._._._._._._._._._._._._._._._.",
"_._._._._._._._._._._._._._._._._._.b.b._._._._._._._._._._._._._._._._._._._._._._._._._._._._._._._._.b.b._._._._._._._._._._._._._._._._._._.",
"_._._._._._._._._._._._._._._._._._.b.b._._._._._._._._._._._._._._._._._._._._._._._._._._._._._._._._.b.b._._._._._._._._._._._._._._._._._._.",
"_._._._._._._._._._._._._._._._._._.b.b._._._._._._._._._._._._._._._._._._._._._._._._._._._._._._._._.b.b._._._._._._._._._._._._._._._._._._.",
"b.b.b.b.b.b.b.b.b.b.b.b.b.b.b.b.b.b.b.b.b.b.b.b.b.b.b.b.b.b.b.b.b.b.b.b.b.b.b.b.b.b.b.b.b.b.b.b.b.b.b.b.b.b.b.b.b.b.b.b.b.b.b.b.b.b.b.b.b.b.b.b.",
"b.b.b.b.b.b.b.b.b.b.b.b.b.b.b.b.b.b.b.b.b.b.b.b.b.b.b.b.b.b.b.b.b.b.b.b.b.b.b.b.b.b.b.b.b.b.b.b.b.b.b.b.b.b.b.b.b.b.b.b.b.b.b.b.b.b.b.b.b.b.b.b."
};
