/* XPM */
static char *enemy_right_11706048920[] = {
/* columns rows colors chars-per-pixel */
"73 72 188 2 ",
"   c None",
".  c #3F1C0E",
"X  c #1E2A0E",
"o  c #212E11",
"O  c #372416",
"+  c #253314",
"@  c #2B3B18",
"#  c #2A3917",
"$  c #333A19",
"%  c #383818",
"&  c #28292D",
"*  c #342C2B",
"=  c #373D25",
"-  c #2E2F33",
";  c #313237",
":  c #33343A",
">  c #37383F",
",  c #3A3938",
"<  c #441F10",
"1  c #4F2414",
"2  c #473A1C",
"3  c #57361C",
"4  c #6A331E",
"5  c #66331E",
"6  c #442D26",
"7  c #4C342D",
"8  c #4B3128",
"9  c #593022",
"0  c #5B392E",
"q  c #563625",
"w  c #4F3C38",
"e  c #6E3620",
"r  c #643626",
"t  c #733924",
"y  c #793E27",
"u  c #7B3F29",
"i  c #713B27",
"p  c #30431A",
"a  c #35491D",
"s  c #384C1F",
"d  c #3A501F",
"f  c #3B4928",
"g  c #3D5521",
"h  c #3D4A33",
"j  c #5B6C12",
"k  c #4D4021",
"l  c #445E24",
"z  c #485F2D",
"x  c #4A483E",
"c  c #445233",
"v  c #49573B",
"b  c #485E30",
"n  c #554B25",
"m  c #654428",
"M  c #7D412A",
"N  c #72422F",
"B  c #734432",
"V  c #7B4835",
"C  c #4E6C2A",
"Z  c #496428",
"A  c #516C2A",
"S  c #53732C",
"D  c #526739",
"F  c #5E7A3C",
"G  c #5A7539",
"H  c #4E6038",
"J  c #637034",
"K  c #3C3D44",
"L  c #3F4048",
"P  c #41424A",
"I  c #49494E",
"U  c #484344",
"Y  c #535E44",
"T  c #494A52",
"R  c #555659",
"E  c #6C5247",
"W  c #7A5141",
"Q  c #5C684E",
"!  c #546242",
"~  c #5D7540",
"^  c #73635D",
"/  c #6A755D",
"(  c #687954",
")  c #647352",
"_  c #676A69",
"`  c #757F69",
"'  c #6D6E74",
"]  c #777577",
"[  c #6B7462",
"{  c #82452D",
"}  c #864830",
"|  c #884931",
" . c #884B35",
".. c #855645",
"X. c #955E49",
"o. c #91614F",
"O. c #8C6353",
"+. c #836053",
"@. c #996856",
"#. c #9E705E",
"$. c #8B6F65",
"%. c #956F60",
"&. c #9D7A6E",
"*. c #8B7972",
"=. c #937E77",
"-. c #A57664",
";. c #A07D70",
":. c #778D15",
">. c #688245",
",. c #798959",
"<. c #7B925B",
"1. c #758168",
"2. c #7D9065",
"3. c #8B9D0C",
"4. c #91A813",
"5. c #9FB916",
"6. c #D4E603",
"7. c #ECFF00",
"8. c #828D5E",
"9. c #808F6C",
"0. c #839765",
"q. c #8B9978",
"w. c #929A72",
"e. c #818977",
"r. c #A6877B",
"t. c #B08879",
"y. c #8FA276",
"u. c #9BA37C",
"i. c #767880",
"p. c #898689",
"a. c #908C8C",
"s. c #988780",
"d. c #8E9685",
"f. c #939888",
"g. c #9B9B9C",
"h. c #949293",
"j. c #8E8F94",
"k. c #AE9288",
"l. c #A19E9E",
"z. c #A89F9C",
"x. c #BA9E93",
"c. c #AD8F84",
"v. c #9BA293",
"b. c #94A480",
"n. c #A2B28F",
"m. c #A5A39A",
"M. c #B4BB94",
"N. c #9D9DA0",
"B. c #A6A5A4",
"V. c #AAA7A7",
"C. c #A7ADA0",
"Z. c #ACACAC",
"A. c #A8AAA5",
"S. c #BFAAA2",
"D. c #B0ADAD",
"F. c #B3BAA6",
"G. c #AFB0B3",
"H. c #B5B5B5",
"J. c #BAB9BA",
"K. c #AFB1A8",
"L. c #C6BAB5",
"P. c #D0BEB6",
"I. c #BAC29B",
"U. c #B6C2A8",
"Y. c #B3C5A0",
"T. c #BCC0B8",
"R. c #C3C7B9",
"E. c #D0C2BD",
"W. c #C9DBB4",
"Q. c #BFBFC1",
"!. c #C6C6C8",
"~. c #CCCCCA",
"^. c #C3C3C3",
"/. c #D8CBC6",
"(. c #CCD1C7",
"). c #D6D6CE",
"_. c #D3D3D3",
"`. c #D9DBD6",
"'. c #DBDBDB",
"]. c #D9D8D3",
"[. c #E4DCD9",
"{. c #E1DAD7",
"}. c #DEE2D9",
"|. c #E4E6DD",
" X c #E4E4E3",
".X c #EAE6E5",
"XX c #E9E9E9",
"oX c #F2F2F2",
/* pixels */
"oXoXoXoXoXoXoXoXoXoXoXoXoXoXoXoXoXoXoXoXoXoXoXoXoXoXoXoXoXoXoXoXoXoXH.Z.XXoXoXoXoXoXoXoXoXoXoXoXoXoXoXoXoXoXoXoXoXoXoXoXoXoXoXoXoXoXoXoXoXoXH.Z.  ",
"oXoXoXoXoXoXoXoXoXoXoXoXoXoXoXoXoXoXoXoXoXoXoXoXoXoXoXoXoXoXoXoXoXoXH.Z.XXoXoXoXoXoXoXoXoXoXoXoXoXoXoXoXoXoXoXoXoXoXoXoXoXoXoXoXoXoXoXoXoXoXH.Z.  ",
"oXoXoXoXoXoXoXoXoXoXoXoXoXoXoXoXoXoXoXoXoXoXoXoXoXoXoXoXoXoXoXoXoXoXH.Z.XXoXoXoXoXoXoXoXoXoXoXoXoXoXoXoXoXoXoXoXoXoXoXoXoXoXoXoXoXoXoXoXoXoXH.Z.  ",
"oXoXoXoXoXoXoXoXoXoXoXoXoXoXoXoXoXoXoXoXoXoXoXoXoXoXoXoXoXoXoXoXoXoXH.Z.XXoXoXoXoXoXoXoXoXoXoXoXoXoXoXoXoXoXoXoXoXoXoXoXoXoXoXoXoXoXoXoXoXoXH.D.  ",
"XXoXoXoXoXoXoXoXoXoXoXoXoXoXoXoXoXoXoXoXoXoXoXoXoXoXoXoXoXoXoXoXoXoXH.Z.XXoXoXoXoXoXoXoXoXoXoXoXoXoXoXoXoXoXoXoXoXoXoXoXoXoXoXoXoXoXoXoXoXoXH.Z.  ",
"oXoXoXoXoXoXoXoXoXoXoXoXoXoXoXoXoXoXoXoXoXoXoXoXoXoXoXoXoXoXoXoXoXoXH.Z.XXoXoXoXoXoXoXoXoXoXoXoXoXoXoXoXoXoXoXoXoXoXoXoXoXoXoXoXoXoXoXoXoXoXH.Z.  ",
"oXoXoXoXoXoXoXoXoXoXoXoXoXoXoXoXoXoXoXoXoXoXoXoXoXoXoXoXoXoXoXoXoXoXH.Z.XXoXoXoXoXoXoXoXoXoXoXoXoXoXoXoXoXoXoXoXoXoXoXoXoXoXoXoXoXoXoXoXoXoXH.Z.  ",
"oXoXoXoXoXoXoXoXoXoXoXoXoXoXoXoXoXoXoXoXoXoXoXoXoXoXoXoXoXoXoXoXoXoXH.Z.XXoXoXoXoXoXoXoXoXoXoXoXoXoXoXoXoXoXoXoXoXoXoXoXoXoXoXoXoXoXoXoXoXoXH.Z.  ",
"oXoXoXoXoXoXoXoXoXoXoXoXoXoXoXoXoXoXoXoXoXoXoXoXoXoXoXoXoXoXoXoXoXoXH.Z.XXoXoXoXoXoXoXoXoXoXoXoXoXoXoXoXoXoXoXoXoXoXoXoXoXoXoXoXoXoXoXoXoXoXH.Z.  ",
"oXoXoXoXoXoXoXoXoXoXoXoXoXoXoXoXoXoXoXoXoXoXoXoXoXoXoXoXoXoXoXoXoXoXH.Z.XXoXoXoXoXoXoXoXoXoXoXoXoXoXoXoXoXoXoXoXoXoXoXoXoXoXoXoXoXoXoXoXoXoXH.Z.  ",
"oXoXoXoXoXoXoXoXoXoXoXoXoXoXoXoXoXoXoXoXoXoXoXoXoXoXoXoXoXoXXXi.Q.oXH.Z.XXoXoXoXoXoXoXoXoXoXoXoXoXoXoXoXoXoXoXoXoXoXoXoXoXoXoXoXoXoXoXoXoXoXH.Z.  ",
"oXoXoXoXoXoXoXoXoXoXoXoXoXoXoXoXoXoXoXoXoXoXoXoXoXoXoXoX!.!.G.T H.oXH.Z.XXoXoXoXoXoXoXoXoXoXoXoXoXoXoXoXoXoXoXoXoXoXoXoXoXoXoXoXoXoXoXoXoXoXH.Z.  ",
"oXoXoXoXoXoXoXoXoXoXoXoXoXoXoXoXoXoXoXoXoXoXoXoXoXoXoXoXL L L : Z.oXH.Z.XXoXoXoXoXoXoXoXoXoXoXoXoXoXoXoXoXoXoXoXoXoXoXoXoXoXoXoXoXoXoXoXoXoXH.Z.  ",
"oXoXoXoXoXoXoXoXoXoXoXoXoXoXoXoXoXoXoXoXoXoXoXoXoXoXoXoXL K T '. XoXH.Z.XXoXoXoXoX2.~ h (.oXoXoXoXoXoXoXoXoXoXoXoXoXoXoXoXoXoXoXoXoXoXoXoXoXH.Z.  ",
"oXoXoXoXoXoXoXoXoXoXoXoXoXoXoXoXoXoXoXU._.oXoXoXoXoX_.G.K : T oXoXoXH.Z.}.U.U.U.U.) g # T.oXoXoXoXoXoXoXoXoXoXoXoXoXoXoXoXoXoXoXoXoXoXoXoXoXH.Z.  ",
"oXoXoXoXoXoXoXoXoXoXoXoXoXoXoXoXoXoXoXS n.oXoXoXoXoXg.L - : T oXoXoXH.Z.`.S S S S g p # T.oXoXoXoXoXoXoXoXoXoXoXoXoXoXoXoXoXoXoXoXoXoXoXoXoXH.D.  ",
"V.Z.Z.Z.Z.Z.Z.Z.Z.Z.Z.Z.Z.Z.Z.Z.Z.Z.Z.S 2.Z.Z.Z.Z.F v : : c G Z.Z.m.F F F S g p p p v g.B.Z.Z.Z.H.Z.Z.Z.Z.Z.Z.Z.Z.Z.Z.Z.Z.Z.Z.Z.Z.Z.Z.Z.Z.Z.Z.Z.  ",
"Z.Z.Z.V.Z.Z.Z.Z.Z.Z.Z.Z.Z.Z.Z.Z.Z.Z.Z.Z ( q.Z.v.q.S b h h b G q.1.` S S A l a @ @ Y [ Z.Z.Z.Z.Z.G.K.Z.Z.Z.Z.Z.Z.Z.Z.Z.Z.Z.Z.Z.Z.Z.D.Z.Z.Z.Z.Z.Z.  ",
"oXoXoXoXoXoXoXoXoXoXoXoXoXoXoXoXH.Z.XX@ g S oXn.S S S S S S S S g f S S C # @ @ @ R.oXoXoXoXoXoXoXoXoXoXoXoXH.Z.XXoXoXoXoXoXoXoXoXoXoXoXoXoXoXoX  ",
"oXoXoXoXoXoXoXoXoXoXoXoXoXoXoXoXH.Z.XX@ g S @ g S S S S S S C @ l S S g @ @ @ Q oXoXoXoXoXoXoXoXoXoXoXoXoXoXH.Z.XXoXoXoXoXoXoXoXoXoXoXoXoXoXoXoX  ",
"oXoXoXoXoXoXoXoXoXoXoXoXoXoXoXoXH.Z.XX@ f g g :.5.S Z g 5.5.4.@ l C g f @ @ / C.oXoXoXoXoXoXoXoXoXoXoXoXoXoXH.Z.XXoXoXoXoXoXoXoXoXoXoXoXoXoXoXoX  ",
"oXoXoXoXoXoXoXoXoXoXoXoXoXoXoXoXH.Z.XX@ @ @ S 5.7.S g @ 7.7.6.@ l C # # # # C.oXoXoXoXoXoXoXoXoXoXoXoXoXoXoXH.Z.XXoXoXoXoXoXoXoXoXoXoXoXoXoXoXoX  ",
"oXoXoXoXoXoXoXoXoXoXoXoXoXoXoXoXH.Z.XXoXd.@ @ 3.7.@ @ @ 7.7.6.p @ @ @ @ c oXoXoXoXoXoXoXoXoXoXoXoXoXoXoXoXoXH.Z.XXoXoXoXoXoXoXoXoXoXoXoXoXoXoXoX  ",
"oXoXoXoXoXoXoXoXoXoXoXoXoXoXoXoXH.Z.XXoXd.@ @ j 3.# a g 5.4.:.@ @ @ @ / v.oXoXoXoXoXoXoXoXoXoXoXoXoXoXoXoXoXH.Z.XXoXoXoXoXoXoXoXoXoXoXoXoXoXoXoX  ",
"oXoXoXoXoXoXoXoXoXoXoXoXoXoXoXoXH.Z.XXoXv.h p p p p g S C f @ @ # # @ m.[.[.[.[.[.oXoXoXoXoXoXoXoXoXoXoXoXoXH.Z.XXoXoXoXoXoXoXoXoXoXoXoXoXoXoXoX  ",
"oXoXoXoXoXoXoXoXoXoXoXoXoXoXoXoXH.Z.XXoXoXoX@ g S S S S # # @ @ o X @ m | | | | | E.oXoXoXoXoXoXoXoXoXoXoXoXH.Z.XXoXoXoXoXoXoXoXoXoXoXoXoXoXoXoX  ",
"oXoXoXoXoXoXoXoXoXoXoXoXoXoXoXoXH.Z.XXoXoXoXC.2.S S Z g # + @ y.v X @ k y | m n J 8.y.y.w.y.y.}.oXoXoXoXoXoXH.K.XXoXoXoXoXoXoXoXoXoXoXoXoXoXoXoX  ",
"oXoXoXoXoXoXoXoXoXoXoXoXoXoXoXoXH.Z.XXoXoXoXoXn.S C g @ # o f Y.! o $ 3 t | k a C C C C A S S U.}.}.oXoXoXoXH.Z.XXoXoXoXoXoXoXoXoXoXoXoXoXoXoXoX  ",
"oXoXoXoXoXoXoXoXoXoXoXoXoXoXoXoXH.Z.XXoXoXoXoXn.S # @ @ @ o X X + $ 4 M | | k @ @ @ @ @ p p S S S S }.oXoXoXH.Z.XXoXoXoXoXoXoXoXoXoXoXoXoXoXoXoX  ",
"XXoXoXoXoXoXoXoXoXoXoXoXoXoXoXoXH.Z.XXoXoXoXoXf.a @ @ # o ( b.+ @ % { } } t 2 @ @ @ @ @ # p a p g S <.n.oXoXH.Z.XXoXoXoXoXoXoXoXoXoXoXoXoXoXoXoX  ",
"oXoXoXoXoXoXoXoXoXoXoXoXoXoXoXoXH.Z.XXoXoXoXoXd.@ # f D X 1.y.@ $ 2 | | { t 2 % % Y Q Q Q Q Q f p Z C y.|.oXH.Z.XXoXoXoXoXoXoXoXoXoXoXoXoXoXoXoX  ",
"oXoXoXoXoXoXoXoXoXoXoXoXoXoXoXoXH.Z.XXoXoXoXoXd.# X 1.W.X + @ @ 3 4 | | | | y 4 4 R.oXoXoXoXoXQ p # C <.I.XXH.Z.XXoXoXoXoXoXoXoXoXoXoXoXoXoXoXoX  ",
"oXoXoXoXoXoXoXoXoXoXoXoXoXoXoXoXH.Z.XXoXoXoX<.D @ + x _ > = # 3 5 4 | | | | { M e ^.oXoXoXoXoX~.v.@ ,.u.I.W.M.V.XXL.E E m.oXoXoXoXoXoXoXoXoXoXoX  ",
"oXoXoXoXoXoXoXoXoXoXoXoXoXoXoXoXH.Z.XXoX}.(.Z g @ % , K P = 2 4 4 y | | | | |  .O./.oXoXoXoXoXoX~.Q w.u.M.I.F.D.^.*.. . s.oXoXoXoXoXoXoXoXoXoXoX  ",
"Z.Z.Z.Z.Z.Z.Z.Z.Z.Z.Z.Z.Z.Z.Z.Z.Z.Z.Z.Z.2.S # @ @ 5 7 - P 0 4 4 M | | } | | | o.Z.Z.Z.D.D.Z.Z.Z.Z.Z.w.w.w.M.I.I.9 < . < ^ Z.Z.Z.Z.Z.D.Z.Z.Z.Z.Z.  ",
"Z.Z.Z.Z.Z.Z.Z.Z.Z.Z.Z.Z.Z.Z.Z.K.Z.Z.Z.F b p # ) v.4 5 r : 9 4 4 4 4 t { | | | o.Z.Z.Z.D.Z.Z.Z.Z.Z.Z.A.A.C.u.8.>.A A Z s.V.Z.Z.Z.Z.Z.Z.D.Z.Z.Z.Z.  ",
"Z.Z. XoXoXoXoXoXoXoXoXoXoXoX}.U.U.U.U.l s @ 1.H.oX&...4 7 9 r 4 4 4 e t M M #.x.oXoXoXoXoXoXoXoXoXoXoX}.C.<.~ S S A l '.oXoXoXoXoXoXoXoXoXoXoXoX  ",
"Z.Z.XXoXoXoXoXoXoXoXoXoXoXoXU.S S S S @ @ # oXoXoXoXk.4 4 4 4 4 4 4 4 4 4 4 S.oXoXoXoXoXoXoXoXoXoXoXoXC.# C S S S l @ `.oXoXoXoXoXoXoXoXoXoXoXoX  ",
"Z.Z.XXoXoXoXoXoXoXoXoXT.>.>.D @ p p p `.`.`.oXoXoXoX.X[.< < . 1 < < < < < < x p.oXoXoXoXoXoXoXoXoXoXoXm.@ p p p p / `.oXoXoXoXoXoXoXoXoXoXoXoXoX  ",
"Z.Z.XXoXoXoXoXoXoXoXoXY.g Z g g g H ` oXoXoXoXoXoXoXoXoX1 1 1 1 1 1 1 1 1 O , R G.G.!.oXoXoXoXoXoXoXoXT.[ = % # @ 1.oXoXoXoXoXoXoXoXoXoXoXoXoXoX  ",
"Z.Z.XXoXoXoXoXoXoXoXoXC.@ @ g S S q.oXoXoXoXoXoXoXoXoXoX4 4 4 4 4 4 4 4 5 & K P P P ' oXoXoXoXoXoXoXoX X_.9 O # @ 1.oXoXoXoXoXoXoXoXoXoXoXoXoXoX  ",
"Z.Z.XXoXoXoXoXoXoXoXoXA.@ `.C.@ C y.oXoXoXoXoXoXoXP P P 4 4 e | | | | | u & : P P P P P P ' oXoXoXoXoX X_.h.^ < `.oXoXoXoXoXoXoXoXoXoXoXoXoXoXoX  ",
"Z.Z. XoXoXoXoXoXoXoXoX~.d. X(.d.Z 9.oXoXoXoXoX!.g.P P P 0 r e y { | | | V & ; : : K P P P ' oXoXoXoX X_.H.a.p.*..XoXoXoXoXoXoXoXoXoXoXoXoXoXoXoX  ",
"Z.Z.XXoXoXoXoXoXoXoXoXoXoXoXoXoXc ` oXoXoXoXoXN.P P P P L 0 5 4 u | | | V & & & & K P P P ' oXoXoXoX`.J.a.a.Z._.XXoXoXoXoXoXoXoXoXoXoXoXoXoXoXoX  ",
"Z.Z.XXoXoXoXoXoXoXoXoXoXoXoXoXoXoXoXoXoXoXoXK L P P P P P 0 4 4 4 e | 7 & & & & & K K P P P P !.oXoX`.J.a.~.'.oXoXoXoXoXoXoXoXoXoXoXoXoXoXoXoXoX  ",
"Z.Z.XXoXoXoXoXoXoXoXoXoXoXoXoXoXoXoXoXoXQ.p.L L P P P P ; * 6 4 4 e } 7 & & & & & - K P P P P !.XX XD.G.J.[.XXoXoXoXoXoXoXoXoXoXoXoXoXoXoXoXoXoX  ",
"Z.Z.XXoXoXoXoXoXoXoXoXoXoXoXoXoXoXoXoX Xj.P L P P P P P & & * 4 4 e } 7 & & & & & & - K P P P J. X~.l.D.'.oXoXoXoXoXoXoXoXoXoXoXoXoXoXoXoXoXoXoX  ",
"Z.Z.XXoXoXoXoXoXoXoXoXoXoXoXoXoXoXoXoXP P P P P P P P P & & * 4 4 4 4 6 & & & & & & & & K K P i.a.a.~.[.oXoXoXoXoXoXoXoXoXoXoXoXoXoXoXoXoXoXoXoX  ",
"Z.Z. XoXoXoXoXoXoXoXoXoXoXoXoXoXoXoXoX- : - L L P : : : & ' V.S.O.e e r 0 & & & & & & & - R N.a.g.J. XXXoXoXoXoXoXoXoXoXoXoXoXoXoXoXoXoXoXoXoXoX  ",
"Z.Z.XXoXoXoXoXoXoXoXoXoXoXoXoXoXoXoXoX& & & K L P & & & P H.oXoXr.V 4 y M > > & & & ; K : R ~.V.B._.XXoXoXoXoXoXoXoXoXoXoXoXoXoXoXoXoXoXoXoXoXoX  ",
"Z.Z.XXoXoXoXoXoXoXoXoXoXoXoXoXoXoXoXoX& & & & K L & & & oXoXoXoXoX`.4 4 B Z._ & & & R _.l.a.a.Q.'.oXoXoXoXoXoXoXoXoXoXoXoXoXoXoXoXoXoXoXoXoXoXoX  ",
"Z.Z.XXoXoXoXoXoXoXoXoXoXoXoXoXoXoXoXoX9 9 9 9 r B 9 9 9 o.L.oXoXoX.XE.%.B Z.!.g.& p.V.z.R U W O.#.-.[.oXoXoXoXoXoXoXoXoXoXoXoXoXoXoXoXoXoXoXoXoX  ",
"Z.Z.Z.Z.Z.Z.Z.Z.Z.Z.Z.Z.Z.Z.Z.Z.Z.Z.Z.W B 4 4 y  .t e 4 4 =.Z.Z.Z.Z.Z.$.+.Z.Z.j.I h.g.] w 6 e { | | z.Z.Z.Z.Z.Z.Z.Z.Z.Z.Z.D.Z.Z.Z.Z.Z.Z.Z.Z.Z.Z.  ",
"Z.Z.Z.Z.Z.Z.Z.Z.Z.Z.Z.Z.Z.Z.Z.Z.Z.Z.Z.Z.$.4 4 y } } y 4 4 =.D.D.Z.Z.Z.Z.Z.Z.Z.Z.Z.I & & 9 4 5 u | | z.Z.Z.Z.Z.Z.Z.Z.Z.Z.Z.Z.Z.Z.Z.Z.Z.Z.Z.Z.Z.Z.  ",
"oXoXoXoXoXoXoXoXoXoXoXoXoXoXoXoXoXoXH.Z././.E.&.t } { { M @.;.oXoXoXoXoXoXoXoXoXoX~.L.Q.W e e M | | -.x.H.Z.XXoXoXoXoXoXoXoXoXoXoXoXoXoXoXoXoXoX  ",
"oXoXoXoXoXoXoXoXoXoXoXoXoXoXoXoXoXoXH.Z.XXoXoXS.O.{ } | | | X.oXoXoXoXoXoXoXoXoXoXoXoXoXO.4 4 u { | | t.H.Z.XXoXoXoXoXoXoXoXoXoXoXoXoXoXoXoXoXoX  ",
"oXoXoXoXoXoXoXoXoXoXoXoXoXoXoXoXoXoXH.Z.XXoXoXoXoX4 y | |  .X.oXoXoXoXoXoXoXoXoXoXoXoXoXo.e 4 4 t | } t.H.D.XXoXoXoXoXoXoXoXoXoXoXoXoXoXoXoXoXoX  ",
"oXoXoXoXoXoXoXoXoXoXoXoXoXoXoXoXoXoXH.Z.XXoXoXoXoX[.r.e |  .X.oXoXoXoXoXoXoXoXoXoXoXoXoX[.L.4 4 t | } t.H.D.XXoXoXoXoXoXoXoXoXoXoXoXoXoXoXoXoXoX  ",
"oXoXoXoXoXoXoXoXoXoXoXoXoXoXoXoXoXoXH.Z.XXoXoXoXoXL.%.4 u } X.oXoXoXoXoXoXoXoXoXoXoXoXoXoX{.&.i e u } -.c.B.XXoXoXoXoXoXoXoXoXoXoXoXoXoXoXoXoXoX  ",
"oXoXoXoXoXoXoXoXoXoXoXoXoXoXoXoXoXoXH.Z.XXoXoXoXXX5 4 4 4 u X.oXoXoXoXoXoXoXoXoXoXoXoXoXoXoXoXo.4 4 { } } z..XoXoXoXoXoXoXoXoXoXoXoXoXoXoXoXoXoX  ",
"oXoXoXoXoXoXoXoXoXoXoXoXoXoXoXoXoXoXH.Z.XXoXoXx.V 4 4 4 4 e V oXoXoXoXoXoXoXoXoXoXoXoXoXoXoXoX.XL.4 4 t | ..X.X.[.oXoXoXoXoXoXoXoXoXoXoXoXoXoXoX  ",
"oXoXoXoXoXoXoXoXoXoXoXoXoXoXoXoXoXoXH.Z.XXoXk.o.4 4 4 4 k.k.x.oXoXoXoXoXoXoXoXoXoXoXoXoXoXoXoXoXP.4 4 e y } | | k.P.oXoXoXoXoXoXoXoXoXoXoXoXoXoX  ",
"XXoXoXoXoXoXoXoXoXoXoXoXoXoXoXoXoXoXH.Z.XXoX4 4 4 4 4 4 oXoXoXoXoXoXoXoXoXoXoXoXoXoXoXoXoXoXoXoXP.4 4 4 4 } | | | t.oXoXoXoXoXoXoXoXoXoXoXoXoXoX  ",
"oXoXoXoXoXoXoXoXoXoXoXoXoXoXoXoXoXoXH.Z.XXoXoXoXoXoXoXoXoXoXoXoXoXoXoXoXoXoXoXoXoXoXoXoXoXoXoXoXoXoXoXoXH.D.XXoXoXoXoXoXoXoXoXoXoXoXoXoXoXoXoXoX  ",
"oXoXoXoXoXoXoXoXoXoXoXoXoXoXoXoXoXoXH.Z.XXoXoXoXoXoXoXoXoXoXoXoXoXoXoXoXoXoXoXoXoXoXoXoXoXoXoXoXoXoXoXoXH.Z.XXoXoXoXoXoXoXoXoXoXoXoXoXoXoXoXoXoX  ",
"oXoXoXoXoXoXoXoXoXoXoXoXoXoXoXoXoXoXH.Z.XXoXoXoXoXoXoXoXoXoXoXoXoXoXoXoXoXoXoXoXoXoXoXoXoXoXoXoXoXoXoXoXH.Z.XXoXoXoXoXoXoXoXoXoXoXoXoXoXoXoXoXoX  ",
"oXoXoXoXoXoXoXoXoXoXoXoXoXoXoXoXoXoXH.Z.XXoXoXoXoXoXoXoXoXoXoXoXoXoXoXoXoXoXoXoXoXoXoXoXoXoXoXoXoXoXoXoXH.Z.XXoXoXoXoXoXoXoXoXoXoXoXoXoXoXoXoXoX  ",
"oXoXoXoXoXoXoXoXoXoXoXoXoXoXoXoXoXoXH.Z.XXoXoXoXoXoXoXoXoXoXoXoXoXoXoXoXoXoXoXoXoXoXoXoXoXoXoXoXoXoXoXoXH.Z.XXoXoXoXoXoXoXoXoXoXoXoXoXoXoXoXoXoX  ",
"oXoXoXoXoXoXoXoXoXoXoXoXoXoXoXoXoXoXH.Z.XXoXoXoXoXoXoXoXoXoXoXoXoXoXoXoXoXoXoXoXoXoXoXoXoXoXoXoXoXoXoXoXH.Z.XXoXoXoXoXoXoXoXoXoXoXoXoXoXoXoXoXoX  ",
"oXoXoXoXoXoXoXoXoXoXoXoXoXoXoXoXoXoXH.Z.XXoXoXoXoXoXoXoXoXoXoXoXoXoXoXoXoXoXoXoXoXoXoXoXoXoXoXoXoXoXoXoXH.Z.XXoXoXoXoXoXoXoXoXoXoXoXoXoXoXoXoXoX  ",
"A.Z.Z.Z.Z.Z.Z.Z.Z.Z.Z.Z.Z.Z.Z.Z.Z.Z.Z.Z.Z.Z.Z.Z.Z.Z.Z.Z.Z.Z.Z.Z.Z.Z.Z.Z.Z.Z.Z.Z.Z.Z.Z.Z.Z.Z.Z.Z.Z.Z.Z.Z.Z.Z.Z.Z.Z.Z.Z.Z.Z.Z.Z.Z.Z.Z.Z.Z.Z.Z.Z.Z.  ",
"Z.Z.Z.Z.Z.Z.Z.Z.Z.Z.Z.Z.Z.Z.Z.Z.Z.Z.Z.Z.Z.Z.Z.Z.Z.Z.Z.Z.Z.Z.Z.Z.Z.Z.Z.Z.Z.Z.Z.Z.Z.G.Z.Z.Z.Z.Z.Z.Z.Z.Z.Z.Z.Z.Z.Z.Z.Z.Z.Z.Z.Z.Z.Z.G.Z.Z.Z.Z.Z.Z.Z.  "
};
