/* XPM */
static char *result[] = {
/* columns rows colors chars-per-pixel */
"72 72 182 2 ",
"   c #3F1C0E",
".  c #1D290E",
"X  c #212E10",
"o  c #352915",
"O  c #263615",
"+  c #2C3616",
"@  c #2A3917",
"#  c #2B3B18",
"$  c #343A1A",
"%  c #3A3919",
"&  c #28292D",
"*  c #392C2A",
"=  c #323628",
"-  c #303236",
";  c #32333A",
":  c #3A3739",
">  c #383A3C",
",  c #441F10",
"<  c #4F2414",
"1  c #423A1B",
"2  c #5B361D",
"3  c #66341D",
"4  c #6A331E",
"5  c #4D2F24",
"6  c #42312E",
"7  c #533126",
"8  c #5A3123",
"9  c #503C3A",
"0  c #633321",
"q  c #6E3620",
"w  c #603729",
"e  c #673D2A",
"r  c #733A24",
"t  c #793E27",
"y  c #643D30",
"u  c #30421A",
"i  c #364A1D",
"p  c #384C1E",
"a  c #3A501F",
"s  c #3A4828",
"d  c #3D5521",
"f  c #3D4A34",
"g  c #5B6C12",
"h  c #57701F",
"j  c #677810",
"k  c #564825",
"l  c #445E24",
"z  c #43582A",
"x  c #434E3C",
"c  c #445233",
"v  c #485A34",
"b  c #72442D",
"n  c #7D4129",
"m  c #6B4436",
"M  c #744737",
"N  c #7B4B38",
"B  c #496527",
"V  c #486328",
"C  c #4E6C2A",
"Z  c #516C29",
"A  c #53732C",
"S  c #566D35",
"D  c #5A733B",
"F  c #5E7A3C",
"G  c #647034",
"H  c #3D3E45",
"J  c #3F4148",
"K  c #434145",
"L  c #41424A",
"P  c #494A4C",
"I  c #534441",
"U  c #535D46",
"Y  c #4A4B52",
"T  c #59595B",
"R  c #6C5147",
"E  c #67544D",
"W  c #7B5142",
"Q  c #5D694F",
"!  c #667C47",
"~  c #677258",
"^  c #5C5D61",
"/  c #656569",
"(  c #757E6A",
")  c #6D6E74",
"_  c #82452D",
"`  c #864A34",
"'  c #884931",
"]  c #865744",
"[  c #955E49",
"{  c #836053",
"}  c #8D6354",
"|  c #87685C",
" . c #986C5B",
".. c #9F705E",
"X. c #8F776E",
"o. c #987263",
"O. c #9D7A6E",
"+. c #867771",
"@. c #A37361",
"#. c #A87D6D",
"$. c #7A8E13",
"%. c #678345",
"&. c #6F8159",
"*. c #788B59",
"=. c #7B935D",
"-. c #75806A",
";. c #7B896B",
":. c #7D8375",
">. c #829A16",
",. c #90A40E",
"<. c #9FB916",
"1. c #96B019",
"2. c #A3B509",
"3. c #BBCE06",
"4. c #B2CB10",
"5. c #D7EA04",
"6. c #ECFF00",
"7. c #818F5F",
"8. c #84956A",
"9. c #858979",
"0. c #899777",
"q. c #929A71",
"w. c #A6867B",
"e. c #8FA276",
"r. c #9EA87E",
"t. c #767880",
"y. c #838489",
"u. c #88898A",
"i. c #908C8C",
"p. c #998E88",
"a. c #8E9685",
"s. c #949C89",
"d. c #8E8E92",
"f. c #989595",
"g. c #989897",
"h. c #A3948E",
"j. c #AE9288",
"k. c #B69385",
"l. c #A39E9C",
"z. c #B69E95",
"x. c #BD9D91",
"c. c #9CAB89",
"v. c #9EA397",
"b. c #AAAE90",
"n. c #A5A49C",
"m. c #ABB89B",
"M. c #9D9DA0",
"N. c #A7A5A6",
"B. c #A7ADA0",
"V. c #A8ABA2",
"C. c #ACACAC",
"Z. c #B7AFA7",
"A. c #BFAAA2",
"S. c #AFB4A7",
"D. c #B4B8A9",
"F. c #B1B0B1",
"G. c #B9B9B9",
"H. c #CAB2A9",
"J. c #C8BEBA",
"K. c #BBC29C",
"L. c #B3C4A0",
"P. c #B6C2A8",
"I. c #C9CEB1",
"U. c #C0C4BB",
"Y. c #D0C2BD",
"T. c #BFC0C1",
"R. c #C1C2C3",
"E. c #C6C6C8",
"W. c #CCCCCA",
"Q. c #D9CECA",
"!. c #D9D7CE",
"~. c #D4D4D4",
"^. c #D9DBD7",
"/. c #DBDADB",
"(. c #E1DAD7",
"). c #E3DBD9",
"_. c #DEE2D9",
"`. c #E5E6DC",
"'. c #E5E5E4",
"]. c #EAE6E5",
"[. c #E9EAE9",
"{. c gray95",
/* pixels */
"{.{.{.{.{.{.{.{.{.{.{.{.{.{.{.{.{.{.{.{.{.{.{.{.{.{.{.{.{.{.{.{.{.{.C.C.{.{.{.{.{.{.{.{.{.{.{.{.{.{.{.{.{.{.{.{.{.{.{.{.{.{.{.{.{.{.{.{.{.{.C.C.",
"{.{.{.{.{.{.{.{.{.{.{.{.{.{.{.{.{.{.{.{.{.{.{.{.{.{.{.{.{.{.{.{.{.{.C.C.{.{.{.{.{.{.{.{.{.{.{.{.{.{.{.{.{.{.{.{.{.{.{.{.{.{.{.{.{.{.{.{.{.{.C.C.",
"{.{.{.{.{.{.{.{.{.{.{.{.{.{.{.{.{.{.{.{.{.{.{.{.{.{.{.{.{.{.{.{.{.{.C.C.{.{.{.{.{.{.{.{.{.{.{.{.{.{.{.{.{.{.{.{.{.{.{.{.{.{.{.{.{.{.{.{.{.{.C.C.",
"{.{.{.{.{.{.{.{.{.{.{.{.{.{.{.{.{.{.{.{.{.{.{.{.{.{.{.{.{.{.{.{.{.{.C.C.{.{.{.{.{.{.{.{.{.{.{.{.{.{.{.{.{.{.{.{.{.{.{.{.{.{.{.{.{.{.{.{.{.{.C.C.",
"{.{.{.{.{.{.{.{.{.{.{.{.{.{.{.{.{.{.{.{.{.{.{.{.{.{.{.{.{.{.{.{.{.{.C.C.{.{.{.{.{.{.{.{.{.{.{.{.{.{.{.{.{.{.{.{.{.{.{.{.{.{.{.{.{.{.{.{.{.{.C.C.",
"{.{.{.{.{.{.{.{.{.{.{.{.{.{.{.{.{.{.{.{.{.{.{.{.{.{.{.{.{.{.{.{.{.{.C.C.{.{.{.{.{.{.{.{.{.{.{.{.{.{.{.{.{.{.{.{.{.{.{.{.{.{.{.{.{.{.{.{.{.{.C.C.",
"{.{.{.{.{.{.{.{.{.{.{.{.{.{.{.{.{.{.{.{.{.{.{.{.{.{.{.{.{.{.{.{.{.{.C.C.{.{.{.{.{.{.{.{.{.{.{.{.{.{.{.{.{.{.{.{.{.{.{.{.{.{.{.{.{.{.{.{.{.{.C.C.",
"{.{.{.{.{.{.{.{.{.{.{.{.{.{.{.{.{.{.{.{.{.{.{.{.{.{.{.{.{.{.{.{.{.{.C.C.{.{.{.{.{.{.{.{.{.{.{.{.{.{.{.{.{.{.{.{.{.{.{.{.{.{.{.{.{.{.{.{.{.{.C.C.",
"{.{.{.{.{.{.{.{.{.{.{.{.{.{.{.{.{.{.{.{.{.{.{.{.{.{.{.{.{.{.{.{.{.{.C.C.{.{.{.{.{.{.{.{.{.{.{.{.{.{.{.{.{.{.{.{.{.{.{.{.{.{.{.{.{.{.{.{.{.{.C.C.",
"{.{.{.{.{.{.{.{.{.{.{.{.{.{.{.{.{.{.{.{.{.{.{.{.{.{.{.{.{.{.{.{.{.{.C.C.{.{.{.{.{.{.{.{.{.{.{.{.{.{.{.{.{.{.{.{.{.{.{.{.{.{.{.{.{.{.{.{.{.{.C.C.",
"{.{.{.{.{.{.{.{.{.{.{.{.{.{.{.{.{.{.{.{.{.{.{.{.{.{.{.{.{.{.~.t.~.{.C.C.{.{.{.{.{.{.{.{.{.{.{.{.{.{.{.{.{.{.{.{.{.{.{.{.{.{.{.{.{.{.{.{.{.{.C.C.",
"{.{.{.{.{.{.{.{.{.{.{.{.{.{.{.{.{.{.{.{.{.{.{.{.{.{.{.[.E.T.N.H T.{.C.C.{.{.{.{.{.{.{.{.{.{.{.{.{.{.{.{.{.{.{.{.{.{.{.{.{.{.{.{.{.{.{.{.{.{.C.C.",
"{.{.{.{.{.{.{.{.{.{.{.{.{.{.{.{.{.{.{.{.{.{.{.{.{.{.{.T.H H H H T.{.C.C.{.{.{.{.{.{.{.{.{.{.{.{.{.{.{.{.{.{.{.{.{.{.{.{.{.{.{.{.{.{.{.{.{.{.C.C.",
"{.{.{.{.{.{.{.{.{.{.{.{.{.{.{.{.{.{.{.{.{.{.{.{.{.{.{.E.H - / /.[.{.C.C.{.{.{.{.{.=.! f ^.{.{.{.{.{.{.{.{.{.{.{.{.{.{.{.{.{.{.{.{.{.{.{.{.{.C.C.",
"{.{.{.{.{.{.{.{.{.{.{.{.{.{.{.{.{.{.[.P./.{.{.{.{.{.E.M.H H / {.{.{.F.C._.P.P.P.P.C d # ^.{.{.{.{.{.{.{.{.{.{.{.{.{.{.{.{.{.{.{.{.{.{.{.{.{.C.C.",
"{.{.{.{.{.{.{.{.{.{.{.{.{.{.{.{.{.{._.S P.{.{.{.{.{.y.H ; ; ^ {.{.{.C.C.P.S A A A u # # ^.{.{.{.{.{.{.{.{.{.{.{.{.{.{.{.{.{.{.{.{.{.{.{.{.{.C.C.",
"C.C.C.C.C.C.C.C.C.C.C.C.C.C.C.C.C.C.n.A 0.C.C.C.n.F x ; - v ! C.C.s.F F D A i u u # Q g.C.C.C.C.C.C.C.C.C.C.C.C.C.C.C.C.C.C.C.C.C.C.C.C.C.C.C.C.",
"C.C.C.C.C.C.C.C.C.C.C.C.C.C.C.C.C.C.v.l &.a.C.s.8.A v f f C F 0.:.-.A A C l u # # U -.C.C.C.C.C.C.C.C.C.C.C.C.C.C.C.C.C.C.C.C.C.C.C.C.C.C.C.C.C.",
"{.{.{.{.{.{.{.{.{.{.{.{.{.{.{.{.C.C.^.# l %.{.e.A A A A A A A A i i A A V @ # # # ^.{.{.{.{.{.{.{.{.{.{.{.{.C.C.{.{.{.{.{.{.{.{.{.{.{.{.{.{.{.{.",
"{.{.{.{.{.{.{.{.{.{.{.{.{.{.{.{.C.C.^.# l C # l A A A A A A V # B A A i @ @ # -.{.{.{.{.{.{.{.{.{.{.{.{.{.{.C.C.{.{.{.{.{.{.{.{.{.{.{.{.{.{.{.{.",
"{.{.{.{.{.{.{.{.{.{.{.{.{.{.{.{.C.C./.# s d l $.1.A B h <.<.$.# B C a u # # 9.D.{.{.{.{.{.{.{.{.{.{.{.{.{.{.C.C.{.{.{.{.{.{.{.{.{.{.{.{.{.{.{.{.",
"{.{.{.{.{.{.{.{.{.{.{.{.{.{.{.{.C.C.^.# # u A 4.5.A p g 6.6.3.@ B B # u # # /.{.{.{.{.{.{.{.{.{.{.{.{.{.{.{.C.C.{.{.{.{.{.{.{.{.{.{.{.{.{.{.{.{.",
"{.{.{.{.{.{.{.{.{.{.{.{.{.{.{.{.C.C.{.{.-.# # 2.5.O # g 6.6.3.O # # # # -.{.{.{.{.{.{.{.{.{.{.{.{.{.{.{.{.{.C.C.{.{.{.{.{.{.{.{.{.{.{.{.{.{.{.{.",
"{.{.{.{.{.{.{.{.{.{.{.{.{.{.{.{.C.C.{.{.-.# # j >.# p Z <.,.$.@ # # # -.D.{.{.{.{.{.{.{.{.{.{.{.{.{.{.{.{.{.C.C.{.{.{.{.{.{.{.{.{.{.{.{.{.{.{.{.",
"{.{.{.{.{.{.{.{.{.{.{.{.{.{.{.{.C.C.{.{.:.v # # u u V C C s @ u @ @ # S.(.(.).).).{.{.{.{.{.{.{.{.{.{.{.{.{.C.C.{.{.{.{.{.{.{.{.{.{.{.{.{.{.{.{.",
"{.{.{.{.{.{.{.{.{.{.{.{.{.{.{.{.C.C.{.{.{.^.# V A A A B @ @ @ @ . X u b ' ' ' ' ' ).{.{.{.{.{.{.{.{.{.{.{.{.C.C.{.{.{.{.{.{.{.{.{.{.{.{.{.{.{.{.",
"{.{.{.{.{.{.{.{.{.{.{.{.{.{.{.{.C.C.{.{.{.[.B.*.A A V i # O f e.s X # 0 n ' k k G 8.e.e.q.e.e.{.{.{.{.{.{.{.C.C.{.{.{.{.{.{.{.{.{.{.{.{.{.{.{.{.",
"{.{.{.{.{.{.{.{.{.{.{.{.{.{.{.{.C.C.{.{.{.{.{.e.A C i @ # X d L.v X $ 2 t ' % a C C C Z Z A A _._._.{.{.{.{.C.C.{.{.{.{.{.{.{.{.{.{.{.{.{.{.{.{.",
"{.{.{.{.{.{.{.{.{.{.{.{.{.{.{.{.C.C.{.{.{.{.{.e.C @ # # # X X X O % 4 _ ' ' $ # # # # # O d A A A A {.{.{.{.C.C.{.{.{.{.{.{.{.{.{.{.{.{.{.{.{.{.",
"{.{.{.{.{.{.{.{.{.{.{.{.{.{.{.{.C.C.{.{.{.{.{.;.i # @ @ X ;.;.O @ 1 _ _ _ r $ # # # # # # u i i l A =.P.{.{.C.C.{.{.{.{.{.{.{.{.{.{.{.{.{.{.{.{.",
"{.{.{.{.{.{.{.{.{.{.{.{.{.{.{.{.C.C.{.{.{.{.{.-.@ @ s v . ;.0.@ $ 1 ' ' _ r % % % U Q Q Q Q Q # d B A c._.{.C.C.{.{.{.{.{.{.{.{.{.{.{.{.{.{.{.{.",
"{.{.{.{.{.{.{.{.{.{.{.{.{.{.{.{.C.C.{.{.{.{.{.-.@ . 0.c.. @ u @ 2 t ' ' ' ' q 4 0 /.{.{.{.{.{.# # u A =.K.{.C.C.{.{.{.{.{.{.{.{.{.{.{.{.{.{.{.{.",
"{.{.{.{.{.{.{.{.{.{.{.{.{.{.{.{.C.C.{.{.{.[.=.z @ @ U T > = % 8 4 q ' ' ' ' _ t 0 ).{.{.{.{.{.T.( # 7.r.K.I.D.Z.{.h.R R Z.{.{.{.{.{.{.{.{.{.{.{.",
"{.{.{.{.{.{.{.{.{.{.{.{.{.{.{.{.C.C.{.{._.P.B i @ % : H L % 1 4 q t ' ' ' ' ' ` } ].{.{.{.{.{.{.V.Q q.c.b.K.D.S.J.R     V.{.{.{.{.{.{.{.{.{.{.{.",
"C.C.C.C.C.C.C.C.C.C.C.C.C.C.C.C.C.C.C.C.*.C @ @ $ 3 6 H L w 4 4 _ ' ' ' ' ' '  .C.C.C.C.C.C.C.C.C.C.q.q.q.K.K.K.        +.C.C.C.C.C.C.C.C.C.C.C.",
"C.C.C.C.C.C.C.C.C.C.C.C.C.C.F.S.C.C.n.F z u + ( i.4 q 7 ; 8 4 4 4 q q _ ' ' ' o.C.C.C.C.C.C.C.C.C.C.V.n.S.q.*.F Z Z S h.n.C.C.C.C.C.C.C.C.C.C.C.",
"C.C.{.{.{.{.{.{.{.{.{.{.{.{.!.P.P.P.m.l i s ( U.].O.N 3 6 0 4 4 4 4 4 t n n #.H.{.{.{.{.{.{.{.{.{.{.{.W.B.*.! A A B D {.{.{.{.{.{.{.{.{.{.{.{.{.",
"C.C.{.{.{.{.{.{.{.{.{.{.{.{.c.A A A C @ # c {.{.{.{.O.4 4 4 4 4 4 4 4 4 4 4 (.{.{.{.{.{.{.{.{.{.{.{.{.a.# A A A A s c {.{.{.{.{.{.{.{.{.{.{.{.{.",
"C.C.{.{.{.{.{.{.{.{.{.m.%.%.v u u u v ^.(.^.{.{.{.{.].V., , , , , , , , , , T d.{.{.{.{.{.{.{.{.{.{.{.a.# i u u u v./.{.{.{.{.{.{.{.{.{.{.{.{.{.",
"C.C.{.{.{.{.{.{.{.{.{.c.d V d d a ~ :.{.{.{.{.{.{.{.{.J.< < < < < , < < , o H ) F.F.E.{.{.{.{.{.{.{.{.Z.~ o + # # b.{.{.{.{.{.{.{.{.{.{.{.{.{.{.",
"C.C.{.{.{.{.{.{.{.{.{.a.# # d A A P.{.{.{.{.{.{.{.{.{.Y.0 4 4 4 q 4 4 4 5 & H L L L y.{.{.{.{.{.{.{.{.'.~., o @ # B.{.{.{.{.{.{.{.{.{.{.{.{.{.{.",
"C.C.{.{.{.{.{.{.{.{.{.s.# {.s.# A P.{.{.{.{.{.{./.L L 9 4 4 r ' ' ' ' ' y & H L L L L L L y.{.{.{.{.{.`.~.i.E   {.{.{.{.{.{.{.{.{.{.{.{.{.{.{.{.",
"C.C.{.{.{.{.{.{.{.{.{.R.a.{.P.f.a D.{.{.{.{.{.P.d.L L K 9 q q t ' ' ' ' y & - H H L L L L y.{.{.{.{.'.W.C.i.u.X.{.{.{.{.{.{.{.{.{.{.{.{.{.{.{.{.",
"C.C.{.{.{.{.{.{.{.{.{.{.{.{.{.{.u n.{.{.{.{.{.y.L L L L L w 4 4 _ ' ' ' w & & & & H L L L y.{.{.{.{.~.F.i.i.F.~.{.{.{.{.{.{.{.{.{.{.{.{.{.{.{.{.",
"C.C.{.{.{.{.{.{.{.{.{.{.{.{.{.{.{.{.{.{.{.'.J J L L L L J 8 4 4 4 q ' 6 & & & & & H H H H L L {.{.{.~.F.i.~.'.{.{.{.{.{.{.{.{.{.{.{.{.{.{.{.{.{.",
"C.C.{.{.{.{.{.{.{.{.{.{.{.{.{.{.{.{.{.{.F.t.J J L L L H ; * 5 4 4 r ' 6 & & & & & - H H L L L {.]./.N.F.G.].[.{.{.{.{.{.{.{.{.{.{.{.{.{.{.{.{.{.",
"C.C.{.{.{.{.{.{.{.{.{.{.{.{.{.{.{.{.{./.t.L L L L L H H & & * 4 4 q _ 6 & & & & & & - H L L L ]./.W.f.G./.{.{.{.{.{.{.{.{.{.{.{.{.{.{.{.{.{.{.{.",
"C.C.{.{.{.{.{.{.{.{.{.{.{.{.{.{.{.{./.L L L L L L L J H & & * 4 4 4 4 * & & & & & & & & H L L d.i.i.~.'.{.{.{.{.{.{.{.{.{.{.{.{.{.{.{.{.{.{.{.{.",
"C.C.{.{.{.{.{.{.{.{.{.{.{.{.{.{.{.{./.- ; ; L L J ; ; - & d.N.H.N 0 4 e 6 & & & & & & & - ^ M.i.N.G.].[.{.{.{.{.{.{.{.{.{.{.{.{.{.{.{.{.{.{.{.{.",
"C.C.{.{.{.{.{.{.{.{.{.{.{.{.{.{.{.{./.& & & H J H & & ; J T.{.{.O.t 4 n m > & & & & - H ; ) W.f.F./.{.{.{.{.{.{.{.{.{.{.{.{.{.{.{.{.{.{.{.{.{.{.",
"C.C.{.{.{.{.{.{.{.{.{.{.{.{.{.{.{.{./.& & & & H J & & T {.{.{.{.{.Y.q 4 { C.K & & & / ^.f.i.i.~.'.{.{.{.{.{.{.{.{.{.{.{.{.{.{.{.{.{.{.{.{.{.{.{.",
"C.C.{.{.{.{.{.{.{.{.{.{.{.{.{.{.{.{./.8 8 8 8 e M 8 8 e [ Q.{.{.{.].Y.] { C.T.i.& f.C.l.Y I N  ...@.{.{.{.{.{.{.{.{.{.{.{.{.{.{.{.{.{.{.{.{.{.{.",
"C.C.C.C.C.C.C.C.C.C.C.C.C.C.C.C.C.C.l.W b 4 q n _ r q 4 4 p.C.C.C.C.C.| X.C.C.y.P N.f.) * 5 q ' ' ' C.C.C.C.C.C.C.C.C.C.C.C.C.C.C.C.C.C.C.C.C.C.",
"C.C.C.C.C.C.C.C.C.C.C.C.C.C.C.C.C.C.C.C.{ 4 4 n ' ' r 4 q p.C.C.C.C.C.C.C.C.C.C.C.> & & 0 4 4 _ ' ' C.C.C.C.C.C.C.C.C.C.C.C.C.C.C.C.C.C.C.C.C.C.",
"{.{.{.{.{.{.{.{.{.{.{.{.{.{.{.{.{.{.C.C.Q.J.Y.o.r ' _ _ _  .k.{.{.{.{.{.{.{.{.{.{.T.R.U.N 4 4 ' ' ' @.H.C.C.{.{.{.{.{.{.{.{.{.{.{.{.{.{.{.{.{.{.",
"{.{.{.{.{.{.{.{.{.{.{.{.{.{.{.{.{.{.C.C.{.{.{.j.} _ _ ' ' ' @.{.{.{.{.{.{.{.{.{.{.{.{.{.N 4 4 _ _ ' ' x.C.C.{.{.{.{.{.{.{.{.{.{.{.{.{.{.{.{.{.{.",
"{.{.{.{.{.{.{.{.{.{.{.{.{.{.{.{.{.{.C.C.{.{.{.{.(.q n _ ' ' @.{.{.{.{.{.{.{.{.{.{.{.{.{.N 4 4 4 t ' ' x.C.C.{.{.{.{.{.{.{.{.{.{.{.{.{.{.{.{.{.{.",
"{.{.{.{.{.{.{.{.{.{.{.{.{.{.{.{.{.{.C.C.{.{.{.{.{.(.o.r ' ' @.{.{.{.{.{.{.{.{.{.{.{.{.{.(.z.4 4 t ' ' x.C.F.{.{.{.{.{.{.{.{.{.{.{.{.{.{.{.{.{.{.",
"{.{.{.{.{.{.{.{.{.{.{.{.{.{.{.{.{.{.C.C.{.{.{.{.].A.} q t ' @.{.{.{.{.{.{.{.{.{.{.{.{.{.{.Y.O.4 r n ' #.w.C.{.{.{.{.{.{.{.{.{.{.{.{.{.{.{.{.{.{.",
"{.{.{.{.{.{.{.{.{.{.{.{.{.{.{.{.{.{.C.C.{.{.{.{.(.4 4 4 q _ @.{.{.{.{.{.{.{.{.{.{.{.{.{.{.{.{.4 4 q ' ' ` C.{.{.{.{.{.{.{.{.{.{.{.{.{.{.{.{.{.{.",
"{.{.{.{.{.{.{.{.{.{.{.{.{.{.{.{.{.{.C.C.{.{.{.w.N 4 4 4 4 q } {.{.{.{.{.{.{.{.{.{.{.{.{.{.{.{./.w.4 q t ' ` [ [ {.{.{.{.{.{.{.{.{.{.{.{.{.{.{.{.",
"{.{.{.{.{.{.{.{.{.{.{.{.{.{.{.{.{.{.C.C.{.'.j.] 4 4 4 N j.j.A.{.{.{.{.{.{.{.{.{.{.{.{.{.{.{.{.{.j.4 4 r t ' ' ' x.(.{.{.{.{.{.{.{.{.{.{.{.{.{.{.",
"{.{.{.{.{.{.{.{.{.{.{.{.{.{.{.{.{.{.C.C.{.(.4 4 4 4 4 } {.{.{.{.{.{.{.{.{.{.{.{.{.{.{.{.{.{.{.{.j.4 4 4 4 ' ' ' ' H.{.{.{.{.{.{.{.{.{.{.{.{.{.{.",
"{.{.{.{.{.{.{.{.{.{.{.{.{.{.{.{.{.{.C.C.{.{.{.{.{.{.{.{.{.{.{.{.{.{.{.{.{.{.{.{.{.{.{.{.{.{.{.{.{.{.{.{.C.C.{.{.{.{.{.{.{.{.{.{.{.{.{.{.{.{.{.{.",
"{.{.{.{.{.{.{.{.{.{.{.{.{.{.{.{.{.{.C.C.{.{.{.{.{.{.{.{.{.{.{.{.{.{.{.{.{.{.{.{.{.{.{.{.{.{.{.{.{.{.{.{.C.C.{.{.{.{.{.{.{.{.{.{.{.{.{.{.{.{.{.{.",
"{.{.{.{.{.{.{.{.{.{.{.{.{.{.{.{.{.{.C.C.{.{.{.{.{.{.{.{.{.{.{.{.{.{.{.{.{.{.{.{.{.{.{.{.{.{.{.{.{.{.{.{.C.C.{.{.{.{.{.{.{.{.{.{.{.{.{.{.{.{.{.{.",
"{.{.{.{.{.{.{.{.{.{.{.{.{.{.{.{.{.{.C.C.{.{.{.{.{.{.{.{.{.{.{.{.{.{.{.{.{.{.{.{.{.{.{.{.{.{.{.{.{.{.{.{.C.C.{.{.{.{.{.{.{.{.{.{.{.{.{.{.{.{.{.{.",
"{.{.{.{.{.{.{.{.{.{.{.{.{.{.{.{.{.{.C.C.{.{.{.{.{.{.{.{.{.{.{.{.{.{.{.{.{.{.{.{.{.{.{.{.{.{.{.{.{.{.{.{.C.C.{.{.{.{.{.{.{.{.{.{.{.{.{.{.{.{.{.{.",
"{.{.{.{.{.{.{.{.{.{.{.{.{.{.{.{.{.{.C.C.{.{.{.{.{.{.{.{.{.{.{.{.{.{.{.{.{.{.{.{.{.{.{.{.{.{.{.{.{.{.{.{.C.C.{.{.{.{.{.{.{.{.{.{.{.{.{.{.{.{.{.{.",
"{.{.{.{.{.{.{.{.{.{.{.{.{.{.{.{.{.{.C.C.{.{.{.{.{.{.{.{.{.{.{.{.{.{.{.{.{.{.{.{.{.{.{.{.{.{.{.{.{.{.{.{.C.C.{.{.{.{.{.{.{.{.{.{.{.{.{.{.{.{.{.{.",
"C.C.C.C.C.C.C.C.C.C.C.C.C.C.C.C.C.C.C.C.C.C.C.C.C.C.C.C.C.C.C.C.C.C.C.C.C.C.C.C.C.C.C.C.C.C.C.C.C.C.C.C.C.C.C.C.C.C.C.C.C.C.C.C.C.C.C.C.C.C.C.C.",
"C.C.C.C.C.C.C.C.C.C.C.C.C.C.C.C.C.C.C.C.C.C.C.C.C.C.C.C.C.C.C.C.C.C.C.C.C.C.C.C.C.C.C.C.C.C.C.C.C.C.C.C.C.C.C.C.C.C.C.C.C.C.C.C.C.C.C.C.C.C.C.C."
};
