/* XPM */
static char *enemy_right1705954687[] = {
/* columns rows colors chars-per-pixel */
"36 36 163 2 ",
"   c #3D2015",
".  c #263414",
"X  c #2C3917",
"o  c #2B3C18",
"O  c #353B1A",
"+  c #28292D",
"@  c #2D2E33",
"#  c #363936",
"$  c #34353B",
"%  c #4A2112",
"&  c #493B1B",
"*  c #58371D",
"=  c #54381D",
"-  c #6A331E",
";  c #473528",
":  c #47322D",
">  c #5A3223",
",  c #563428",
"<  c #4B3630",
"1  c #453837",
"2  c #4D3934",
"3  c #573932",
"4  c #503E39",
"5  c #6D3621",
"6  c #6A3E2E",
"7  c #703722",
"8  c #743B25",
"9  c #793E27",
"0  c #723F2C",
"q  c #7B3F28",
"w  c #32451C",
"e  c #364B1E",
"r  c #364525",
"t  c #3C4B2A",
"y  c #3D5421",
"u  c #3F5129",
"i  c #3D4A34",
"p  c #566917",
"a  c #607314",
"s  c #677810",
"d  c #474520",
"f  c #424A2E",
"g  c #574831",
"h  c #435233",
"j  c #63442F",
"k  c #74402D",
"l  c #7D412A",
"z  c #764A39",
"x  c #476125",
"c  c #496527",
"v  c #4D6B29",
"b  c #516F2A",
"n  c #53732C",
"m  c #4C6230",
"M  c #516A34",
"N  c #577530",
"B  c #5B7236",
"V  c #3E3F45",
"C  c #3F4148",
"Z  c #41424A",
"A  c #4C484D",
"S  c #4D524F",
"D  c #565659",
"F  c #57585F",
"G  c #7B5141",
"H  c #5D694E",
"J  c #626046",
"K  c #627C42",
"L  c #647A4B",
"P  c #746651",
"I  c #657452",
"U  c #69745C",
"Y  c #6D6867",
"T  c #65656B",
"R  c #6E6F73",
"E  c #747577",
"W  c #81442D",
"Q  c #864730",
"!  c #854B35",
"~  c #884931",
"^  c #8C523C",
"/  c #955E49",
"(  c #836053",
")  c #8C6253",
"_  c #956E61",
"`  c #92756A",
"'  c #A67867",
"]  c #7B941B",
"[  c #799621",
"{  c #6F8554",
"}  c #748D53",
"|  c #718358",
" . c #7B935E",
".. c #788764",
"X. c #788666",
"o. c #798B64",
"O. c #C0D508",
"+. c #C6DC0B",
"@. c #9C857D",
"#. c #8A957B",
"$. c #A5867B",
"%. c #8FA276",
"&. c #98A177",
"*. c #9BA97A",
"=. c #818084",
"-. c #888F80",
";. c #838489",
":. c #968E8E",
">. c #8E9685",
",. c #8E8F91",
"<. c #949790",
"1. c #9B9593",
"2. c #9C9A9B",
"3. c #A18D86",
"4. c #AE9288",
"5. c #A09591",
"6. c #A59E9B",
"7. c #B69E95",
"8. c #BD9D91",
"9. c #96A089",
"0. c #9BA294",
"q. c #A3A989",
"w. c #A3B38F",
"e. c #A1A59C",
"r. c #ABB99B",
"t. c #A4A4A4",
"y. c #A7ADA0",
"u. c #A8ADA0",
"i. c #A9A7A8",
"p. c #ACACAC",
"a. c #BFAAA3",
"s. c #BAAFAB",
"d. c #ACB4A3",
"f. c #B1B7A6",
"g. c #B4B9AD",
"h. c #B3B2B3",
"j. c #BCBBBC",
"k. c #C4ADA5",
"l. c #CAB2A9",
"z. c #C8B6B0",
"x. c #C5BCB9",
"c. c #D0BDB6",
"v. c #BCC39E",
"b. c #C0CAB4",
"n. c #C1C4BC",
"m. c #C7CFBF",
"M. c #D0C2BD",
"N. c #C0C0C0",
"B. c #CBCEC7",
"V. c #C6C6C8",
"C. c #CDCECB",
"Z. c #DED2CD",
"A. c #D4DACD",
"S. c #DBDAD7",
"D. c #DCDBDC",
"F. c #E1DAD8",
"G. c #DEE2D9",
"H. c #E0E3D7",
"J. c #E5E6E5",
"K. c #EAE6E5",
"L. c #E7E7E8",
"P. c #EBEBEB",
"I. c #F2F2F2",
/* pixels */
"I.I.I.I.I.I.I.I.I.I.I.I.I.I.I.I.I.p.I.I.I.I.I.I.I.I.I.I.I.I.I.I.I.I.I.p.",
"I.I.I.I.I.I.I.I.I.I.I.I.I.I.I.I.I.p.I.I.I.I.I.I.I.I.I.I.I.I.I.I.I.I.I.p.",
"I.I.I.I.I.I.I.I.I.I.I.I.I.I.I.I.I.p.I.I.I.I.I.I.I.I.I.I.I.I.I.I.I.I.I.p.",
"I.I.I.I.I.I.I.I.I.I.I.I.I.I.I.I.I.p.I.I.I.I.I.I.I.I.I.I.I.I.I.I.I.I.I.p.",
"I.I.I.I.I.I.I.I.I.I.I.I.I.I.I.I.I.p.I.I.I.I.I.I.I.I.I.I.I.I.I.I.I.I.I.p.",
"I.I.I.I.I.I.I.I.I.I.I.I.I.I.I.I.I.p.I.G.,.D.I.I.I.I.I.I.I.I.I.I.I.I.I.p.",
"I.I.I.I.I.I.I.I.I.I.I.I.I.I.d.G.I.p.I.L.T V D.I.I.I.I.I.I.I.I.I.I.I.I.p.",
"I.I.I.I.I.I.I.I.I.I.I.I.I.I.o | %.#.I.I.i.V =.I.I.A.n.I.I.I.I.I.I.I.I.p.",
"p.p.p.p.p.p.p.p.p.p.p.p.p.p.<.t w v n -.o.u i { 0.#.o.p.p.p.p.p.p.p.p.p.",
"I.I.I.I.I.I.I.I.p.I.I.I.I.I.I.g.r e v u c n n n X.M >.p.I.I.I.I.I.I.I.I.",
"I.I.I.I.I.I.I.I.p.I.I.I.I.I.I.I.g.o w c a +.p ] ] e >.p.I.I.I.I.I.I.I.I.",
"I.I.I.I.I.I.I.I.p.I.I.I.I.I.I.I.I.g.h o s O.y s p H I.p.I.I.I.I.I.I.I.I.",
"I.I.I.I.I.I.I.I.p.I.I.I.I.I.I.c.8.8.H . o e v y e 0.I.p.I.I.I.I.I.I.I.I.",
"I.I.I.I.I.I.I.I.p.I.I.G.w.K K B d l & r X.. e n r.I.I.p.I.I.I.I.I.I.I.I.",
"I.I.I.I.I.I.I.I.p.I.b.v x w o o O W q O r r o e f.I.I.p.I.I.I.I.I.I.I.I.",
"I.I.I.I.I.I.I.I.p.H.} e U u.y.P > l Q * t r X.. y.I.I.p.I.I.I.I.I.I.I.I.",
"I.I.I.I.I.n., s.f.v.&.U J.I.I.$.W ~ ~ 7 = # S X m A.I.p.I.I.I.I.I.I.I.I.",
"p.p.p.p.p.2.g & *.q.9.p.p.p.p.p.^ ~ l l - 2 : j t M 0.p.p.p.p.p.p.p.p.p.",
"p.I.I.I.I.I.9.v n U D.I.I.I.I.I.l.k - - - > 6 M.n.t L %.r.I.I.I.I.I.I.I.",
"p.I.I.I.I.I.I.H o f B.I.I.I.P.V.A   % % % % S.I.I.I.e.h y c m.I.I.I.I.I.",
"p.I.I.I.I.I.I.u.; 5.P.I.I.h.=.Z C ; 9 9 8 - :.j.I.I.I. .M J n.I.I.I.I.I.",
"p.I.I.I.I.I.I.I.e.1.C.I.I.R Z $ @ < ~ ~ - 3 Z F j.I.I.I C.S.J.I.I.I.I.I.",
"p.I.I.I.I.I.I.I.P.j.j.P.2.C V @ + + 6 - - 1 Z Z Z V.I.I.I.I.I.I.I.I.I.I.",
"p.I.I.I.I.I.I.I.I.L.x.h.=.Z $ + + + , - , + V Z Z F V.I.I.I.I.I.I.I.I.I.",
"p.I.I.I.I.I.I.I.I.I.I.N.i.F $ + + 4 5 ) D.E @ $ Z @ <.I.I.I.I.I.I.I.I.I.",
"p.I.I.I.I.I.I.I.I.I.I.k.@.Y i.V E k.G K.I.M.< < < ; :.I.I.I.I.I.I.I.I.I.",
"p.p.p.p.p.p.p.p.p.p.p.~ l * D R t.6.6.p.p.( - l 8 z 5.p.p.p.p.p.p.p.p.p.",
"I.I.I.I.I.I.I.I.I.h.' W 9 - S.J.I.I.I.I.c.^ ! ! a.D.p.I.I.I.I.I.I.I.I.I.",
"I.I.I.I.I.I.I.I.I.p.' l - _ I.I.I.I.I.I.l.! ! a.I.I.p.I.I.I.I.I.I.I.I.I.",
"I.I.I.I.I.I.I.I.I.3./ 8 _ F.I.I.I.I.I.I.l.l k a.I.I.p.I.I.I.I.I.I.I.I.I.",
"I.I.I.I.I.I.I.Z.~ W - ) I.I.I.I.I.I.I.I.l.) 0 - 4.K.p.I.I.I.I.I.I.I.I.I.",
"I.I.I.I.I.I.I.l.8.` 4.a.I.I.I.I.I.I.I.I.I.I.7.4.4.K.p.I.I.I.I.I.I.I.I.I.",
"I.I.I.I.I.I.I.I.I.p.I.I.I.I.I.I.I.I.I.I.I.I.I.I.I.I.p.I.I.I.I.I.I.I.I.I.",
"I.I.I.I.I.I.I.I.I.p.I.I.I.I.I.I.I.I.I.I.I.I.I.I.I.I.p.I.I.I.I.I.I.I.I.I.",
"I.I.I.I.I.I.I.I.I.p.I.I.I.I.I.I.I.I.I.I.I.I.I.I.I.I.p.I.I.I.I.I.I.I.I.I.",
"p.p.p.p.p.p.p.p.p.p.p.p.p.p.p.p.p.p.p.p.p.p.p.p.p.p.p.p.p.p.p.p.p.p.p.p."
};
