/* XPM */
static char *wall_left_11706048918[] = {
/* columns rows colors chars-per-pixel */
"73 72 9 1 ",
"  c None",
". c gray10",
"X c #2C2C2C",
"o c #565551",
"O c #605F5C",
"+ c #9A9A9A",
"@ c #A2A1A1",
"# c gray67",
"$ c #ACACAC",
/* pixels */
"#$Oooooooooooooooooooooooooooo@$X...............................+$X..... ",
"#$Oooooooooooooooooooooooooooo@$X...............................+$X..... ",
"#$Oooooooooooooooooooooooooooo@$X...............................+$X..... ",
"#$Oooooooooooooooooooooooooooo@$X...............................+$X..... ",
"#$Oooooooooooooooooooooooooooo@$X...............................+$X..... ",
"#$Oooooooooooooooooooooooooooo@$X...............................+$X..... ",
"#$Oooooooooooooooooooooooooooo@$X...............................+$X..... ",
"#$Oooooooooooooooooooooooooooo@$X...............................+$X..... ",
"#$Oooooooooooooooooooooooooooo@$X...............................+$X..... ",
"#$Oooooooooooooooooooooooooooo@$X...............................+$X..... ",
"#$Oooooooooooooooooooooooooooo@$X...............................+$X..... ",
"#$Oooooooooooooooooooooooooooo@$X...............................+$X..... ",
"#$Oooooooooooooooooooooooooooo@$X...............................+$X..... ",
"#$Oooooooooooooooooooooooooooo@$X...............................+$X..... ",
"#$Oooooooooooooooooooooooooooo@$X...............................+$X..... ",
"#$Oooooooooooooooooooooooooooo@$X...............................+$X..... ",
"#$$$$$$$$$$$$$$$$$$$$$$$$$$$$$$$$$$$$$$$$$$$$$$$$$$$$$$$$$$$$$$$$$$$$$$$ ",
"#$$$$$$$$$$$$$$$$$$$$$$$$$$$$$$$$$$$$$$$$$$$$$$$$$$$$$$$$$$$$$$$$$$$$$$$ ",
"#$Oooooooo@$Oooooooooooooooooooooooooooooooooooo@$X..................... ",
"#$Oooooooo@$Oooooooooooooooooooooooooooooooooooo@$X..................... ",
"#$Oooooooo@$Oooooooooooooooooooooooooooooooooooo@$X..................... ",
"#$Oooooooo@$Oooooooooooooooooooooooooooooooooooo@$X..................... ",
"#$Oooooooo@$Oooooooooooooooooooooooooooooooooooo@$X..................... ",
"#$Oooooooo@$Oooooooooooooooooooooooooooooooooooo@$X..................... ",
"#$Oooooooo@$Oooooooooooooooooooooooooooooooooooo@$X..................... ",
"#$Oooooooo@$Oooooooooooooooooooooooooooooooooooo@$X..................... ",
"#$Oooooooo@$Oooooooooooooooooooooooooooooooooooo@$X..................... ",
"#$Oooooooo@$Oooooooooooooooooooooooooooooooooooo@$X..................... ",
"#$Oooooooo@$Oooooooooooooooooooooooooooooooooooo@$X..................... ",
"#$Oooooooo@$Oooooooooooooooooooooooooooooooooooo@$X..................... ",
"#$Oooooooo@$Oooooooooooooooooooooooooooooooooooo@$X..................... ",
"#$Oooooooo@$Oooooooooooooooooooooooooooooooooooo@$X..................... ",
"#$Oooooooo@$Oooooooooooooooooooooooooooooooooooo@$X..................... ",
"#$Oooooooo@$Oooooooooooooooooooooooooooooooooooo@$X..................... ",
"#$$$$$$$$$$$$$$$$$$$$$$$$$$$$$$$$$$$$$$$$$$$$$$$$$$$$$$$$$$$$$$$$$$$$$$$ ",
"#$$$$$$$$$$$$$$$$$$$$$$$$$$$$$$$$$$$$$$$$$$$$$$$$$$$$$$$$$$$$$$$$$$$$$$$ ",
"#$Oooooooooooooooooooooooooo@$X.................................+$X..... ",
"#$Oooooooooooooooooooooooooo@$X.................................+$X..... ",
"#$Oooooooooooooooooooooooooo@$X.................................+$X..... ",
"#$Oooooooooooooooooooooooooo@$X.................................+$X..... ",
"#$Oooooooooooooooooooooooooo@$X.................................+$X..... ",
"#$Oooooooooooooooooooooooooo@$X.................................+$X..... ",
"#$Oooooooooooooooooooooooooo@$X.................................+$X..... ",
"#$Oooooooooooooooooooooooooo@$X.................................+$X..... ",
"#$Oooooooooooooooooooooooooo@$X.................................+$X..... ",
"#$Oooooooooooooooooooooooooo@$X.................................+$X..... ",
"#$Oooooooooooooooooooooooooo@$X.................................+$X..... ",
"#$Oooooooooooooooooooooooooo@$X.................................+$X..... ",
"#$Oooooooooooooooooooooooooo@$X.................................+$X..... ",
"#$Oooooooooooooooooooooooooo@$X.................................+$X..... ",
"#$Oooooooooooooooooooooooooo@$X.................................+$X..... ",
"#$Oooooooooooooooooooooooooo@$X.................................+$X..... ",
"#$$$$$$$$$$$$$$$$$$$$$$$$$$$$$$$$$$$$$$$$$$$$$$$$$$$$$$$$$$$$$$$$$$$$$$$ ",
"#$$$$$$$$$$$$$$$$$$$$$$$$$$$$$$$$$$$$$$$$$$$$$$$$$$$$$$$$$$$$$$$$$$$$$$$ ",
"#$Oooooooooo@$Oooooooooooooooooooooooooooooooo@$X....................... ",
"#$Oooooooooo@$Oooooooooooooooooooooooooooooooo@$X....................... ",
"#$Oooooooooo@$Oooooooooooooooooooooooooooooooo@$X....................... ",
"#$Oooooooooo@$Oooooooooooooooooooooooooooooooo@$X....................... ",
"#$Oooooooooo@$Oooooooooooooooooooooooooooooooo@$X....................... ",
"#$Oooooooooo@$Oooooooooooooooooooooooooooooooo@$X....................... ",
"#$Oooooooooo@$Oooooooooooooooooooooooooooooooo@$X....................... ",
"#$Oooooooooo@$Oooooooooooooooooooooooooooooooo@$X....................... ",
"#$Oooooooooo@$Oooooooooooooooooooooooooooooooo@$X....................... ",
"#$Oooooooooo@$Oooooooooooooooooooooooooooooooo@$X....................... ",
"#$Oooooooooo@$Oooooooooooooooooooooooooooooooo@$X....................... ",
"#$Oooooooooo@$Oooooooooooooooooooooooooooooooo@$X....................... ",
"#$Oooooooooo@$Oooooooooooooooooooooooooooooooo@$X....................... ",
"#$Oooooooooo@$Oooooooooooooooooooooooooooooooo@$X....................... ",
"#$Oooooooooo@$Oooooooooooooooooooooooooooooooo@$X....................... ",
"#$Oooooooooo@$Oooooooooooooooooooooooooooooooo@$X....................... ",
"#$$$$$$$$$$$$$$$$$$$$$$$$$$$$$$$$$$$$$$$$$$$$$$$$$$$$$$$$$$$$$$$$$$$$$$$ ",
"#$$$$$$$$$$$$$$$$$$$$$$$$$$$$$$$$$$$$$$$$$$$$$$$$$$$$$$$$$$$$$$$$$$$$$$$ "
};
