/* XPM */
static char *wall_inside1706048919[] = {
/* columns rows colors chars-per-pixel */
"73 72 6 1 ",
"  c None",
". c gray10",
"X c #2C2C2C",
"o c #9A9A9A",
"O c gray67",
"+ c #ACACAC",
/* pixels */
"O+X...............................o+X.................................o+ ",
"O+X...............................o+X.................................o+ ",
"O+X...............................o+X.................................o+ ",
"O+X...............................o+X.................................o+ ",
"O+X...............................o+X.................................o+ ",
"O+X...............................o+X.................................o+ ",
"O+X...............................o+X.................................o+ ",
"O+X...............................o+X.................................o+ ",
"O+X...............................o+X.................................o+ ",
"O+X...............................o+X.................................o+ ",
"O+X...............................o+X.................................o+ ",
"O+X...............................o+X.................................o+ ",
"O+X...............................o+X.................................o+ ",
"O+X...............................o+X.................................o+ ",
"O+X...............................o+X.................................o+ ",
"O+X...............................o+X.................................o+ ",
"O+++++++++++++++++++++++++++++++++++++++++++++++++++++++++++++++++++++++ ",
"O+++++++++++++++++++++++++++++++++++++++++++++++++++++++++++++++++++++++ ",
"O+X.............o+X...................................o+X.............o+ ",
"O+X.............o+X...................................o+X.............o+ ",
"O+X.............o+X...................................o+X.............o+ ",
"O+X.............o+X...................................o+X.............o+ ",
"O+X.............o+X...................................o+X.............o+ ",
"O+X.............o+X...................................o+X.............o+ ",
"O+X.............o+X...................................o+X.............o+ ",
"O+X.............o+X...................................o+X.............o+ ",
"O+X.............o+X...................................o+X.............o+ ",
"O+X.............o+X...................................o+X.............o+ ",
"O+X.............o+X...................................o+X.............o+ ",
"O+X.............o+X...................................o+X.............o+ ",
"O+X.............o+X...................................o+X.............o+ ",
"O+X.............o+X...................................o+X.............o+ ",
"O+X.............o+X...................................o+X.............o+ ",
"O+X.............o+X...................................o+X.............o+ ",
"O+++++++++++++++++++++++++++++++++++++++++++++++++++++++++++++++++++++++ ",
"O+++++++++++++++++++++++++++++++++++++++++++++++++++++++++++++++++++++++ ",
"O+X.................................o+X...............................o+ ",
"O+X.................................o+X...............................o+ ",
"O+X.................................o+X...............................o+ ",
"O+X.................................o+X...............................o+ ",
"O+X.................................o+X...............................o+ ",
"O+X.................................o+X...............................o+ ",
"O+X.................................o+X...............................o+ ",
"O+X.................................o+X...............................o+ ",
"O+X.................................o+X...............................o+ ",
"O+X.................................o+X...............................o+ ",
"O+X.................................o+X...............................o+ ",
"O+X.................................o+X...............................o+ ",
"O+X.................................o+X...............................o+ ",
"O+X.................................o+X...............................o+ ",
"O+X.................................o+X...............................o+ ",
"O+X.................................o+X...............................o+ ",
"O+++++++++++++++++++++++++++++++++++++++++++++++++++++++++++++++++++++++ ",
"O+++++++++++++++++++++++++++++++++++++++++++++++++++++++++++++++++++++++ ",
"O+X...............o+X...............................o+X...............o+ ",
"O+X...............o+X...............................o+X...............o+ ",
"O+X...............o+X...............................o+X...............o+ ",
"O+X...............o+X...............................o+X...............o+ ",
"O+X...............o+X...............................o+X...............o+ ",
"O+X...............o+X...............................o+X...............o+ ",
"O+X...............o+X...............................o+X...............o+ ",
"O+X...............o+X...............................o+X...............o+ ",
"O+X...............o+X...............................o+X...............o+ ",
"O+X...............o+X...............................o+X...............o+ ",
"O+X...............o+X...............................o+X...............o+ ",
"O+X...............o+X...............................o+X...............o+ ",
"O+X...............o+X...............................o+X...............o+ ",
"O+X...............o+X...............................o+X...............o+ ",
"O+X...............o+X...............................o+X...............o+ ",
"O+X...............o+X...............................o+X...............o+ ",
"O+++++++++++++++++++++++++++++++++++++++++++++++++++++++++++++++++++++++ ",
"O+++++++++++++++++++++++++++++++++++++++++++++++++++++++++++++++++++++++ "
};
