/* XPM */
static char *_8e39b2da1754f61fd9f22865ac8320c0Zw4zbOOgtigOVxo[] = {
/* columns rows colors chars-per-pixel */
"36 36 5 1 ",
"  c gray10",
". c #333230",
"X c #565551",
"o c #6C6964",
"O c #ACACAC",
/* pixels */
"                 O                 O",
"                 O                 O",
"                 O                 O",
"                 O                 O",
"                 O                 O",
"                 O                 O",
"                 O                 O",
"                 O                 O",
"OOOOOOOOOOOOOOOOOOOOOOOOOOOOOOOOOOOO",
"........O..................O........",
"........O..................O........",
"........O..................O........",
"........O..................O........",
"........O..................O........",
"........O..................O........",
"........O..................O........",
"........O..................O........",
"OOOOOOOOOOOOOOOOOOOOOOOOOOOOOOOOOOOO",
"OXXXXXXXXXXXXXXXXXOXXXXXXXXXXXXXXXXX",
"OXXXXXXXXXXXXXXXXXOXXXXXXXXXXXXXXXXX",
"OXXXXXXXXXXXXXXXXXOXXXXXXXXXXXXXXXXX",
"OXXXXXXXXXXXXXXXXXOXXXXXXXXXXXXXXXXX",
"OXXXXXXXXXXXXXXXXXOXXXXXXXXXXXXXXXXX",
"OXXXXXXXXXXXXXXXXXOXXXXXXXXXXXXXXXXX",
"OXXXXXXXXXXXXXXXXXOXXXXXXXXXXXXXXXXX",
"OXXXXXXXXXXXXXXXXXOXXXXXXXXXXXXXXXXX",
"OOOOOOOOOOOOOOOOOOOOOOOOOOOOOOOOOOOO",
"oooooooooOooooooooooooooooOooooooooo",
"oooooooooOooooooooooooooooOooooooooo",
"oooooooooOooooooooooooooooOooooooooo",
"oooooooooOooooooooooooooooOooooooooo",
"oooooooooOooooooooooooooooOooooooooo",
"oooooooooOooooooooooooooooOooooooooo",
"oooooooooOooooooooooooooooOooooooooo",
"oooooooooOooooooooooooooooOooooooooo",
"OOOOOOOOOOOOOOOOOOOOOOOOOOOOOOOOOOOO"
};
