/* XPM */
static char *wall_corner_top_right1706048919[] = {
/* columns rows colors chars-per-pixel */
"73 72 16 1 ",
"  c None",
". c gray10",
"X c #2C2C2C",
"o c #323230",
"O c #333230",
"+ c #424140",
"@ c #565551",
"# c #575551",
"$ c #6C6963",
"% c #6C6964",
"& c #9A9A9A",
"* c #9D9D9C",
"= c #A2A1A1",
"- c #A4A4A3",
"; c gray67",
": c #ACACAC",
/* pixels */
";:X.................................&:X................................. ",
";:X.................................&:X................................. ",
";:X.................................&:X................................. ",
";:X.................................&:X................................. ",
";:X.................................&:X................................. ",
";:X.................................&:X................................. ",
";:X.................................&:X................................. ",
";:X.................................&:X................................. ",
";:X.................................&:X................................. ",
";:X.................................&:X................................. ",
";:X.................................&:X................................. ",
";:X.................................&:X................................. ",
";:X.................................&:X................................. ",
";:X.................................&:X................................. ",
";:X.................................&:X................................. ",
";:X.................................&:X................................. ",
";::::::::::::::::::::::::::::::::::::::::::::::::::::::::::::::::::::::: ",
";::::::::::::::::::::::::::::::::::::::::::::::::::::::::::::::::::::::: ",
"oOOOOOOOOOOOOOOO*:+OOOOOOOOOOOOOOOOOOOOOOOOOOOOOOOOOOO*:X............... ",
"ooOOOOOOOOOOOOOO*:+OOOOOOOOOOOOOOOOOOOOOOOOOOOOOOOOOOO*:X............... ",
"oOOOOOOOOOOOOOOO*:+OOOOOOOOOOOOOOOOOOOOOOOOOOOOOOOOOOO*:X............... ",
"oOOOOOOOOOOOOOOO*:+OOOOOOOOOOOOOOOOOOOOOOOOOOOOOOOOOOO*:X............... ",
"oOOOOOOOOOOOOOOO*:+OOOOOOOOOOOOOOOOOOOOOOOOOOOOOOOOOOO*:X............... ",
"oOOOOOOOOOOOOOOO*:+OOOOOOOOOOOOOOOOOOOOOOOOOOOOOOOOOOO*:X............... ",
"oOOOOOOOOOOOOOOO*:+OOOOOOOOOOOOOOOOOOOOOOOOOOOOOOOOOOO*:X............... ",
"oOOOOOOOOOOOOOOO*:+OOOOOOOOOOOOOOOOOOOOOOOOOOOOOOOOOOO*:X............... ",
"oOOOOOOOOOOOOOOO*:+OOOOOOOOOOOOOOOOOOOOOOOOOOOOOOOOOOO*:X............... ",
"oOOOOOOOOOOOOOOO*:+OOOOOOOOOOOOOOOOOOOOOOOOOOOOOOOOOOO*:X............... ",
"oOOOOOOOOOOOOOOO*:+OOOOOOOOOOOOOOOOOOOOOOOOOOOOOOOOOOO*:X............... ",
"oOOOOOOOOOOOOOOO*:+OOOOOOOOOOOOOOOOOOOOOOOOOOOOOOOOOOO*:X............... ",
"oOOOOOOOOOOOOOOO*:+OOOOOOOOOOOOOOOOOOOOOOOOOOOOOOOOOOO*:X............... ",
"oOOOOOOOOOOOOOOO*:+OOOOOOOOOOOOOOOOOOOOOOOOOOOOOOOOOOO*:X............... ",
"oOOOOoooOOOOOOoo=:+OOoooOOOOOoooOOOOOOOOoOOOOOOOOOOOOO=;X............... ",
"oOOOOoooOOOOOooo*:+OOoooOOOOOoooOOOOOOOOooOOOOOOOOOOOO*;X............... ",
"::::::::::::::::;;::::::::::::::::::::::::::::::::::::::;::::::::::::::: ",
";::::::::::::::;;;:::::::::::::::::::::::::;::::::::::::;::::::::::::::: ",
"####@@@@####@@@@###@@@@@####@@@@##=:X.................................&: ",
"##@#@@@@##@@@@@@##@@@@@@##@@@@@@##=:X.................................&: ",
"#@@@@@@@@@@@@@@@@@@@@@@@@@@@@@@@##=:X.................................&: ",
"#@@@@@@@@@@@@@@@@@@@@@@@@@@@@@@@@@=:X.................................&: ",
"#@@@@@@@@@@@@@@@@@@@@@@@@@@@@@@@@@=;X.................................&: ",
"#@@@@@@@@@@@@@@@@@@@@@@@@@@@@@@@@@=;X.................................&: ",
"#@@@@@@@@@@@@@@@@@@@@@@@@@@@@@@@##=;X.................................&: ",
"#@@@@@@@@@@@@@@@@@@@@@@@@@@@@@@@##=;X.................................&: ",
"#@@@@@@@@@@@@@@@@@@@@@@@@@@@@@@@@@=;X.................................&: ",
"#@@@@@@@@@@@@@@@@@@@@@@@@@@@@@@@@@-;X.................................&: ",
"#@@@@@@@@@@@@@@@@@@@@@@@@@@@@@@@@@=;X.................................&: ",
"#@@@@@@@@@@@@@@@@@@@@@@@@@@@@@@@@@=;X.................................&: ",
"#@@@@@@@@@@@@@@@@@@@@@@@@@@@@@@@##-:X.................................&: ",
"#@@@@@@@@@@@@@@@@@@@@@@@@@@@@@@@@#=;X.................................&: ",
"#@@@@@@#@@@@@@@@@@##@@@@@@@@@@##@@=;X.................................&: ",
"#@@@@@@#@@@@@@@@####@@@@@@@@####@@-:X.................................&: ",
";;::::::::::::::::::::::::::::::;::::::::::::::::::::::::::::::::::::::: ",
";::;::::::::::::::::::::::::::::;;:::::::::::::::::::::::::::::::::::::: ",
"%%%%%%%%%%%%%%%%%%-:+OOOoooOOOOOOOooOOOOOOOOOOOOOOOO*:X................. ",
"%%%%%%%%%%%%%%%%%%-:+OOOoooOOOOOOOOoOOOOOOOOOOOOOOOO*:X................. ",
"%%%%%%%%%%%%%%%%%%-:+OOOOOOOOOOOOOOOOOOOOOOOOOOOOOOO*:X................. ",
"%%%%%%%%%%%%%%%%%%-:+OOOOOOOOOOOOOOOOOOOOOOOOOOOOOOO*:X................. ",
"%%%%%%%%%%%%%%%%%%-:+OOOOOOOOOOOOOOOOOOOOOOOOOOOOOOO*:X................. ",
"%%%%%%%%%%%%%%%%%%-:+OOOOOOOOOOOOOOOOOOOOOOOOOOOOOOO*:X................. ",
"%%%%%%%%%%%%%%%%%%-:+OOOOOOOOOOOOOOOOOOOOOOOOOOOOOOO*:X................. ",
"%%%%%%%%%%%%%%%%%%-:+OOOOOOOOOOOOOOOOOOOOOOOOOOOOOOO*:X................. ",
"$%%%%%%%%%%%%%%%%%-:+OOOOOOOOOOOOOOOOOOOOOOOOOOOOOOO*:X................. ",
"$%%%%%%%%%%%%%%%%%-:+OOOOOOOOOOOOOOOOOOOOOOOOOOOOOOO*:X................. ",
"$%%%%%%%%%%%%%%%%%-:+OOOOOOOOOOOOOOOOOOOOOOOOOOOOOOO*:X................. ",
"$%%%%%%%%%%%%%%%%%-:+OOOOOOOOOOOOOOOOOOOOOOOOOOOOOOO*:X................. ",
"$%%%%%%%%%%%%%%%%%-:+OOOOOOOOOOOOOOOOOOOOOOOOOOOOOOO*:X................. ",
"$%%%%%%%%%%%%%%%%%-:+OOOOOOOOOOOOOOOOOOOOOOOOOOOOOOO*:X................. ",
"$%%%%%%%%%%%%%%%%%-:+OOOOOOOOOOOOOOOOOOOOOOOOOOOOOOO*:X................. ",
"$%%%%%%%%%%%%%%%%%-:+OOOOOOOOOOOOOOOOOOOOOOOOOOOOOOO*:X................. ",
";::::::::::::::::::::::::::::::::::::::::::::::::::::::::::::::::::::::: ",
";::::::::::::::::::::::::::::::::::::::::::::::::::::::::::::::::::::::: "
};
