/* XPM */
static char *_76f26f8a8cf42b788a749ff50625f27154cXWgeWTT9jUaA[] = {
/* columns rows colors chars-per-pixel */
"36 36 5 1 ",
"  c gray10",
". c #333230",
"X c #565551",
"o c #6C6964",
"O c #ACACAC",
/* pixels */
"         O................Oooooooooo",
"         O................Oooooooooo",
"         O................Oooooooooo",
"         O................Oooooooooo",
"         O................Oooooooooo",
"         O................Oooooooooo",
"         O................Oooooooooo",
"         O................Oooooooooo",
"         O................Oooooooooo",
"OOOOOOOOOOOOOOOOOOOOOOOOOOOOOOOOOOOO",
"O                 OXXXXXXXXXXXXXXXXX",
"O                 OXXXXXXXXXXXXXXXXX",
"O                 OXXXXXXXXXXXXXXXXX",
"O                 OXXXXXXXXXXXXXXXXX",
"O                 OXXXXXXXXXXXXXXXXX",
"O                 OXXXXXXXXXXXXXXXXX",
"O                 OXXXXXXXXXXXXXXXXX",
"O                 OXXXXXXXXXXXXXXXXX",
"OOOOOOOOOOOOOOOOOOOOOOOOOOOOOOOOOOOO",
"        O..................O........",
"        O..................O........",
"        O..................O........",
"        O..................O........",
"        O..................O........",
"        O..................O........",
"        O..................O........",
"        O..................O........",
"OOOOOOOOOOOOOOOOOOOOOOOOOOOOOOOOOOOO",
"                 O                 O",
"                 O                 O",
"                 O                 O",
"                 O                 O",
"                 O                 O",
"                 O                 O",
"                 O                 O",
"                 O                 O"
};
