/* XPM */
static char *_c0ce2caa23345f7a3c87cd04d6ef05axnuB11zoppWzxibb[] = {
/* columns rows colors chars-per-pixel */
"36 36 5 1 ",
"  c gray10",
". c #333230",
"X c #565551",
"o c #6C6964",
"O c #ACACAC",
/* pixels */
"oooooooooOooooooooooooooooOooooooooo",
"oooooooooOooooooooooooooooOooooooooo",
"oooooooooOooooooooooooooooOooooooooo",
"oooooooooOooooooooooooooooOooooooooo",
"oooooooooOooooooooooooooooOooooooooo",
"oooooooooOooooooooooooooooOooooooooo",
"oooooooooOooooooooooooooooOooooooooo",
"oooooooooOooooooooooooooooOooooooooo",
"oooooooooOooooooooooooooooOooooooooo",
"OOOOOOOOOOOOOOOOOOOOOOOOOOOOOOOOOOOO",
"OXXXXXXXXXXXXXXXXXOXXXXXXXXXXXXXXXXX",
"OXXXXXXXXXXXXXXXXXOXXXXXXXXXXXXXXXXX",
"OXXXXXXXXXXXXXXXXXOXXXXXXXXXXXXXXXXX",
"OXXXXXXXXXXXXXXXXXOXXXXXXXXXXXXXXXXX",
"OXXXXXXXXXXXXXXXXXOXXXXXXXXXXXXXXXXX",
"OXXXXXXXXXXXXXXXXXOXXXXXXXXXXXXXXXXX",
"OXXXXXXXXXXXXXXXXXOXXXXXXXXXXXXXXXXX",
"OXXXXXXXXXXXXXXXXXOXXXXXXXXXXXXXXXXX",
"OOOOOOOOOOOOOOOOOOOOOOOOOOOOOOOOOOOO",
"........O..................O........",
"........O..................O........",
"........O..................O........",
"........O..................O........",
"........O..................O........",
"........O..................O........",
"........O..................O........",
"........O..................O........",
"OOOOOOOOOOOOOOOOOOOOOOOOOOOOOOOOOOOO",
"                 O                 O",
"                 O                 O",
"                 O                 O",
"                 O                 O",
"                 O                 O",
"                 O                 O",
"                 O                 O",
"                 O                 O"
};
