/* XPM */
static char *_e568f6721a3489191740760a00cea51A80t1pr6BLWPgpk1[] = {
/* columns rows colors chars-per-pixel */
"36 36 5 1 ",
"  c gray10",
". c #333230",
"X c #565551",
"o c #6C6964",
"O c #ACACAC",
/* pixels */
"O                 O                 ",
"O                 O                 ",
"O                 O                 ",
"O                 O                 ",
"O                 O                 ",
"O                 O                 ",
"O                 O                 ",
"O                 O                 ",
"OOOOOOOOOOOOOOOOOOOOOOOOOOOOOOOOOOOO",
"........O..................O        ",
"........O..................O        ",
"........O..................O        ",
"........O..................O        ",
"........O..................O        ",
"........O..................O        ",
"........O..................O        ",
"........O..................O        ",
"OOOOOOOOOOOOOOOOOOOOOOOOOOOOOOOOOOOO",
"XXXXXXXXXXXXXXXXXO                 O",
"XXXXXXXXXXXXXXXXXO                 O",
"XXXXXXXXXXXXXXXXXO                 O",
"XXXXXXXXXXXXXXXXXO                 O",
"XXXXXXXXXXXXXXXXXO                 O",
"XXXXXXXXXXXXXXXXXO                 O",
"XXXXXXXXXXXXXXXXXO                 O",
"XXXXXXXXXXXXXXXXXO                 O",
"OOOOOOOOOOOOOOOOOOOOOOOOOOOOOOOOOOOO",
"oooooooooO................O         ",
"oooooooooO................O         ",
"oooooooooO................O         ",
"oooooooooO................O         ",
"oooooooooO................O         ",
"oooooooooO................O         ",
"oooooooooO................O         ",
"oooooooooO................O         ",
"OOOOOOOOOOOOOOOOOOOOOOOOOOOOOOOOOOOO"
};
