/* XPM */
static char *wall_corner_bottom_left1706048919[] = {
/* columns rows colors chars-per-pixel */
"73 72 13 1 ",
"  c None",
". c gray10",
"X c #2C2C2C",
"o c #333230",
"O c #424140",
"+ c #565551",
"@ c #605F5C",
"# c #6C6964",
"$ c #74716D",
"% c #9A9A9A",
"& c #9D9D9C",
"* c gray67",
"= c #ACACAC",
/* pixels */
"..................%=Oooooooooooooooooooooooooooooooo&=$################# ",
"..................%=Oooooooooooooooooooooooooooooooo&=$################# ",
"..................%=Oooooooooooooooooooooooooooooooo&=$################# ",
"..................%=Oooooooooooooooooooooooooooooooo&=$################# ",
"..................%=Oooooooooooooooooooooooooooooooo&=$################# ",
"..................%=Oooooooooooooooooooooooooooooooo&=$################# ",
"..................%=Oooooooooooooooooooooooooooooooo&=$################# ",
"..................%=Oooooooooooooooooooooooooooooooo&=$################# ",
"..................%=Oooooooooooooooooooooooooooooooo&=$################# ",
"..................%=Oooooooooooooooooooooooooooooooo&=$################# ",
"..................%=Oooooooooooooooooooooooooooooooo&=$################# ",
"..................%=Oooooooooooooooooooooooooooooooo&=$################# ",
"..................%=Oooooooooooooooooooooooooooooooo&=$################# ",
"..................%=Oooooooooooooooooooooooooooooooo&=$################# ",
"..................%=Oooooooooooooooooooooooooooooooo&=$################# ",
"..................%=Oooooooooooooooooooooooooooooooo&=$################# ",
"..................%=Oooooooooooooooooooooooooooooooo&=$################# ",
"..................%=Oooooooooooooooooooooooooooooooo&=$################# ",
"*======================================================================= ",
"*======================================================================= ",
"*=X.................................%=@+++++++++++++++++++++++++++++++++ ",
"*=X.................................%=@+++++++++++++++++++++++++++++++++ ",
"*=X.................................%=@+++++++++++++++++++++++++++++++++ ",
"*=X.................................%=@+++++++++++++++++++++++++++++++++ ",
"*=X.................................%=@+++++++++++++++++++++++++++++++++ ",
"*=X.................................%=@+++++++++++++++++++++++++++++++++ ",
"*=X.................................%=@+++++++++++++++++++++++++++++++++ ",
"*=X.................................%=@+++++++++++++++++++++++++++++++++ ",
"*=X.................................%=@+++++++++++++++++++++++++++++++++ ",
"*=X.................................%=@+++++++++++++++++++++++++++++++++ ",
"*=X.................................%=@+++++++++++++++++++++++++++++++++ ",
"*=X.................................%=@+++++++++++++++++++++++++++++++++ ",
"*=X.................................%=@+++++++++++++++++++++++++++++++++ ",
"*=X.................................%=@+++++++++++++++++++++++++++++++++ ",
"*=X.................................%=@+++++++++++++++++++++++++++++++++ ",
"*=X.................................%=@+++++++++++++++++++++++++++++++++ ",
"*======================================================================= ",
"*======================================================================= ",
"................%=Oooooooooooooooooooooooooooooooooooo&=Oooooooooooooooo ",
"................%=Oooooooooooooooooooooooooooooooooooo&=Oooooooooooooooo ",
"................%=Oooooooooooooooooooooooooooooooooooo&=Oooooooooooooooo ",
"................%=Oooooooooooooooooooooooooooooooooooo&=Oooooooooooooooo ",
"................%=Oooooooooooooooooooooooooooooooooooo&=Oooooooooooooooo ",
"................%=Oooooooooooooooooooooooooooooooooooo&=Oooooooooooooooo ",
"................%=Oooooooooooooooooooooooooooooooooooo&=Oooooooooooooooo ",
"................%=Oooooooooooooooooooooooooooooooooooo&=Oooooooooooooooo ",
"................%=Oooooooooooooooooooooooooooooooooooo&=Oooooooooooooooo ",
"................%=Oooooooooooooooooooooooooooooooooooo&=Oooooooooooooooo ",
"................%=Oooooooooooooooooooooooooooooooooooo&=Oooooooooooooooo ",
"................%=Oooooooooooooooooooooooooooooooooooo&=Oooooooooooooooo ",
"................%=Oooooooooooooooooooooooooooooooooooo&=Oooooooooooooooo ",
"................%=Oooooooooooooooooooooooooooooooooooo&=Oooooooooooooooo ",
"................%=Oooooooooooooooooooooooooooooooooooo&=Oooooooooooooooo ",
"................%=Oooooooooooooooooooooooooooooooooooo&=Oooooooooooooooo ",
"*======================================================================= ",
"*======================================================================= ",
"..................................%=X.................................%= ",
"..................................%=X.................................%= ",
"..................................%=X.................................%= ",
"..................................%=X.................................%= ",
"..................................%=X.................................%= ",
"..................................%=X.................................%= ",
"..................................%=X.................................%= ",
"..................................%=X.................................%= ",
"..................................%=X.................................%= ",
"..................................%=X.................................%= ",
"..................................%=X.................................%= ",
"..................................%=X.................................%= ",
"..................................%=X.................................%= ",
"..................................%=X.................................%= ",
"..................................%=X.................................%= ",
"..................................%=X.................................%= "
};
