/* XPM */
static char *wall_bottom1706048920[] = {
/* columns rows colors chars-per-pixel */
"73 72 17 1 ",
"  c None",
". c gray10",
"X c #2C2C2C",
"o c #323230",
"O c #333230",
"+ c #424140",
"@ c #565551",
"# c #605F5C",
"$ c #6C6963",
"% c #6C6964",
"& c #74716D",
"* c #9A9A9A",
"= c #9D9D9C",
"- c #A2A1A1",
"; c #A4A4A3",
": c gray67",
"> c #ACACAC",
/* pixels */
"$%%%%%%%%%%%%%%%%%;>&%%%%%%%%%%%%%%%%%%%%%%%%%%%%%%%;>&%%%%%%%%%%%%%%%%% ",
"$%%%%%%%%%%%%%%%%%;>&%%%%%%%%%%%%%%%%%%%%%%%%%%%%%%%;>&%%%%%%%%%%%%%%%%% ",
"$%%%%%%%%%%%%%%%%%;>&%%%%%%%%%%%%%%%%%%%%%%%%%%%%%%%;>&%%%%%%%%%%%%%%%%% ",
"$%%%%%%%%%%%%%%%%%;>&%%%%%%%%%%%%%%%%%%%%%%%%%%%%%%%;>&%%%%%%%%%%%%%%%%% ",
"$%%%%%%%%%%%%%%%%%;>&%%%%%%%%%%%%%%%%%%%%%%%%%%%%%%%;>&%%%%%%%%%%%%%%%%% ",
"$%%%%%%%%%%%%%%%%%;>&%%%%%%%%%%%%%%%%%%%%%%%%%%%%%%%;>&%%%%%%%%%%%%%%%%% ",
"$%%%%%%%%%%%%%%%%%;>&%%%%%%%%%%%%%%%%%%%%%%%%%%%%%%%;>&%%%%%%%%%%%%%%%%% ",
"$%%%%%%%%%%%%%%%%%;>&%%%%%%%%%%%%%%%%%%%%%%%%%%%%%%%;>&%%%%%%%%%%%%%%%%% ",
"$%%%%%%%%%%%%%%%%%;>&%%%%%%%%%%%%%%%%%%%%%%%%%%%%%%%;>&%%%%%%%%%%%%%%%%% ",
"$%%%%%%%%%%%%%%%%%;>&%%%%%%%%%%%%%%%%%%%%%%%%%%%%%%%;>&%%%%%%%%%%%%%%%%% ",
"$%%%%%%%%%%%%%%%%%;>&%%%%%%%%%%%%%%%%%%%%%%%%%%%%%%%;>&%%%%%%%%%%%%%%%%% ",
"$%%%%%%%%%%%%%%%%%;>&%%%%%%%%%%%%%%%%%%%%%%%%%%%%%%%;>&%%%%%%%%%%%%%%%%% ",
"$%%%%%%%%%%%%%%%%%;>&%%%%%%%%%%%%%%%%%%%%%%%%%%%%%%%;>&%%%%%%%%%%%%%%%%% ",
"$%%%%%%%%%%%%%%%%%;>&%%%%%%%%%%%%%%%%%%%%%%%%%%%%%%%;>&%%%%%%%%%%%%%%%%% ",
"$%%%%%%%%%%%%%%%%%;>&%%%%%%%%%%%%%%%%%%%%%%%%%%%%%%%;>&%%%%%%%%%%%%%%%%% ",
"$%%%%%%%%%%%%%%%%%;>&%%%%%%%%%%%%%%%%%%%%%%%%%%%%%%%;>&%%%%%%%%%%%%%%%%% ",
"$%%%%%%%%%%%%%%%%%;>&%%%%%%%%%%%%%%%%%%%%%%%%%%%%%%%;>&%%%%%%%%%%%%%%%%% ",
"$%%%%%%%%%%%%%%%%%;>&%%%%%%%%%%%%%%%%%%%%%%%%%%%%%%%;>&%%%%%%%%%%%%%%%%% ",
":>>>>>>>>>>>>>>>>>>>>>>>>>>>>>>>>>>>>>>>>>>>>>>>>>>>>>>>>>>>>>>>>>>>>>>> ",
":>>>>>>>>>>>>>>>>>>>>>>>>>>>>>>>>>>>>>>>>>>>>>>>>>>>>>>>>>>>>>>>>>>>>>>> ",
":>#@@@@@@@@@@@@@@@@@@@@@@@@@@@@@@@@@->#@@@@@@@@@@@@@@@@@@@@@@@@@@@@@@@@@ ",
":>#@@@@@@@@@@@@@@@@@@@@@@@@@@@@@@@@@->#@@@@@@@@@@@@@@@@@@@@@@@@@@@@@@@@@ ",
":>#@@@@@@@@@@@@@@@@@@@@@@@@@@@@@@@@@->#@@@@@@@@@@@@@@@@@@@@@@@@@@@@@@@@@ ",
":>#@@@@@@@@@@@@@@@@@@@@@@@@@@@@@@@@@->#@@@@@@@@@@@@@@@@@@@@@@@@@@@@@@@@@ ",
":>#@@@@@@@@@@@@@@@@@@@@@@@@@@@@@@@@@->#@@@@@@@@@@@@@@@@@@@@@@@@@@@@@@@@@ ",
":>#@@@@@@@@@@@@@@@@@@@@@@@@@@@@@@@@@->#@@@@@@@@@@@@@@@@@@@@@@@@@@@@@@@@@ ",
":>#@@@@@@@@@@@@@@@@@@@@@@@@@@@@@@@@@->#@@@@@@@@@@@@@@@@@@@@@@@@@@@@@@@@@ ",
":>#@@@@@@@@@@@@@@@@@@@@@@@@@@@@@@@@@->#@@@@@@@@@@@@@@@@@@@@@@@@@@@@@@@@@ ",
":>#@@@@@@@@@@@@@@@@@@@@@@@@@@@@@@@@@->#@@@@@@@@@@@@@@@@@@@@@@@@@@@@@@@@@ ",
":>#@@@@@@@@@@@@@@@@@@@@@@@@@@@@@@@@@->#@@@@@@@@@@@@@@@@@@@@@@@@@@@@@@@@@ ",
":>#@@@@@@@@@@@@@@@@@@@@@@@@@@@@@@@@@->#@@@@@@@@@@@@@@@@@@@@@@@@@@@@@@@@@ ",
":>#@@@@@@@@@@@@@@@@@@@@@@@@@@@@@@@@@->#@@@@@@@@@@@@@@@@@@@@@@@@@@@@@@@@@ ",
":>#@@@@@@@@@@@@@@@@@@@@@@@@@@@@@@@@@->#@@@@@@@@@@@@@@@@@@@@@@@@@@@@@@@@@ ",
":>#@@@@@@@@@@@@@@@@@@@@@@@@@@@@@@@@@->#@@@@@@@@@@@@@@@@@@@@@@@@@@@@@@@@@ ",
":>#@@@@@@@@@@@@@@@@@@@@@@@@@@@@@@@@@->#@@@@@@@@@@@@@@@@@@@@@@@@@@@@@@@@@ ",
":>#@@@@@@@@@@@@@@@@@@@@@@@@@@@@@@@@@->#@@@@@@@@@@@@@@@@@@@@@@@@@@@@@@@@@ ",
":>>>>>>>>>>>>>>>>>>>>>>>>>>>>>>>>>>>>>>>>>>>>>>>>>>>>>>>>>>>>>>>>>>>>>>> ",
":>>>>>>>>>>>>>>>>>>>>>>>>>>>>>>>>>>>>>>>>>>>>>>>>>>>>>>>>>>>>>>>>>>>>>>> ",
"OOOOOOOOOOOOOOOO=>+OOOOOOOOOOOOOOOOOOOOOOOOOOOOOOOOOOO=>+OOOOOOOOOOOOOOO ",
"OOOOOOOOOOOOOOOO=>+OOOOOOOOOOOOOOOOOOOOOOOOOOOOOOOOOOO=>+OOOOOOOOOOOOOOO ",
"OOOOOOOOOOOOOOOO=>+OOOOOOOOOOOOOOOOOOOOOOOOOOOOOOOOOOO=>+OOOOOOOOOOOOOOO ",
"OOOOOOOOOOOOOOOO=>+OOOOOOOOOOOOOOOOOOOOOOOOOOOOOOOOOOO=>+OOOOOOOOOOOOOOO ",
"OOOOOOOOOOOOOOOO=>+OOOOOOOOOOOOOOOOOOOOOOOOOOOOOOOOOOO=>+OOOOOOOOOOOOOOO ",
"oOOOOOOOOOOOOOOO=>+OOOOOOOOOOOOOOOOOOOOOOOOOOOOOOOOOOO=>+OOOOOOOOOOOOOOO ",
"oOOOOOOOOOOOOOOO=>+OOOOOOOOOOOOOOOOOOOOOOOOOOOOOOOOOOO=>+OOOOOOOOOOOOOOO ",
"oOOOOOOOOOOOOOOO=>+OOOOOOOOOOOOOOOOOOOOOOOOOOOOOOOOOOO=>+OOOOOOOOOOOOOOO ",
"oOOOOOOOOOOOOOOO=>+OOOOOOOOOOOOOOOOOOOOOOOOOOOOOOOOOOO=>+OOOOOOOOOOOOOOO ",
"oOOOOOOOOOOOOOOO=>+OOOOOOOOOOOOOOOOOOOOOOOOOOOOOOOOOOO=>+OOOOOOOOOOOOOOO ",
"oOOOOOOOOOOOOOOO=>+OOOOOOOOOOOOOOOOOOOOOOOOOOOOOOOOOOO=>+OOOOOOOOOOOOOOO ",
"oOOOOOOOOOOOOOOO=>+OOOOOOOOOOOOOOOOOOOOOOOOOOOOOOOOOOO=>+OOOOOOOOOOOOOOO ",
"oOOOOOOOOOOOOOOO=>+OOOOOOOOOOOOOOOOOOOOOOOOOOOOOOOOOOO=>+OOOOOOOOOOOOOOO ",
"oOOOOOOOOOOOOOOO=>+OOOOOOOOOOOOOOOOOOOOOOOOOOOOOOOOOOO=>+OOOOOOOOOOOOOOO ",
"oOOOOOOOOOOOOOOO=>+OOOOOOOOOOOOOOOOOOOOOOOOOOOOOOOOOOO=>+OOOOOOOOOOOOOOO ",
"oOOOOOOOOOOOOOOO=>+OOOOOOOOOOOOOOOOOOOOOOOOOOOOOOOOOOO=>+OOOOOOOOOOOOOOO ",
":::>>>>>>>>>>>>>>>>>>>>>>>>>>>>>>>>>>>>>>>>>>>>>>>>>>>>>>>>>>>>>>>>>>>>> ",
"::::>>>>>>>>>>>>>>>>>>>>>>>>>>>>>>>>>>>>>>>>>>>>>>>>>>>>>>>>>>>>>>>>>>>> ",
"..................................*>X.................................*> ",
"..................................*>X.................................*> ",
"..................................*>X.................................*> ",
"..................................*>X.................................*> ",
"..................................*>X.................................*> ",
"..................................*>X.................................*> ",
"..................................*>X.................................*> ",
"..................................*>X.................................*> ",
"..................................*:X.................................=: ",
"..................................*:X.................................=: ",
"..................................=>X.................................*: ",
"..................................*:X.................................*: ",
"..................................*:X.................................*: ",
"..................................*:X.................................=> ",
"..................................=>X.................................*: ",
"..................................*>X.................................*: "
};
