/* XPM */
static char *charactre_left1705954687[] = {
/* columns rows colors chars-per-pixel */
"36 36 181 2 ",
"   c #040406",
".  c #0F0B0B",
"X  c #120B0A",
"o  c #120C0C",
"O  c #0E0E11",
"+  c #120E12",
"@  c #140E11",
"#  c #141014",
"$  c #13121B",
"%  c #151218",
"&  c #1D1818",
"*  c #201311",
"=  c #201918",
"-  c #181925",
";  c #131829",
":  c #1A1C2A",
">  c #1A1D2C",
",  c #1A2035",
"<  c #1D2136",
"1  c #1C233A",
"2  c #1D253D",
"3  c #292324",
"4  c #3C2623",
"5  c #312C2C",
"6  c #433D3D",
"7  c #69463F",
"8  c #1F2740",
"9  c #222944",
"0  c #212A45",
"q  c #282E44",
"w  c #222B49",
"e  c #232D4B",
"r  c #242C4A",
"t  c #2B3144",
"y  c #3F3F41",
"u  c #263051",
"i  c #2B3552",
"p  c #2C3553",
"a  c #283356",
"s  c #2A365B",
"d  c #2C375E",
"f  c #2C3961",
"g  c #2F3C67",
"h  c #303D69",
"j  c #313F6C",
"k  c #394056",
"l  c #3A415C",
"z  c #39425D",
"x  c #3B476F",
"c  c #3B4773",
"v  c #4A4444",
"b  c #42444E",
"n  c #45474F",
"m  c #4C494B",
"M  c #504D4F",
"N  c #414553",
"B  c #484950",
"V  c #4B4C51",
"C  c #4E4E52",
"Z  c #555151",
"A  c #515155",
"S  c #535357",
"D  c #545458",
"F  c #57575B",
"G  c #5A5A5E",
"H  c #5E5C5E",
"J  c #6E5852",
"K  c #605C5E",
"L  c #5C5C61",
"P  c #5E5E62",
"I  c #595C67",
"U  c #545969",
"Y  c #545A6C",
"T  c #575F74",
"R  c #666161",
"E  c #66666A",
"W  c #6D6D6E",
"Q  c #766463",
"!  c #726F6F",
"~  c #606576",
"^  c #6C6C70",
"/  c #616678",
"(  c #64697C",
")  c #696E7E",
"_  c #727276",
"`  c #76767A",
"'  c #76767B",
"]  c #7A787A",
"[  c #7A7A7E",
"{  c #8B594F",
"}  c #8F5E54",
"|  c #975F53",
" . c #85625B",
".. c #806562",
"X. c #906D67",
"o. c #AC6D61",
"O. c #B78378",
"+. c #B2847B",
"@. c #C18679",
"#. c #C2887C",
"$. c #556185",
"%. c #6E7383",
"&. c #7C7C80",
"*. c #7E7E81",
"=. c #7E7E83",
"-. c #777B89",
";. c #7B7F8E",
":. c #6E7691",
">. c #828283",
",. c #8A8686",
"<. c #89898D",
"1. c #858790",
"2. c #848792",
"3. c #898B91",
"4. c #8E8E93",
"5. c #888C99",
"6. c #969190",
"7. c #959597",
"8. c #999697",
"9. c #90929A",
"0. c #96969B",
"q. c #99999E",
"w. c #9C9B9D",
"e. c #A38D89",
"r. c #8A90A3",
"t. c #9397A6",
"y. c #9F9FA1",
"u. c #9E9EA2",
"i. c #999BA5",
"p. c #9198AF",
"a. c #A0A0A2",
"s. c #A0A0A5",
"d. c #A5A5A7",
"f. c #A5A5AA",
"g. c #A6A6AA",
"h. c #A6A6AB",
"j. c #A1A3AC",
"k. c #AAA8AB",
"l. c #ABABAE",
"z. c #ACACAC",
"x. c #B3A5A3",
"c. c #B2ABAC",
"v. c #A5A8B0",
"b. c #AAAAB1",
"n. c #ADADB1",
"m. c #B3B3B6",
"M. c #B7B7B7",
"N. c #B0B2BA",
"B. c #B7B7B9",
"V. c #B8B8BB",
"C. c #B9B9BD",
"Z. c #C69287",
"A. c #BDBFC5",
"S. c #C0C0C3",
"D. c #C2C2C6",
"F. c #C4C4C6",
"G. c #C5C5C6",
"H. c #C8C6C6",
"J. c #C6C6C9",
"K. c #C0C4CE",
"L. c #CACACA",
"P. c #CECBCA",
"I. c #C8C8CC",
"U. c #CDCDCE",
"Y. c #D8CCCA",
"T. c #CFCFD2",
"R. c #D0CFD0",
"E. c #CED0D8",
"W. c #D1D1D2",
"Q. c #D1D1D5",
"!. c #D3D3D4",
"~. c #D6D5D5",
"^. c #D9D9DA",
"/. c gray87",
"(. c #E7DAD7",
"). c #DFDFE1",
"_. c #E4E4E4",
"`. c #E5E5E6",
"'. c #E9E9E9",
"]. c #ECECEC",
"[. c gray95",
/* pixels */
"[.[.[.[.[.[.[.[.[.[.[.[.[.[.[.[.[.z.[.[.[.[.[.[.[.[.[.[.[.[.[.[.[.[.[.z.",
"[.[.[.[.[.[.[.[.[.[.[.[.[.[.[.[.[.z.[.[.[.[.[.[.[.[.[.[.[.[.[.[.[.[.[.z.",
"[.[.[.[.[.[.[.[.[.[.[.[.[.[.[.[.[.z.[.[.[.[.[.[.[.[.[.[.[.[.[.[.[.[.[.z.",
"[.[.[.[.[.[.[.[.[.[.[.[.[.[.[.[.[.z.[.[.[.[.[.[.[.[.[.[.[.[.[.[.[.[.[.z.",
"[.[.[.[.[.[.[.[.[.[.[.[.[.G.y y y W [.[.[.[.[.[.[.[.[.[.[.[.[.[.[.[.[.z.",
"[.[.[.[.[.[.[.[.[.[.[.[.[.Y.| { . O G.[.[.[.[.[.[.[.[.[.[.[.[.[.[.[.[.z.",
"[.[.[.[.[.[.[.[.[.[.[.[.[.P. .J }   M.[.[.[.[.[.[.[.[.[.[.[.[.[.[.[.[.z.",
"[.[.[.[.[.[.[.[.[.[.[.[.[.(.Z.Z.O.4 M.[.[.[.[.[.[.[.[.[.[.[.[.[.[.[.[.z.",
"z.z.z.z.z.z.z.z.z.z.z.z.z.x.Z.Z.#.7 >.z.z.z.z.z.z.z.z.z.z.z.z.z.z.z.z.z.",
"[.[.[.[.[.[.[.[.z.[.[.[.[.c.+.@.o.e.v.U.U.].[.[.[.[.[.z.[.[.[.[.[.[.[.[.",
"[.[.[.[.[.[.[.[.z.[.[.[.[.A Q X...C t 4.4.m.[.[.[.[.[.z.[.[.[.[.[.[.[.[.",
"[.[.[.[.[.[.[.[.z.[.[.[.d.C A D A C t 4.4.4.C.[.[.[.[.z.[.[.[.[.[.[.[.[.",
"[.[.[.[.[.[.[.[.z.[.[.~.H L B V C b q ' =.=.^ /.[.[.[.z.[.[.[.[.[.[.[.[.",
"[.[.[.[.[.[.[.[.z.[.[.R X m ( z z a a a b C C a.[.[.[.z.[.[.[.[.[.[.[.[.",
"[.[.[.[.[.[.[.[.z.[.[.w.3 H.p.j j j x g p n C m H.[.[.z.[.[.[.[.[.[.[.[.",
"[.[.[.[.[.[.[.[.z.[.C.4.^.[.[.T e e u 8 0 A.H X 6.[.[.z.[.[.[.[.[.[.[.[.",
"[.[.[.[.[.[.[.[.z.`.4.g._.[.E.$.j j j j a ;.B.X * [.[.z.[.[.[.[.[.[.[.[.",
"z.z.z.z.z.z.z.z.z.0.>.a.k.l.) u u u u u e 2 a.6 M a.z.! Z z.z.z.z.z.z.z.",
"z.[.[.[.[.[.[.[.[.m.S.L.[.K.x g f g g g h h :.T.=.s.,.= v [.[.[.[.[.[.[.",
"z.[.[.[.[.[.[.[.[.[.[.[.[.5.a d > 8 s j h f N W G 4.] R _.[.[.[.[.[.[.[.",
"z.[.[.[.[.[.[.[.[.[.[.[.[.r a : . - 2 j j e i.7.C _ s.^.[.[.[.[.[.[.[.[.",
"z.[.[.[.[.[.[.[.[.[.[.[./ r a % . $ 1 h c t.0.' C D [ U.[.[.[.[.[.[.[.[.",
"z.[.[.[.[.[.[.[.[.[.[.[.Y 0 r + + ; , i r.q.4.0.[ C E G.[.[.[.[.[.[.[.[.",
"z.[.[.[.[.[.[.[.[.[.[.N.k 0 - X $ ; I 2.u.4.n.J.).a.u.!.[.[.[.[.[.[.[.[.",
"z.[.[.[.[.[.[.[.[.[.[.%.2 < @ X ; I D.q.g.C.z.8.[.[.[.[.[.[.[.[.[.[.[.[.",
"z.[.[.[.[.[.[.[.[.[.[.%.9 & o 5 ~ h.q.s.g.H 5 4.[.[.[.[.[.[.[.[.[.[.[.[.",
"z.z.z.z.z.z.z.z.z.z.z.U U L M M.F.l.B.~ 0 3.] 0.k.z.z.z.z.z.z.z.z.z.z.z.",
"[.[.[.[.[.[.[.[.[.z.[.%.1.C.C.R.b.N J.2 %.<.L 4.^.[.z.[.[.[.[.[.[.[.[.[.",
"[.[.[.[.[.[.[.[.[.z.[.-.j.R.Q.'.L.9.[./ [.[.G D L.[.z.[.[.[.[.[.[.[.[.[.",
"[.[.[.[.[.[.[.[.[.z./.U.h.B.[.[.[.[.[.[.[.[.!.[ l.[.z.[.[.[.[.[.[.[.[.[.",
"[.[.[.[.[.[.[.[.[.D.n.=.L ] [.[.[.[.[.[.[.[.L.S F [.z.[.[.[.[.[.[.[.[.[.",
"[.[.[.[.[.[.[.[.[.l.`./././.[.[.[.[.[.[.[.[.[././.[.z.[.[.[.[.[.[.[.[.[.",
"[.[.[.[.[.[.[.[.[.z.[.[.[.[.[.[.[.[.[.[.[.[.[.[.[.[.z.[.[.[.[.[.[.[.[.[.",
"[.[.[.[.[.[.[.[.[.z.[.[.[.[.[.[.[.[.[.[.[.[.[.[.[.[.z.[.[.[.[.[.[.[.[.[.",
"[.[.[.[.[.[.[.[.[.z.[.[.[.[.[.[.[.[.[.[.[.[.[.[.[.[.z.[.[.[.[.[.[.[.[.[.",
"z.z.z.z.z.z.z.z.z.z.z.z.z.z.z.z.z.z.z.z.z.z.z.z.z.z.z.z.z.z.z.z.z.z.z.z."
};
