/* XPM */
static char *collectable_11705954686[] = {
/* columns rows colors chars-per-pixel */
"36 36 22 1 ",
"  c #F77622",
". c #FEAE34",
"X c #FEE761",
"o c #8B8B8B",
"O c gray55",
"+ c gray57",
"@ c gray59",
"# c gray62",
"$ c #A2A2A2",
"% c #A4A4A4",
"& c gray66",
"* c #ACACAC",
"= c gray77",
"- c #CACACA",
"; c #CDCDCD",
": c gray81",
"> c LightGray",
", c #D5D5D5",
"< c #E7E7E7",
"1 c gray92",
"2 c #ECECEC",
"3 c gray95",
/* pixels */
"33333333333333333*33333333333333333*",
"33333333333333333*33333333333333333*",
"33333333333333333*33333333333333333*",
"33333333333333333*33333333333333333*",
"33333333333333333*33333333333333333*",
"33333333333333333*33333333333333333*",
"33333333333333333*33333333333333333*",
"33333333333333333*33333333333333333*",
"*************&+OoOoOo+%&************",
"33333333*3333;  ....XX-3333*33333333",
"33333333*332;$  ....XX#>233*33333333",
"33333333*33;    ....XXXX,33&33333333",
"33333333*1;$  ........XX%>2*33333333",
"33333333*;  ............XX>*33333333",
"33333333*=  ............XX-*33333333",
"33333333*=  ....  XX....XX;*33333333",
"33333333*=  ....  XX....XX-*33333333",
"*********O  ....  XX....XX+*********",
"*33333333=  ....  XX....XX-333333333",
"*33333333=  ....  XX....XX-333333333",
"*33333333=  ............XX-333333333",
"*33333333;  ............XX;333333333",
"*33333333<-#  ........XX%-1333333333",
"*3333333333;    ....XXXX,33333333333",
"*33333333332>&  ....XX$,233333333333",
"*333333333333;  ....XX;3333333333333",
"*************%@++++O+@&*************",
"333333333*3333333333333333*333333333",
"333333333*3333333333333333*333333333",
"333333333*3333333333333333*333333333",
"333333333*3333333333333333*333333333",
"333333333*3333333333333333*333333333",
"333333333*3333333333333333*333333333",
"333333333*3333333333333333*333333333",
"333333333*3333333333333333*333333333",
"************************************"
};
