/* XPM */
static char *collectable_21705954687[] = {
/* columns rows colors chars-per-pixel */
"36 36 73 1 ",
"  c #124E89",
". c #1B5991",
"X c #265786",
"o c #24598C",
"O c #285D90",
"+ c #0D619D",
"@ c #3B6894",
"# c #0B6AA8",
"$ c #0A6FAD",
"% c #0973B2",
"& c #667C92",
"* c #1F9BBF",
"= c #728190",
"- c #5593A5",
"; c #6A88A5",
": c #6C8AA7",
"> c #7C92A8",
", c #72A0A4",
"< c #6AB0B5",
"1 c #0486C6",
"2 c #038BCC",
"3 c #0D95CB",
"4 c #0F9ACD",
"5 c #028FD1",
"6 c #0290D1",
"7 c #0194D6",
"8 c #0099DB",
"9 c #039EDD",
"0 c #05A3DE",
"q c #08A8E0",
"w c #0BADE1",
"e c #13BBE6",
"r c #72B1C3",
"t c #3BD4DF",
"y c #16C1E8",
"u c #19C5EA",
"i c #1BCAEB",
"p c #21D5EE",
"a c #36DBE6",
"s c #31DFEF",
"d c #3DE1ED",
"f c #2CE8F5",
"g c #77D5DB",
"h c #7AD7DE",
"j c #4BD8E2",
"k c #7EDBE2",
"l c #859BB2",
"z c #94A3B2",
"x c gray63",
"c c #A4A4A4",
"v c #A9A9A9",
"b c gray67",
"n c #ACACAC",
"m c #9BCACE",
"M c #8CD3D7",
"N c #8CD2D8",
"B c #CCD0D3",
"V c #CFDADC",
"C c gray84",
"Z c #D8D8D8",
"A c gray85",
"S c gray86",
"D c gainsboro",
"F c #DDDDDD",
"G c #D4DFE0",
"H c gray88",
"J c #E1E1E1",
"K c gray90",
"L c #EAEAEA",
"P c gray93",
"I c #EEEEEE",
"U c #EFEFEF",
"Y c gray95",
/* pixels */
"YYYYYYYYYYYYYYYYYnYYYYYYYYYYYYYYYYYn",
"YYYYYYYYYYYYYYYYYnYYYYYYYYYYYYYYYYYn",
"YYYYYYYYYYYYYYYYYnYYYYYYYYYYYYYYYYYn",
"YYYYYYYYYYYYYYYYYnYYYYYYYYYYYYYYYYYn",
"YYYYYYYYYYYYYYYYYnYYYYYYYYYYYYYYYYYn",
"YYYYYYYYYYYYYYYYYnYYYYYYYYYYYYYYYYYn",
"YYYYYYYYYYYYYYYYYvYYYYYYYYYYYYYYYYYn",
"YYYYYYYYYYYYYYYYK-JYYYYYYYYYYYYYYYYn",
"nnnnnnnnnnnnnnnn&*,vnnnnnnnnnnnnnnnn",
"YYYYYYYYnYYYYYYFO4jAYYYYYYYnYYYYYYYY",
"YYYYYYYYnYYYYYIl#8pmIYYYYYYnYYYYYYYY",
"YYYYYYYYnYYYYYAO68wdFYYYYYYnYYYYYYYY",
"YYYYYYYYnYYYYI>#888iNIYYYYYnYYYYYYYY",
"YYYYYYYYnYYYYCo6888qdGYYYYYnYYYYYYYY",
"YYYYYYYYnYYYI>#88488ukIYYYYnYYYYYYYY",
"YYYYYYYYnYYYCo685*089sVYYYYnYYYYYYYY",
"YYYYYYYYnYYI;%82+*iq8ugIYYYnYYYYYYYY",
"nnnnnnnnnnncX2%  *ffe0txnnnnnnnnnnnn",
"nYYYYYYYYYYI:%86+*iq8yhLYYYYYYYYYYYY",
"nYYYYYYYYYYYB.782*080dAYYYYYYYYYYYYY",
"nYYYYYYYYYYYI:$88388iNIYYYYYYYYYYYYY",
"nYYYYYYYYYYYYBo28880dAYYYYYYYYYYYYYY",
"nYYYYYYYYYYYYIl#888iNIYYYYYYYYYYYYYY",
"nYYYYYYYYYYYYYAo180dFYYYYYYYYYYYYYYY",
"nYYYYYYYYYYYYYIz+8iMIYYYYYYYYYYYYYYY",
"nYYYYYYYYYYYYYYJ@4aDYYYYYYYYYYYYYYYY",
"nnnnnnnnnnnnnnnn=*<vnnnnnnnnnnnnnnnn",
"YYYYYYYYYnYYYYYYKrJYYYYYYYnYYYYYYYYY",
"YYYYYYYYYnYYYYYYYIYYYYYYYYnYYYYYYYYY",
"YYYYYYYYYnYYYYYYYYYYYYYYYYnYYYYYYYYY",
"YYYYYYYYYnYYYYYYYYYYYYYYYYnYYYYYYYYY",
"YYYYYYYYYvYYYYYYYYYYYYYYYYnYYYYYYYYY",
"YYYYYYYYYnYYYYYYYYYYYYYYYYnYYYYYYYYY",
"YYYYYYYYYnYYYYYYYYYYYYYYYYnYYYYYYYYY",
"YYYYYYYYYnYYYYYYYYYYYYYYYYnYYYYYYYYY",
"nnnnnnnnnnnnnnnnnnnnnnnnnnnnnnnnnnnn"
};
