/* XPM */
static char *enemy_right_11705954688[] = {
/* columns rows colors chars-per-pixel */
"36 36 155 2 ",
"   c #263414",
".  c #2C3917",
"X  c #2B3C18",
"o  c #353B1A",
"O  c #28292D",
"+  c #2D2E33",
"@  c #303136",
"#  c #3B3D34",
"$  c #33343A",
"%  c #422014",
"&  c #4A2112",
"*  c #493B1B",
"=  c #55371D",
"-  c #6A331E",
";  c #412D27",
":  c #532F23",
">  c #473628",
",  c #47312D",
"<  c #5A3528",
"1  c #4A3632",
"2  c #4D3934",
"3  c #553A34",
"4  c #623120",
"5  c #6D3520",
"6  c #6E3C29",
"7  c #703721",
"8  c #743A24",
"9  c #793E27",
"0  c #7A3F29",
"q  c #643D30",
"w  c #31441B",
"e  c #364A1D",
"r  c #364424",
"t  c #384626",
"y  c #3D4C2A",
"u  c #3F5722",
"i  c #3A4534",
"p  c #495D1C",
"a  c #5B6C12",
"s  c #677810",
"d  c #6A7C11",
"f  c #454828",
"g  c #574831",
"h  c #435631",
"j  c #63442F",
"k  c #7D412A",
"l  c #724230",
"z  c #486427",
"x  c #4C6A28",
"c  c #516F2A",
"v  c #53732C",
"b  c #4C6230",
"n  c #536838",
"m  c #5B7536",
"M  c #3E3F44",
"N  c #3F4148",
"B  c #444147",
"V  c #41424A",
"C  c #4C4D55",
"Z  c #57565A",
"A  c #57585F",
"S  c #59595C",
"D  c #5D694E",
"F  c #626046",
"G  c #637B47",
"H  c #746551",
"J  c #647353",
"K  c #69745C",
"L  c #65656B",
"P  c #716866",
"I  c #6E6F73",
"U  c #747577",
"Y  c #81442D",
"T  c #854D37",
"R  c #884931",
"E  c #8E533D",
"W  c #8D5540",
"Q  c #836053",
"!  c #8C6353",
"~  c #946E61",
"^  c #92756A",
"/  c #937E77",
"(  c #A37361",
")  c #748F1E",
"_  c #678148",
"`  c #708A4E",
"'  c #718358",
"]  c #7A935D",
"[  c #778763",
"{  c #7D8C6B",
"}  c #839F1E",
"|  c #C5DB0B",
" . c #838D76",
".. c #9C857D",
"X. c #919C70",
"o. c #A6877B",
"O. c #AF8879",
"+. c #8FA276",
"@. c #97A776",
"#. c #818084",
"$. c #838489",
"%. c #88898F",
"&. c #968E8E",
"*. c #8E9685",
"=. c #98918F",
"-. c #8E8F91",
";. c #949790",
":. c #9B9593",
">. c #9C9C9E",
",. c #A18D86",
"<. c #AE9288",
"1. c #A09591",
"2. c #A49D9A",
"3. c #B69E95",
"4. c #BD9D91",
"5. c #9BA293",
"6. c #A3A989",
"7. c #A3B38F",
"8. c #A7A09C",
"9. c #AAB79A",
"0. c #A4A4A4",
"q. c #A7ACA1",
"w. c #A8ADA0",
"e. c #A9A7A8",
"r. c #ACACAC",
"t. c #BFAAA3",
"y. c #BAAFAB",
"u. c #AAB1A1",
"i. c #B1B7A6",
"p. c #B4B9AE",
"a. c #B3B2B4",
"s. c #BCBBBD",
"d. c #C3ADA4",
"f. c #CAB2A9",
"g. c #D1BDB6",
"h. c #BCC39E",
"j. c #B6C2A8",
"k. c #C0C4BB",
"l. c #C8CFBF",
"z. c #D0C2BD",
"x. c #C7C8C4",
"c. c #C6C6C8",
"v. c #CDCECB",
"b. c #CAD2C1",
"n. c #CCD0C9",
"m. c #DED3CE",
"M. c #DBD9D7",
"N. c #DCDBDC",
"B. c #DEE2D9",
"V. c #E0E3D7",
"C. c #E6E6E5",
"Z. c #EAE6E5",
"A. c #E7E7E8",
"S. c #ECECEC",
"D. c gray95",
/* pixels */
"D.D.D.D.D.D.D.D.D.D.D.D.D.D.D.D.D.r.D.D.D.D.D.D.D.D.D.D.D.D.D.D.D.D.D.r.",
"D.D.D.D.D.D.D.D.D.D.D.D.D.D.D.D.D.a.D.D.D.D.D.D.D.D.D.D.D.D.D.D.D.D.D.r.",
"D.D.D.D.D.D.D.D.D.D.D.D.D.D.D.D.D.r.D.D.D.D.D.D.D.D.D.D.D.D.D.D.D.D.D.r.",
"D.D.D.D.D.D.D.D.D.D.D.D.D.D.D.D.D.r.D.D.D.D.D.D.D.D.D.D.D.D.D.D.D.D.D.r.",
"D.D.D.D.D.D.D.D.D.D.D.D.D.D.D.D.D.r.D.D.D.D.D.D.D.D.D.D.D.D.D.D.D.D.D.r.",
"D.D.D.D.D.D.D.D.D.D.D.D.D.D.N.%.N.r.D.D.D.D.D.D.D.D.D.D.D.D.D.D.D.D.D.r.",
"D.D.D.D.D.D.D.D.D.D.D.D.D.N.N L A.r.D.D.B.u.D.D.D.D.D.D.D.D.D.D.D.D.D.r.",
"D.D.D.D.D.D.D.D.D.j.B.D.D.$.$ r.D.r.j.+.' w D.D.D.D.D.D.D.D.D.D.D.D.D.r.",
"r.r.r.r.r.r.r.r.r.{  .0._ i h  . .v x w r ;.r.q.r.r.r.r.r.r.r.r.r.r.r.r.",
"D.D.D.D.D.D.D.D.r.*.c [ v v v z u x w r p.D.D.D.D.D.D.r.D.D.D.D.D.D.D.D.",
"D.D.D.D.D.D.D.D.r.*.w ) } p | d x w X s.D.D.D.D.D.D.D.r.D.D.D.D.D.D.D.D.",
"D.D.D.D.D.D.D.D.r.D.D s a p | a X t j.D.D.D.D.D.D.D.D.r.D.D.D.D.D.D.D.D.",
"D.D.D.D.D.D.D.D.r.D.5.e u x e X   F 4.4.g.D.D.D.D.D.D.r.D.D.D.D.D.D.D.D.",
"D.D.D.D.D.D.D.D.r.D.D.9.v e   [ r * Y f m G G 7.B.D.D.r.D.D.D.D.D.D.D.D.",
"D.D.D.D.D.D.D.D.r.D.D.i.e . r r o k 0 o . X w z v b.D.r.D.D.D.D.D.D.D.D.",
"D.D.D.D.D.D.D.D.r.D.D.w.  [ r y = R Y = H 0.9.K r ` V.r.D.D.D.D.D.D.D.D.",
"D.D.D.D.D.D.D.D.r.D.b.b . C # = 8 R R Y o.D.D.C.K X.h.i.y.< v.D.D.D.D.D.",
"r.r.r.r.r.r.r.r.r.5.n y j , 1 - 0 Y R W r.r.r.r.r.;.6.@.* g &.r.r.r.r.r.",
"r.D.D.D.D.D.D.7.+.J y k.z.6 < 5 - - 8 f.D.D.D.D.D.n.' m x ;.D.D.D.D.D.D.",
"r.D.D.D.D.l.z e y 9.D.D.D.M.& & & & % Z c.A.D.D.D.n.f . D D.D.D.D.D.D.D.",
"r.D.D.D.D.j.J D ] D.D.D.s.&.5 8 9 9 , M B $.a.D.D.S.=.> 9.D.D.D.D.D.D.D.",
"r.D.D.D.D.C.N.v.J D.D.c.C B 3 5 Y R 1 + $ B I D.D.v.:.8.D.D.D.D.D.D.D.D.",
"r.D.D.D.D.D.D.D.D.D.s.V V V 1 4 7 q O O @ N V >.S.s.s.S.D.D.D.D.D.D.D.D.",
"r.D.D.D.D.D.D.D.D.c.A V V M O : 5 < O O O $ V #.a.s.A.D.D.D.D.D.D.D.D.D.",
"r.D.D.D.D.D.D.D.D.-.+ V $ + U M.! 5 2 O O M S e.x.S.D.D.D.D.D.D.D.D.D.D.",
"r.D.D.D.D.D.D.D.D.=.; 1 1 1 z.D.A.! / U # >.P ..d.D.D.D.D.D.D.D.D.D.D.D.",
"r.r.r.r.r.r.r.r.r.1.l 8 Y - Q r.r.2.2.0.U Z : 9 R r.r.r.r.r.r.r.r.r.r.r.",
"D.D.D.D.D.D.D.D.D.r.Z.d.T Y E g.D.D.D.D.C.N.- 9 R O.r.D.D.D.D.D.D.D.D.D.",
"D.D.D.D.D.D.D.D.D.r.D.D.t.T R f.D.D.D.D.D.D.! - Y ( r.D.D.D.D.D.D.D.D.D.",
"D.D.D.D.D.D.D.D.D.r.D.D.t.0 k f.D.D.D.D.D.D.Z.~ 8 E ,.D.D.D.D.D.D.D.D.D.",
"D.D.D.D.D.D.D.D.D.r.D.o.4 5 ! z.D.D.D.D.D.D.D.D.! 7 Y R m.D.D.D.D.D.D.D.",
"D.D.D.D.D.D.D.D.D.r.Z.<.<.3.D.D.D.D.D.D.D.D.D.D.d.<.^ 4.f.D.D.D.D.D.D.D.",
"D.D.D.D.D.D.D.D.D.r.D.D.D.D.D.D.D.D.D.D.D.D.D.D.D.D.r.D.D.D.D.D.D.D.D.D.",
"D.D.D.D.D.D.D.D.D.r.D.D.D.D.D.D.D.D.D.D.D.D.D.D.D.D.r.D.D.D.D.D.D.D.D.D.",
"D.D.D.D.D.D.D.D.D.r.D.D.D.D.D.D.D.D.D.D.D.D.D.D.D.D.r.D.D.D.D.D.D.D.D.D.",
"r.r.r.r.r.r.r.r.r.r.r.r.r.r.r.r.r.r.r.r.r.r.r.r.r.r.r.r.r.r.r.r.r.r.r.r."
};
