/* XPM */
static char *ee01ea77e561473ffd947dc584fce80au6KBzo60NUsXVKoI[] = {
/* columns rows colors chars-per-pixel */
"36 36 59 1 ",
"  c black",
". c #151515",
"X c #2C1C19",
"o c #30231F",
"O c gray17",
"+ c #3E2C28",
"@ c #353535",
"# c #483029",
"$ c #403A37",
"% c #573932",
"& c #533B34",
"* c #5E3F35",
"= c #66433A",
"- c #6C483E",
"; c gray25",
": c #4B4B4B",
"> c #565656",
", c #744D42",
"< c #704E44",
"1 c #7B594F",
"2 c #775A52",
"3 c #7E5F56",
"4 c gray38",
"5 c #6C6C6C",
"6 c #846258",
"7 c #82655C",
"8 c #856A63",
"9 c #89706A",
"0 c #93766E",
"q c #8C7670",
"w c #907C77",
"e c #9B8079",
"r c #818181",
"t c #8B8B8B",
"y c gray55",
"u c #979797",
"i c #A38A84",
"p c #B39F9A",
"a c #A5A09F",
"s c gray63",
"d c #ACACAC",
"f c gray69",
"g c gray71",
"h c #B9B9B9",
"j c gray74",
"k c gray76",
"l c #C6C6C6",
"z c #CBCBCB",
"x c gray81",
"c c #D3C9C6",
"v c LightGray",
"b c #D7D7D7",
"n c gainsboro",
"m c #E2DEDC",
"M c gray88",
"N c gray90",
"B c #E9E9E9",
"V c #EEEEEE",
"C c gray95",
/* pixels */
"CCCCCCCCCCCCCCCCCdCCCCCCCCCCCCCCCCCd",
"CCCCCCCCCCCCCCCCCdCCCCCCCCCCCCCCCCCd",
"CCCCCCCCCCCCCCCCCdCCCCCCCCCCCCCCCCCd",
"CCCCCCCCCCCCCCCCCdCCCCCCCCCCCCCCCCCd",
"CCCCCCCCCCCCCCCCCdCCCCCCCCCCCCCCCCCd",
"CCCCCCCCCCCCCCCCCdCCCCCCCCCCCCCCCCCd",
"CCCCCCCCCmccccccCdCCmccccccCCCCCCCCd",
"CCCCCCCCCi,,,,,0CdCCi,,,,,eCCCCCCCCd",
"dddddddddda8,,qdddddda3,,wdddddddddd",
"CCCCCCCCdCCi,,CCCCCCCC0,6CCdCCCCCCCC",
"CCCCCCCCdCCi,,CCCCCCCC0,6CCdCCCCCCCC",
"CCCCCCCCdCCi,,CCCCCCCC0,6CCdCCCCCCCC",
"CCCCCCCCdCCi,,CCCCCCCC0,6CCdCCCCCCCC",
"CCCCCCCCdCCi,,CCCCCCCC0,6CCdCCCCCCCC",
"CCCCCCCCdCCi,,pppppppp6,6CCdCCCCCCCC",
"CCCCCCCCdCCi,,pppppppp6,6CCdCCCCCCCC",
"CCCCCCCCdCCi,,CCCCCCCC0,6CCdCCCCCCCC",
"ddddddddddd9,,dddddddd7,1ddddddddddd",
"dCCCCCCCMzf9,,4:;;;;:42,1glBCCCCCCCC",
"dCCCCCVkds>&,,        %,<:udlBCCCCCC",
"dCCCCNgs:  #,,        %,=  ;ugNCCCCC",
"dCCCBgu.   #,,        %,=   .sgVCCCC",
"dCCCbd;    #,,        %,=    >dxCCCC",
"dCCCld@    #,,XXXXXXXX*,=    OdlCCCC",
"dCCCbd5    #,,########-,=    5dbCCCC",
"dCCCVgd>   #,,        %,=   >dgCCCCC",
"ddddddddyO #,,        %,* Ordddddddd",
"CCCCCCCxgdu4$+        o$4udfxVCCCCCC",
"CCCCCCCCBdjdddstrrrrtsdddjdVCCCCCCCC",
"CCCCCCCCCdCVMvljjhgjklvnVCdCCCCCCCCC",
"CCCCCCCCCdCCCCCCCCCCCCCCCCdCCCCCCCCC",
"CCCCCCCCCdCCCCCCCCCCCCCCCCdCCCCCCCCC",
"CCCCCCCCCdCCCCCCCCCCCCCCCCdCCCCCCCCC",
"CCCCCCCCCdCCCCCCCCCCCCCCCCdCCCCCCCCC",
"CCCCCCCCCdCCCCCCCCCCCCCCCCdCCCCCCCCC",
"dddddddddddddddddddddddddddddddddddd"
};
