/* XPM */
static char *_29e2374efc34fe7a3d4c7e56aac3fadUwHUmXcaHIfQcJMq[] = {
/* columns rows colors chars-per-pixel */
"36 36 5 1 ",
"  c gray10",
". c #333230",
"X c #565551",
"o c #6C6964",
"O c #ACACAC",
/* pixels */
"                 O                 O",
"                 O                 O",
"                 O                 O",
"                 O                 O",
"                 O                 O",
"                 O                 O",
"                 O                 O",
"                 O                 O",
"OOOOOOOOOOOOOOOOOOOOOOOOOOOOOOOOOOOO",
"        O..................O........",
"        O..................O........",
"        O..................O........",
"        O..................O........",
"        O..................O........",
"        O..................O........",
"        O..................O........",
"        O..................O........",
"OOOOOOOOOOOOOOOOOOOOOOOOOOOOOOOOOOOO",
"O                 OXXXXXXXXXXXXXXXXX",
"O                 OXXXXXXXXXXXXXXXXX",
"O                 OXXXXXXXXXXXXXXXXX",
"O                 OXXXXXXXXXXXXXXXXX",
"O                 OXXXXXXXXXXXXXXXXX",
"O                 OXXXXXXXXXXXXXXXXX",
"O                 OXXXXXXXXXXXXXXXXX",
"O                 OXXXXXXXXXXXXXXXXX",
"OOOOOOOOOOOOOOOOOOOOOOOOOOOOOOOOOOOO",
"         O................Oooooooooo",
"         O................Oooooooooo",
"         O................Oooooooooo",
"         O................Oooooooooo",
"         O................Oooooooooo",
"         O................Oooooooooo",
"         O................Oooooooooo",
"         O................Oooooooooo",
"OOOOOOOOOOOOOOOOOOOOOOOOOOOOOOOOOOOO"
};
