/* XPM */
static char *d6c5120d7f2341b0e246a0713f83ba37PCkskHY9uFDnJ1JT[] = {
/* columns rows colors chars-per-pixel */
"36 36 2 1 ",
"  c gray10",
". c #ACACAC",
/* pixels */
".                .                 .",
".                .                 .",
".                .                 .",
".                .                 .",
".                .                 .",
".                .                 .",
".                .                 .",
".                .                 .",
"....................................",
".       .                  .       .",
".       .                  .       .",
".       .                  .       .",
".       .                  .       .",
".       .                  .       .",
".       .                  .       .",
".       .                  .       .",
".       .                  .       .",
"....................................",
".                 .                .",
".                 .                .",
".                 .                .",
".                 .                .",
".                 .                .",
".                 .                .",
".                 .                .",
".                 .                .",
"....................................",
".        .                .        .",
".        .                .        .",
".        .                .        .",
".        .                .        .",
".        .                .        .",
".        .                .        .",
".        .                .        .",
".        .                .        .",
"...................................."
};
