/* XPM */
static char *e04f28ba58f0469cfa285015e73b4295L3GQFu7C1IZmE3Zh[] = {
/* columns rows colors chars-per-pixel */
"36 36 5 1 ",
"  c gray10",
". c #333230",
"X c #565551",
"o c #6C6964",
"O c #ACACAC",
/* pixels */
"oooooooooO................O         ",
"oooooooooO................O         ",
"oooooooooO................O         ",
"oooooooooO................O         ",
"oooooooooO................O         ",
"oooooooooO................O         ",
"oooooooooO................O         ",
"oooooooooO................O         ",
"oooooooooO................O         ",
"OOOOOOOOOOOOOOOOOOOOOOOOOOOOOOOOOOOO",
"XXXXXXXXXXXXXXXXXO                 O",
"XXXXXXXXXXXXXXXXXO                 O",
"XXXXXXXXXXXXXXXXXO                 O",
"XXXXXXXXXXXXXXXXXO                 O",
"XXXXXXXXXXXXXXXXXO                 O",
"XXXXXXXXXXXXXXXXXO                 O",
"XXXXXXXXXXXXXXXXXO                 O",
"XXXXXXXXXXXXXXXXXO                 O",
"OOOOOOOOOOOOOOOOOOOOOOOOOOOOOOOOOOOO",
"........O..................O        ",
"........O..................O        ",
"........O..................O        ",
"........O..................O        ",
"........O..................O        ",
"........O..................O        ",
"........O..................O        ",
"........O..................O        ",
"OOOOOOOOOOOOOOOOOOOOOOOOOOOOOOOOOOOO",
"O                 O                 ",
"O                 O                 ",
"O                 O                 ",
"O                 O                 ",
"O                 O                 ",
"O                 O                 ",
"O                 O                 ",
"O                 O                 "
};
